<?xml version="1.0" encoding="UTF-8" standalone="no"?>
<!-- Generator: Adobe Illustrator 15.0.0, SVG Export Plug-In . SVG Version: 6.00 Build 0)  -->

<svg
   xmlns:dc="http://purl.org/dc/elements/1.1/"
   xmlns:cc="http://creativecommons.org/ns#"
   xmlns:rdf="http://www.w3.org/1999/02/22-rdf-syntax-ns#"
   xmlns:svg="http://www.w3.org/2000/svg"
   xmlns="http://www.w3.org/2000/svg"
   xmlns:sodipodi="http://sodipodi.sourceforge.net/DTD/sodipodi-0.dtd"
   xmlns:inkscape="http://www.inkscape.org/namespaces/inkscape"
   version="1.1"
   id="Layer_1"
   sodipodi:docname="RHQ-logomark.svg"
   inkscape:version="0.92.2 5c3e80d, 2017-08-06"
   x="0px"
   y="0px"
   width="39.700001"
   height="39.700001"
   viewBox="0 0 39.700001 39.7"
   enable-background="new 0 0 386.5 39.7"
   xml:space="preserve"><metadata
     id="metadata46"><rdf:RDF><cc:Work
         rdf:about=""><dc:format>image/svg+xml</dc:format><dc:type
           rdf:resource="http://purl.org/dc/dcmitype/StillImage" /><dc:title></dc:title></cc:Work></rdf:RDF></metadata><defs
     id="defs44" /><sodipodi:namedview
     id="namedview31"
     inkscape:window-width="1086"
     bordercolor="#666666"
     pagecolor="#ffffff"
     borderopacity="1"
     objecttolerance="10"
     gridtolerance="10"
     guidetolerance="10"
     inkscape:pageopacity="0"
     inkscape:pageshadow="2"
     inkscape:window-height="617"
     showgrid="false"
     inkscape:zoom="1.0570962"
     inkscape:cx="153.25"
     inkscape:cy="19.85"
     inkscape:window-x="112"
     inkscape:window-y="42"
     inkscape:window-maximized="0"
     inkscape:current-layer="Layer_1" /><g
     id="Layer_1-7"
     transform="matrix(0.39457959,0,0,0.39457959,-0.9176319,0.1048994)"><circle
       id="circle3828"
       cx="55.069"
       cy="50"
       r="50"
       style="fill:#d71e00" /><path
       id="path3830"
       inkscape:connector-curvature="0"
       d="m 90.429,14.641 c 19.529,19.529 19.529,51.19 0,70.718 -19.529,19.53 -51.192,19.53 -70.72,0 z"
       style="fill:#c21a00" /><polygon
       id="polygon3832"
       points="46.789,49.99 61.838,18.14 74.668,18.14 59.608,49.99 74.668,81.859 61.838,81.859 "
       style="fill:#ffffff" /><polygon
       id="polygon3834"
       points="68.258,31.7 76.898,49.99 68.258,68.291 74.668,81.859 89.718,49.99 74.668,18.14 "
       style="fill:#b7b7b7" /><polygon
       id="polygon3836"
       points="20.419,49.99 35.469,18.14 48.299,18.14 33.239,49.99 48.299,81.859 35.469,81.859 "
       style="fill:#ffffff" /><polygon
       id="polygon3838"
       points="55.069,32.47 48.299,18.14 41.879,31.71 48.659,46.04 "
       style="fill:#b7b7b7" /><polygon
       id="polygon3840"
       points="48.299,81.859 55.069,67.529 48.659,53.961 41.879,68.291 "
       style="fill:#b7b7b7" /></g></svg>