<svg width="198.7" xmlns="http://www.w3.org/2000/svg" height="34.6" viewBox="0 0 198.7 34.6" xmlns:xlink="http://www.w3.org/1999/xlink" enable-background="new 0 0 198.7 34.6">
<g fill="#999">
<path d="m45.7,26.5l-1.8-5.8h-8.8l-1.8,5.8h-5.5l8.5-24.3h6.3l8.6,24.3h-5.5zm-3-10.1c0,0-2.4-6.9-3.2-10.5-.9,3.5-3.1,10.5-3.1,10.5h6.3z"/>
<path d="m62.3,26.8c-1.1,0-2.1-.2-3.1-.7-.7-.4-1.6-1.6-2.3-1.7 .4,3.4 .3,10.2 .3,10.2h-5v-26.6h4.1l.7,2.4h.2c1.5-2.3 4.3-3.2 6.9-2.6 2.6,.6 4.2,2.9 4.9,5.4 1.3,5.1 .1,13.6-6.7,13.6zm-1.5-15.1c-3.2,0-3.7,2.9-3.6,5.5 0,1.7 .1,4.2 1.9,5.2 1.4,.7 3.3,.5 4.2-.8 1.8-2.6 1.8-9.9-2.5-9.9z"/>
<path d="m82,26.8c-1.1,0-2.1-.2-3.1-.7-.7-.4-1.6-1.6-2.3-1.7 .4,3.4 .3,10.2 .3,10.2h-5v-26.6h4.1l.7,2.4h.2c1.5-2.3 4.3-3.2 6.9-2.6 2.6,.6 4.2,2.9 4.9,5.4 1.3,5.1 .1,13.6-6.7,13.6zm-1.4-15.1c-3.2,0-3.7,2.9-3.6,5.5 0,1.7 .1,4.2 1.9,5.2 1.4,.7 3.3,.5 4.2-.8 1.7-2.6 1.7-9.9-2.5-9.9z"/>
<path d="m99.4,22.8c1.1,0 2.2-.3 3.2-.6 0,1.3 0,2.5 0,3.8-2.3,1.1-6.1,1.4-8.3-.1-1.8-1.2-2.1-3.6-2.1-5.6 0-2.8 0-8.5 0-8.5h-2.4v-2.1l2.7-1.7 1.5-3.9h3.2v3.9h5.2v3.8h-5.2v8.9c0,1.3 .9,2.1 2.2,2.1z"/>
<path d="m113,26.8c-4.1,0-7.9-1.9-9.1-6-1.1-3.9-.5-9.1 3-11.6 3.2-2.3 8.6-2.2 11.4,.7 2.3,2.4 2.2,5.6 2.2,8.6h-11.9c.2,6 7.1,4.9 10.9,3.1 0,1.3 0,2.6 0,3.9-2,1-4.2,1.3-6.5,1.3zm-.7-15.6c-2.3,0-3.4,1.8-3.6,3.9 2.4,0 4.7,0 7.1,0 0-2.1-1.2-3.9-3.5-3.9z"/>
<path d="m140.1,26.5h-5v-10.8c0-1.2-.1-2.7-1.2-3.5-1-.8-2.8-.7-3.9,0-1.9,1.1-1.9,3.9-1.9,5.8 0,2.8 0,8.5 0,8.5h-5v-18.5h3.9l.7,2.4h.3c1.9-3 6.9-3.6 9.8-1.6 2.2,1.5 2.5,4.1 2.5,6.5-.2,3.7-.2,11.2-.2,11.2z"/>
<path d="m151.4,22.8c1.1,0 2.2-.3 3.2-.6 0,1.3 0,2.5 0,3.8-2.3,1.1-6.1,1.4-8.3-.1-1.8-1.2-2.1-3.6-2.1-5.6 0-2.8 0-8.5 0-8.5h-2.4v-2.1l2.8-1.7 1.5-3.9h3.2v3.9h5.2v3.8h-5.2v8.9c-.1,1.3 .7,2.1 2.1,2.1z"/>
<path d="m156.4,3.2c0-3 4.9-3.5 5.4-.7 .7,3.9-5.4,4.4-5.4,.7zm5.2,23.3h-5v-18.5l5,.1v18.4z"/>
<path d="m169.6,26.3l-7-18.3h5.3l3.6,10.5 .8,3.8 .8-3.8 3.5-10.5h5.3l-7,18.3h-5.3z"/>
<path d="m191.2,26.8c-4.1,0-7.9-1.9-9.1-6-1.1-3.9-.5-9.1 3-11.6 3.2-2.3 8.6-2.2 11.4,.7 2.3,2.4 2.2,5.6 2.2,8.6h-11.9c.2,6 7.1,4.9 10.9,3.1 0,1.3 0,2.6 0,3.9-2,1-4.3,1.3-6.5,1.3zm-.7-15.6c-2.3,0-3.4,1.8-3.6,3.9 2.4,0 4.7,0 7.1,0 0-2.1-1.2-3.9-3.5-3.9z"/>
</g>
<path fill="#df2637" fill-rule="evenodd" d="m24.3,10.6l-5.6,15.6-14.9-5.4c-1.5-.7-2.5-1.8-3.2-3.4-.8-1.7-.8-3.5-.1-5.4 .7-1.9 1.9-3.3 3.6-4.1 1.6-.8 3.2-1.1 5-.7 5.4,1.5 7.5,4.1 6.4,8-1.8-2.5-3.8-4-6.2-4.5-2.4-.6-4,.2-4.8,2.5-.8,2.2-.3,3.8 1.4,4.5l10.7,3.9 4.3-11.9c.3-1 .2-2-.4-3-.6-1.1-1.5-1.9-2.8-2.3-1.3-.5-2.6-.5-3.7,0-1,.4-1.6,1-1.9,1.7l-3.8-1.3c.8-1.9 2.2-3.2 4.2-4.1 2-.9 4.1-1 6.3-.1 2,.7 3.6,2.2 4.8,4.4 1.1,2.2 1.2,4 .7,5.6z"/>
</svg>
