<?xml version="1.0" encoding="utf-8"?>
<!-- Generator: Adobe Illustrator 17.0.0, SVG Export Plug-In . SVG Version: 6.00 Build 0)  -->
<!DOCTYPE svg PUBLIC "-//W3C//DTD SVG 1.1//EN" "http://www.w3.org/Graphics/SVG/1.1/DTD/svg11.dtd">
<svg version="1.1" xmlns="http://www.w3.org/2000/svg" xmlns:xlink="http://www.w3.org/1999/xlink" x="0px" y="0px"
	 width="306.012px" height="113.333px" viewBox="0 0 306.012 113.333" enable-background="new 0 0 306.012 113.333"
	 xml:space="preserve">
<g id="Layer_1">
	<line fill="none" stroke="#D8D8D8" stroke-width="0.5" stroke-miterlimit="10" x1="132.523" y1="59.667" x2="169.962" y2="33.3"/>
	
		<line fill="none" stroke="#D8D8D8" stroke-width="0.5" stroke-miterlimit="10" x1="132.523" y1="79.015" x2="169.962" y2="105.109"/>
	<path fill="#F5F5F5" stroke="#B6B7B6" stroke-miterlimit="10" d="M131.208,101.051H10.363c-0.791,0-1.433-0.641-1.433-1.433V89.136
		c0-0.791,0.641-1.433,1.433-1.433h120.844c0.791,0,1.433,0.641,1.433,1.433v10.482C132.64,100.41,131.999,101.051,131.208,101.051z
		"/>
	<g>
		<g>
			<path fill="none" stroke="#64C2E5" stroke-width="0.75" stroke-miterlimit="10" d="M26.771,55.17V43.549
				c0-1.161,0.941-2.101,2.101-2.101h34.016c2.292,0,4.15-1.858,4.15-4.15V23.859"/>
			<g>
				<path fill="#64C2E5" d="M29.831,50.813c-0.148-0.095-0.346-0.051-0.44,0.098l-2.62,4.114l-2.62-4.114
					c-0.095-0.148-0.292-0.192-0.44-0.098c-0.148,0.095-0.191,0.293-0.098,0.44l2.889,4.536c0.059,0.092,0.16,0.148,0.269,0.148
					s0.21-0.056,0.269-0.148l2.889-4.536c0.034-0.053,0.05-0.112,0.05-0.171C29.979,50.977,29.926,50.874,29.831,50.813z"/>
			</g>
		</g>
	</g>
	<g>
		<g>
			<path fill="none" stroke="#64C2E5" stroke-width="0.75" stroke-miterlimit="10" d="M117.039,55.17V43.549
				c0-1.161-0.941-2.101-2.101-2.101H79.922c-2.292,0-4.15-1.858-4.15-4.15V23.859"/>
			<g>
				<path fill="#64C2E5" d="M120.099,50.813c-0.148-0.095-0.346-0.051-0.44,0.098l-2.62,4.114l-2.62-4.114
					c-0.095-0.148-0.292-0.192-0.44-0.098s-0.191,0.293-0.098,0.44l2.889,4.536c0.059,0.092,0.16,0.148,0.269,0.148
					s0.21-0.056,0.269-0.148l2.889-4.536c0.034-0.053,0.05-0.112,0.05-0.171C120.246,50.977,120.194,50.874,120.099,50.813z"/>
			</g>
		</g>
	</g>
	<g>
		<g>
			
				<line fill="none" stroke="#64C2E5" stroke-width="0.75" stroke-miterlimit="10" x1="71.296" y1="23.883" x2="71.296" y2="55.17"/>
			<g>
				<path fill="#64C2E5" d="M68.236,50.813c0.148-0.095,0.346-0.051,0.44,0.098l2.62,4.114l2.62-4.114
					c0.095-0.148,0.292-0.192,0.44-0.098s0.191,0.293,0.098,0.44l-2.889,4.536c-0.059,0.092-0.16,0.148-0.269,0.148
					s-0.21-0.056-0.269-0.148l-2.889-4.536c-0.034-0.053-0.05-0.112-0.05-0.171C68.089,50.977,68.141,50.874,68.236,50.813z"/>
			</g>
		</g>
	</g>
	<path fill="#EDF6FB" stroke="#64C2E5" stroke-miterlimit="10" d="M41.194,79.051H10.349c-0.791,0-1.433-0.641-1.433-1.433V61.136
		c0-0.791,0.641-1.433,1.433-1.433h30.844c0.791,0,1.433,0.641,1.433,1.433v16.482C42.626,78.41,41.985,79.051,41.194,79.051z"/>
	<g>
		<path fill="#449FD8" d="M23.069,68.176c-0.065,0.03-0.149,0.055-0.252,0.074c-0.103,0.019-0.22,0.028-0.35,0.028
			c-0.375,0-0.688-0.088-0.94-0.264c-0.252-0.176-0.439-0.4-0.562-0.676c-0.203-0.034-0.386-0.104-0.55-0.209
			c-0.165-0.105-0.306-0.24-0.424-0.404c-0.118-0.164-0.209-0.357-0.272-0.579s-0.095-0.468-0.095-0.739
			c0-0.302,0.04-0.572,0.121-0.811c0.08-0.239,0.193-0.44,0.338-0.604c0.145-0.165,0.319-0.291,0.521-0.379s0.426-0.132,0.67-0.132
			c0.245,0,0.468,0.044,0.671,0.132c0.202,0.088,0.377,0.214,0.524,0.379c0.147,0.164,0.261,0.365,0.341,0.604
			c0.08,0.238,0.121,0.509,0.121,0.811c0,0.26-0.03,0.498-0.089,0.714c-0.06,0.216-0.145,0.406-0.255,0.57s-0.244,0.3-0.398,0.406
			c-0.155,0.107-0.328,0.182-0.519,0.224c0.088,0.149,0.209,0.256,0.364,0.321c0.155,0.064,0.324,0.098,0.507,0.098
			c0.084,0,0.16-0.006,0.227-0.018s0.127-0.026,0.181-0.046L23.069,68.176z M20.307,65.408c0,0.218,0.023,0.415,0.069,0.591
			s0.111,0.324,0.195,0.446c0.084,0.123,0.185,0.216,0.304,0.281c0.118,0.064,0.252,0.098,0.401,0.098
			c0.149,0,0.283-0.033,0.401-0.098c0.119-0.065,0.22-0.158,0.304-0.281c0.084-0.122,0.149-0.271,0.195-0.446
			s0.069-0.373,0.069-0.591c0-0.42-0.087-0.75-0.261-0.988c-0.174-0.239-0.41-0.358-0.708-0.358c-0.298,0-0.534,0.119-0.708,0.358
			C20.394,64.658,20.307,64.988,20.307,65.408z"/>
		<path fill="#449FD8" d="M23.596,64.485h0.659v1.68c0,0.232,0.034,0.397,0.103,0.492c0.069,0.096,0.18,0.144,0.333,0.144
			c0.122,0,0.23-0.03,0.324-0.092c0.094-0.061,0.194-0.16,0.301-0.298v-1.926h0.659v2.814h-0.539l-0.052-0.413h-0.017
			c-0.123,0.146-0.255,0.262-0.398,0.35c-0.143,0.088-0.312,0.132-0.507,0.132c-0.302,0-0.521-0.097-0.659-0.289
			c-0.138-0.193-0.207-0.469-0.207-0.828V64.485z"/>
		<path fill="#449FD8" d="M26.691,66.543c0-0.302,0.132-0.535,0.396-0.699s0.684-0.278,1.261-0.344c0-0.072-0.009-0.143-0.028-0.209
			c-0.02-0.067-0.049-0.126-0.089-0.178s-0.092-0.092-0.155-0.12c-0.063-0.029-0.143-0.043-0.238-0.043
			c-0.142,0-0.278,0.026-0.41,0.08s-0.259,0.118-0.381,0.194l-0.241-0.441c0.157-0.099,0.332-0.185,0.524-0.258
			c0.193-0.072,0.402-0.108,0.627-0.108c0.355,0,0.619,0.104,0.791,0.312c0.172,0.208,0.258,0.509,0.258,0.902v1.668h-0.539
			l-0.052-0.31h-0.017c-0.126,0.106-0.261,0.196-0.404,0.27c-0.144,0.072-0.299,0.108-0.467,0.108c-0.249,0-0.45-0.075-0.604-0.227
			C26.769,66.991,26.691,66.791,26.691,66.543z M27.333,66.491c0,0.126,0.037,0.218,0.112,0.275c0.074,0.058,0.171,0.086,0.29,0.086
			c0.114,0,0.219-0.026,0.315-0.08s0.195-0.13,0.298-0.229v-0.63c-0.191,0.022-0.352,0.053-0.481,0.091
			c-0.13,0.039-0.234,0.082-0.312,0.129c-0.079,0.048-0.135,0.103-0.169,0.164C27.35,66.357,27.333,66.423,27.333,66.491z"/>
		<path fill="#449FD8" d="M29.846,67.91c0.036,0.009,0.072,0.014,0.106,0.014c0.149,0,0.269-0.045,0.358-0.134
			c0.09-0.09,0.158-0.206,0.204-0.348l0.051-0.177l-1.106-2.78h0.67l0.487,1.382c0.042,0.122,0.083,0.251,0.123,0.387
			s0.081,0.271,0.123,0.403h0.023c0.035-0.129,0.07-0.262,0.106-0.397c0.036-0.136,0.071-0.267,0.106-0.393l0.424-1.382h0.636
			l-1.02,2.94c-0.058,0.16-0.121,0.304-0.189,0.43c-0.069,0.126-0.148,0.234-0.238,0.324c-0.09,0.089-0.193,0.158-0.309,0.206
			c-0.117,0.048-0.251,0.071-0.404,0.071c-0.076,0-0.143-0.005-0.201-0.014c-0.057-0.01-0.113-0.024-0.166-0.043l0.12-0.517
			C29.778,67.891,29.81,67.9,29.846,67.91z"/>
		<path fill="#449FD8" d="M13.791,70.539h2.167v0.401h-1.69v1.181h1.427v0.407h-1.427v1.363h1.748v0.407h-2.224V70.539z"/>
		<path fill="#449FD8" d="M16.627,73.577c0-0.306,0.136-0.54,0.41-0.702c0.273-0.163,0.708-0.276,1.304-0.342
			c0-0.087-0.008-0.174-0.026-0.258c-0.017-0.084-0.048-0.158-0.091-0.224c-0.044-0.064-0.103-0.117-0.175-0.157
			c-0.073-0.04-0.167-0.061-0.281-0.061c-0.164,0-0.316,0.031-0.456,0.092c-0.139,0.062-0.265,0.13-0.375,0.207l-0.189-0.327
			c0.13-0.084,0.289-0.165,0.476-0.243c0.188-0.078,0.394-0.118,0.619-0.118c0.34,0,0.586,0.104,0.739,0.312
			c0.153,0.209,0.229,0.486,0.229,0.834v1.708h-0.39l-0.041-0.332H18.37c-0.134,0.11-0.278,0.205-0.433,0.283
			s-0.318,0.117-0.49,0.117c-0.237,0-0.433-0.068-0.587-0.206S16.627,73.829,16.627,73.577z M17.091,73.542
			c0,0.161,0.047,0.275,0.141,0.344c0.094,0.069,0.209,0.104,0.347,0.104c0.134,0,0.261-0.031,0.381-0.095
			c0.12-0.062,0.247-0.155,0.381-0.277v-0.774c-0.233,0.031-0.43,0.067-0.59,0.109c-0.16,0.042-0.289,0.092-0.387,0.148
			c-0.098,0.058-0.167,0.124-0.209,0.198C17.112,73.373,17.091,73.454,17.091,73.542z"/>
		<path fill="#449FD8" d="M19.625,73.668c0.122,0.1,0.247,0.18,0.375,0.241c0.128,0.062,0.276,0.092,0.444,0.092
			c0.184,0,0.321-0.042,0.413-0.126c0.092-0.084,0.138-0.188,0.138-0.31c0-0.072-0.019-0.136-0.057-0.189
			c-0.039-0.054-0.087-0.101-0.146-0.141c-0.059-0.04-0.127-0.075-0.203-0.105c-0.077-0.03-0.153-0.062-0.229-0.092
			c-0.099-0.034-0.199-0.073-0.298-0.117c-0.1-0.044-0.188-0.098-0.267-0.161c-0.078-0.062-0.142-0.137-0.192-0.221
			s-0.075-0.185-0.075-0.304c0-0.11,0.022-0.215,0.066-0.312c0.044-0.097,0.107-0.181,0.189-0.252
			c0.082-0.07,0.182-0.126,0.301-0.166c0.118-0.04,0.252-0.061,0.401-0.061c0.176,0,0.337,0.031,0.484,0.092
			c0.147,0.062,0.274,0.136,0.381,0.224l-0.224,0.298c-0.096-0.072-0.195-0.132-0.298-0.178c-0.104-0.046-0.216-0.068-0.338-0.068
			c-0.176,0-0.305,0.04-0.387,0.12s-0.123,0.174-0.123,0.281c0,0.064,0.017,0.121,0.051,0.169c0.035,0.048,0.081,0.09,0.138,0.126
			s0.123,0.068,0.198,0.098c0.074,0.028,0.152,0.059,0.232,0.089c0.1,0.038,0.2,0.078,0.301,0.12
			c0.102,0.042,0.192,0.095,0.272,0.157c0.08,0.063,0.146,0.141,0.198,0.232c0.051,0.092,0.077,0.203,0.077,0.332
			c0,0.115-0.022,0.222-0.066,0.321s-0.109,0.188-0.195,0.264s-0.193,0.137-0.321,0.181s-0.274,0.065-0.438,0.065
			c-0.199,0-0.388-0.036-0.567-0.108s-0.336-0.164-0.47-0.275L19.625,73.668z"/>
		<path fill="#449FD8" d="M22.181,71.897h-0.413v-0.355l0.436-0.028l0.057-0.779h0.396v0.779h0.751v0.384h-0.751v1.548
			c0,0.172,0.032,0.305,0.095,0.397c0.063,0.094,0.175,0.141,0.335,0.141c0.05,0,0.104-0.008,0.161-0.022
			c0.057-0.016,0.109-0.032,0.155-0.052l0.092,0.355c-0.077,0.026-0.16,0.051-0.25,0.071c-0.09,0.021-0.179,0.031-0.267,0.031
			c-0.149,0-0.274-0.022-0.375-0.068c-0.101-0.046-0.183-0.109-0.246-0.189s-0.108-0.178-0.135-0.292s-0.04-0.24-0.04-0.378V71.897z
			"/>
		<path fill="#449FD8" d="M25.023,72.419c0-0.302,0.042-0.573,0.126-0.813c0.084-0.241,0.2-0.445,0.35-0.613
			c0.149-0.168,0.326-0.297,0.53-0.387c0.205-0.09,0.427-0.135,0.668-0.135c0.229,0,0.43,0.047,0.602,0.141
			c0.172,0.093,0.313,0.201,0.424,0.323l-0.27,0.304c-0.1-0.106-0.209-0.191-0.33-0.255c-0.12-0.063-0.261-0.095-0.421-0.095
			c-0.18,0-0.342,0.035-0.487,0.106c-0.146,0.07-0.27,0.172-0.373,0.304c-0.104,0.132-0.184,0.291-0.241,0.479
			c-0.058,0.188-0.086,0.397-0.086,0.63c0,0.237,0.027,0.45,0.083,0.64c0.055,0.188,0.133,0.351,0.232,0.484
			c0.1,0.134,0.221,0.236,0.364,0.31c0.143,0.072,0.305,0.108,0.484,0.108c0.184,0,0.343-0.036,0.479-0.108
			c0.136-0.073,0.265-0.176,0.387-0.31l0.269,0.292c-0.149,0.172-0.317,0.306-0.504,0.401c-0.188,0.095-0.401,0.143-0.642,0.143
			c-0.237,0-0.456-0.044-0.656-0.132s-0.375-0.215-0.521-0.381s-0.262-0.37-0.344-0.613C25.064,72.999,25.023,72.724,25.023,72.419z
			"/>
		<path fill="#449FD8" d="M28.262,72.912c0-0.233,0.035-0.44,0.106-0.622s0.165-0.335,0.284-0.461
			c0.118-0.126,0.255-0.222,0.41-0.287c0.155-0.064,0.318-0.098,0.49-0.098s0.335,0.033,0.49,0.098
			c0.155,0.065,0.292,0.161,0.41,0.287c0.118,0.126,0.213,0.279,0.284,0.461c0.07,0.182,0.106,0.389,0.106,0.622
			c0,0.229-0.036,0.435-0.106,0.616c-0.071,0.182-0.166,0.334-0.284,0.458c-0.119,0.124-0.255,0.219-0.41,0.284
			c-0.155,0.064-0.318,0.097-0.49,0.097s-0.335-0.032-0.49-0.097c-0.155-0.065-0.292-0.16-0.41-0.284
			c-0.119-0.124-0.213-0.276-0.284-0.458S28.262,73.141,28.262,72.912z M28.749,72.912c0,0.16,0.019,0.306,0.057,0.436
			s0.093,0.241,0.163,0.335c0.071,0.094,0.156,0.166,0.255,0.218c0.099,0.052,0.208,0.077,0.327,0.077
			c0.118,0,0.227-0.025,0.327-0.077c0.099-0.052,0.184-0.124,0.255-0.218s0.125-0.205,0.164-0.335
			c0.038-0.13,0.057-0.275,0.057-0.436c0-0.161-0.019-0.307-0.057-0.438c-0.039-0.132-0.093-0.245-0.164-0.341
			s-0.156-0.169-0.255-0.221c-0.1-0.052-0.208-0.078-0.327-0.078c-0.119,0-0.228,0.026-0.327,0.078
			c-0.1,0.052-0.185,0.125-0.255,0.221c-0.07,0.096-0.125,0.209-0.163,0.341S28.749,72.751,28.749,72.912z"/>
		<path fill="#449FD8" d="M31.356,73.577c0-0.306,0.136-0.54,0.41-0.702c0.273-0.163,0.708-0.276,1.304-0.342
			c0-0.087-0.008-0.174-0.026-0.258c-0.017-0.084-0.048-0.158-0.091-0.224c-0.044-0.064-0.103-0.117-0.175-0.157
			c-0.073-0.04-0.167-0.061-0.281-0.061c-0.164,0-0.316,0.031-0.456,0.092c-0.139,0.062-0.265,0.13-0.375,0.207l-0.189-0.327
			c0.13-0.084,0.289-0.165,0.476-0.243c0.188-0.078,0.394-0.118,0.619-0.118c0.34,0,0.586,0.104,0.739,0.312
			c0.153,0.209,0.229,0.486,0.229,0.834v1.708h-0.39l-0.041-0.332h-0.011c-0.134,0.11-0.278,0.205-0.433,0.283
			s-0.318,0.117-0.49,0.117c-0.237,0-0.433-0.068-0.587-0.206S31.356,73.829,31.356,73.577z M31.82,73.542
			c0,0.161,0.047,0.275,0.141,0.344c0.094,0.069,0.209,0.104,0.347,0.104c0.134,0,0.261-0.031,0.381-0.095
			c0.12-0.062,0.247-0.155,0.381-0.277v-0.774c-0.233,0.031-0.43,0.067-0.59,0.109c-0.16,0.042-0.289,0.092-0.387,0.148
			c-0.098,0.058-0.167,0.124-0.209,0.198C31.841,73.373,31.82,73.454,31.82,73.542z"/>
		<path fill="#449FD8" d="M34.354,73.668c0.122,0.1,0.247,0.18,0.375,0.241c0.128,0.062,0.276,0.092,0.444,0.092
			c0.184,0,0.321-0.042,0.413-0.126c0.092-0.084,0.138-0.188,0.138-0.31c0-0.072-0.019-0.136-0.057-0.189
			c-0.039-0.054-0.087-0.101-0.146-0.141c-0.059-0.04-0.127-0.075-0.203-0.105c-0.077-0.03-0.153-0.062-0.229-0.092
			c-0.099-0.034-0.199-0.073-0.298-0.117c-0.1-0.044-0.188-0.098-0.267-0.161c-0.078-0.062-0.142-0.137-0.192-0.221
			s-0.075-0.185-0.075-0.304c0-0.11,0.022-0.215,0.066-0.312c0.044-0.097,0.107-0.181,0.189-0.252
			c0.082-0.07,0.182-0.126,0.301-0.166c0.118-0.04,0.252-0.061,0.401-0.061c0.176,0,0.337,0.031,0.484,0.092
			c0.147,0.062,0.274,0.136,0.381,0.224l-0.224,0.298c-0.096-0.072-0.195-0.132-0.298-0.178c-0.104-0.046-0.216-0.068-0.338-0.068
			c-0.176,0-0.305,0.04-0.387,0.12s-0.123,0.174-0.123,0.281c0,0.064,0.017,0.121,0.051,0.169c0.035,0.048,0.081,0.09,0.138,0.126
			s0.123,0.068,0.198,0.098c0.074,0.028,0.152,0.059,0.232,0.089c0.1,0.038,0.2,0.078,0.301,0.12
			c0.102,0.042,0.192,0.095,0.272,0.157c0.08,0.063,0.146,0.141,0.198,0.232c0.051,0.092,0.077,0.203,0.077,0.332
			c0,0.115-0.022,0.222-0.066,0.321s-0.109,0.188-0.195,0.264s-0.193,0.137-0.321,0.181s-0.274,0.065-0.438,0.065
			c-0.199,0-0.388-0.036-0.567-0.108s-0.336-0.164-0.47-0.275L34.354,73.668z"/>
		<path fill="#449FD8" d="M36.91,71.897h-0.413v-0.355l0.436-0.028l0.057-0.779h0.396v0.779h0.751v0.384h-0.751v1.548
			c0,0.172,0.032,0.305,0.095,0.397c0.063,0.094,0.175,0.141,0.335,0.141c0.05,0,0.104-0.008,0.161-0.022
			c0.057-0.016,0.109-0.032,0.155-0.052l0.092,0.355c-0.077,0.026-0.16,0.051-0.25,0.071c-0.09,0.021-0.179,0.031-0.267,0.031
			c-0.149,0-0.274-0.022-0.375-0.068c-0.101-0.046-0.183-0.109-0.246-0.189s-0.108-0.178-0.135-0.292s-0.04-0.24-0.04-0.378V71.897z
			"/>
	</g>
	<path fill="#EDF6FB" stroke="#64C2E5" stroke-miterlimit="10" d="M86.194,79.051H55.349c-0.791,0-1.433-0.641-1.433-1.433V61.136
		c0-0.791,0.641-1.433,1.433-1.433h30.844c0.791,0,1.433,0.641,1.433,1.433v16.482C87.626,78.41,86.985,79.051,86.194,79.051z"/>
	<g>
		<path fill="#449FD8" d="M68.069,68.176c-0.065,0.03-0.149,0.056-0.252,0.074c-0.103,0.02-0.22,0.029-0.35,0.029
			c-0.375,0-0.688-0.088-0.94-0.264c-0.252-0.176-0.439-0.401-0.562-0.677c-0.203-0.034-0.386-0.104-0.55-0.209
			c-0.165-0.104-0.306-0.239-0.424-0.404c-0.118-0.164-0.209-0.356-0.272-0.578s-0.095-0.469-0.095-0.739
			c0-0.302,0.04-0.572,0.121-0.812c0.08-0.238,0.193-0.44,0.338-0.604c0.145-0.164,0.319-0.29,0.521-0.378s0.426-0.132,0.67-0.132
			c0.245,0,0.468,0.044,0.671,0.132c0.202,0.088,0.377,0.214,0.524,0.378c0.147,0.164,0.261,0.366,0.341,0.604
			c0.08,0.239,0.121,0.51,0.121,0.812c0,0.26-0.03,0.497-0.089,0.713c-0.06,0.216-0.145,0.406-0.255,0.57s-0.244,0.3-0.398,0.407
			c-0.155,0.106-0.328,0.182-0.519,0.224c0.088,0.148,0.209,0.256,0.364,0.32c0.155,0.065,0.324,0.098,0.507,0.098
			c0.084,0,0.16-0.006,0.227-0.017c0.067-0.012,0.127-0.027,0.181-0.046L68.069,68.176z M65.307,65.409
			c0,0.218,0.023,0.414,0.069,0.59s0.111,0.325,0.195,0.447s0.185,0.216,0.304,0.28c0.118,0.065,0.252,0.098,0.401,0.098
			c0.149,0,0.283-0.032,0.401-0.098c0.119-0.064,0.22-0.158,0.304-0.28s0.149-0.271,0.195-0.447s0.069-0.372,0.069-0.59
			c0-0.421-0.087-0.75-0.261-0.989c-0.174-0.238-0.41-0.358-0.708-0.358c-0.298,0-0.534,0.12-0.708,0.358
			C65.394,64.659,65.307,64.988,65.307,65.409z"/>
		<path fill="#449FD8" d="M68.596,64.486h0.659v1.679c0,0.233,0.034,0.397,0.103,0.493s0.18,0.144,0.333,0.144
			c0.122,0,0.23-0.031,0.324-0.092c0.094-0.062,0.194-0.161,0.301-0.298v-1.926h0.659v2.813h-0.539l-0.052-0.412h-0.017
			c-0.123,0.145-0.255,0.262-0.398,0.35c-0.143,0.088-0.312,0.132-0.507,0.132c-0.302,0-0.521-0.097-0.659-0.29
			c-0.138-0.192-0.207-0.469-0.207-0.828V64.486z"/>
		<path fill="#449FD8" d="M71.691,66.544c0-0.302,0.132-0.535,0.396-0.699c0.264-0.165,0.684-0.279,1.261-0.344
			c0-0.073-0.009-0.143-0.028-0.21c-0.02-0.066-0.049-0.126-0.089-0.178c-0.04-0.051-0.092-0.092-0.155-0.12
			s-0.143-0.043-0.238-0.043c-0.142,0-0.278,0.027-0.41,0.08c-0.132,0.054-0.259,0.119-0.381,0.195l-0.241-0.441
			c0.157-0.1,0.332-0.186,0.524-0.258s0.402-0.109,0.627-0.109c0.355,0,0.619,0.104,0.791,0.312s0.258,0.51,0.258,0.902v1.668
			h-0.539l-0.052-0.31h-0.017c-0.126,0.107-0.261,0.197-0.404,0.27c-0.144,0.072-0.299,0.109-0.467,0.109
			c-0.249,0-0.45-0.076-0.604-0.227C71.769,66.991,71.691,66.792,71.691,66.544z M72.333,66.492c0,0.126,0.037,0.218,0.112,0.274
			c0.074,0.058,0.171,0.086,0.29,0.086c0.114,0,0.219-0.026,0.315-0.08c0.096-0.053,0.195-0.13,0.298-0.229v-0.631
			c-0.191,0.023-0.352,0.054-0.481,0.092s-0.234,0.081-0.312,0.129c-0.079,0.048-0.135,0.103-0.169,0.163
			C72.35,66.358,72.333,66.423,72.333,66.492z"/>
		<path fill="#449FD8" d="M74.846,67.91c0.036,0.01,0.072,0.015,0.106,0.015c0.149,0,0.269-0.045,0.358-0.135
			s0.158-0.205,0.204-0.347l0.051-0.178l-1.106-2.779h0.67l0.487,1.381c0.042,0.122,0.083,0.251,0.123,0.387
			s0.081,0.271,0.123,0.404h0.023c0.035-0.13,0.07-0.263,0.106-0.398c0.036-0.136,0.071-0.267,0.106-0.393l0.424-1.381h0.636
			l-1.02,2.939c-0.058,0.161-0.121,0.304-0.189,0.431c-0.069,0.126-0.148,0.233-0.238,0.323s-0.193,0.158-0.309,0.206
			c-0.117,0.048-0.251,0.072-0.404,0.072c-0.076,0-0.143-0.005-0.201-0.015c-0.057-0.01-0.113-0.023-0.166-0.043l0.12-0.516
			C74.778,67.892,74.81,67.9,74.846,67.91z"/>
		<path fill="#449FD8" d="M57.71,70.54h0.493l0.396,2.046c0.035,0.207,0.071,0.409,0.109,0.607c0.038,0.199,0.075,0.401,0.109,0.607
			h0.023c0.042-0.206,0.086-0.409,0.132-0.61c0.046-0.2,0.09-0.401,0.132-0.604l0.521-2.046h0.436l0.521,2.046
			c0.046,0.199,0.092,0.399,0.138,0.602c0.046,0.203,0.092,0.407,0.138,0.613h0.023c0.034-0.206,0.069-0.409,0.103-0.61
			c0.034-0.2,0.071-0.401,0.109-0.604l0.396-2.046h0.458l-0.779,3.76h-0.573l-0.567-2.264c-0.035-0.146-0.066-0.287-0.095-0.427
			s-0.058-0.282-0.089-0.428h-0.023c-0.03,0.146-0.062,0.288-0.094,0.428c-0.033,0.14-0.064,0.281-0.095,0.427l-0.556,2.264h-0.567
			L57.71,70.54z"/>
		<path fill="#449FD8" d="M62.347,72.913c0-0.229,0.035-0.435,0.106-0.616s0.164-0.335,0.281-0.462
			c0.117-0.126,0.25-0.222,0.398-0.289c0.149-0.066,0.304-0.101,0.464-0.101c0.175,0,0.333,0.031,0.473,0.092
			c0.14,0.062,0.256,0.149,0.35,0.264c0.094,0.115,0.165,0.252,0.215,0.413c0.05,0.16,0.075,0.34,0.075,0.538
			c0,0.104-0.006,0.189-0.018,0.259h-1.879c0.019,0.302,0.112,0.54,0.278,0.716s0.383,0.264,0.65,0.264
			c0.134,0,0.257-0.02,0.37-0.061c0.113-0.04,0.221-0.092,0.324-0.157l0.167,0.31c-0.123,0.076-0.258,0.144-0.407,0.2
			c-0.149,0.058-0.319,0.086-0.51,0.086c-0.188,0-0.362-0.033-0.524-0.1c-0.163-0.067-0.304-0.163-0.424-0.287
			c-0.12-0.124-0.215-0.275-0.284-0.455S62.347,73.142,62.347,72.913z M64.295,72.701c0-0.287-0.061-0.506-0.181-0.656
			c-0.121-0.151-0.29-0.227-0.507-0.227c-0.099,0-0.194,0.02-0.284,0.061c-0.09,0.04-0.171,0.097-0.244,0.172
			c-0.072,0.074-0.133,0.166-0.18,0.274c-0.048,0.109-0.08,0.234-0.095,0.376H64.295z"/>
		<path fill="#449FD8" d="M65.321,73.669c0.122,0.1,0.247,0.18,0.375,0.241c0.128,0.062,0.276,0.092,0.444,0.092
			c0.184,0,0.321-0.042,0.413-0.126c0.092-0.084,0.138-0.188,0.138-0.31c0-0.072-0.019-0.136-0.057-0.189
			c-0.039-0.054-0.087-0.101-0.146-0.141c-0.059-0.04-0.127-0.075-0.203-0.105c-0.077-0.03-0.153-0.062-0.229-0.092
			c-0.099-0.034-0.199-0.073-0.298-0.117c-0.1-0.044-0.188-0.098-0.267-0.161c-0.078-0.062-0.142-0.137-0.192-0.221
			s-0.075-0.185-0.075-0.304c0-0.11,0.022-0.215,0.066-0.312c0.044-0.097,0.107-0.181,0.189-0.252
			c0.082-0.07,0.182-0.126,0.301-0.166c0.118-0.04,0.252-0.061,0.401-0.061c0.176,0,0.337,0.031,0.484,0.092
			c0.147,0.062,0.274,0.136,0.381,0.224l-0.224,0.298c-0.096-0.072-0.195-0.132-0.298-0.178c-0.104-0.046-0.216-0.068-0.338-0.068
			c-0.176,0-0.305,0.04-0.387,0.12s-0.123,0.174-0.123,0.281c0,0.064,0.017,0.121,0.051,0.169c0.035,0.048,0.081,0.09,0.138,0.126
			s0.123,0.068,0.198,0.098c0.074,0.028,0.152,0.059,0.232,0.089c0.1,0.038,0.2,0.078,0.301,0.12
			c0.102,0.042,0.192,0.095,0.272,0.157c0.08,0.063,0.146,0.141,0.198,0.232c0.051,0.092,0.077,0.203,0.077,0.332
			c0,0.115-0.022,0.222-0.066,0.321s-0.109,0.188-0.195,0.264s-0.193,0.137-0.321,0.181s-0.274,0.065-0.438,0.065
			c-0.199,0-0.388-0.036-0.567-0.108s-0.336-0.164-0.47-0.275L65.321,73.669z"/>
		<path fill="#449FD8" d="M67.877,71.898h-0.413v-0.355l0.436-0.028l0.057-0.779h0.396v0.779h0.751v0.384h-0.751v1.548
			c0,0.172,0.032,0.305,0.095,0.397c0.063,0.094,0.175,0.141,0.335,0.141c0.05,0,0.104-0.008,0.161-0.022
			c0.057-0.016,0.109-0.032,0.155-0.052l0.092,0.355c-0.077,0.026-0.16,0.051-0.25,0.071c-0.09,0.021-0.179,0.031-0.267,0.031
			c-0.149,0-0.274-0.022-0.375-0.068c-0.101-0.046-0.183-0.109-0.246-0.189s-0.108-0.178-0.135-0.292s-0.04-0.24-0.04-0.378V71.898z
			"/>
		<path fill="#449FD8" d="M70.72,72.42c0-0.302,0.042-0.573,0.126-0.813c0.084-0.241,0.2-0.445,0.35-0.613
			c0.149-0.168,0.326-0.297,0.53-0.387c0.205-0.09,0.427-0.135,0.668-0.135c0.229,0,0.43,0.047,0.602,0.141
			c0.172,0.093,0.313,0.201,0.424,0.323l-0.27,0.304c-0.1-0.106-0.209-0.191-0.33-0.255c-0.12-0.063-0.261-0.095-0.421-0.095
			c-0.18,0-0.342,0.035-0.487,0.106c-0.146,0.07-0.27,0.172-0.373,0.304c-0.104,0.132-0.184,0.291-0.241,0.479
			c-0.058,0.188-0.086,0.397-0.086,0.63c0,0.237,0.027,0.45,0.083,0.64c0.055,0.188,0.133,0.351,0.232,0.484
			c0.1,0.134,0.221,0.236,0.364,0.31c0.143,0.072,0.305,0.108,0.484,0.108c0.184,0,0.343-0.036,0.479-0.108
			c0.136-0.073,0.265-0.176,0.387-0.31l0.269,0.292c-0.149,0.172-0.317,0.306-0.504,0.401c-0.188,0.095-0.401,0.143-0.642,0.143
			c-0.237,0-0.456-0.044-0.656-0.132s-0.375-0.215-0.521-0.381s-0.262-0.37-0.344-0.613C70.761,73,70.72,72.725,70.72,72.42z"/>
		<path fill="#449FD8" d="M73.958,72.913c0-0.233,0.035-0.44,0.106-0.622s0.165-0.335,0.284-0.461
			c0.118-0.126,0.255-0.222,0.41-0.287c0.155-0.064,0.318-0.098,0.49-0.098s0.335,0.033,0.49,0.098
			c0.155,0.065,0.292,0.161,0.41,0.287c0.118,0.126,0.213,0.279,0.284,0.461c0.07,0.182,0.106,0.389,0.106,0.622
			c0,0.229-0.036,0.435-0.106,0.616c-0.071,0.182-0.166,0.334-0.284,0.458c-0.119,0.124-0.255,0.219-0.41,0.284
			c-0.155,0.064-0.318,0.097-0.49,0.097s-0.335-0.032-0.49-0.097c-0.155-0.065-0.292-0.16-0.41-0.284
			c-0.119-0.124-0.213-0.276-0.284-0.458S73.958,73.142,73.958,72.913z M74.445,72.913c0,0.16,0.019,0.306,0.057,0.436
			s0.093,0.241,0.163,0.335c0.071,0.094,0.156,0.166,0.255,0.218c0.099,0.052,0.208,0.077,0.327,0.077
			c0.118,0,0.227-0.025,0.327-0.077c0.099-0.052,0.184-0.124,0.255-0.218s0.125-0.205,0.164-0.335
			c0.038-0.13,0.057-0.275,0.057-0.436c0-0.161-0.019-0.307-0.057-0.438c-0.039-0.132-0.093-0.245-0.164-0.341
			s-0.156-0.169-0.255-0.221c-0.1-0.052-0.208-0.078-0.327-0.078c-0.119,0-0.228,0.026-0.327,0.078
			c-0.1,0.052-0.185,0.125-0.255,0.221c-0.07,0.096-0.125,0.209-0.163,0.341S74.445,72.752,74.445,72.913z"/>
		<path fill="#449FD8" d="M77.053,73.578c0-0.306,0.136-0.54,0.41-0.702c0.273-0.163,0.708-0.276,1.304-0.342
			c0-0.087-0.008-0.174-0.026-0.258c-0.017-0.084-0.048-0.158-0.091-0.224c-0.044-0.064-0.103-0.117-0.175-0.157
			c-0.073-0.04-0.167-0.061-0.281-0.061c-0.164,0-0.316,0.031-0.456,0.092c-0.139,0.062-0.265,0.13-0.375,0.207l-0.189-0.327
			c0.13-0.084,0.289-0.165,0.476-0.243c0.188-0.078,0.394-0.118,0.619-0.118c0.34,0,0.586,0.104,0.739,0.312
			c0.153,0.209,0.229,0.486,0.229,0.834v1.708h-0.39l-0.041-0.332h-0.011c-0.134,0.11-0.278,0.205-0.433,0.283
			s-0.318,0.117-0.49,0.117c-0.237,0-0.433-0.068-0.587-0.206S77.053,73.83,77.053,73.578z M77.517,73.543
			c0,0.161,0.047,0.275,0.141,0.344c0.094,0.069,0.209,0.104,0.347,0.104c0.134,0,0.261-0.031,0.381-0.095
			c0.12-0.062,0.247-0.155,0.381-0.277v-0.774c-0.233,0.031-0.43,0.067-0.59,0.109c-0.16,0.042-0.289,0.092-0.387,0.148
			c-0.098,0.058-0.167,0.124-0.209,0.198C77.538,73.374,77.517,73.455,77.517,73.543z"/>
		<path fill="#449FD8" d="M80.05,73.669c0.122,0.1,0.247,0.18,0.375,0.241c0.128,0.062,0.276,0.092,0.444,0.092
			c0.184,0,0.321-0.042,0.413-0.126c0.092-0.084,0.138-0.188,0.138-0.31c0-0.072-0.019-0.136-0.057-0.189
			c-0.039-0.054-0.087-0.101-0.146-0.141c-0.059-0.04-0.127-0.075-0.203-0.105c-0.077-0.03-0.153-0.062-0.229-0.092
			c-0.099-0.034-0.199-0.073-0.298-0.117c-0.1-0.044-0.188-0.098-0.267-0.161c-0.078-0.062-0.142-0.137-0.192-0.221
			s-0.075-0.185-0.075-0.304c0-0.11,0.022-0.215,0.066-0.312c0.044-0.097,0.107-0.181,0.189-0.252
			c0.082-0.07,0.182-0.126,0.301-0.166c0.118-0.04,0.252-0.061,0.401-0.061c0.176,0,0.337,0.031,0.484,0.092
			c0.147,0.062,0.274,0.136,0.381,0.224l-0.224,0.298c-0.096-0.072-0.195-0.132-0.298-0.178c-0.104-0.046-0.216-0.068-0.338-0.068
			c-0.176,0-0.305,0.04-0.387,0.12s-0.123,0.174-0.123,0.281c0,0.064,0.017,0.121,0.051,0.169c0.035,0.048,0.081,0.09,0.138,0.126
			s0.123,0.068,0.198,0.098c0.074,0.028,0.152,0.059,0.232,0.089c0.1,0.038,0.2,0.078,0.301,0.12
			c0.102,0.042,0.192,0.095,0.272,0.157c0.08,0.063,0.146,0.141,0.198,0.232c0.051,0.092,0.077,0.203,0.077,0.332
			c0,0.115-0.022,0.222-0.066,0.321s-0.109,0.188-0.195,0.264s-0.193,0.137-0.321,0.181s-0.274,0.065-0.438,0.065
			c-0.199,0-0.388-0.036-0.567-0.108s-0.336-0.164-0.47-0.275L80.05,73.669z"/>
		<path fill="#449FD8" d="M82.606,71.898h-0.413v-0.355l0.436-0.028l0.057-0.779h0.396v0.779h0.751v0.384h-0.751v1.548
			c0,0.172,0.032,0.305,0.095,0.397c0.063,0.094,0.175,0.141,0.335,0.141c0.05,0,0.104-0.008,0.161-0.022
			c0.057-0.016,0.109-0.032,0.155-0.052l0.092,0.355c-0.077,0.026-0.16,0.051-0.25,0.071c-0.09,0.021-0.179,0.031-0.267,0.031
			c-0.149,0-0.274-0.022-0.375-0.068c-0.101-0.046-0.183-0.109-0.246-0.189s-0.108-0.178-0.135-0.292s-0.04-0.24-0.04-0.378V71.898z
			"/>
	</g>
	<path fill="#EDF6FB" stroke="#64C2E5" stroke-miterlimit="10" d="M98.082,28.205H44.743c-0.694,0-1.256-0.641-1.256-1.433V10.29
		c0-0.791,0.562-1.433,1.256-1.433h53.339c0.694,0,1.256,0.641,1.256,1.433v16.482C99.338,27.564,98.775,28.205,98.082,28.205z"/>
	<path fill="#EDF6FB" stroke="#64C2E5" stroke-miterlimit="10" d="M131.399,79.051h-30.844c-0.791,0-1.433-0.641-1.433-1.433V61.136
		c0-0.791,0.641-1.433,1.433-1.433h30.844c0.791,0,1.433,0.641,1.433,1.433v16.482C132.832,78.41,132.19,79.051,131.399,79.051z"/>
	<g>
		<path fill="#449FD8" d="M113.274,68.176c-0.065,0.03-0.149,0.056-0.252,0.074c-0.103,0.02-0.22,0.029-0.35,0.029
			c-0.375,0-0.688-0.088-0.94-0.264c-0.252-0.176-0.439-0.401-0.562-0.677c-0.203-0.034-0.386-0.104-0.55-0.209
			c-0.165-0.104-0.306-0.239-0.424-0.404c-0.118-0.164-0.209-0.356-0.272-0.578s-0.095-0.469-0.095-0.739
			c0-0.302,0.04-0.572,0.121-0.812c0.08-0.238,0.193-0.44,0.338-0.604c0.145-0.164,0.319-0.29,0.521-0.378s0.426-0.132,0.67-0.132
			c0.245,0,0.468,0.044,0.671,0.132c0.202,0.088,0.377,0.214,0.524,0.378c0.147,0.164,0.261,0.366,0.341,0.604
			c0.08,0.239,0.121,0.51,0.121,0.812c0,0.26-0.03,0.497-0.089,0.713c-0.06,0.216-0.145,0.406-0.255,0.57s-0.244,0.3-0.398,0.407
			c-0.155,0.106-0.328,0.182-0.519,0.224c0.088,0.148,0.209,0.256,0.364,0.32c0.155,0.065,0.324,0.098,0.507,0.098
			c0.084,0,0.16-0.006,0.227-0.017c0.067-0.012,0.127-0.027,0.181-0.046L113.274,68.176z M110.512,65.409
			c0,0.218,0.023,0.414,0.069,0.59s0.111,0.325,0.195,0.447s0.185,0.216,0.304,0.28c0.118,0.065,0.252,0.098,0.401,0.098
			c0.149,0,0.283-0.032,0.401-0.098c0.119-0.064,0.22-0.158,0.304-0.28s0.149-0.271,0.195-0.447s0.069-0.372,0.069-0.59
			c0-0.421-0.087-0.75-0.261-0.989c-0.174-0.238-0.41-0.358-0.708-0.358c-0.298,0-0.534,0.12-0.708,0.358
			C110.599,64.659,110.512,64.988,110.512,65.409z"/>
		<path fill="#449FD8" d="M113.802,64.486h0.659v1.679c0,0.233,0.034,0.397,0.103,0.493s0.18,0.144,0.333,0.144
			c0.122,0,0.23-0.031,0.324-0.092c0.094-0.062,0.194-0.161,0.301-0.298v-1.926h0.659v2.813h-0.539l-0.052-0.412h-0.017
			c-0.123,0.145-0.255,0.262-0.398,0.35c-0.143,0.088-0.312,0.132-0.507,0.132c-0.302,0-0.521-0.097-0.659-0.29
			c-0.138-0.192-0.207-0.469-0.207-0.828V64.486z"/>
		<path fill="#449FD8" d="M116.896,66.544c0-0.302,0.132-0.535,0.396-0.699c0.264-0.165,0.684-0.279,1.261-0.344
			c0-0.073-0.009-0.143-0.028-0.21c-0.02-0.066-0.049-0.126-0.089-0.178c-0.04-0.051-0.092-0.092-0.155-0.12
			s-0.143-0.043-0.238-0.043c-0.142,0-0.278,0.027-0.41,0.08c-0.132,0.054-0.259,0.119-0.381,0.195l-0.241-0.441
			c0.157-0.1,0.332-0.186,0.524-0.258s0.402-0.109,0.627-0.109c0.355,0,0.619,0.104,0.791,0.312s0.258,0.51,0.258,0.902v1.668
			h-0.539l-0.052-0.31h-0.017c-0.126,0.107-0.261,0.197-0.404,0.27c-0.144,0.072-0.299,0.109-0.467,0.109
			c-0.249,0-0.45-0.076-0.604-0.227C116.974,66.991,116.896,66.792,116.896,66.544z M117.539,66.492
			c0,0.126,0.037,0.218,0.112,0.274c0.074,0.058,0.171,0.086,0.29,0.086c0.114,0,0.219-0.026,0.315-0.08
			c0.096-0.053,0.195-0.13,0.298-0.229v-0.631c-0.191,0.023-0.352,0.054-0.481,0.092s-0.234,0.081-0.312,0.129
			c-0.079,0.048-0.135,0.103-0.169,0.163C117.556,66.358,117.539,66.423,117.539,66.492z"/>
		<path fill="#449FD8" d="M120.051,67.91c0.036,0.01,0.072,0.015,0.106,0.015c0.149,0,0.269-0.045,0.358-0.135
			s0.158-0.205,0.204-0.347l0.051-0.178l-1.106-2.779h0.67l0.487,1.381c0.042,0.122,0.083,0.251,0.123,0.387
			s0.081,0.271,0.123,0.404h0.023c0.035-0.13,0.07-0.263,0.106-0.398c0.036-0.136,0.071-0.267,0.106-0.393l0.424-1.381h0.636
			l-1.02,2.939c-0.058,0.161-0.121,0.304-0.189,0.431c-0.069,0.126-0.148,0.233-0.238,0.323s-0.193,0.158-0.309,0.206
			c-0.117,0.048-0.251,0.072-0.404,0.072c-0.076,0-0.143-0.005-0.201-0.015c-0.057-0.01-0.113-0.023-0.166-0.043l0.12-0.516
			C119.983,67.892,120.015,67.9,120.051,67.91z"/>
		<path fill="#449FD8" d="M107.908,70.54h2.167v0.401h-1.69v1.181h1.427v0.407h-1.427v1.363h1.748v0.407h-2.224V70.54z"/>
		<path fill="#449FD8" d="M110.842,71.514h0.476v1.702c0,0.264,0.041,0.453,0.124,0.57c0.082,0.116,0.215,0.175,0.398,0.175
			c0.145,0,0.273-0.037,0.384-0.112c0.111-0.074,0.233-0.193,0.367-0.357v-1.978h0.47v2.785h-0.39l-0.04-0.436h-0.017
			c-0.13,0.153-0.267,0.275-0.41,0.367c-0.144,0.091-0.312,0.137-0.507,0.137c-0.298,0-0.515-0.091-0.65-0.274
			s-0.204-0.455-0.204-0.814V71.514z"/>
		<path fill="#449FD8" d="M114,71.514h0.39l0.04,0.504h0.017c0.095-0.176,0.211-0.314,0.347-0.418s0.284-0.155,0.444-0.155
			c0.111,0,0.21,0.02,0.298,0.058l-0.092,0.413c-0.046-0.016-0.088-0.027-0.126-0.035c-0.038-0.007-0.086-0.011-0.143-0.011
			c-0.119,0-0.242,0.048-0.37,0.143c-0.128,0.096-0.24,0.262-0.335,0.499v1.788H114V71.514z"/>
		<path fill="#449FD8" d="M115.725,72.913c0-0.233,0.035-0.44,0.106-0.622s0.165-0.335,0.284-0.461
			c0.118-0.126,0.255-0.222,0.41-0.287c0.155-0.064,0.318-0.098,0.49-0.098s0.335,0.033,0.49,0.098
			c0.155,0.065,0.292,0.161,0.41,0.287c0.118,0.126,0.213,0.279,0.284,0.461c0.07,0.182,0.106,0.389,0.106,0.622
			c0,0.229-0.036,0.435-0.106,0.616c-0.071,0.182-0.166,0.334-0.284,0.458c-0.119,0.124-0.255,0.219-0.41,0.284
			c-0.155,0.064-0.318,0.097-0.49,0.097s-0.335-0.032-0.49-0.097c-0.155-0.065-0.292-0.16-0.41-0.284
			c-0.119-0.124-0.213-0.276-0.284-0.458S115.725,73.142,115.725,72.913z M116.212,72.913c0,0.16,0.019,0.306,0.057,0.436
			s0.093,0.241,0.163,0.335c0.071,0.094,0.156,0.166,0.255,0.218c0.099,0.052,0.208,0.077,0.327,0.077
			c0.118,0,0.227-0.025,0.327-0.077c0.099-0.052,0.184-0.124,0.255-0.218s0.125-0.205,0.164-0.335
			c0.038-0.13,0.057-0.275,0.057-0.436c0-0.161-0.019-0.307-0.057-0.438c-0.039-0.132-0.093-0.245-0.164-0.341
			s-0.156-0.169-0.255-0.221c-0.1-0.052-0.208-0.078-0.327-0.078c-0.119,0-0.228,0.026-0.327,0.078
			c-0.1,0.052-0.185,0.125-0.255,0.221c-0.07,0.096-0.125,0.209-0.163,0.341S116.212,72.752,116.212,72.913z"/>
		<path fill="#449FD8" d="M119.507,74.535v0.939h-0.47v-3.96h0.39l0.04,0.32h0.017c0.126-0.106,0.265-0.198,0.416-0.274
			s0.309-0.115,0.473-0.115c0.18,0,0.338,0.034,0.476,0.101c0.138,0.067,0.252,0.162,0.344,0.287
			c0.091,0.124,0.161,0.272,0.209,0.446s0.072,0.37,0.072,0.588c0,0.236-0.033,0.448-0.098,0.633
			c-0.065,0.186-0.153,0.344-0.264,0.473c-0.111,0.131-0.239,0.229-0.384,0.296c-0.146,0.066-0.298,0.1-0.458,0.1
			c-0.13,0-0.259-0.028-0.387-0.086c-0.128-0.057-0.257-0.135-0.387-0.234L119.507,74.535z M119.507,73.68
			c0.126,0.107,0.248,0.183,0.367,0.227s0.224,0.065,0.315,0.065c0.114,0,0.221-0.025,0.318-0.077
			c0.098-0.052,0.182-0.124,0.252-0.218c0.071-0.094,0.126-0.209,0.167-0.347s0.06-0.292,0.06-0.464c0-0.153-0.013-0.292-0.04-0.419
			c-0.027-0.126-0.07-0.233-0.129-0.323c-0.06-0.09-0.136-0.159-0.229-0.209c-0.093-0.05-0.205-0.075-0.335-0.075
			c-0.119,0-0.238,0.033-0.358,0.098c-0.12,0.065-0.249,0.159-0.387,0.281V73.68z"/>
		<path fill="#449FD8" d="M122.012,72.913c0-0.229,0.035-0.435,0.106-0.616s0.164-0.335,0.281-0.462
			c0.117-0.126,0.25-0.222,0.398-0.289c0.149-0.066,0.304-0.101,0.464-0.101c0.175,0,0.333,0.031,0.473,0.092
			c0.14,0.062,0.256,0.149,0.35,0.264c0.094,0.115,0.165,0.252,0.215,0.413c0.05,0.16,0.075,0.34,0.075,0.538
			c0,0.104-0.006,0.189-0.018,0.259h-1.879c0.019,0.302,0.112,0.54,0.278,0.716s0.383,0.264,0.65,0.264
			c0.134,0,0.257-0.02,0.37-0.061c0.113-0.04,0.221-0.092,0.324-0.157l0.167,0.31c-0.123,0.076-0.258,0.144-0.407,0.2
			c-0.149,0.058-0.319,0.086-0.51,0.086c-0.188,0-0.362-0.033-0.524-0.1c-0.163-0.067-0.304-0.163-0.424-0.287
			c-0.12-0.124-0.215-0.275-0.284-0.455S122.012,73.142,122.012,72.913z M123.96,72.701c0-0.287-0.061-0.506-0.181-0.656
			c-0.121-0.151-0.29-0.227-0.507-0.227c-0.099,0-0.194,0.02-0.284,0.061c-0.09,0.04-0.171,0.097-0.244,0.172
			c-0.072,0.074-0.133,0.166-0.18,0.274c-0.048,0.109-0.08,0.234-0.095,0.376H123.96z"/>
	</g>
	<g>
		<g>
			<defs>
				<polygon id="SVGID_1_" points="58.626,12.91 61.261,18.483 58.626,24.055 56.384,24.055 59.018,18.483 56.384,12.91 				"/>
			</defs>
			<clipPath id="SVGID_2_">
				<use xlink:href="#SVGID_1_"  overflow="visible"/>
			</clipPath>
			<rect x="55.753" y="12.278" clip-path="url(#SVGID_2_)" fill="#46B978" width="6.14" height="12.408"/>
		</g>
		<g>
			<defs>
				<polygon id="SVGID_3_" points="56.384,24.055 53.749,18.483 56.384,12.91 58.626,12.91 55.993,18.483 58.626,24.055 				"/>
			</defs>
			<clipPath id="SVGID_4_">
				<use xlink:href="#SVGID_3_"  overflow="visible"/>
			</clipPath>
			<rect x="53.118" y="12.278" clip-path="url(#SVGID_4_)" fill="#163963" width="6.14" height="12.408"/>
		</g>
		<g>
			<defs>
				<polygon id="SVGID_5_" points="55.198,15.417 54.013,12.91 51.771,12.91 54.078,17.789 				"/>
			</defs>
			<clipPath id="SVGID_6_">
				<use xlink:href="#SVGID_5_"  overflow="visible"/>
			</clipPath>
			<rect x="51.14" y="12.278" clip-path="url(#SVGID_6_)" fill="#46B978" width="4.69" height="6.143"/>
		</g>
		<g>
			<defs>
				<polygon id="SVGID_7_" points="54.078,19.175 51.771,24.055 54.013,24.055 55.198,21.547 				"/>
			</defs>
			<clipPath id="SVGID_8_">
				<use xlink:href="#SVGID_7_"  overflow="visible"/>
			</clipPath>
			<rect x="51.14" y="18.543" clip-path="url(#SVGID_8_)" fill="#46B978" width="4.69" height="6.143"/>
		</g>
		<g>
			<defs>
				<polygon id="SVGID_9_" points="51.771,24.055 49.136,18.483 51.771,12.91 54.013,12.91 51.378,18.483 54.013,24.055 				"/>
			</defs>
			<clipPath id="SVGID_10_">
				<use xlink:href="#SVGID_9_"  overflow="visible"/>
			</clipPath>
			<rect x="48.504" y="12.278" clip-path="url(#SVGID_10_)" fill="#163963" width="6.14" height="12.408"/>
		</g>
		<g>
			<defs>
				<path id="SVGID_11_" d="M65.344,18.236c0,0.948,0.176,1.684,0.529,2.208c0.313,0.49,0.855,0.786,1.436,0.786
					s1.123-0.296,1.436-0.786c0.352-0.524,0.528-1.26,0.528-2.208c0-0.885-0.176-1.576-0.529-2.073
					c-0.329-0.468-0.865-0.746-1.436-0.746c-0.572,0-1.107,0.278-1.436,0.746c-0.348,0.497-0.522,1.188-0.522,2.073H65.344z
					 M71.786,24.818c-0.205,0.095-0.421,0.163-0.643,0.203c-0.301,0.058-0.608,0.085-0.915,0.082c-0.939,0-1.731-0.216-2.377-0.649
					c-0.632-0.416-1.132-1.002-1.444-1.691c-0.456-0.093-0.89-0.27-1.281-0.522c-0.387-0.251-0.721-0.575-0.983-0.955
					c-0.282-0.411-0.493-0.867-0.624-1.348c-0.15-0.554-0.224-1.126-0.217-1.7c-0.011-0.655,0.088-1.307,0.291-1.93
					c0.174-0.527,0.456-1.012,0.827-1.424c0.35-0.385,0.782-0.687,1.263-0.884c1.05-0.407,2.215-0.407,3.265,0
					c0.482,0.197,0.913,0.499,1.263,0.884c0.369,0.418,0.648,0.906,0.82,1.436c0.203,0.618,0.301,1.266,0.292,1.916
					c0,1.192-0.253,2.172-0.758,2.939c-0.471,0.741-1.199,1.281-2.045,1.516c0.201,0.302,0.496,0.528,0.84,0.643
					c0.353,0.123,0.724,0.186,1.098,0.186c0.178,0,0.356-0.017,0.531-0.051c0.15-0.027,0.297-0.065,0.441-0.115L71.786,24.818z"/>
			</defs>
			<clipPath id="SVGID_12_">
				<use xlink:href="#SVGID_11_"  overflow="visible"/>
			</clipPath>
			<rect x="62.67" y="13.063" clip-path="url(#SVGID_12_)" fill="#163963" width="9.748" height="12.672"/>
		</g>
		<g>
			<defs>
				<path id="SVGID_13_" d="M72.217,13.858h2.005v4.944c0,0.867,0.131,1.472,0.393,1.815c0.262,0.344,0.641,0.515,1.137,0.514
					c0.497,0,0.88-0.172,1.151-0.515c0.27-0.344,0.405-0.949,0.405-1.815v-4.944h1.924v4.737c0,1.481-0.295,2.56-0.884,3.238
					c-0.589,0.677-1.454,1.014-2.595,1.011c-1.147,0-2.023-0.337-2.629-1.011c-0.605-0.674-0.907-1.753-0.906-3.238v-4.736H72.217z"
					/>
			</defs>
			<clipPath id="SVGID_14_">
				<use xlink:href="#SVGID_13_"  overflow="visible"/>
			</clipPath>
			<rect x="71.586" y="13.225" clip-path="url(#SVGID_14_)" fill="#163963" width="8.278" height="10.248"/>
		</g>
		<g>
			<defs>
				<path id="SVGID_15_" d="M84.139,19.03l-0.203-0.815c-0.126-0.442-0.248-0.912-0.366-1.408c-0.118-0.497-0.235-0.975-0.352-1.434
					h-0.054c-0.108,0.47-0.218,0.951-0.331,1.443c-0.113,0.492-0.232,0.958-0.359,1.4l-0.216,0.812h1.882V19.03z M84.547,20.587
					h-2.694l-0.543,2.101h-2.032l2.761-8.832h2.4l2.766,8.832h-2.116L84.547,20.587z"/>
			</defs>
			<clipPath id="SVGID_16_">
				<use xlink:href="#SVGID_15_"  overflow="visible"/>
			</clipPath>
			<rect x="78.646" y="13.224" clip-path="url(#SVGID_16_)" fill="#163963" width="9.191" height="10.095"/>
		</g>
		<g>
			<defs>
				<path id="SVGID_17_" d="M88.448,19.544l-2.67-5.684h2.139l0.787,2.031c0.126,0.337,0.246,0.66,0.359,0.969
					s0.233,0.635,0.361,0.976h0.054c0.126-0.343,0.251-0.67,0.373-0.983c0.122-0.312,0.246-0.635,0.373-0.969l0.798-2.032h2.087
					l-2.665,5.691v3.143h-1.993v-3.142H88.448z"/>
			</defs>
			<clipPath id="SVGID_18_">
				<use xlink:href="#SVGID_17_"  overflow="visible"/>
			</clipPath>
			<rect x="85.146" y="13.22" clip-path="url(#SVGID_18_)" fill="#163963" width="8.593" height="10.097"/>
		</g>
	</g>
	<g>
		<path fill="#5D5E5E" d="M52.539,94.107c0-0.302,0.043-0.573,0.129-0.814c0.086-0.24,0.207-0.444,0.361-0.612
			c0.155-0.169,0.337-0.298,0.547-0.388c0.21-0.089,0.441-0.134,0.693-0.134c0.26,0,0.477,0.048,0.65,0.146s0.316,0.203,0.427,0.318
			l-0.27,0.304c-0.096-0.1-0.206-0.183-0.33-0.249c-0.124-0.067-0.282-0.101-0.473-0.101c-0.191,0-0.363,0.035-0.516,0.105
			c-0.153,0.071-0.283,0.173-0.39,0.305s-0.19,0.291-0.249,0.479c-0.06,0.187-0.089,0.397-0.089,0.63
			c0,0.237,0.027,0.45,0.083,0.639c0.055,0.189,0.136,0.351,0.241,0.484s0.235,0.237,0.39,0.31c0.155,0.073,0.333,0.109,0.536,0.109
			c0.134,0,0.261-0.021,0.381-0.061s0.219-0.095,0.295-0.163v-0.98h-0.796v-0.396h1.232v1.582c-0.122,0.126-0.284,0.23-0.484,0.312
			c-0.201,0.082-0.427,0.123-0.679,0.123c-0.249,0-0.476-0.044-0.682-0.132c-0.206-0.088-0.384-0.215-0.533-0.381
			c-0.149-0.166-0.266-0.371-0.35-0.613C52.581,94.687,52.539,94.413,52.539,94.107z"/>
		<path fill="#5D5E5E" d="M56.041,94.6c0-0.229,0.035-0.435,0.106-0.616s0.164-0.336,0.281-0.462s0.25-0.223,0.398-0.289
			c0.149-0.067,0.304-0.101,0.464-0.101c0.175,0,0.333,0.031,0.473,0.092c0.14,0.062,0.256,0.149,0.35,0.264
			s0.165,0.252,0.215,0.413c0.05,0.16,0.075,0.34,0.075,0.538c0,0.104-0.006,0.189-0.018,0.258h-1.879
			c0.019,0.302,0.112,0.541,0.278,0.717s0.383,0.264,0.65,0.264c0.134,0,0.257-0.021,0.37-0.061s0.221-0.093,0.324-0.157l0.167,0.31
			c-0.123,0.076-0.258,0.143-0.407,0.2s-0.319,0.086-0.51,0.086c-0.188,0-0.362-0.033-0.524-0.101
			c-0.163-0.066-0.304-0.162-0.424-0.286c-0.12-0.124-0.215-0.276-0.284-0.456C56.075,95.034,56.041,94.829,56.041,94.6z
			 M57.989,94.387c0-0.286-0.061-0.505-0.181-0.656c-0.121-0.15-0.29-0.226-0.507-0.226c-0.099,0-0.194,0.02-0.284,0.06
			s-0.171,0.098-0.244,0.172c-0.072,0.075-0.133,0.167-0.18,0.275c-0.048,0.109-0.08,0.234-0.095,0.375H57.989z"/>
		<path fill="#5D5E5E" d="M58.883,94.6c0-0.233,0.035-0.44,0.106-0.622s0.165-0.336,0.284-0.462c0.118-0.126,0.255-0.221,0.41-0.286
			s0.318-0.098,0.49-0.098s0.335,0.032,0.49,0.098s0.292,0.16,0.41,0.286c0.118,0.126,0.213,0.28,0.284,0.462
			c0.07,0.182,0.106,0.389,0.106,0.622c0,0.229-0.036,0.435-0.106,0.615c-0.071,0.182-0.166,0.335-0.284,0.459
			c-0.119,0.124-0.255,0.219-0.41,0.283c-0.155,0.065-0.318,0.098-0.49,0.098s-0.335-0.032-0.49-0.098
			c-0.155-0.064-0.292-0.159-0.41-0.283c-0.119-0.124-0.213-0.277-0.284-0.459C58.918,95.035,58.883,94.829,58.883,94.6z
			 M59.37,94.6c0,0.16,0.019,0.306,0.057,0.436s0.093,0.241,0.163,0.335c0.071,0.094,0.156,0.166,0.255,0.218
			c0.099,0.052,0.208,0.077,0.327,0.077c0.118,0,0.227-0.025,0.327-0.077c0.099-0.052,0.184-0.124,0.255-0.218
			s0.125-0.205,0.164-0.335c0.038-0.13,0.057-0.275,0.057-0.436c0-0.161-0.019-0.307-0.057-0.438
			c-0.039-0.132-0.093-0.246-0.164-0.342c-0.071-0.095-0.156-0.169-0.255-0.221c-0.1-0.051-0.208-0.077-0.327-0.077
			c-0.119,0-0.228,0.026-0.327,0.077c-0.1,0.052-0.185,0.126-0.255,0.221c-0.07,0.096-0.125,0.21-0.163,0.342
			S59.37,94.439,59.37,94.6z"/>
		<path fill="#5D5E5E" d="M61.995,94.371h1.318v0.361h-1.318V94.371z"/>
		<path fill="#5D5E5E" d="M64.012,93.202h0.39l0.04,0.504h0.017c0.095-0.176,0.211-0.315,0.347-0.418
			c0.136-0.104,0.284-0.155,0.444-0.155c0.111,0,0.21,0.02,0.298,0.058l-0.092,0.412c-0.046-0.015-0.088-0.026-0.126-0.034
			s-0.086-0.012-0.143-0.012c-0.119,0-0.242,0.048-0.37,0.144c-0.128,0.096-0.24,0.262-0.335,0.499v1.788h-0.47V93.202z"/>
		<path fill="#5D5E5E" d="M65.737,94.6c0-0.229,0.035-0.435,0.106-0.616s0.164-0.336,0.281-0.462s0.25-0.223,0.398-0.289
			c0.149-0.067,0.304-0.101,0.464-0.101c0.175,0,0.333,0.031,0.473,0.092c0.14,0.062,0.256,0.149,0.35,0.264
			s0.165,0.252,0.215,0.413c0.05,0.16,0.075,0.34,0.075,0.538c0,0.104-0.006,0.189-0.018,0.258h-1.879
			c0.019,0.302,0.112,0.541,0.278,0.717s0.383,0.264,0.65,0.264c0.134,0,0.257-0.021,0.37-0.061s0.221-0.093,0.324-0.157l0.167,0.31
			c-0.123,0.076-0.258,0.143-0.407,0.2s-0.319,0.086-0.51,0.086c-0.188,0-0.362-0.033-0.524-0.101
			c-0.163-0.066-0.304-0.162-0.424-0.286c-0.12-0.124-0.215-0.276-0.284-0.456C65.771,95.034,65.737,94.829,65.737,94.6z
			 M67.686,94.387c0-0.286-0.061-0.505-0.181-0.656c-0.121-0.15-0.29-0.226-0.507-0.226c-0.099,0-0.194,0.02-0.284,0.06
			s-0.171,0.098-0.244,0.172c-0.072,0.075-0.133,0.167-0.18,0.275c-0.048,0.109-0.08,0.234-0.095,0.375H67.686z"/>
		<path fill="#5D5E5E" d="M69.256,96.221v0.94h-0.47v-3.96h0.39l0.04,0.32h0.017c0.126-0.106,0.265-0.198,0.416-0.274
			c0.151-0.077,0.309-0.115,0.473-0.115c0.18,0,0.338,0.033,0.476,0.101c0.138,0.066,0.252,0.162,0.344,0.286
			c0.091,0.124,0.161,0.273,0.209,0.447s0.072,0.37,0.072,0.588c0,0.236-0.033,0.447-0.098,0.633s-0.153,0.343-0.264,0.473
			s-0.239,0.229-0.384,0.295c-0.146,0.067-0.298,0.101-0.458,0.101c-0.13,0-0.259-0.028-0.387-0.086
			c-0.128-0.058-0.257-0.136-0.387-0.234L69.256,96.221z M69.256,95.368c0.126,0.107,0.248,0.183,0.367,0.227
			s0.224,0.065,0.315,0.065c0.114,0,0.221-0.025,0.318-0.077c0.098-0.052,0.182-0.124,0.252-0.218
			c0.071-0.094,0.126-0.209,0.167-0.347s0.06-0.292,0.06-0.464c0-0.153-0.013-0.293-0.04-0.419s-0.07-0.233-0.129-0.323
			c-0.06-0.09-0.136-0.16-0.229-0.21c-0.093-0.049-0.205-0.074-0.335-0.074c-0.119,0-0.238,0.032-0.358,0.098
			c-0.12,0.064-0.249,0.158-0.387,0.28V95.368z"/>
		<path fill="#5D5E5E" d="M71.966,91.906h0.47v3.554c0,0.076,0.013,0.13,0.04,0.16c0.027,0.031,0.057,0.046,0.092,0.046
			c0.015,0,0.029,0,0.043,0c0.013,0,0.033-0.004,0.06-0.012l0.063,0.355c-0.03,0.016-0.067,0.027-0.109,0.034
			c-0.042,0.008-0.095,0.012-0.16,0.012c-0.18,0-0.308-0.054-0.384-0.16c-0.076-0.107-0.115-0.264-0.115-0.47V91.906z"/>
		<path fill="#5D5E5E" d="M73.668,92.629c-0.091,0-0.169-0.029-0.232-0.086c-0.063-0.058-0.095-0.13-0.095-0.218
			c0-0.092,0.032-0.165,0.095-0.221s0.141-0.083,0.232-0.083c0.092,0,0.169,0.027,0.232,0.083s0.094,0.129,0.094,0.221
			c0,0.088-0.031,0.16-0.094,0.218C73.838,92.599,73.76,92.629,73.668,92.629z M73.428,93.202h0.47v2.785h-0.47V93.202z"/>
		<path fill="#5D5E5E" d="M74.631,94.6c0-0.233,0.036-0.44,0.109-0.622c0.072-0.182,0.17-0.336,0.292-0.462
			c0.122-0.126,0.264-0.221,0.427-0.286c0.162-0.065,0.333-0.098,0.513-0.098c0.184,0,0.341,0.033,0.473,0.101
			c0.132,0.066,0.245,0.145,0.341,0.232l-0.235,0.304c-0.084-0.073-0.171-0.132-0.261-0.178s-0.19-0.069-0.301-0.069
			c-0.126,0-0.243,0.026-0.35,0.077c-0.107,0.052-0.199,0.126-0.275,0.221c-0.076,0.096-0.137,0.21-0.18,0.342
			c-0.044,0.132-0.066,0.277-0.066,0.438c0,0.16,0.021,0.306,0.063,0.436c0.042,0.13,0.1,0.241,0.175,0.335
			c0.074,0.094,0.165,0.166,0.272,0.218s0.224,0.077,0.35,0.077c0.134,0,0.255-0.027,0.364-0.083s0.206-0.121,0.29-0.197
			l0.212,0.309c-0.126,0.111-0.266,0.199-0.421,0.264c-0.155,0.065-0.316,0.098-0.484,0.098c-0.184,0-0.355-0.032-0.516-0.098
			c-0.161-0.064-0.299-0.159-0.416-0.283c-0.117-0.124-0.208-0.277-0.275-0.459C74.665,95.035,74.631,94.829,74.631,94.6z"/>
		<path fill="#5D5E5E" d="M77.256,95.264c0-0.306,0.136-0.539,0.41-0.702c0.273-0.162,0.708-0.275,1.304-0.341
			c0-0.088-0.008-0.174-0.026-0.258c-0.017-0.084-0.048-0.158-0.091-0.224c-0.044-0.064-0.103-0.117-0.175-0.157
			c-0.073-0.04-0.167-0.061-0.281-0.061c-0.164,0-0.316,0.031-0.456,0.092c-0.139,0.062-0.265,0.13-0.375,0.206l-0.189-0.326
			c0.13-0.084,0.289-0.165,0.476-0.244c0.188-0.078,0.394-0.117,0.619-0.117c0.34,0,0.586,0.104,0.739,0.312
			s0.229,0.486,0.229,0.834v1.708h-0.39l-0.041-0.333h-0.011c-0.134,0.111-0.278,0.206-0.433,0.284s-0.318,0.117-0.49,0.117
			c-0.237,0-0.433-0.068-0.587-0.206S77.256,95.517,77.256,95.264z M77.72,95.23c0,0.16,0.047,0.275,0.141,0.344
			c0.094,0.069,0.209,0.104,0.347,0.104c0.134,0,0.261-0.031,0.381-0.095c0.12-0.063,0.247-0.155,0.381-0.278v-0.773
			c-0.233,0.03-0.43,0.067-0.59,0.109c-0.16,0.042-0.289,0.092-0.387,0.148c-0.098,0.058-0.167,0.123-0.209,0.198
			C77.741,95.061,77.72,95.142,77.72,95.23z"/>
		<path fill="#5D5E5E" d="M80.408,93.586h-0.413V93.23l0.436-0.028l0.057-0.78h0.396v0.78h0.751v0.384h-0.751v1.547
			c0,0.172,0.032,0.305,0.095,0.398s0.175,0.141,0.335,0.141c0.05,0,0.104-0.008,0.161-0.022c0.057-0.016,0.109-0.033,0.155-0.052
			l0.092,0.355c-0.077,0.026-0.16,0.05-0.25,0.071c-0.09,0.021-0.179,0.031-0.267,0.031c-0.149,0-0.274-0.022-0.375-0.068
			c-0.101-0.046-0.183-0.109-0.246-0.189s-0.108-0.178-0.135-0.292c-0.027-0.115-0.04-0.241-0.04-0.379V93.586z"/>
		<path fill="#5D5E5E" d="M82.506,92.629c-0.091,0-0.169-0.029-0.232-0.086c-0.063-0.058-0.095-0.13-0.095-0.218
			c0-0.092,0.032-0.165,0.095-0.221s0.141-0.083,0.232-0.083c0.092,0,0.169,0.027,0.232,0.083s0.094,0.129,0.094,0.221
			c0,0.088-0.031,0.16-0.094,0.218C82.675,92.599,82.598,92.629,82.506,92.629z M82.265,93.202h0.47v2.785h-0.47V93.202z"/>
		<path fill="#5D5E5E" d="M83.469,94.6c0-0.233,0.035-0.44,0.106-0.622s0.165-0.336,0.284-0.462c0.118-0.126,0.255-0.221,0.41-0.286
			s0.318-0.098,0.49-0.098s0.335,0.032,0.49,0.098s0.292,0.16,0.41,0.286c0.118,0.126,0.213,0.28,0.284,0.462
			c0.07,0.182,0.106,0.389,0.106,0.622c0,0.229-0.036,0.435-0.106,0.615c-0.071,0.182-0.166,0.335-0.284,0.459
			c-0.119,0.124-0.255,0.219-0.41,0.283c-0.155,0.065-0.318,0.098-0.49,0.098s-0.335-0.032-0.49-0.098
			c-0.155-0.064-0.292-0.159-0.41-0.283c-0.119-0.124-0.213-0.277-0.284-0.459C83.504,95.035,83.469,94.829,83.469,94.6z
			 M83.956,94.6c0,0.16,0.019,0.306,0.057,0.436s0.093,0.241,0.163,0.335c0.071,0.094,0.156,0.166,0.255,0.218
			c0.099,0.052,0.208,0.077,0.327,0.077c0.118,0,0.227-0.025,0.327-0.077c0.099-0.052,0.184-0.124,0.255-0.218
			s0.125-0.205,0.164-0.335c0.038-0.13,0.057-0.275,0.057-0.436c0-0.161-0.019-0.307-0.057-0.438
			c-0.039-0.132-0.093-0.246-0.164-0.342c-0.071-0.095-0.156-0.169-0.255-0.221c-0.1-0.051-0.208-0.077-0.327-0.077
			c-0.119,0-0.228,0.026-0.327,0.077c-0.1,0.052-0.185,0.126-0.255,0.221c-0.07,0.096-0.125,0.21-0.163,0.342
			S83.956,94.439,83.956,94.6z"/>
		<path fill="#5D5E5E" d="M86.781,93.202h0.39l0.04,0.4h0.017c0.134-0.134,0.274-0.245,0.421-0.335
			c0.147-0.09,0.318-0.135,0.513-0.135c0.294,0,0.509,0.092,0.645,0.275c0.135,0.184,0.203,0.455,0.203,0.813v1.766h-0.47v-1.702
			c0-0.264-0.042-0.454-0.126-0.57c-0.084-0.116-0.218-0.175-0.401-0.175c-0.146,0-0.273,0.036-0.384,0.108
			c-0.111,0.073-0.237,0.18-0.378,0.321v2.018h-0.47V93.202z"/>
	</g>
	<line fill="none" stroke="#64C2E5" stroke-width="0.75" stroke-miterlimit="10" x1="26.771" y1="79.051" x2="26.771" y2="87.703"/>
	<line fill="none" stroke="#64C2E5" stroke-width="0.75" stroke-miterlimit="10" x1="70.771" y1="79.051" x2="70.771" y2="87.703"/>
	
		<line fill="none" stroke="#64C2E5" stroke-width="0.75" stroke-miterlimit="10" x1="117.039" y1="79.051" x2="117.039" y2="87.703"/>
	<path fill="#EDF6FB" stroke="#64C2E5" stroke-miterlimit="10" d="M292.577,105.933H172.439c-2.235,0-4.048-1.755-4.048-3.92V36.916
		c0-2.165,1.812-3.92,4.048-3.92h120.138c2.235,0,4.048,1.755,4.048,3.92v65.097C296.625,104.177,294.813,105.933,292.577,105.933z"
		/>
	<g>
		<g>
			<path fill="none" stroke="#64C2E5" stroke-width="0.5" stroke-miterlimit="10" d="M191.809,70.893V67.24
				c0-1.161,0.941-2.101,2.101-2.101h33.439c1.161,0,2.101-0.941,2.101-2.101v-2.716"/>
			<g>
				<path fill="#64C2E5" d="M193.849,67.988c-0.099-0.063-0.23-0.034-0.293,0.065l-1.746,2.742l-1.746-2.742
					c-0.063-0.099-0.195-0.128-0.293-0.065c-0.099,0.063-0.127,0.195-0.065,0.293l1.926,3.024c0.039,0.061,0.107,0.098,0.179,0.098
					s0.14-0.037,0.179-0.098l1.926-3.024c0.022-0.035,0.033-0.075,0.033-0.114C193.947,68.097,193.912,68.029,193.849,67.988z"/>
			</g>
		</g>
	</g>
	<path fill="#FFFFFF" stroke="#64C2E5" stroke-width="0.5" stroke-miterlimit="10" d="M246.43,91.93h-30.844
		c-0.791,0-1.433-0.641-1.433-1.433V74.015c0-0.791,0.641-1.433,1.433-1.433h30.844c0.791,0,1.433,0.641,1.433,1.433v16.482
		C247.863,91.288,247.221,91.93,246.43,91.93z"/>
	<path fill="#FFFFFF" stroke="#64C2E5" stroke-width="0.5" stroke-miterlimit="10" d="M288.43,93.93h-30.844
		c-0.791,0-1.433-0.641-1.433-1.433V76.015c0-0.791,0.641-1.433,1.433-1.433h30.844c0.791,0,1.433,0.641,1.433,1.433v16.482
		C289.863,93.288,289.221,93.93,288.43,93.93z"/>
	<g>
		<path fill="#449FD8" d="M221.411,79.688c0.134,0.126,0.287,0.229,0.458,0.307s0.344,0.117,0.516,0.117
			c0.214,0,0.376-0.043,0.487-0.132c0.111-0.087,0.167-0.204,0.167-0.35c0-0.076-0.015-0.141-0.043-0.194
			c-0.028-0.054-0.068-0.101-0.12-0.141s-0.113-0.077-0.184-0.111c-0.07-0.034-0.148-0.069-0.232-0.104l-0.516-0.224
			c-0.092-0.038-0.183-0.086-0.272-0.144c-0.09-0.057-0.171-0.126-0.244-0.206c-0.072-0.08-0.131-0.174-0.175-0.28
			c-0.044-0.107-0.066-0.229-0.066-0.367c0-0.149,0.032-0.287,0.095-0.415s0.15-0.24,0.261-0.336
			c0.111-0.095,0.244-0.17,0.398-0.224c0.155-0.053,0.324-0.08,0.507-0.08c0.218,0,0.428,0.043,0.63,0.129
			c0.202,0.086,0.376,0.202,0.521,0.347l-0.338,0.425c-0.122-0.1-0.248-0.178-0.378-0.235s-0.275-0.086-0.436-0.086
			c-0.18,0-0.323,0.039-0.43,0.117c-0.107,0.079-0.16,0.187-0.16,0.324c0,0.072,0.016,0.135,0.048,0.187
			c0.033,0.051,0.077,0.097,0.132,0.137c0.056,0.041,0.12,0.077,0.192,0.109c0.072,0.032,0.147,0.064,0.223,0.095l0.51,0.212
			c0.111,0.046,0.212,0.1,0.304,0.16c0.092,0.062,0.171,0.132,0.238,0.212c0.067,0.081,0.12,0.173,0.158,0.278
			s0.057,0.227,0.057,0.364c0,0.152-0.03,0.296-0.092,0.43c-0.061,0.134-0.15,0.251-0.266,0.353
			c-0.117,0.101-0.258,0.182-0.424,0.24c-0.166,0.06-0.354,0.089-0.564,0.089c-0.252,0-0.496-0.048-0.73-0.144
			c-0.235-0.095-0.442-0.23-0.622-0.406L221.411,79.688z"/>
		<path fill="#449FD8" d="M224.162,79.218c0-0.229,0.037-0.436,0.109-0.619c0.073-0.184,0.169-0.338,0.29-0.464
			c0.12-0.126,0.259-0.224,0.416-0.293c0.157-0.068,0.317-0.103,0.481-0.103c0.191,0,0.359,0.032,0.504,0.098
			c0.145,0.064,0.267,0.156,0.364,0.274c0.098,0.119,0.171,0.26,0.221,0.425c0.05,0.164,0.075,0.344,0.075,0.538
			c0,0.13-0.01,0.233-0.029,0.31h-1.788c0.03,0.256,0.119,0.453,0.267,0.591c0.147,0.137,0.335,0.206,0.564,0.206
			c0.122,0,0.236-0.019,0.341-0.055s0.209-0.087,0.312-0.151l0.224,0.412c-0.134,0.088-0.283,0.16-0.447,0.218
			c-0.165,0.058-0.336,0.086-0.516,0.086c-0.195,0-0.376-0.033-0.544-0.101c-0.168-0.066-0.315-0.163-0.441-0.289
			s-0.225-0.279-0.295-0.461S224.162,79.452,224.162,79.218z M226.048,78.966c0-0.226-0.047-0.401-0.141-0.527
			s-0.238-0.189-0.433-0.189c-0.168,0-0.315,0.061-0.441,0.181c-0.126,0.12-0.204,0.299-0.235,0.536H226.048z"/>
		<path fill="#449FD8" d="M227.067,79.218c0-0.233,0.038-0.441,0.115-0.625c0.076-0.184,0.18-0.338,0.31-0.464
			s0.28-0.223,0.45-0.289c0.17-0.067,0.349-0.101,0.536-0.101c0.183,0,0.343,0.031,0.479,0.095c0.135,0.062,0.251,0.14,0.347,0.231
			l-0.315,0.419c-0.076-0.065-0.153-0.116-0.229-0.152c-0.077-0.036-0.159-0.055-0.247-0.055c-0.229,0-0.415,0.086-0.556,0.256
			c-0.142,0.17-0.212,0.398-0.212,0.685c0,0.283,0.07,0.509,0.209,0.679c0.139,0.171,0.32,0.256,0.542,0.256
			c0.115,0,0.221-0.024,0.318-0.072c0.098-0.048,0.185-0.104,0.261-0.169l0.275,0.418c-0.134,0.119-0.281,0.209-0.441,0.27
			c-0.161,0.062-0.321,0.092-0.481,0.092c-0.191,0-0.37-0.032-0.536-0.098c-0.167-0.064-0.311-0.16-0.433-0.286
			c-0.122-0.126-0.218-0.281-0.287-0.464C227.102,79.66,227.067,79.452,227.067,79.218z"/>
		<path fill="#449FD8" d="M229.87,77.808h0.659v1.68c0,0.232,0.034,0.397,0.103,0.492c0.069,0.096,0.18,0.144,0.333,0.144
			c0.122,0,0.23-0.03,0.324-0.092c0.094-0.061,0.194-0.16,0.301-0.298v-1.926h0.659v2.814h-0.539l-0.052-0.413h-0.017
			c-0.123,0.146-0.255,0.262-0.398,0.35c-0.143,0.088-0.312,0.132-0.507,0.132c-0.302,0-0.521-0.097-0.659-0.289
			c-0.138-0.193-0.207-0.469-0.207-0.828V77.808z"/>
		<path fill="#449FD8" d="M233.085,77.808h0.544l0.046,0.499h0.023c0.099-0.184,0.22-0.324,0.361-0.422
			c0.142-0.097,0.287-0.146,0.436-0.146c0.134,0,0.241,0.019,0.321,0.058l-0.114,0.572c-0.05-0.015-0.096-0.026-0.138-0.034
			s-0.094-0.012-0.155-0.012c-0.111,0-0.228,0.043-0.35,0.129c-0.122,0.087-0.227,0.236-0.315,0.45v1.72h-0.659V77.808z"/>
		<path fill="#449FD8" d="M235.556,77.316c-0.119,0-0.216-0.035-0.292-0.104c-0.077-0.069-0.115-0.158-0.115-0.27
			c0-0.11,0.038-0.201,0.115-0.272c0.076-0.07,0.174-0.105,0.292-0.105c0.118,0,0.216,0.035,0.292,0.105
			c0.077,0.071,0.115,0.162,0.115,0.272c0,0.111-0.038,0.2-0.115,0.27C235.771,77.281,235.674,77.316,235.556,77.316z
			 M235.223,77.808h0.659v2.814h-0.659V77.808z"/>
		<path fill="#449FD8" d="M236.822,78.33h-0.401v-0.492l0.436-0.029l0.08-0.768h0.55v0.768h0.716v0.521h-0.716v1.342
			c0,0.328,0.132,0.492,0.396,0.492c0.049,0,0.1-0.006,0.152-0.017c0.051-0.012,0.098-0.027,0.14-0.046l0.115,0.487
			c-0.077,0.026-0.163,0.05-0.261,0.071c-0.097,0.021-0.202,0.031-0.312,0.031c-0.164,0-0.303-0.024-0.416-0.074
			c-0.112-0.05-0.204-0.119-0.275-0.209s-0.122-0.197-0.155-0.321c-0.032-0.124-0.049-0.263-0.049-0.415V78.33z"/>
		<path fill="#449FD8" d="M238.831,81.233c0.036,0.009,0.072,0.014,0.106,0.014c0.149,0,0.269-0.045,0.358-0.134
			c0.09-0.09,0.158-0.206,0.204-0.348l0.051-0.177l-1.106-2.78h0.67l0.487,1.382c0.042,0.122,0.083,0.251,0.123,0.387
			s0.081,0.271,0.123,0.403h0.023c0.035-0.129,0.07-0.262,0.106-0.397c0.036-0.136,0.071-0.267,0.106-0.393l0.424-1.382h0.636
			l-1.02,2.94c-0.058,0.16-0.121,0.304-0.189,0.43c-0.069,0.126-0.148,0.234-0.238,0.324c-0.09,0.089-0.193,0.158-0.309,0.206
			c-0.117,0.048-0.251,0.071-0.404,0.071c-0.076,0-0.143-0.005-0.201-0.014c-0.057-0.01-0.113-0.024-0.166-0.043l0.12-0.517
			C238.763,81.215,238.794,81.223,238.831,81.233z"/>
		<path fill="#449FD8" d="M221.529,85.419c0.134,0.127,0.287,0.229,0.458,0.307c0.172,0.079,0.344,0.118,0.516,0.118
			c0.214,0,0.376-0.044,0.487-0.132s0.167-0.205,0.167-0.35c0-0.076-0.015-0.142-0.043-0.195c-0.028-0.054-0.068-0.101-0.12-0.141
			s-0.113-0.077-0.184-0.111c-0.07-0.034-0.148-0.068-0.232-0.104l-0.516-0.224c-0.092-0.038-0.183-0.086-0.272-0.143
			c-0.09-0.058-0.171-0.126-0.244-0.207c-0.072-0.08-0.131-0.174-0.175-0.28c-0.044-0.107-0.066-0.229-0.066-0.367
			c0-0.148,0.032-0.287,0.095-0.415s0.15-0.24,0.261-0.335c0.111-0.096,0.244-0.171,0.398-0.224
			c0.155-0.054,0.324-0.081,0.507-0.081c0.218,0,0.428,0.044,0.63,0.13c0.202,0.086,0.376,0.201,0.521,0.347l-0.338,0.424
			c-0.122-0.1-0.248-0.178-0.378-0.235c-0.13-0.057-0.275-0.086-0.436-0.086c-0.18,0-0.323,0.039-0.43,0.118
			c-0.107,0.078-0.16,0.186-0.16,0.323c0,0.072,0.016,0.135,0.048,0.187c0.033,0.052,0.077,0.098,0.132,0.138
			c0.056,0.04,0.12,0.076,0.192,0.108c0.072,0.032,0.147,0.064,0.223,0.095l0.51,0.212c0.111,0.046,0.212,0.1,0.304,0.16
			c0.092,0.062,0.171,0.132,0.238,0.213c0.067,0.08,0.12,0.173,0.158,0.277c0.038,0.105,0.057,0.227,0.057,0.364
			c0,0.152-0.03,0.296-0.092,0.43c-0.061,0.134-0.15,0.251-0.266,0.353c-0.117,0.102-0.258,0.182-0.424,0.24
			c-0.166,0.06-0.354,0.089-0.564,0.089c-0.252,0-0.496-0.048-0.73-0.143c-0.235-0.096-0.442-0.231-0.622-0.407L221.529,85.419z"/>
		<path fill="#449FD8" d="M224.28,84.949c0-0.232,0.038-0.441,0.115-0.624c0.076-0.184,0.18-0.339,0.31-0.465s0.28-0.223,0.45-0.289
			c0.17-0.067,0.349-0.101,0.536-0.101c0.183,0,0.343,0.031,0.479,0.095c0.135,0.062,0.251,0.141,0.347,0.232l-0.315,0.418
			c-0.076-0.064-0.153-0.115-0.229-0.152c-0.077-0.036-0.159-0.054-0.247-0.054c-0.229,0-0.415,0.085-0.556,0.255
			c-0.142,0.17-0.212,0.398-0.212,0.685c0,0.283,0.07,0.51,0.209,0.68c0.139,0.17,0.32,0.255,0.542,0.255
			c0.115,0,0.221-0.024,0.318-0.072c0.098-0.047,0.185-0.104,0.261-0.169l0.275,0.419c-0.134,0.118-0.281,0.208-0.441,0.27
			c-0.161,0.061-0.321,0.091-0.481,0.091c-0.191,0-0.37-0.032-0.536-0.097c-0.167-0.065-0.311-0.161-0.433-0.287
			c-0.122-0.126-0.218-0.28-0.287-0.464C224.314,85.39,224.28,85.182,224.28,84.949z"/>
		<path fill="#449FD8" d="M226.933,85.596c0-0.302,0.132-0.534,0.396-0.699c0.264-0.164,0.684-0.278,1.261-0.344
			c0-0.072-0.009-0.142-0.028-0.209c-0.02-0.066-0.049-0.126-0.089-0.178s-0.092-0.092-0.155-0.12s-0.143-0.043-0.238-0.043
			c-0.142,0-0.278,0.026-0.41,0.08s-0.259,0.118-0.381,0.195l-0.241-0.441c0.157-0.1,0.332-0.186,0.524-0.258
			c0.193-0.073,0.402-0.109,0.627-0.109c0.355,0,0.619,0.104,0.791,0.312s0.258,0.509,0.258,0.902v1.668h-0.539l-0.052-0.31h-0.017
			c-0.126,0.107-0.261,0.197-0.404,0.27c-0.144,0.072-0.299,0.108-0.467,0.108c-0.249,0-0.45-0.075-0.604-0.226
			C227.011,86.045,226.933,85.845,226.933,85.596z M227.575,85.546c0,0.126,0.037,0.218,0.112,0.274
			c0.074,0.058,0.171,0.086,0.29,0.086c0.114,0,0.219-0.026,0.315-0.08s0.195-0.13,0.298-0.229v-0.63
			c-0.191,0.022-0.352,0.054-0.481,0.092s-0.234,0.081-0.312,0.129c-0.079,0.048-0.135,0.102-0.169,0.163
			C227.592,85.412,227.575,85.476,227.575,85.546z"/>
		<path fill="#449FD8" d="M230.051,83.54h0.544l0.046,0.378h0.023c0.126-0.122,0.263-0.228,0.41-0.315s0.318-0.132,0.513-0.132
			c0.302,0,0.521,0.097,0.659,0.289c0.138,0.193,0.207,0.47,0.207,0.828v1.766h-0.659v-1.68c0-0.232-0.034-0.396-0.103-0.492
			s-0.182-0.144-0.338-0.144c-0.122,0-0.23,0.029-0.324,0.089s-0.2,0.146-0.318,0.261v1.966h-0.659V83.54z"/>
		<path fill="#449FD8" d="M233.26,83.54h0.544l0.046,0.378h0.023c0.126-0.122,0.263-0.228,0.41-0.315s0.318-0.132,0.513-0.132
			c0.302,0,0.521,0.097,0.659,0.289c0.138,0.193,0.207,0.47,0.207,0.828v1.766h-0.659v-1.68c0-0.232-0.034-0.396-0.103-0.492
			s-0.182-0.144-0.338-0.144c-0.122,0-0.23,0.029-0.324,0.089s-0.2,0.146-0.318,0.261v1.966h-0.659V83.54z"/>
		<path fill="#449FD8" d="M236.286,84.949c0-0.229,0.037-0.436,0.109-0.619c0.073-0.183,0.169-0.338,0.29-0.464
			c0.12-0.126,0.259-0.224,0.416-0.292c0.157-0.069,0.317-0.104,0.481-0.104c0.191,0,0.359,0.032,0.504,0.098
			c0.145,0.064,0.267,0.156,0.364,0.275c0.098,0.118,0.171,0.26,0.221,0.424s0.075,0.344,0.075,0.538c0,0.131-0.01,0.233-0.029,0.31
			h-1.788c0.03,0.257,0.119,0.453,0.267,0.591c0.147,0.138,0.335,0.206,0.564,0.206c0.122,0,0.236-0.018,0.341-0.055
			c0.105-0.036,0.209-0.087,0.312-0.151l0.224,0.412c-0.134,0.088-0.283,0.161-0.447,0.218c-0.165,0.058-0.336,0.086-0.516,0.086
			c-0.195,0-0.376-0.033-0.544-0.1c-0.168-0.067-0.315-0.164-0.441-0.29s-0.225-0.279-0.295-0.461S236.286,85.182,236.286,84.949z
			 M238.172,84.697c0-0.226-0.047-0.401-0.141-0.527s-0.238-0.189-0.433-0.189c-0.168,0-0.315,0.061-0.441,0.181
			c-0.126,0.12-0.204,0.299-0.235,0.536H238.172z"/>
		<path fill="#449FD8" d="M239.375,83.54h0.544l0.046,0.498h0.023c0.099-0.184,0.22-0.324,0.361-0.421
			c0.142-0.098,0.287-0.146,0.436-0.146c0.134,0,0.241,0.02,0.321,0.058l-0.114,0.573c-0.05-0.016-0.096-0.027-0.138-0.035
			c-0.042-0.007-0.094-0.011-0.155-0.011c-0.111,0-0.228,0.043-0.35,0.129s-0.227,0.235-0.315,0.449v1.72h-0.659V83.54z"/>
	</g>
	<path fill="#FFFFFF" stroke="#64C2E5" stroke-width="0.5" stroke-miterlimit="10" d="M286.43,91.93h-30.844
		c-0.791,0-1.433-0.641-1.433-1.433V74.015c0-0.791,0.641-1.433,1.433-1.433h30.844c0.791,0,1.433,0.641,1.433,1.433v16.482
		C287.863,91.288,287.221,91.93,286.43,91.93z"/>
	<g>
		<path fill="#449FD8" d="M261.308,79.875h1.198c0.195,0,0.374,0.016,0.536,0.049c0.162,0.032,0.304,0.084,0.424,0.154
			c0.121,0.07,0.214,0.165,0.281,0.284c0.067,0.118,0.101,0.263,0.101,0.436c0,0.179-0.053,0.346-0.158,0.498
			c-0.105,0.153-0.267,0.258-0.484,0.315v0.022c0.271,0.046,0.479,0.143,0.622,0.29c0.143,0.146,0.215,0.347,0.215,0.599
			c0,0.188-0.037,0.35-0.109,0.487c-0.073,0.138-0.173,0.252-0.301,0.344c-0.128,0.092-0.28,0.159-0.456,0.203
			c-0.176,0.044-0.367,0.066-0.573,0.066h-1.295V79.875z M262.449,81.427c0.264,0,0.454-0.048,0.57-0.144
			c0.116-0.095,0.175-0.23,0.175-0.406c0-0.172-0.062-0.296-0.184-0.373c-0.122-0.076-0.306-0.114-0.55-0.114h-0.487v1.037H262.449z
			 M262.535,83.107c0.275,0,0.487-0.052,0.636-0.155s0.224-0.262,0.224-0.476c0-0.195-0.073-0.339-0.218-0.433
			c-0.146-0.094-0.359-0.141-0.642-0.141h-0.562v1.204H262.535z"/>
		<path fill="#449FD8" d="M264.644,80.808h0.659v1.68c0,0.232,0.034,0.397,0.103,0.492c0.069,0.096,0.18,0.144,0.333,0.144
			c0.122,0,0.23-0.03,0.324-0.092c0.094-0.061,0.194-0.16,0.301-0.298v-1.926h0.659v2.814h-0.539l-0.052-0.413h-0.017
			c-0.123,0.146-0.255,0.262-0.398,0.35c-0.143,0.088-0.312,0.132-0.507,0.132c-0.302,0-0.521-0.097-0.659-0.289
			c-0.138-0.193-0.207-0.469-0.207-0.828V80.808z"/>
		<path fill="#449FD8" d="M268.191,80.316c-0.119,0-0.216-0.035-0.292-0.104c-0.077-0.069-0.115-0.158-0.115-0.27
			c0-0.11,0.038-0.201,0.115-0.272c0.076-0.07,0.174-0.105,0.292-0.105c0.118,0,0.216,0.035,0.292,0.105
			c0.077,0.071,0.115,0.162,0.115,0.272c0,0.111-0.038,0.2-0.115,0.27C268.407,80.281,268.31,80.316,268.191,80.316z
			 M267.859,80.808h0.659v2.814h-0.659V80.808z"/>
		<path fill="#449FD8" d="M269.36,79.577h0.659v3.358c0,0.08,0.015,0.136,0.046,0.169c0.03,0.032,0.063,0.049,0.097,0.049
			c0.015,0,0.03,0,0.043,0s0.033-0.004,0.06-0.012l0.086,0.492c-0.088,0.039-0.204,0.058-0.35,0.058
			c-0.237,0-0.403-0.07-0.499-0.212c-0.095-0.142-0.143-0.334-0.143-0.579V79.577z"/>
		<path fill="#449FD8" d="M270.742,82.218c0-0.229,0.033-0.436,0.1-0.619s0.156-0.338,0.267-0.464s0.238-0.224,0.381-0.293
			c0.144-0.068,0.292-0.103,0.444-0.103c0.161,0,0.296,0.027,0.407,0.083s0.222,0.131,0.333,0.227l-0.023-0.453v-1.02h0.659v4.046
			h-0.544l-0.046-0.304h-0.023c-0.103,0.103-0.224,0.19-0.361,0.264c-0.138,0.072-0.283,0.108-0.436,0.108
			c-0.355,0-0.637-0.129-0.846-0.387C270.846,83.047,270.742,82.684,270.742,82.218z M271.423,82.213
			c0,0.306,0.055,0.538,0.164,0.696c0.109,0.159,0.267,0.238,0.473,0.238c0.21,0,0.407-0.105,0.59-0.315v-1.312
			c-0.099-0.088-0.196-0.149-0.29-0.184c-0.093-0.034-0.188-0.052-0.284-0.052c-0.183,0-0.338,0.081-0.464,0.241
			S271.423,81.915,271.423,82.213z"/>
		<path fill="#449FD8" d="M273.962,82.218c0-0.229,0.037-0.436,0.109-0.619c0.073-0.184,0.169-0.338,0.29-0.464
			c0.12-0.126,0.259-0.224,0.416-0.293c0.157-0.068,0.317-0.103,0.481-0.103c0.191,0,0.359,0.032,0.504,0.098
			c0.145,0.064,0.267,0.156,0.364,0.274c0.098,0.119,0.171,0.26,0.221,0.425c0.05,0.164,0.075,0.344,0.075,0.538
			c0,0.13-0.01,0.233-0.029,0.31h-1.788c0.03,0.256,0.119,0.453,0.267,0.591c0.147,0.137,0.335,0.206,0.564,0.206
			c0.122,0,0.236-0.019,0.341-0.055s0.209-0.087,0.312-0.151l0.224,0.412c-0.134,0.088-0.283,0.16-0.447,0.218
			c-0.165,0.058-0.336,0.086-0.516,0.086c-0.195,0-0.376-0.033-0.544-0.101c-0.168-0.066-0.315-0.163-0.441-0.289
			s-0.225-0.279-0.295-0.461S273.962,82.452,273.962,82.218z M275.848,81.966c0-0.226-0.047-0.401-0.141-0.527
			s-0.238-0.189-0.433-0.189c-0.168,0-0.315,0.061-0.441,0.181c-0.126,0.12-0.204,0.299-0.235,0.536H275.848z"/>
		<path fill="#449FD8" d="M277.051,80.808h0.544l0.046,0.499h0.023c0.099-0.184,0.22-0.324,0.361-0.422
			c0.142-0.097,0.287-0.146,0.436-0.146c0.134,0,0.241,0.019,0.321,0.058l-0.114,0.572c-0.05-0.015-0.096-0.026-0.138-0.034
			s-0.094-0.012-0.155-0.012c-0.111,0-0.228,0.043-0.35,0.129c-0.122,0.087-0.227,0.236-0.315,0.45v1.72h-0.659V80.808z"/>
		<path fill="#449FD8" d="M279.161,82.878c0.126,0.1,0.251,0.177,0.375,0.232c0.124,0.055,0.259,0.083,0.404,0.083
			c0.153,0,0.266-0.032,0.338-0.095c0.073-0.063,0.109-0.145,0.109-0.244c0-0.057-0.017-0.107-0.051-0.151
			c-0.035-0.044-0.081-0.083-0.138-0.117c-0.057-0.035-0.123-0.066-0.195-0.095c-0.073-0.029-0.146-0.059-0.218-0.089
			c-0.092-0.034-0.186-0.075-0.281-0.121c-0.096-0.045-0.181-0.101-0.255-0.166c-0.074-0.064-0.135-0.14-0.183-0.227
			c-0.048-0.086-0.072-0.188-0.072-0.306c0-0.249,0.092-0.451,0.275-0.608c0.183-0.156,0.434-0.234,0.75-0.234
			c0.195,0,0.371,0.034,0.527,0.103c0.157,0.069,0.292,0.147,0.407,0.235l-0.304,0.401c-0.099-0.072-0.2-0.131-0.301-0.175
			s-0.208-0.066-0.318-0.066c-0.142,0-0.246,0.03-0.312,0.089c-0.067,0.06-0.101,0.133-0.101,0.221c0,0.058,0.017,0.106,0.049,0.146
			c0.033,0.04,0.076,0.075,0.129,0.106c0.054,0.03,0.116,0.059,0.187,0.086c0.07,0.026,0.144,0.053,0.221,0.08
			c0.095,0.034,0.191,0.073,0.287,0.117c0.095,0.044,0.182,0.099,0.261,0.163c0.078,0.065,0.141,0.145,0.189,0.238
			s0.072,0.205,0.072,0.335c0,0.122-0.024,0.236-0.072,0.341c-0.048,0.105-0.118,0.197-0.209,0.275
			c-0.092,0.078-0.207,0.141-0.344,0.187c-0.137,0.046-0.294,0.068-0.47,0.068c-0.195,0-0.387-0.037-0.576-0.111
			c-0.189-0.075-0.353-0.167-0.49-0.278L279.161,82.878z"/>
	</g>
	<g>
		<g>
			<path fill="none" stroke="#64C2E5" stroke-width="0.5" stroke-miterlimit="10" d="M271.628,70.895v-3.653
				c0-1.161-0.941-2.101-2.101-2.101h-33.439c-1.161,0-2.101-0.941-2.101-2.101v-2.716"/>
			<g>
				<path fill="#64C2E5" d="M273.668,67.99c-0.099-0.063-0.23-0.034-0.293,0.065l-1.746,2.742l-1.746-2.742
					c-0.063-0.099-0.195-0.128-0.293-0.065c-0.099,0.063-0.127,0.195-0.065,0.293l1.926,3.024c0.039,0.061,0.107,0.098,0.179,0.098
					s0.14-0.037,0.179-0.098l1.926-3.024c0.022-0.035,0.033-0.075,0.033-0.114C273.766,68.099,273.731,68.031,273.668,67.99z"/>
			</g>
		</g>
	</g>
	<g>
		<g>
			
				<line fill="none" stroke="#64C2E5" stroke-width="0.5" stroke-miterlimit="10" x1="231.628" y1="70.895" x2="231.628" y2="61.242"/>
			<g>
				<path fill="#64C2E5" d="M233.668,67.99c-0.099-0.063-0.23-0.034-0.293,0.065l-1.746,2.742l-1.746-2.742
					c-0.063-0.099-0.195-0.128-0.293-0.065c-0.099,0.063-0.127,0.195-0.065,0.293l1.926,3.024c0.039,0.061,0.107,0.098,0.179,0.098
					s0.14-0.037,0.179-0.098l1.926-3.024c0.022-0.035,0.033-0.075,0.033-0.114C233.766,68.099,233.731,68.031,233.668,67.99z"/>
			</g>
		</g>
	</g>
	<path fill="#FFFFFF" stroke="#64C2E5" stroke-width="0.5" stroke-miterlimit="10" d="M253.883,60.93h-39.844
		c-0.791,0-1.433-0.641-1.433-1.433V43.015c0-0.791,0.641-1.433,1.433-1.433h39.844c0.791,0,1.433,0.641,1.433,1.433v16.482
		C255.316,60.288,254.675,60.93,253.883,60.93z"/>
	<path fill="#FFFFFF" stroke="#64C2E5" stroke-width="0.5" stroke-miterlimit="10" d="M251.883,58.93h-39.844
		c-0.791,0-1.433-0.641-1.433-1.433V41.015c0-0.791,0.641-1.433,1.433-1.433h39.844c0.791,0,1.433,0.641,1.433,1.433v16.482
		C253.316,58.288,252.675,58.93,251.883,58.93z"/>
	<g>
		<path fill="#449FD8" d="M220.564,49.608h-1.261l-0.292,1.015h-0.676l1.221-3.748h0.779l1.221,3.748h-0.699L220.564,49.608z
			 M220.415,49.087l-0.132-0.459c-0.061-0.198-0.119-0.402-0.175-0.612c-0.055-0.211-0.11-0.419-0.163-0.625h-0.023
			c-0.054,0.21-0.107,0.419-0.161,0.627c-0.054,0.209-0.111,0.412-0.172,0.61l-0.132,0.459H220.415z"/>
		<path fill="#449FD8" d="M222.622,50.851v0.883h-0.659v-3.926h0.544l0.046,0.298h0.023c0.118-0.099,0.25-0.185,0.396-0.258
			c0.145-0.072,0.296-0.108,0.453-0.108c0.176,0,0.332,0.033,0.467,0.101c0.136,0.066,0.251,0.163,0.347,0.289
			c0.095,0.126,0.168,0.277,0.218,0.453c0.049,0.176,0.074,0.372,0.074,0.59c0,0.24-0.033,0.456-0.1,0.645
			c-0.067,0.189-0.156,0.348-0.267,0.476s-0.239,0.227-0.384,0.296c-0.146,0.068-0.296,0.103-0.453,0.103
			c-0.122,0-0.245-0.026-0.367-0.08s-0.241-0.13-0.355-0.229L222.622,50.851z M222.622,49.912c0.103,0.088,0.202,0.149,0.298,0.184
			c0.095,0.034,0.185,0.052,0.27,0.052c0.187,0,0.344-0.081,0.47-0.244c0.126-0.162,0.189-0.404,0.189-0.725
			c0-0.283-0.048-0.503-0.143-0.659c-0.096-0.156-0.25-0.235-0.464-0.235c-0.199,0-0.405,0.105-0.619,0.315V49.912z"/>
		<path fill="#449FD8" d="M225.854,50.851v0.883h-0.659v-3.926h0.544l0.046,0.298h0.023c0.118-0.099,0.25-0.185,0.396-0.258
			c0.145-0.072,0.296-0.108,0.453-0.108c0.176,0,0.332,0.033,0.467,0.101c0.136,0.066,0.251,0.163,0.347,0.289
			c0.095,0.126,0.168,0.277,0.218,0.453c0.049,0.176,0.074,0.372,0.074,0.59c0,0.24-0.033,0.456-0.1,0.645
			c-0.067,0.189-0.156,0.348-0.267,0.476s-0.239,0.227-0.384,0.296c-0.146,0.068-0.296,0.103-0.453,0.103
			c-0.122,0-0.245-0.026-0.367-0.08s-0.241-0.13-0.355-0.229L225.854,50.851z M225.854,49.912c0.103,0.088,0.202,0.149,0.298,0.184
			c0.095,0.034,0.185,0.052,0.27,0.052c0.187,0,0.344-0.081,0.47-0.244c0.126-0.162,0.189-0.404,0.189-0.725
			c0-0.283-0.048-0.503-0.143-0.659c-0.096-0.156-0.25-0.235-0.464-0.235c-0.199,0-0.405,0.105-0.619,0.315V49.912z"/>
		<path fill="#449FD8" d="M228.427,46.577h0.659v3.358c0,0.08,0.015,0.136,0.046,0.169c0.03,0.032,0.063,0.049,0.097,0.049
			c0.015,0,0.03,0,0.043,0s0.033-0.004,0.06-0.012l0.086,0.492c-0.088,0.039-0.204,0.058-0.35,0.058
			c-0.237,0-0.403-0.07-0.499-0.212c-0.095-0.142-0.143-0.334-0.143-0.579V46.577z"/>
		<path fill="#449FD8" d="M230.313,47.316c-0.119,0-0.216-0.035-0.292-0.104c-0.077-0.069-0.115-0.158-0.115-0.27
			c0-0.11,0.038-0.201,0.115-0.272c0.076-0.07,0.174-0.105,0.292-0.105c0.118,0,0.216,0.035,0.292,0.105
			c0.077,0.071,0.115,0.162,0.115,0.272c0,0.111-0.038,0.2-0.115,0.27C230.529,47.281,230.431,47.316,230.313,47.316z
			 M229.98,47.808h0.659v2.814h-0.659V47.808z"/>
		<path fill="#449FD8" d="M231.298,49.218c0-0.233,0.038-0.441,0.115-0.625c0.076-0.184,0.18-0.338,0.31-0.464
			s0.28-0.223,0.45-0.289c0.17-0.067,0.349-0.101,0.536-0.101c0.183,0,0.343,0.031,0.479,0.095c0.135,0.062,0.251,0.14,0.347,0.231
			l-0.315,0.419c-0.076-0.065-0.153-0.116-0.229-0.152c-0.077-0.036-0.159-0.055-0.247-0.055c-0.229,0-0.415,0.086-0.556,0.256
			c-0.142,0.17-0.212,0.398-0.212,0.685c0,0.283,0.07,0.509,0.209,0.679c0.139,0.171,0.32,0.256,0.542,0.256
			c0.115,0,0.221-0.024,0.318-0.072c0.098-0.048,0.185-0.104,0.261-0.169l0.275,0.418c-0.134,0.119-0.281,0.209-0.441,0.27
			c-0.161,0.062-0.321,0.092-0.481,0.092c-0.191,0-0.37-0.032-0.536-0.098c-0.167-0.064-0.311-0.16-0.433-0.286
			c-0.122-0.126-0.218-0.281-0.287-0.464C231.333,49.66,231.298,49.452,231.298,49.218z"/>
		<path fill="#449FD8" d="M233.952,49.866c0-0.302,0.132-0.535,0.396-0.699s0.684-0.278,1.261-0.344
			c0-0.072-0.009-0.143-0.028-0.209c-0.02-0.067-0.049-0.126-0.089-0.178s-0.092-0.092-0.155-0.12
			c-0.063-0.029-0.143-0.043-0.238-0.043c-0.142,0-0.278,0.026-0.41,0.08s-0.259,0.118-0.381,0.194l-0.241-0.441
			c0.157-0.099,0.332-0.185,0.524-0.258c0.193-0.072,0.402-0.108,0.627-0.108c0.355,0,0.619,0.104,0.791,0.312
			c0.172,0.208,0.258,0.509,0.258,0.902v1.668h-0.539l-0.052-0.31h-0.017c-0.126,0.106-0.261,0.196-0.404,0.27
			c-0.144,0.072-0.299,0.108-0.467,0.108c-0.249,0-0.45-0.075-0.604-0.227C234.029,50.314,233.952,50.114,233.952,49.866z
			 M234.594,49.814c0,0.126,0.037,0.218,0.112,0.275c0.074,0.058,0.171,0.086,0.29,0.086c0.114,0,0.219-0.026,0.315-0.08
			s0.195-0.13,0.298-0.229v-0.63c-0.191,0.022-0.352,0.053-0.481,0.091c-0.13,0.039-0.234,0.082-0.312,0.129
			c-0.079,0.048-0.135,0.103-0.169,0.164C234.611,49.68,234.594,49.746,234.594,49.814z"/>
		<path fill="#449FD8" d="M237.167,48.33h-0.401v-0.492l0.436-0.029l0.08-0.768h0.55v0.768h0.716v0.521h-0.716v1.342
			c0,0.328,0.132,0.492,0.396,0.492c0.049,0,0.1-0.006,0.152-0.017c0.051-0.012,0.098-0.027,0.14-0.046l0.115,0.487
			c-0.077,0.026-0.163,0.05-0.261,0.071c-0.097,0.021-0.202,0.031-0.312,0.031c-0.164,0-0.303-0.024-0.416-0.074
			c-0.112-0.05-0.204-0.119-0.275-0.209s-0.122-0.197-0.155-0.321c-0.032-0.124-0.049-0.263-0.049-0.415V48.33z"/>
		<path fill="#449FD8" d="M239.471,47.316c-0.119,0-0.216-0.035-0.292-0.104c-0.077-0.069-0.115-0.158-0.115-0.27
			c0-0.11,0.038-0.201,0.115-0.272c0.076-0.07,0.174-0.105,0.292-0.105c0.118,0,0.216,0.035,0.292,0.105
			c0.077,0.071,0.115,0.162,0.115,0.272c0,0.111-0.038,0.2-0.115,0.27C239.687,47.281,239.589,47.316,239.471,47.316z
			 M239.138,47.808h0.659v2.814h-0.659V47.808z"/>
		<path fill="#449FD8" d="M240.456,49.218c0-0.233,0.037-0.441,0.109-0.625c0.073-0.184,0.171-0.338,0.295-0.464
			c0.124-0.126,0.266-0.223,0.427-0.289c0.161-0.067,0.329-0.101,0.504-0.101s0.345,0.033,0.507,0.101
			c0.162,0.066,0.305,0.163,0.427,0.289c0.123,0.126,0.221,0.28,0.295,0.464c0.074,0.184,0.112,0.392,0.112,0.625
			s-0.038,0.441-0.112,0.625c-0.075,0.183-0.173,0.338-0.295,0.464c-0.122,0.126-0.265,0.222-0.427,0.286
			c-0.163,0.065-0.332,0.098-0.507,0.098s-0.344-0.032-0.504-0.098c-0.161-0.064-0.303-0.16-0.427-0.286
			c-0.125-0.126-0.223-0.281-0.295-0.464C240.493,49.66,240.456,49.452,240.456,49.218z M241.132,49.218
			c0,0.283,0.058,0.509,0.175,0.679c0.117,0.171,0.278,0.256,0.484,0.256s0.369-0.085,0.487-0.256
			c0.118-0.17,0.178-0.396,0.178-0.679c0-0.286-0.06-0.515-0.178-0.685c-0.119-0.17-0.281-0.256-0.487-0.256
			s-0.368,0.086-0.484,0.256S241.132,48.932,241.132,49.218z"/>
		<path fill="#449FD8" d="M243.786,47.808h0.544l0.046,0.379h0.023c0.126-0.123,0.263-0.228,0.41-0.315s0.318-0.132,0.513-0.132
			c0.302,0,0.521,0.097,0.659,0.289c0.138,0.193,0.207,0.47,0.207,0.828v1.766h-0.659v-1.68c0-0.232-0.034-0.397-0.103-0.492
			c-0.069-0.096-0.182-0.144-0.338-0.144c-0.122,0-0.23,0.029-0.324,0.089c-0.094,0.059-0.2,0.146-0.318,0.261v1.966h-0.659V47.808z
			"/>
	</g>
	<g>
		<path fill="#449FD8" d="M202.158,29.059c-0.057,0.02-0.134,0.038-0.229,0.058c-0.096,0.019-0.199,0.028-0.31,0.028
			c-0.348,0-0.638-0.083-0.871-0.249s-0.405-0.379-0.516-0.639c-0.207-0.027-0.394-0.092-0.562-0.195
			c-0.168-0.104-0.312-0.238-0.433-0.407c-0.12-0.168-0.213-0.365-0.278-0.593s-0.098-0.479-0.098-0.754
			c0-0.302,0.039-0.572,0.118-0.811c0.078-0.239,0.188-0.441,0.33-0.607c0.141-0.166,0.31-0.293,0.507-0.382
			c0.197-0.087,0.414-0.131,0.65-0.131s0.454,0.045,0.65,0.134c0.197,0.09,0.367,0.218,0.51,0.385
			c0.143,0.166,0.254,0.368,0.332,0.607c0.079,0.238,0.118,0.507,0.118,0.805c0,0.271-0.032,0.519-0.095,0.742
			s-0.153,0.419-0.269,0.585c-0.117,0.166-0.257,0.302-0.421,0.406c-0.165,0.105-0.346,0.175-0.544,0.21
			c0.088,0.168,0.212,0.292,0.373,0.372c0.16,0.08,0.344,0.12,0.55,0.12c0.084,0,0.157-0.005,0.22-0.017
			c0.063-0.012,0.122-0.025,0.175-0.04L202.158,29.059z M199.355,26.308c0,0.241,0.026,0.458,0.08,0.65
			c0.054,0.193,0.129,0.358,0.227,0.496c0.097,0.138,0.214,0.242,0.35,0.315c0.135,0.072,0.287,0.108,0.456,0.108
			c0.168,0,0.32-0.036,0.456-0.108c0.136-0.073,0.252-0.178,0.35-0.315c0.097-0.138,0.173-0.303,0.226-0.496
			c0.054-0.192,0.081-0.409,0.081-0.65c0-0.232-0.027-0.443-0.081-0.63c-0.053-0.188-0.129-0.346-0.226-0.476
			c-0.098-0.13-0.214-0.23-0.35-0.302c-0.136-0.07-0.288-0.105-0.456-0.105c-0.168,0-0.32,0.035-0.456,0.105
			c-0.136,0.071-0.252,0.172-0.35,0.302c-0.098,0.13-0.173,0.288-0.227,0.476C199.382,25.865,199.355,26.076,199.355,26.308z"/>
		<path fill="#449FD8" d="M202.799,25.421h0.476v1.702c0,0.264,0.041,0.453,0.124,0.57c0.082,0.116,0.215,0.175,0.398,0.175
			c0.145,0,0.273-0.038,0.384-0.112s0.233-0.193,0.367-0.358v-1.977h0.47v2.785h-0.39l-0.04-0.436h-0.017
			c-0.13,0.152-0.267,0.274-0.41,0.366c-0.144,0.092-0.312,0.138-0.507,0.138c-0.298,0-0.515-0.092-0.65-0.275
			c-0.136-0.183-0.204-0.454-0.204-0.813V25.421z"/>
		<path fill="#449FD8" d="M205.82,27.483c0-0.306,0.136-0.539,0.41-0.702c0.273-0.162,0.708-0.275,1.304-0.341
			c0-0.088-0.008-0.174-0.026-0.258c-0.017-0.084-0.048-0.158-0.091-0.224c-0.044-0.064-0.103-0.117-0.175-0.157
			c-0.073-0.04-0.167-0.061-0.281-0.061c-0.164,0-0.316,0.031-0.456,0.092c-0.139,0.062-0.265,0.13-0.375,0.206l-0.189-0.326
			c0.13-0.084,0.289-0.165,0.476-0.244c0.188-0.078,0.394-0.117,0.619-0.117c0.34,0,0.586,0.104,0.739,0.312
			s0.229,0.486,0.229,0.834v1.708h-0.39l-0.041-0.333h-0.011c-0.134,0.111-0.278,0.206-0.433,0.284s-0.318,0.117-0.49,0.117
			c-0.237,0-0.433-0.068-0.587-0.206S205.82,27.736,205.82,27.483z M206.284,27.449c0,0.16,0.047,0.275,0.141,0.344
			c0.094,0.069,0.209,0.104,0.347,0.104c0.134,0,0.261-0.031,0.381-0.095c0.12-0.063,0.247-0.155,0.381-0.278V26.75
			c-0.233,0.03-0.43,0.067-0.59,0.109c-0.16,0.042-0.289,0.092-0.387,0.148c-0.098,0.058-0.167,0.123-0.209,0.198
			C206.305,27.28,206.284,27.361,206.284,27.449z"/>
		<path fill="#449FD8" d="M208.806,29c0.039,0.009,0.075,0.014,0.109,0.014c0.161,0,0.292-0.057,0.393-0.169
			c0.102-0.112,0.181-0.255,0.238-0.427l0.063-0.206l-1.118-2.791h0.487l0.567,1.541c0.042,0.123,0.086,0.252,0.134,0.387
			c0.048,0.136,0.093,0.269,0.135,0.398h0.023c0.042-0.126,0.082-0.258,0.121-0.396c0.038-0.138,0.076-0.267,0.114-0.39l0.499-1.541
			h0.458l-1.048,3.014c-0.05,0.138-0.105,0.266-0.167,0.385c-0.061,0.118-0.134,0.221-0.218,0.307s-0.18,0.153-0.287,0.203
			s-0.231,0.074-0.373,0.074c-0.065,0-0.124-0.005-0.178-0.014c-0.053-0.01-0.103-0.024-0.149-0.043l0.092-0.373
			C208.733,28.981,208.768,28.99,208.806,29z"/>
		<path fill="#449FD8" d="M212.771,24.446h2.167v0.401h-1.69v1.181h1.427v0.406h-1.427v1.364h1.748v0.407h-2.224V24.446z"/>
		<path fill="#449FD8" d="M215.746,25.421h0.39l0.04,0.4h0.017c0.134-0.134,0.274-0.245,0.421-0.335
			c0.147-0.09,0.318-0.135,0.513-0.135c0.294,0,0.509,0.092,0.645,0.275c0.135,0.184,0.203,0.455,0.203,0.813v1.766h-0.47v-1.702
			c0-0.264-0.042-0.454-0.126-0.57c-0.084-0.116-0.218-0.175-0.401-0.175c-0.146,0-0.273,0.036-0.384,0.108
			c-0.111,0.073-0.237,0.18-0.378,0.321v2.018h-0.47V25.421z"/>
		<path fill="#449FD8" d="M218.961,25.804h-0.413v-0.355l0.436-0.028l0.057-0.78h0.396v0.78h0.751v0.384h-0.751v1.547
			c0,0.172,0.032,0.305,0.095,0.398s0.175,0.141,0.335,0.141c0.05,0,0.104-0.008,0.161-0.022c0.057-0.016,0.109-0.033,0.155-0.052
			l0.092,0.355c-0.077,0.026-0.16,0.05-0.25,0.071c-0.09,0.021-0.179,0.031-0.267,0.031c-0.149,0-0.274-0.022-0.375-0.068
			c-0.101-0.046-0.183-0.109-0.246-0.189s-0.108-0.178-0.135-0.292c-0.027-0.115-0.04-0.241-0.04-0.379V25.804z"/>
		<path fill="#449FD8" d="M220.554,26.819c0-0.229,0.035-0.435,0.106-0.616s0.164-0.336,0.281-0.462s0.25-0.223,0.398-0.289
			c0.149-0.067,0.304-0.101,0.464-0.101c0.175,0,0.333,0.031,0.473,0.092c0.14,0.062,0.256,0.149,0.35,0.264
			s0.165,0.252,0.215,0.413c0.05,0.16,0.075,0.34,0.075,0.538c0,0.104-0.006,0.189-0.018,0.258h-1.879
			c0.019,0.302,0.112,0.541,0.278,0.717s0.383,0.264,0.65,0.264c0.134,0,0.257-0.021,0.37-0.061s0.221-0.093,0.324-0.157l0.167,0.31
			c-0.123,0.076-0.258,0.143-0.407,0.2s-0.319,0.086-0.51,0.086c-0.188,0-0.362-0.033-0.524-0.101
			c-0.163-0.066-0.304-0.162-0.424-0.286c-0.12-0.124-0.215-0.276-0.284-0.456C220.588,27.253,220.554,27.048,220.554,26.819z
			 M222.503,26.606c0-0.286-0.061-0.505-0.181-0.656c-0.121-0.15-0.29-0.226-0.507-0.226c-0.099,0-0.194,0.02-0.284,0.06
			s-0.171,0.098-0.244,0.172c-0.072,0.075-0.133,0.167-0.18,0.275c-0.048,0.109-0.08,0.234-0.095,0.375H222.503z"/>
		<path fill="#449FD8" d="M223.603,25.421h0.39l0.04,0.504h0.017c0.095-0.176,0.211-0.315,0.347-0.418
			c0.136-0.104,0.284-0.155,0.444-0.155c0.111,0,0.21,0.02,0.298,0.058l-0.092,0.412c-0.046-0.015-0.088-0.026-0.126-0.034
			s-0.086-0.012-0.143-0.012c-0.119,0-0.242,0.048-0.37,0.144c-0.128,0.096-0.24,0.262-0.335,0.499v1.788h-0.47V25.421z"/>
		<path fill="#449FD8" d="M226.062,28.44v0.94h-0.47v-3.96h0.39l0.04,0.32h0.017c0.126-0.106,0.265-0.198,0.416-0.274
			c0.151-0.077,0.309-0.115,0.473-0.115c0.18,0,0.338,0.033,0.476,0.101c0.138,0.066,0.252,0.162,0.344,0.286
			c0.091,0.124,0.161,0.273,0.209,0.447s0.072,0.37,0.072,0.588c0,0.236-0.033,0.447-0.098,0.633s-0.153,0.343-0.264,0.473
			s-0.239,0.229-0.384,0.295c-0.146,0.067-0.298,0.101-0.458,0.101c-0.13,0-0.259-0.028-0.387-0.086
			c-0.128-0.058-0.257-0.136-0.387-0.234L226.062,28.44z M226.062,27.587c0.126,0.107,0.248,0.183,0.367,0.227
			s0.224,0.065,0.315,0.065c0.114,0,0.221-0.025,0.318-0.077c0.098-0.052,0.182-0.124,0.252-0.218
			c0.071-0.094,0.126-0.209,0.167-0.347s0.06-0.292,0.06-0.464c0-0.153-0.013-0.293-0.04-0.419s-0.07-0.233-0.129-0.323
			c-0.06-0.09-0.136-0.16-0.229-0.21c-0.093-0.049-0.205-0.074-0.335-0.074c-0.119,0-0.238,0.032-0.358,0.098
			c-0.12,0.064-0.249,0.158-0.387,0.28V27.587z"/>
		<path fill="#449FD8" d="M228.772,25.421h0.39l0.04,0.504h0.017c0.095-0.176,0.211-0.315,0.347-0.418
			c0.136-0.104,0.284-0.155,0.444-0.155c0.111,0,0.21,0.02,0.298,0.058l-0.092,0.412c-0.046-0.015-0.088-0.026-0.126-0.034
			s-0.086-0.012-0.143-0.012c-0.119,0-0.242,0.048-0.37,0.144c-0.128,0.096-0.24,0.262-0.335,0.499v1.788h-0.47V25.421z"/>
		<path fill="#449FD8" d="M231.001,24.847c-0.091,0-0.169-0.029-0.232-0.086c-0.063-0.058-0.095-0.13-0.095-0.218
			c0-0.092,0.032-0.165,0.095-0.221s0.141-0.083,0.232-0.083c0.092,0,0.169,0.027,0.232,0.083s0.094,0.129,0.094,0.221
			c0,0.088-0.031,0.16-0.094,0.218C231.171,24.818,231.093,24.847,231.001,24.847z M230.761,25.421h0.47v2.785h-0.47V25.421z"/>
		<path fill="#449FD8" d="M232.096,27.575c0.122,0.1,0.247,0.18,0.375,0.241c0.128,0.061,0.276,0.092,0.444,0.092
			c0.184,0,0.321-0.042,0.413-0.127c0.092-0.084,0.138-0.187,0.138-0.309c0-0.073-0.019-0.136-0.057-0.189
			c-0.039-0.054-0.087-0.101-0.146-0.141c-0.059-0.04-0.127-0.075-0.203-0.105c-0.077-0.031-0.153-0.062-0.229-0.092
			c-0.099-0.035-0.199-0.074-0.298-0.118c-0.1-0.044-0.188-0.097-0.267-0.16s-0.142-0.137-0.192-0.221s-0.075-0.186-0.075-0.304
			c0-0.11,0.022-0.215,0.066-0.312s0.107-0.182,0.189-0.252c0.082-0.07,0.182-0.126,0.301-0.166c0.118-0.04,0.252-0.061,0.401-0.061
			c0.176,0,0.337,0.031,0.484,0.092c0.147,0.062,0.274,0.136,0.381,0.224l-0.224,0.298c-0.096-0.072-0.195-0.132-0.298-0.178
			c-0.104-0.046-0.216-0.068-0.338-0.068c-0.176,0-0.305,0.04-0.387,0.12s-0.123,0.174-0.123,0.281c0,0.064,0.017,0.121,0.051,0.169
			c0.035,0.048,0.081,0.09,0.138,0.126s0.123,0.068,0.198,0.098c0.074,0.028,0.152,0.058,0.232,0.089
			c0.1,0.038,0.2,0.078,0.301,0.12c0.102,0.042,0.192,0.095,0.272,0.157c0.08,0.063,0.146,0.141,0.198,0.232
			c0.051,0.092,0.077,0.202,0.077,0.332c0,0.115-0.022,0.222-0.066,0.321s-0.109,0.188-0.195,0.264s-0.193,0.137-0.321,0.181
			s-0.274,0.065-0.438,0.065c-0.199,0-0.388-0.036-0.567-0.108c-0.18-0.073-0.336-0.165-0.47-0.275L232.096,27.575z"/>
		<path fill="#449FD8" d="M234.366,26.819c0-0.229,0.035-0.435,0.106-0.616s0.164-0.336,0.281-0.462s0.25-0.223,0.398-0.289
			c0.149-0.067,0.304-0.101,0.464-0.101c0.175,0,0.333,0.031,0.473,0.092c0.14,0.062,0.256,0.149,0.35,0.264
			s0.165,0.252,0.215,0.413c0.05,0.16,0.075,0.34,0.075,0.538c0,0.104-0.006,0.189-0.018,0.258h-1.879
			c0.019,0.302,0.112,0.541,0.278,0.717s0.383,0.264,0.65,0.264c0.134,0,0.257-0.021,0.37-0.061s0.221-0.093,0.324-0.157l0.167,0.31
			c-0.123,0.076-0.258,0.143-0.407,0.2s-0.319,0.086-0.51,0.086c-0.188,0-0.362-0.033-0.524-0.101
			c-0.163-0.066-0.304-0.162-0.424-0.286c-0.12-0.124-0.215-0.276-0.284-0.456C234.4,27.253,234.366,27.048,234.366,26.819z
			 M236.314,26.606c0-0.286-0.061-0.505-0.181-0.656c-0.121-0.15-0.29-0.226-0.507-0.226c-0.099,0-0.194,0.02-0.284,0.06
			s-0.171,0.098-0.244,0.172c-0.072,0.075-0.133,0.167-0.18,0.275c-0.048,0.109-0.08,0.234-0.095,0.375H236.314z"/>
		<path fill="#449FD8" d="M238.618,24.446h0.476v3.76h-0.476V24.446z"/>
		<path fill="#449FD8" d="M240.079,25.421h0.39l0.04,0.4h0.017c0.134-0.134,0.274-0.245,0.421-0.335
			c0.147-0.09,0.318-0.135,0.513-0.135c0.294,0,0.509,0.092,0.645,0.275c0.135,0.184,0.203,0.455,0.203,0.813v1.766h-0.47v-1.702
			c0-0.264-0.042-0.454-0.126-0.57c-0.084-0.116-0.218-0.175-0.401-0.175c-0.146,0-0.273,0.036-0.384,0.108
			c-0.111,0.073-0.237,0.18-0.378,0.321v2.018h-0.47V25.421z"/>
		<path fill="#449FD8" d="M243.14,27.575c0.122,0.1,0.247,0.18,0.375,0.241c0.128,0.061,0.276,0.092,0.444,0.092
			c0.184,0,0.321-0.042,0.413-0.127c0.092-0.084,0.138-0.187,0.138-0.309c0-0.073-0.019-0.136-0.057-0.189
			c-0.039-0.054-0.087-0.101-0.146-0.141c-0.059-0.04-0.127-0.075-0.203-0.105c-0.077-0.031-0.153-0.062-0.229-0.092
			c-0.099-0.035-0.199-0.074-0.298-0.118c-0.1-0.044-0.188-0.097-0.267-0.16s-0.142-0.137-0.192-0.221s-0.075-0.186-0.075-0.304
			c0-0.11,0.022-0.215,0.066-0.312s0.107-0.182,0.189-0.252c0.082-0.07,0.182-0.126,0.301-0.166c0.118-0.04,0.252-0.061,0.401-0.061
			c0.176,0,0.337,0.031,0.484,0.092c0.147,0.062,0.274,0.136,0.381,0.224l-0.224,0.298c-0.096-0.072-0.195-0.132-0.298-0.178
			c-0.104-0.046-0.216-0.068-0.338-0.068c-0.176,0-0.305,0.04-0.387,0.12s-0.123,0.174-0.123,0.281c0,0.064,0.017,0.121,0.051,0.169
			c0.035,0.048,0.081,0.09,0.138,0.126s0.123,0.068,0.198,0.098c0.074,0.028,0.152,0.058,0.232,0.089
			c0.1,0.038,0.2,0.078,0.301,0.12c0.102,0.042,0.192,0.095,0.272,0.157c0.08,0.063,0.146,0.141,0.198,0.232
			c0.051,0.092,0.077,0.202,0.077,0.332c0,0.115-0.022,0.222-0.066,0.321s-0.109,0.188-0.195,0.264s-0.193,0.137-0.321,0.181
			s-0.274,0.065-0.438,0.065c-0.199,0-0.388-0.036-0.567-0.108c-0.18-0.073-0.336-0.165-0.47-0.275L243.14,27.575z"/>
		<path fill="#449FD8" d="M245.696,25.804h-0.413v-0.355l0.436-0.028l0.057-0.78h0.396v0.78h0.751v0.384h-0.751v1.547
			c0,0.172,0.032,0.305,0.095,0.398s0.175,0.141,0.335,0.141c0.05,0,0.104-0.008,0.161-0.022c0.057-0.016,0.109-0.033,0.155-0.052
			l0.092,0.355c-0.077,0.026-0.16,0.05-0.25,0.071c-0.09,0.021-0.179,0.031-0.267,0.031c-0.149,0-0.274-0.022-0.375-0.068
			c-0.101-0.046-0.183-0.109-0.246-0.189s-0.108-0.178-0.135-0.292c-0.027-0.115-0.04-0.241-0.04-0.379V25.804z"/>
		<path fill="#449FD8" d="M247.312,27.483c0-0.306,0.136-0.539,0.41-0.702c0.273-0.162,0.708-0.275,1.304-0.341
			c0-0.088-0.008-0.174-0.026-0.258c-0.017-0.084-0.048-0.158-0.091-0.224c-0.044-0.064-0.103-0.117-0.175-0.157
			c-0.073-0.04-0.167-0.061-0.281-0.061c-0.164,0-0.316,0.031-0.456,0.092c-0.139,0.062-0.265,0.13-0.375,0.206l-0.189-0.326
			c0.13-0.084,0.289-0.165,0.476-0.244c0.188-0.078,0.394-0.117,0.619-0.117c0.34,0,0.586,0.104,0.739,0.312
			s0.229,0.486,0.229,0.834v1.708h-0.39l-0.041-0.333h-0.011c-0.134,0.111-0.278,0.206-0.433,0.284s-0.318,0.117-0.49,0.117
			c-0.237,0-0.433-0.068-0.587-0.206S247.312,27.736,247.312,27.483z M247.776,27.449c0,0.16,0.047,0.275,0.141,0.344
			c0.094,0.069,0.209,0.104,0.347,0.104c0.134,0,0.261-0.031,0.381-0.095c0.12-0.063,0.247-0.155,0.381-0.278V26.75
			c-0.233,0.03-0.43,0.067-0.59,0.109c-0.16,0.042-0.289,0.092-0.387,0.148c-0.098,0.058-0.167,0.123-0.209,0.198
			C247.797,27.28,247.776,27.361,247.776,27.449z"/>
		<path fill="#449FD8" d="M250.384,24.125h0.47v3.554c0,0.076,0.013,0.13,0.04,0.16c0.027,0.031,0.057,0.046,0.092,0.046
			c0.015,0,0.029,0,0.043,0c0.013,0,0.033-0.004,0.06-0.012l0.063,0.355c-0.03,0.016-0.067,0.027-0.109,0.034
			c-0.042,0.008-0.095,0.012-0.16,0.012c-0.18,0-0.308-0.054-0.384-0.16c-0.076-0.107-0.115-0.264-0.115-0.47V24.125z"/>
		<path fill="#449FD8" d="M251.845,24.125h0.47v3.554c0,0.076,0.013,0.13,0.04,0.16c0.027,0.031,0.057,0.046,0.092,0.046
			c0.015,0,0.029,0,0.043,0c0.013,0,0.033-0.004,0.06-0.012l0.063,0.355c-0.03,0.016-0.067,0.027-0.109,0.034
			c-0.042,0.008-0.095,0.012-0.16,0.012c-0.18,0-0.308-0.054-0.384-0.16c-0.076-0.107-0.115-0.264-0.115-0.47V24.125z"/>
		<path fill="#449FD8" d="M253.169,27.483c0-0.306,0.136-0.539,0.41-0.702c0.273-0.162,0.708-0.275,1.304-0.341
			c0-0.088-0.008-0.174-0.026-0.258c-0.017-0.084-0.048-0.158-0.091-0.224c-0.044-0.064-0.103-0.117-0.175-0.157
			c-0.073-0.04-0.167-0.061-0.281-0.061c-0.164,0-0.316,0.031-0.456,0.092c-0.139,0.062-0.265,0.13-0.375,0.206l-0.189-0.326
			c0.13-0.084,0.289-0.165,0.476-0.244c0.188-0.078,0.394-0.117,0.619-0.117c0.34,0,0.586,0.104,0.739,0.312
			s0.229,0.486,0.229,0.834v1.708h-0.39l-0.041-0.333h-0.011c-0.134,0.111-0.278,0.206-0.433,0.284s-0.318,0.117-0.49,0.117
			c-0.237,0-0.433-0.068-0.587-0.206S253.169,27.736,253.169,27.483z M253.633,27.449c0,0.16,0.047,0.275,0.141,0.344
			c0.094,0.069,0.209,0.104,0.347,0.104c0.134,0,0.261-0.031,0.381-0.095c0.12-0.063,0.247-0.155,0.381-0.278V26.75
			c-0.233,0.03-0.43,0.067-0.59,0.109c-0.16,0.042-0.289,0.092-0.387,0.148c-0.098,0.058-0.167,0.123-0.209,0.198
			C253.654,27.28,253.633,27.361,253.633,27.449z"/>
		<path fill="#449FD8" d="M256.321,25.804h-0.413v-0.355l0.436-0.028l0.057-0.78h0.396v0.78h0.751v0.384h-0.751v1.547
			c0,0.172,0.032,0.305,0.095,0.398s0.175,0.141,0.335,0.141c0.05,0,0.104-0.008,0.161-0.022c0.057-0.016,0.109-0.033,0.155-0.052
			l0.092,0.355c-0.077,0.026-0.16,0.05-0.25,0.071c-0.09,0.021-0.179,0.031-0.267,0.031c-0.149,0-0.274-0.022-0.375-0.068
			c-0.101-0.046-0.183-0.109-0.246-0.189s-0.108-0.178-0.135-0.292c-0.027-0.115-0.04-0.241-0.04-0.379V25.804z"/>
		<path fill="#449FD8" d="M258.418,24.847c-0.091,0-0.169-0.029-0.232-0.086c-0.063-0.058-0.095-0.13-0.095-0.218
			c0-0.092,0.032-0.165,0.095-0.221s0.141-0.083,0.232-0.083c0.092,0,0.169,0.027,0.232,0.083s0.094,0.129,0.094,0.221
			c0,0.088-0.031,0.16-0.094,0.218C258.588,24.818,258.51,24.847,258.418,24.847z M258.178,25.421h0.47v2.785h-0.47V25.421z"/>
		<path fill="#449FD8" d="M259.381,26.819c0-0.233,0.035-0.44,0.106-0.622s0.165-0.336,0.284-0.462
			c0.118-0.126,0.255-0.221,0.41-0.286s0.318-0.098,0.49-0.098s0.335,0.032,0.49,0.098s0.292,0.16,0.41,0.286
			c0.118,0.126,0.213,0.28,0.284,0.462c0.07,0.182,0.106,0.389,0.106,0.622c0,0.229-0.036,0.435-0.106,0.615
			c-0.071,0.182-0.166,0.335-0.284,0.459c-0.119,0.124-0.255,0.219-0.41,0.283c-0.155,0.065-0.318,0.098-0.49,0.098
			s-0.335-0.032-0.49-0.098c-0.155-0.064-0.292-0.159-0.41-0.283c-0.119-0.124-0.213-0.277-0.284-0.459
			C259.417,27.254,259.381,27.048,259.381,26.819z M259.869,26.819c0,0.16,0.019,0.306,0.057,0.436s0.093,0.241,0.163,0.335
			c0.071,0.094,0.156,0.166,0.255,0.218c0.099,0.052,0.208,0.077,0.327,0.077c0.118,0,0.227-0.025,0.327-0.077
			c0.099-0.052,0.184-0.124,0.255-0.218s0.125-0.205,0.164-0.335c0.038-0.13,0.057-0.275,0.057-0.436
			c0-0.161-0.019-0.307-0.057-0.438c-0.039-0.132-0.093-0.246-0.164-0.342c-0.071-0.095-0.156-0.169-0.255-0.221
			c-0.1-0.051-0.208-0.077-0.327-0.077c-0.119,0-0.228,0.026-0.327,0.077c-0.1,0.052-0.185,0.126-0.255,0.221
			c-0.07,0.096-0.125,0.21-0.163,0.342S259.869,26.658,259.869,26.819z"/>
		<path fill="#449FD8" d="M262.694,25.421h0.39l0.04,0.4h0.017c0.134-0.134,0.274-0.245,0.421-0.335
			c0.147-0.09,0.318-0.135,0.513-0.135c0.294,0,0.509,0.092,0.645,0.275c0.135,0.184,0.203,0.455,0.203,0.813v1.766h-0.47v-1.702
			c0-0.264-0.042-0.454-0.126-0.57c-0.084-0.116-0.218-0.175-0.401-0.175c-0.146,0-0.273,0.036-0.384,0.108
			c-0.111,0.073-0.237,0.18-0.378,0.321v2.018h-0.47V25.421z"/>
	</g>
	<path fill="#FFFFFF" stroke="#64C2E5" stroke-width="0.5" stroke-miterlimit="10" d="M206.43,91.93h-30.844
		c-0.791,0-1.433-0.641-1.433-1.433V74.015c0-0.791,0.641-1.433,1.433-1.433h30.844c0.791,0,1.433,0.641,1.433,1.433v16.482
		C207.863,91.288,207.221,91.93,206.43,91.93z"/>
	<g>
		<path fill="#449FD8" d="M182.087,82.688c0.134,0.126,0.287,0.229,0.458,0.307s0.344,0.117,0.516,0.117
			c0.214,0,0.376-0.043,0.487-0.132c0.111-0.087,0.167-0.204,0.167-0.35c0-0.076-0.015-0.141-0.043-0.194
			c-0.028-0.054-0.068-0.101-0.12-0.141s-0.113-0.077-0.184-0.111c-0.07-0.034-0.148-0.069-0.232-0.104l-0.516-0.224
			c-0.092-0.038-0.183-0.086-0.272-0.144c-0.09-0.057-0.171-0.126-0.244-0.206c-0.072-0.08-0.131-0.174-0.175-0.28
			c-0.044-0.107-0.066-0.229-0.066-0.367c0-0.149,0.032-0.287,0.095-0.415s0.15-0.24,0.261-0.336
			c0.111-0.095,0.244-0.17,0.398-0.224c0.155-0.053,0.324-0.08,0.507-0.08c0.218,0,0.428,0.043,0.63,0.129
			c0.202,0.086,0.376,0.202,0.521,0.347l-0.338,0.425c-0.122-0.1-0.248-0.178-0.378-0.235s-0.275-0.086-0.436-0.086
			c-0.18,0-0.323,0.039-0.43,0.117c-0.107,0.079-0.16,0.187-0.16,0.324c0,0.072,0.016,0.135,0.048,0.187
			c0.033,0.051,0.077,0.097,0.132,0.137c0.056,0.041,0.12,0.077,0.192,0.109c0.072,0.032,0.147,0.064,0.223,0.095l0.51,0.212
			c0.111,0.046,0.212,0.1,0.304,0.16c0.092,0.062,0.171,0.132,0.238,0.212c0.067,0.081,0.12,0.173,0.158,0.278
			s0.057,0.227,0.057,0.364c0,0.152-0.03,0.296-0.092,0.43c-0.061,0.134-0.15,0.251-0.266,0.353
			c-0.117,0.101-0.258,0.182-0.424,0.24c-0.166,0.06-0.354,0.089-0.564,0.089c-0.252,0-0.496-0.048-0.73-0.144
			c-0.235-0.095-0.442-0.23-0.622-0.406L182.087,82.688z"/>
		<path fill="#449FD8" d="M185.119,81.33h-0.401v-0.492l0.436-0.029l0.08-0.768h0.55v0.768h0.716v0.521h-0.716v1.342
			c0,0.328,0.132,0.492,0.396,0.492c0.049,0,0.1-0.006,0.152-0.017c0.051-0.012,0.098-0.027,0.14-0.046l0.115,0.487
			c-0.077,0.026-0.163,0.05-0.261,0.071c-0.097,0.021-0.202,0.031-0.312,0.031c-0.164,0-0.303-0.024-0.416-0.074
			c-0.112-0.05-0.204-0.119-0.275-0.209s-0.122-0.197-0.155-0.321c-0.032-0.124-0.049-0.263-0.049-0.415V81.33z"/>
		<path fill="#449FD8" d="M186.85,82.218c0-0.233,0.037-0.441,0.109-0.625c0.073-0.184,0.171-0.338,0.295-0.464
			c0.124-0.126,0.266-0.223,0.427-0.289c0.161-0.067,0.329-0.101,0.504-0.101s0.345,0.033,0.507,0.101
			c0.162,0.066,0.305,0.163,0.427,0.289c0.123,0.126,0.221,0.28,0.295,0.464c0.074,0.184,0.112,0.392,0.112,0.625
			s-0.038,0.441-0.112,0.625c-0.075,0.183-0.173,0.338-0.295,0.464c-0.122,0.126-0.265,0.222-0.427,0.286
			c-0.163,0.065-0.332,0.098-0.507,0.098s-0.344-0.032-0.504-0.098c-0.161-0.064-0.303-0.16-0.427-0.286
			c-0.125-0.126-0.223-0.281-0.295-0.464C186.887,82.66,186.85,82.452,186.85,82.218z M187.526,82.218
			c0,0.283,0.058,0.509,0.175,0.679c0.117,0.171,0.278,0.256,0.484,0.256s0.369-0.085,0.487-0.256
			c0.118-0.17,0.178-0.396,0.178-0.679c0-0.286-0.06-0.515-0.178-0.685c-0.119-0.17-0.281-0.256-0.487-0.256
			s-0.368,0.086-0.484,0.256S187.526,81.932,187.526,82.218z"/>
		<path fill="#449FD8" d="M190.18,80.808h0.544l0.046,0.499h0.023c0.099-0.184,0.22-0.324,0.361-0.422
			c0.142-0.097,0.287-0.146,0.436-0.146c0.134,0,0.241,0.019,0.321,0.058l-0.114,0.572c-0.05-0.015-0.096-0.026-0.138-0.034
			s-0.094-0.012-0.155-0.012c-0.111,0-0.228,0.043-0.35,0.129c-0.122,0.087-0.227,0.236-0.315,0.45v1.72h-0.659V80.808z"/>
		<path fill="#449FD8" d="M192.042,82.866c0-0.302,0.132-0.535,0.396-0.699s0.684-0.278,1.261-0.344
			c0-0.072-0.009-0.143-0.028-0.209c-0.02-0.067-0.049-0.126-0.089-0.178s-0.092-0.092-0.155-0.12
			c-0.063-0.029-0.143-0.043-0.238-0.043c-0.142,0-0.278,0.026-0.41,0.08s-0.259,0.118-0.381,0.194l-0.241-0.441
			c0.157-0.099,0.332-0.185,0.524-0.258c0.193-0.072,0.402-0.108,0.627-0.108c0.355,0,0.619,0.104,0.791,0.312
			c0.172,0.208,0.258,0.509,0.258,0.902v1.668h-0.539l-0.052-0.31h-0.017c-0.126,0.106-0.261,0.196-0.404,0.27
			c-0.144,0.072-0.299,0.108-0.467,0.108c-0.249,0-0.45-0.075-0.604-0.227C192.12,83.314,192.042,83.114,192.042,82.866z
			 M192.684,82.814c0,0.126,0.037,0.218,0.112,0.275c0.074,0.058,0.171,0.086,0.29,0.086c0.114,0,0.219-0.026,0.315-0.08
			s0.195-0.13,0.298-0.229v-0.63c-0.191,0.022-0.352,0.053-0.481,0.091c-0.13,0.039-0.234,0.082-0.312,0.129
			c-0.079,0.048-0.135,0.103-0.169,0.164C192.701,82.68,192.684,82.746,192.684,82.814z"/>
		<path fill="#449FD8" d="M194.971,84.132c0-0.118,0.035-0.229,0.104-0.329c0.069-0.102,0.168-0.192,0.298-0.272v-0.023
			c-0.073-0.046-0.133-0.106-0.181-0.183c-0.048-0.077-0.071-0.172-0.071-0.287c0-0.11,0.031-0.211,0.094-0.301
			s0.135-0.163,0.215-0.221v-0.022c-0.095-0.073-0.18-0.173-0.255-0.301c-0.074-0.129-0.112-0.276-0.112-0.444
			c0-0.161,0.031-0.304,0.092-0.43c0.061-0.127,0.142-0.232,0.244-0.318c0.101-0.086,0.219-0.151,0.353-0.195
			s0.275-0.065,0.424-0.065c0.077,0,0.15,0.007,0.221,0.02c0.071,0.014,0.135,0.03,0.192,0.049h1.009v0.487h-0.516
			c0.046,0.054,0.084,0.121,0.115,0.203c0.03,0.083,0.045,0.173,0.045,0.272c0,0.157-0.027,0.295-0.083,0.413
			c-0.055,0.118-0.131,0.218-0.226,0.298c-0.096,0.08-0.208,0.142-0.338,0.184s-0.27,0.062-0.418,0.062
			c-0.061,0-0.124-0.006-0.189-0.017c-0.065-0.012-0.13-0.031-0.195-0.058c-0.042,0.038-0.076,0.076-0.1,0.114
			c-0.025,0.038-0.038,0.09-0.038,0.155c0,0.08,0.034,0.143,0.101,0.188c0.066,0.046,0.186,0.069,0.358,0.069h0.499
			c0.34,0,0.597,0.055,0.771,0.163c0.174,0.109,0.261,0.286,0.261,0.53c0,0.138-0.035,0.268-0.106,0.39s-0.171,0.228-0.301,0.315
			s-0.288,0.157-0.473,0.209c-0.185,0.052-0.393,0.077-0.622,0.077c-0.168,0-0.324-0.015-0.467-0.046
			c-0.143-0.03-0.266-0.076-0.37-0.138c-0.103-0.061-0.184-0.137-0.244-0.229C195,84.362,194.971,84.255,194.971,84.132z
			 M195.521,84.035c0,0.126,0.064,0.225,0.192,0.296c0.128,0.07,0.305,0.105,0.53,0.105c0.229,0,0.414-0.045,0.553-0.135
			c0.139-0.09,0.209-0.195,0.209-0.318c0-0.11-0.043-0.185-0.129-0.223c-0.086-0.039-0.209-0.058-0.37-0.058h-0.384
			c-0.153,0-0.281-0.014-0.384-0.04C195.594,83.773,195.521,83.897,195.521,84.035z M196.174,82.316
			c0.134,0,0.249-0.049,0.344-0.146c0.095-0.098,0.143-0.237,0.143-0.421c0-0.176-0.047-0.312-0.141-0.41
			c-0.093-0.098-0.209-0.146-0.347-0.146c-0.137,0-0.254,0.048-0.35,0.144c-0.095,0.096-0.143,0.233-0.143,0.413
			c0,0.184,0.048,0.323,0.143,0.421C195.92,82.267,196.037,82.316,196.174,82.316z"/>
		<path fill="#449FD8" d="M197.865,82.218c0-0.229,0.037-0.436,0.109-0.619c0.073-0.184,0.169-0.338,0.29-0.464
			c0.12-0.126,0.259-0.224,0.416-0.293c0.157-0.068,0.317-0.103,0.481-0.103c0.191,0,0.359,0.032,0.504,0.098
			c0.145,0.064,0.267,0.156,0.364,0.274c0.098,0.119,0.171,0.26,0.221,0.425c0.05,0.164,0.075,0.344,0.075,0.538
			c0,0.13-0.01,0.233-0.029,0.31h-1.788c0.03,0.256,0.119,0.453,0.267,0.591c0.147,0.137,0.335,0.206,0.564,0.206
			c0.122,0,0.236-0.019,0.341-0.055s0.209-0.087,0.312-0.151l0.224,0.412c-0.134,0.088-0.283,0.16-0.447,0.218
			c-0.165,0.058-0.336,0.086-0.516,0.086c-0.195,0-0.376-0.033-0.544-0.101c-0.168-0.066-0.315-0.163-0.441-0.289
			s-0.225-0.279-0.295-0.461S197.865,82.452,197.865,82.218z M199.75,81.966c0-0.226-0.047-0.401-0.141-0.527
			s-0.238-0.189-0.433-0.189c-0.168,0-0.315,0.061-0.441,0.181c-0.126,0.12-0.204,0.299-0.235,0.536H199.75z"/>
	</g>
	<g>
		<g>
			<path fill="none" stroke="#64C2E5" stroke-width="0.5" stroke-miterlimit="10" d="M191.809,93.303v5.653
				c0,1.161,0.941,2.101,2.101,2.101h17.551h58.551c1.161,0,2.101-0.941,2.101-2.101v-3.653"/>
			<g>
				<path fill="#64C2E5" d="M189.769,96.208c0.099,0.063,0.23,0.034,0.293-0.065l1.746-2.742l1.746,2.742
					c0.063,0.099,0.195,0.128,0.293,0.065c0.099-0.063,0.127-0.195,0.065-0.293l-1.926-3.024c-0.039-0.061-0.107-0.098-0.179-0.098
					s-0.14,0.037-0.179,0.098l-1.926,3.024c-0.022,0.035-0.033,0.075-0.033,0.114C189.67,96.099,189.705,96.167,189.769,96.208z"/>
			</g>
			<g>
				<path fill="#64C2E5" d="M274.154,98.208c-0.099,0.063-0.23,0.034-0.293-0.065l-1.746-2.742l-1.746,2.742
					c-0.063,0.099-0.195,0.128-0.293,0.065s-0.127-0.195-0.065-0.293l1.926-3.024c0.039-0.061,0.107-0.098,0.179-0.098
					s0.14,0.037,0.179,0.098l1.926,3.024c0.022,0.035,0.033,0.075,0.033,0.114C274.252,98.099,274.217,98.167,274.154,98.208z"/>
			</g>
		</g>
	</g>
</g>
<g id="nyt_x5F_exporter_x5F_info">
</g>
</svg>
