<?xml version="1.0" encoding="utf-8"?>
<!-- Generator: Adobe Illustrator 17.0.0, SVG Export Plug-In . SVG Version: 6.00 Build 0)  -->
<!DOCTYPE svg PUBLIC "-//W3C//DTD SVG 1.1//EN" "http://www.w3.org/Graphics/SVG/1.1/DTD/svg11.dtd">
<svg version="1.1" xmlns="http://www.w3.org/2000/svg" xmlns:xlink="http://www.w3.org/1999/xlink" x="0px" y="0px"
	 width="188.158px" height="216.039px" viewBox="0 0 188.158 216.039" enable-background="new 0 0 188.158 216.039"
	 xml:space="preserve">
<g id="Layer_1">
	
		<line fill="none" stroke="#D8D8D8" stroke-width="0.5" stroke-miterlimit="10" x1="132.832" y1="77.618" x2="177.736" y2="134.468"/>
	<path fill="#F5F5F5" stroke="#B6B7B6" stroke-miterlimit="10" d="M131.208,101.051H10.363c-0.791,0-1.433-0.641-1.433-1.433V89.136
		c0-0.791,0.641-1.433,1.433-1.433h120.844c0.791,0,1.433,0.641,1.433,1.433v10.482C132.64,100.41,131.999,101.051,131.208,101.051z
		"/>
	<g>
		<g>
			<path fill="none" stroke="#64C2E5" stroke-width="0.75" stroke-miterlimit="10" d="M26.771,55.17V43.549
				c0-1.161,0.941-2.101,2.101-2.101h34.016c2.292,0,4.15-1.858,4.15-4.15V23.859"/>
			<g>
				<path fill="#64C2E5" d="M29.831,50.813c-0.148-0.095-0.346-0.051-0.44,0.098l-2.62,4.114l-2.62-4.114
					c-0.095-0.148-0.292-0.192-0.44-0.098c-0.148,0.095-0.191,0.293-0.098,0.44l2.889,4.536c0.059,0.092,0.16,0.148,0.269,0.148
					s0.21-0.056,0.269-0.148l2.889-4.536c0.034-0.053,0.05-0.112,0.05-0.171C29.979,50.977,29.926,50.874,29.831,50.813z"/>
			</g>
		</g>
	</g>
	<g>
		<g>
			<path fill="none" stroke="#64C2E5" stroke-width="0.75" stroke-miterlimit="10" d="M117.039,55.17V43.549
				c0-1.161-0.941-2.101-2.101-2.101H79.922c-2.292,0-4.15-1.858-4.15-4.15V23.859"/>
			<g>
				<path fill="#64C2E5" d="M120.099,50.813c-0.148-0.095-0.346-0.051-0.44,0.098l-2.62,4.114l-2.62-4.114
					c-0.095-0.148-0.292-0.192-0.44-0.098s-0.191,0.293-0.098,0.44l2.889,4.536c0.059,0.092,0.16,0.148,0.269,0.148
					s0.21-0.056,0.269-0.148l2.889-4.536c0.034-0.053,0.05-0.112,0.05-0.171C120.246,50.977,120.194,50.874,120.099,50.813z"/>
			</g>
		</g>
	</g>
	<line fill="none" stroke="#D8D8D8" stroke-width="0.5" stroke-miterlimit="10" x1="99.122" y1="77.618" x2="51.28" y2="134.468"/>
	<g>
		<g>
			
				<line fill="none" stroke="#64C2E5" stroke-width="0.75" stroke-miterlimit="10" x1="71.296" y1="23.883" x2="71.296" y2="55.17"/>
			<g>
				<path fill="#64C2E5" d="M68.236,50.813c0.148-0.095,0.346-0.051,0.44,0.098l2.62,4.114l2.62-4.114
					c0.095-0.148,0.292-0.192,0.44-0.098s0.191,0.293,0.098,0.44l-2.889,4.536c-0.059,0.092-0.16,0.148-0.269,0.148
					s-0.21-0.056-0.269-0.148l-2.889-4.536c-0.034-0.053-0.05-0.112-0.05-0.171C68.089,50.977,68.141,50.874,68.236,50.813z"/>
			</g>
		</g>
	</g>
	<path fill="#EDF6FB" stroke="#64C2E5" stroke-miterlimit="10" d="M41.194,79.051H10.349c-0.791,0-1.433-0.641-1.433-1.433V61.136
		c0-0.791,0.641-1.433,1.433-1.433h30.844c0.791,0,1.433,0.641,1.433,1.433v16.482C42.626,78.41,41.985,79.051,41.194,79.051z"/>
	<g>
		<path fill="#449FD8" d="M23.069,68.177c-0.065,0.03-0.149,0.055-0.252,0.074c-0.103,0.019-0.22,0.028-0.35,0.028
			c-0.375,0-0.688-0.088-0.94-0.264c-0.252-0.176-0.439-0.4-0.562-0.676c-0.203-0.034-0.386-0.104-0.55-0.209
			c-0.165-0.105-0.306-0.24-0.424-0.404c-0.118-0.164-0.209-0.357-0.272-0.579s-0.095-0.468-0.095-0.739
			c0-0.302,0.04-0.572,0.121-0.811c0.08-0.239,0.193-0.44,0.338-0.604c0.145-0.165,0.319-0.291,0.521-0.379s0.426-0.132,0.67-0.132
			c0.245,0,0.468,0.044,0.671,0.132c0.202,0.088,0.377,0.214,0.524,0.379c0.147,0.164,0.261,0.365,0.341,0.604
			c0.08,0.238,0.121,0.509,0.121,0.811c0,0.26-0.03,0.498-0.089,0.714c-0.06,0.216-0.145,0.406-0.255,0.57s-0.244,0.3-0.398,0.406
			c-0.155,0.107-0.328,0.182-0.519,0.224c0.088,0.149,0.209,0.256,0.364,0.321c0.155,0.064,0.324,0.098,0.507,0.098
			c0.084,0,0.16-0.006,0.227-0.018s0.127-0.026,0.181-0.046L23.069,68.177z M20.307,65.408c0,0.218,0.023,0.415,0.069,0.591
			s0.111,0.324,0.195,0.446c0.084,0.123,0.185,0.216,0.304,0.281c0.118,0.064,0.252,0.098,0.401,0.098
			c0.149,0,0.283-0.033,0.401-0.098c0.119-0.065,0.22-0.158,0.304-0.281c0.084-0.122,0.149-0.271,0.195-0.446
			s0.069-0.373,0.069-0.591c0-0.42-0.087-0.75-0.261-0.988c-0.174-0.239-0.41-0.358-0.708-0.358c-0.298,0-0.534,0.119-0.708,0.358
			C20.394,64.658,20.307,64.988,20.307,65.408z"/>
		<path fill="#449FD8" d="M23.596,64.485h0.659v1.68c0,0.232,0.034,0.397,0.103,0.492c0.069,0.096,0.18,0.144,0.333,0.144
			c0.122,0,0.23-0.03,0.324-0.092c0.094-0.061,0.194-0.16,0.301-0.298v-1.926h0.659V67.3h-0.539l-0.052-0.413h-0.017
			c-0.123,0.146-0.255,0.262-0.398,0.35c-0.143,0.088-0.312,0.132-0.507,0.132c-0.302,0-0.521-0.097-0.659-0.289
			c-0.138-0.193-0.207-0.469-0.207-0.828V64.485z"/>
		<path fill="#449FD8" d="M26.691,66.543c0-0.302,0.132-0.535,0.396-0.699s0.684-0.278,1.261-0.344c0-0.072-0.009-0.143-0.028-0.209
			c-0.02-0.067-0.049-0.126-0.089-0.178s-0.092-0.092-0.155-0.12c-0.063-0.029-0.143-0.043-0.238-0.043
			c-0.142,0-0.278,0.026-0.41,0.08s-0.259,0.118-0.381,0.194l-0.241-0.441c0.157-0.099,0.332-0.185,0.524-0.258
			c0.193-0.072,0.402-0.108,0.627-0.108c0.355,0,0.619,0.104,0.791,0.312c0.172,0.208,0.258,0.509,0.258,0.902V67.3h-0.539
			l-0.052-0.31h-0.017c-0.126,0.106-0.261,0.196-0.404,0.27c-0.144,0.072-0.299,0.108-0.467,0.108c-0.249,0-0.45-0.075-0.604-0.227
			C26.769,66.991,26.691,66.791,26.691,66.543z M27.333,66.491c0,0.126,0.037,0.218,0.112,0.275c0.074,0.058,0.171,0.086,0.29,0.086
			c0.114,0,0.219-0.026,0.315-0.08s0.195-0.13,0.298-0.229v-0.63c-0.191,0.022-0.352,0.053-0.481,0.091
			c-0.13,0.039-0.234,0.082-0.312,0.129c-0.079,0.048-0.135,0.103-0.169,0.164C27.35,66.357,27.333,66.423,27.333,66.491z"/>
		<path fill="#449FD8" d="M29.846,67.91c0.036,0.009,0.072,0.014,0.106,0.014c0.149,0,0.269-0.045,0.358-0.134
			c0.09-0.09,0.158-0.206,0.204-0.348l0.051-0.177l-1.106-2.78h0.67l0.487,1.382c0.042,0.122,0.083,0.251,0.123,0.387
			s0.081,0.271,0.123,0.403h0.023c0.035-0.129,0.07-0.262,0.106-0.397c0.036-0.136,0.071-0.267,0.106-0.393l0.424-1.382h0.636
			l-1.02,2.94c-0.058,0.16-0.121,0.304-0.189,0.43c-0.069,0.126-0.148,0.234-0.238,0.324c-0.09,0.089-0.193,0.158-0.309,0.206
			c-0.117,0.048-0.251,0.071-0.404,0.071c-0.076,0-0.143-0.005-0.201-0.014c-0.057-0.01-0.113-0.024-0.166-0.043l0.12-0.517
			C29.778,67.892,29.81,67.9,29.846,67.91z"/>
		<path fill="#449FD8" d="M13.791,70.539h2.167v0.401h-1.69v1.181h1.427v0.407h-1.427v1.363h1.748v0.407h-2.224V70.539z"/>
		<path fill="#449FD8" d="M16.627,73.577c0-0.306,0.136-0.54,0.41-0.702c0.273-0.163,0.708-0.276,1.304-0.342
			c0-0.087-0.008-0.174-0.026-0.258c-0.017-0.084-0.048-0.158-0.091-0.224c-0.044-0.064-0.103-0.117-0.175-0.157
			c-0.073-0.04-0.167-0.061-0.281-0.061c-0.164,0-0.316,0.031-0.456,0.092c-0.139,0.062-0.265,0.13-0.375,0.207l-0.189-0.327
			c0.13-0.084,0.289-0.165,0.476-0.243c0.188-0.078,0.394-0.118,0.619-0.118c0.34,0,0.586,0.104,0.739,0.312
			c0.153,0.209,0.229,0.486,0.229,0.834v1.708h-0.39l-0.041-0.332H18.37c-0.134,0.11-0.278,0.205-0.433,0.283
			s-0.318,0.117-0.49,0.117c-0.237,0-0.433-0.068-0.587-0.206S16.627,73.829,16.627,73.577z M17.091,73.542
			c0,0.161,0.047,0.275,0.141,0.344c0.094,0.069,0.209,0.104,0.347,0.104c0.134,0,0.261-0.031,0.381-0.095
			c0.12-0.062,0.247-0.155,0.381-0.277v-0.774c-0.233,0.031-0.43,0.067-0.59,0.109c-0.16,0.042-0.289,0.092-0.387,0.148
			c-0.098,0.058-0.167,0.124-0.209,0.198C17.112,73.373,17.091,73.454,17.091,73.542z"/>
		<path fill="#449FD8" d="M19.625,73.668c0.122,0.1,0.247,0.18,0.375,0.241c0.128,0.062,0.276,0.092,0.444,0.092
			c0.184,0,0.321-0.042,0.413-0.126c0.092-0.084,0.138-0.188,0.138-0.31c0-0.072-0.019-0.136-0.057-0.189
			c-0.039-0.054-0.087-0.101-0.146-0.141c-0.059-0.04-0.127-0.075-0.203-0.105c-0.077-0.03-0.153-0.062-0.229-0.092
			c-0.099-0.034-0.199-0.073-0.298-0.117c-0.1-0.044-0.188-0.098-0.267-0.161c-0.078-0.062-0.142-0.137-0.192-0.221
			s-0.075-0.185-0.075-0.304c0-0.11,0.022-0.215,0.066-0.312c0.044-0.097,0.107-0.181,0.189-0.252
			c0.082-0.07,0.182-0.126,0.301-0.166c0.118-0.04,0.252-0.061,0.401-0.061c0.176,0,0.337,0.031,0.484,0.092
			c0.147,0.062,0.274,0.136,0.381,0.224l-0.224,0.298c-0.096-0.072-0.195-0.132-0.298-0.178c-0.104-0.046-0.216-0.068-0.338-0.068
			c-0.176,0-0.305,0.04-0.387,0.12s-0.123,0.174-0.123,0.281c0,0.064,0.017,0.121,0.051,0.169c0.035,0.048,0.081,0.09,0.138,0.126
			s0.123,0.068,0.198,0.098c0.074,0.028,0.152,0.059,0.232,0.089c0.1,0.038,0.2,0.078,0.301,0.12
			c0.102,0.042,0.192,0.095,0.272,0.157c0.08,0.063,0.146,0.141,0.198,0.232c0.051,0.092,0.077,0.203,0.077,0.332
			c0,0.115-0.022,0.222-0.066,0.321s-0.109,0.188-0.195,0.264s-0.193,0.137-0.321,0.181s-0.274,0.065-0.438,0.065
			c-0.199,0-0.388-0.036-0.567-0.108s-0.336-0.164-0.47-0.275L19.625,73.668z"/>
		<path fill="#449FD8" d="M22.181,71.897h-0.413v-0.355l0.436-0.028l0.057-0.779h0.396v0.779h0.751v0.384h-0.751v1.548
			c0,0.172,0.032,0.305,0.095,0.397c0.063,0.094,0.175,0.141,0.335,0.141c0.05,0,0.104-0.008,0.161-0.022
			c0.057-0.016,0.109-0.032,0.155-0.052l0.092,0.355c-0.077,0.026-0.16,0.051-0.25,0.071c-0.09,0.021-0.179,0.031-0.267,0.031
			c-0.149,0-0.274-0.022-0.375-0.068c-0.101-0.046-0.183-0.109-0.246-0.189s-0.108-0.178-0.135-0.292s-0.04-0.24-0.04-0.378V71.897z
			"/>
		<path fill="#449FD8" d="M25.023,72.419c0-0.302,0.042-0.573,0.126-0.813c0.084-0.241,0.2-0.445,0.35-0.613
			c0.149-0.168,0.326-0.297,0.53-0.387c0.205-0.09,0.427-0.135,0.668-0.135c0.229,0,0.43,0.047,0.602,0.141
			c0.172,0.093,0.313,0.201,0.424,0.323l-0.27,0.304c-0.1-0.106-0.209-0.191-0.33-0.255c-0.12-0.063-0.261-0.095-0.421-0.095
			c-0.18,0-0.342,0.035-0.487,0.106c-0.146,0.07-0.27,0.172-0.373,0.304c-0.104,0.132-0.184,0.291-0.241,0.479
			c-0.058,0.188-0.086,0.397-0.086,0.63c0,0.237,0.027,0.45,0.083,0.64c0.055,0.188,0.133,0.351,0.232,0.484
			c0.1,0.134,0.221,0.236,0.364,0.31c0.143,0.072,0.305,0.108,0.484,0.108c0.184,0,0.343-0.036,0.479-0.108
			c0.136-0.073,0.265-0.176,0.387-0.31l0.269,0.292c-0.149,0.172-0.317,0.306-0.504,0.401c-0.188,0.095-0.401,0.143-0.642,0.143
			c-0.237,0-0.456-0.044-0.656-0.132s-0.375-0.215-0.521-0.381s-0.262-0.37-0.344-0.613C25.064,72.999,25.023,72.725,25.023,72.419z
			"/>
		<path fill="#449FD8" d="M28.262,72.912c0-0.233,0.035-0.44,0.106-0.622s0.165-0.335,0.284-0.461
			c0.118-0.126,0.255-0.222,0.41-0.287c0.155-0.064,0.318-0.098,0.49-0.098s0.335,0.033,0.49,0.098
			c0.155,0.065,0.292,0.161,0.41,0.287c0.118,0.126,0.213,0.279,0.284,0.461c0.07,0.182,0.106,0.389,0.106,0.622
			c0,0.229-0.036,0.435-0.106,0.616c-0.071,0.182-0.166,0.334-0.284,0.458c-0.119,0.124-0.255,0.219-0.41,0.284
			c-0.155,0.064-0.318,0.097-0.49,0.097s-0.335-0.032-0.49-0.097c-0.155-0.065-0.292-0.16-0.41-0.284
			c-0.119-0.124-0.213-0.276-0.284-0.458S28.262,73.142,28.262,72.912z M28.749,72.912c0,0.16,0.019,0.306,0.057,0.436
			s0.093,0.241,0.163,0.335c0.071,0.094,0.156,0.166,0.255,0.218c0.099,0.052,0.208,0.077,0.327,0.077
			c0.118,0,0.227-0.025,0.327-0.077c0.099-0.052,0.184-0.124,0.255-0.218s0.125-0.205,0.164-0.335
			c0.038-0.13,0.057-0.275,0.057-0.436c0-0.161-0.019-0.307-0.057-0.438c-0.039-0.132-0.093-0.245-0.164-0.341
			s-0.156-0.169-0.255-0.221c-0.1-0.052-0.208-0.078-0.327-0.078c-0.119,0-0.228,0.026-0.327,0.078
			c-0.1,0.052-0.185,0.125-0.255,0.221c-0.07,0.096-0.125,0.209-0.163,0.341S28.749,72.751,28.749,72.912z"/>
		<path fill="#449FD8" d="M31.356,73.577c0-0.306,0.136-0.54,0.41-0.702c0.273-0.163,0.708-0.276,1.304-0.342
			c0-0.087-0.008-0.174-0.026-0.258c-0.017-0.084-0.048-0.158-0.091-0.224c-0.044-0.064-0.103-0.117-0.175-0.157
			c-0.073-0.04-0.167-0.061-0.281-0.061c-0.164,0-0.316,0.031-0.456,0.092c-0.139,0.062-0.265,0.13-0.375,0.207l-0.189-0.327
			c0.13-0.084,0.289-0.165,0.476-0.243c0.188-0.078,0.394-0.118,0.619-0.118c0.34,0,0.586,0.104,0.739,0.312
			c0.153,0.209,0.229,0.486,0.229,0.834v1.708h-0.39l-0.041-0.332h-0.011c-0.134,0.11-0.278,0.205-0.433,0.283
			s-0.318,0.117-0.49,0.117c-0.237,0-0.433-0.068-0.587-0.206S31.356,73.829,31.356,73.577z M31.82,73.542
			c0,0.161,0.047,0.275,0.141,0.344c0.094,0.069,0.209,0.104,0.347,0.104c0.134,0,0.261-0.031,0.381-0.095
			c0.12-0.062,0.247-0.155,0.381-0.277v-0.774c-0.233,0.031-0.43,0.067-0.59,0.109c-0.16,0.042-0.289,0.092-0.387,0.148
			c-0.098,0.058-0.167,0.124-0.209,0.198C31.841,73.373,31.82,73.454,31.82,73.542z"/>
		<path fill="#449FD8" d="M34.354,73.668c0.122,0.1,0.247,0.18,0.375,0.241c0.128,0.062,0.276,0.092,0.444,0.092
			c0.184,0,0.321-0.042,0.413-0.126c0.092-0.084,0.138-0.188,0.138-0.31c0-0.072-0.019-0.136-0.057-0.189
			c-0.039-0.054-0.087-0.101-0.146-0.141c-0.059-0.04-0.127-0.075-0.203-0.105c-0.077-0.03-0.153-0.062-0.229-0.092
			c-0.099-0.034-0.199-0.073-0.298-0.117c-0.1-0.044-0.188-0.098-0.267-0.161c-0.078-0.062-0.142-0.137-0.192-0.221
			s-0.075-0.185-0.075-0.304c0-0.11,0.022-0.215,0.066-0.312c0.044-0.097,0.107-0.181,0.189-0.252
			c0.082-0.07,0.182-0.126,0.301-0.166c0.118-0.04,0.252-0.061,0.401-0.061c0.176,0,0.337,0.031,0.484,0.092
			c0.147,0.062,0.274,0.136,0.381,0.224l-0.224,0.298c-0.096-0.072-0.195-0.132-0.298-0.178c-0.104-0.046-0.216-0.068-0.338-0.068
			c-0.176,0-0.305,0.04-0.387,0.12s-0.123,0.174-0.123,0.281c0,0.064,0.017,0.121,0.051,0.169c0.035,0.048,0.081,0.09,0.138,0.126
			s0.123,0.068,0.198,0.098c0.074,0.028,0.152,0.059,0.232,0.089c0.1,0.038,0.2,0.078,0.301,0.12
			c0.102,0.042,0.192,0.095,0.272,0.157c0.08,0.063,0.146,0.141,0.198,0.232c0.051,0.092,0.077,0.203,0.077,0.332
			c0,0.115-0.022,0.222-0.066,0.321s-0.109,0.188-0.195,0.264s-0.193,0.137-0.321,0.181s-0.274,0.065-0.438,0.065
			c-0.199,0-0.388-0.036-0.567-0.108s-0.336-0.164-0.47-0.275L34.354,73.668z"/>
		<path fill="#449FD8" d="M36.91,71.897h-0.413v-0.355l0.436-0.028l0.057-0.779h0.396v0.779h0.751v0.384h-0.751v1.548
			c0,0.172,0.032,0.305,0.095,0.397c0.063,0.094,0.175,0.141,0.335,0.141c0.05,0,0.104-0.008,0.161-0.022
			c0.057-0.016,0.109-0.032,0.155-0.052l0.092,0.355c-0.077,0.026-0.16,0.051-0.25,0.071c-0.09,0.021-0.179,0.031-0.267,0.031
			c-0.149,0-0.274-0.022-0.375-0.068c-0.101-0.046-0.183-0.109-0.246-0.189s-0.108-0.178-0.135-0.292s-0.04-0.24-0.04-0.378V71.897z
			"/>
	</g>
	<path fill="#EDF6FB" stroke="#64C2E5" stroke-miterlimit="10" d="M86.194,79.051H55.349c-0.791,0-1.433-0.641-1.433-1.433V61.136
		c0-0.791,0.641-1.433,1.433-1.433h30.844c0.791,0,1.433,0.641,1.433,1.433v16.482C87.626,78.41,86.985,79.051,86.194,79.051z"/>
	<g>
		<path fill="#449FD8" d="M68.069,68.177c-0.065,0.03-0.149,0.055-0.252,0.074c-0.103,0.019-0.22,0.028-0.35,0.028
			c-0.375,0-0.688-0.088-0.94-0.264c-0.252-0.176-0.439-0.4-0.562-0.676c-0.203-0.034-0.386-0.104-0.55-0.209
			c-0.165-0.105-0.306-0.24-0.424-0.404c-0.118-0.164-0.209-0.357-0.272-0.579s-0.095-0.468-0.095-0.739
			c0-0.302,0.04-0.572,0.121-0.811c0.08-0.239,0.193-0.44,0.338-0.604c0.145-0.165,0.319-0.291,0.521-0.379s0.426-0.132,0.67-0.132
			c0.245,0,0.468,0.044,0.671,0.132c0.202,0.088,0.377,0.214,0.524,0.379c0.147,0.164,0.261,0.365,0.341,0.604
			c0.08,0.238,0.121,0.509,0.121,0.811c0,0.26-0.03,0.498-0.089,0.714c-0.06,0.216-0.145,0.406-0.255,0.57s-0.244,0.3-0.398,0.406
			c-0.155,0.107-0.328,0.182-0.519,0.224c0.088,0.149,0.209,0.256,0.364,0.321c0.155,0.064,0.324,0.098,0.507,0.098
			c0.084,0,0.16-0.006,0.227-0.018s0.127-0.026,0.181-0.046L68.069,68.177z M65.307,65.408c0,0.218,0.023,0.415,0.069,0.591
			s0.111,0.324,0.195,0.446c0.084,0.123,0.185,0.216,0.304,0.281c0.118,0.064,0.252,0.098,0.401,0.098
			c0.149,0,0.283-0.033,0.401-0.098c0.119-0.065,0.22-0.158,0.304-0.281c0.084-0.122,0.149-0.271,0.195-0.446
			s0.069-0.373,0.069-0.591c0-0.42-0.087-0.75-0.261-0.988c-0.174-0.239-0.41-0.358-0.708-0.358c-0.298,0-0.534,0.119-0.708,0.358
			C65.394,64.658,65.307,64.988,65.307,65.408z"/>
		<path fill="#449FD8" d="M68.596,64.485h0.659v1.68c0,0.232,0.034,0.397,0.103,0.492c0.069,0.096,0.18,0.144,0.333,0.144
			c0.122,0,0.23-0.03,0.324-0.092c0.094-0.061,0.194-0.16,0.301-0.298v-1.926h0.659V67.3h-0.539l-0.052-0.413h-0.017
			c-0.123,0.146-0.255,0.262-0.398,0.35c-0.143,0.088-0.312,0.132-0.507,0.132c-0.302,0-0.521-0.097-0.659-0.289
			c-0.138-0.193-0.207-0.469-0.207-0.828V64.485z"/>
		<path fill="#449FD8" d="M71.691,66.543c0-0.302,0.132-0.535,0.396-0.699s0.684-0.278,1.261-0.344c0-0.072-0.009-0.143-0.028-0.209
			c-0.02-0.067-0.049-0.126-0.089-0.178s-0.092-0.092-0.155-0.12c-0.063-0.029-0.143-0.043-0.238-0.043
			c-0.142,0-0.278,0.026-0.41,0.08s-0.259,0.118-0.381,0.194l-0.241-0.441c0.157-0.099,0.332-0.185,0.524-0.258
			c0.193-0.072,0.402-0.108,0.627-0.108c0.355,0,0.619,0.104,0.791,0.312c0.172,0.208,0.258,0.509,0.258,0.902V67.3h-0.539
			l-0.052-0.31h-0.017c-0.126,0.106-0.261,0.196-0.404,0.27c-0.144,0.072-0.299,0.108-0.467,0.108c-0.249,0-0.45-0.075-0.604-0.227
			C71.769,66.991,71.691,66.791,71.691,66.543z M72.333,66.491c0,0.126,0.037,0.218,0.112,0.275c0.074,0.058,0.171,0.086,0.29,0.086
			c0.114,0,0.219-0.026,0.315-0.08s0.195-0.13,0.298-0.229v-0.63c-0.191,0.022-0.352,0.053-0.481,0.091
			c-0.13,0.039-0.234,0.082-0.312,0.129c-0.079,0.048-0.135,0.103-0.169,0.164C72.35,66.357,72.333,66.423,72.333,66.491z"/>
		<path fill="#449FD8" d="M74.846,67.91c0.036,0.009,0.072,0.014,0.106,0.014c0.149,0,0.269-0.045,0.358-0.134
			c0.09-0.09,0.158-0.206,0.204-0.348l0.051-0.177l-1.106-2.78h0.67l0.487,1.382c0.042,0.122,0.083,0.251,0.123,0.387
			s0.081,0.271,0.123,0.403h0.023c0.035-0.129,0.07-0.262,0.106-0.397c0.036-0.136,0.071-0.267,0.106-0.393l0.424-1.382h0.636
			l-1.02,2.94c-0.058,0.16-0.121,0.304-0.189,0.43c-0.069,0.126-0.148,0.234-0.238,0.324c-0.09,0.089-0.193,0.158-0.309,0.206
			c-0.117,0.048-0.251,0.071-0.404,0.071c-0.076,0-0.143-0.005-0.201-0.014c-0.057-0.01-0.113-0.024-0.166-0.043l0.12-0.517
			C74.778,67.892,74.81,67.9,74.846,67.91z"/>
		<path fill="#449FD8" d="M57.71,70.539h0.493l0.396,2.046c0.035,0.207,0.071,0.409,0.109,0.607
			c0.038,0.199,0.075,0.401,0.109,0.607h0.023c0.042-0.206,0.086-0.409,0.132-0.61c0.046-0.2,0.09-0.401,0.132-0.604l0.521-2.046
			h0.436l0.521,2.046c0.046,0.199,0.092,0.399,0.138,0.602c0.046,0.203,0.092,0.407,0.138,0.613h0.023
			c0.034-0.206,0.069-0.409,0.103-0.61c0.034-0.2,0.071-0.401,0.109-0.604l0.396-2.046h0.458l-0.779,3.76h-0.573l-0.567-2.264
			c-0.035-0.146-0.066-0.287-0.095-0.427s-0.058-0.282-0.089-0.428h-0.023c-0.03,0.146-0.062,0.288-0.094,0.428
			c-0.033,0.14-0.064,0.281-0.095,0.427l-0.556,2.264h-0.567L57.71,70.539z"/>
		<path fill="#449FD8" d="M62.347,72.912c0-0.229,0.035-0.435,0.106-0.616s0.164-0.335,0.281-0.462
			c0.117-0.126,0.25-0.222,0.398-0.289c0.149-0.066,0.304-0.101,0.464-0.101c0.175,0,0.333,0.031,0.473,0.092
			c0.14,0.062,0.256,0.149,0.35,0.264c0.094,0.115,0.165,0.252,0.215,0.413c0.05,0.16,0.075,0.34,0.075,0.538
			c0,0.104-0.006,0.189-0.018,0.259h-1.879c0.019,0.302,0.112,0.54,0.278,0.716s0.383,0.264,0.65,0.264
			c0.134,0,0.257-0.02,0.37-0.061c0.113-0.04,0.221-0.092,0.324-0.157l0.167,0.31c-0.123,0.076-0.258,0.144-0.407,0.2
			c-0.149,0.058-0.319,0.086-0.51,0.086c-0.188,0-0.362-0.033-0.524-0.1c-0.163-0.067-0.304-0.163-0.424-0.287
			c-0.12-0.124-0.215-0.275-0.284-0.455S62.347,73.142,62.347,72.912z M64.295,72.7c0-0.287-0.061-0.506-0.181-0.656
			c-0.121-0.151-0.29-0.227-0.507-0.227c-0.099,0-0.194,0.02-0.284,0.061c-0.09,0.04-0.171,0.097-0.244,0.172
			c-0.072,0.074-0.133,0.166-0.18,0.274c-0.048,0.109-0.08,0.234-0.095,0.376H64.295z"/>
		<path fill="#449FD8" d="M65.321,73.668c0.122,0.1,0.247,0.18,0.375,0.241c0.128,0.062,0.276,0.092,0.444,0.092
			c0.184,0,0.321-0.042,0.413-0.126c0.092-0.084,0.138-0.188,0.138-0.31c0-0.072-0.019-0.136-0.057-0.189
			c-0.039-0.054-0.087-0.101-0.146-0.141c-0.059-0.04-0.127-0.075-0.203-0.105c-0.077-0.03-0.153-0.062-0.229-0.092
			c-0.099-0.034-0.199-0.073-0.298-0.117c-0.1-0.044-0.188-0.098-0.267-0.161c-0.078-0.062-0.142-0.137-0.192-0.221
			s-0.075-0.185-0.075-0.304c0-0.11,0.022-0.215,0.066-0.312c0.044-0.097,0.107-0.181,0.189-0.252
			c0.082-0.07,0.182-0.126,0.301-0.166c0.118-0.04,0.252-0.061,0.401-0.061c0.176,0,0.337,0.031,0.484,0.092
			c0.147,0.062,0.274,0.136,0.381,0.224l-0.224,0.298c-0.096-0.072-0.195-0.132-0.298-0.178c-0.104-0.046-0.216-0.068-0.338-0.068
			c-0.176,0-0.305,0.04-0.387,0.12s-0.123,0.174-0.123,0.281c0,0.064,0.017,0.121,0.051,0.169c0.035,0.048,0.081,0.09,0.138,0.126
			s0.123,0.068,0.198,0.098c0.074,0.028,0.152,0.059,0.232,0.089c0.1,0.038,0.2,0.078,0.301,0.12
			c0.102,0.042,0.192,0.095,0.272,0.157c0.08,0.063,0.146,0.141,0.198,0.232c0.051,0.092,0.077,0.203,0.077,0.332
			c0,0.115-0.022,0.222-0.066,0.321s-0.109,0.188-0.195,0.264s-0.193,0.137-0.321,0.181s-0.274,0.065-0.438,0.065
			c-0.199,0-0.388-0.036-0.567-0.108s-0.336-0.164-0.47-0.275L65.321,73.668z"/>
		<path fill="#449FD8" d="M67.877,71.897h-0.413v-0.355l0.436-0.028l0.057-0.779h0.396v0.779h0.751v0.384h-0.751v1.548
			c0,0.172,0.032,0.305,0.095,0.397c0.063,0.094,0.175,0.141,0.335,0.141c0.05,0,0.104-0.008,0.161-0.022
			c0.057-0.016,0.109-0.032,0.155-0.052l0.092,0.355c-0.077,0.026-0.16,0.051-0.25,0.071c-0.09,0.021-0.179,0.031-0.267,0.031
			c-0.149,0-0.274-0.022-0.375-0.068c-0.101-0.046-0.183-0.109-0.246-0.189s-0.108-0.178-0.135-0.292s-0.04-0.24-0.04-0.378V71.897z
			"/>
		<path fill="#449FD8" d="M70.72,72.419c0-0.302,0.042-0.573,0.126-0.813c0.084-0.241,0.2-0.445,0.35-0.613
			c0.149-0.168,0.326-0.297,0.53-0.387c0.205-0.09,0.427-0.135,0.668-0.135c0.229,0,0.43,0.047,0.602,0.141
			c0.172,0.093,0.313,0.201,0.424,0.323l-0.27,0.304c-0.1-0.106-0.209-0.191-0.33-0.255c-0.12-0.063-0.261-0.095-0.421-0.095
			c-0.18,0-0.342,0.035-0.487,0.106c-0.146,0.07-0.27,0.172-0.373,0.304c-0.104,0.132-0.184,0.291-0.241,0.479
			c-0.058,0.188-0.086,0.397-0.086,0.63c0,0.237,0.027,0.45,0.083,0.64c0.055,0.188,0.133,0.351,0.232,0.484
			c0.1,0.134,0.221,0.236,0.364,0.31c0.143,0.072,0.305,0.108,0.484,0.108c0.184,0,0.343-0.036,0.479-0.108
			c0.136-0.073,0.265-0.176,0.387-0.31l0.269,0.292c-0.149,0.172-0.317,0.306-0.504,0.401c-0.188,0.095-0.401,0.143-0.642,0.143
			c-0.237,0-0.456-0.044-0.656-0.132s-0.375-0.215-0.521-0.381s-0.262-0.37-0.344-0.613C70.761,72.999,70.72,72.725,70.72,72.419z"
			/>
		<path fill="#449FD8" d="M73.958,72.912c0-0.233,0.035-0.44,0.106-0.622s0.165-0.335,0.284-0.461
			c0.118-0.126,0.255-0.222,0.41-0.287c0.155-0.064,0.318-0.098,0.49-0.098s0.335,0.033,0.49,0.098
			c0.155,0.065,0.292,0.161,0.41,0.287c0.118,0.126,0.213,0.279,0.284,0.461c0.07,0.182,0.106,0.389,0.106,0.622
			c0,0.229-0.036,0.435-0.106,0.616c-0.071,0.182-0.166,0.334-0.284,0.458c-0.119,0.124-0.255,0.219-0.41,0.284
			c-0.155,0.064-0.318,0.097-0.49,0.097s-0.335-0.032-0.49-0.097c-0.155-0.065-0.292-0.16-0.41-0.284
			c-0.119-0.124-0.213-0.276-0.284-0.458S73.958,73.142,73.958,72.912z M74.445,72.912c0,0.16,0.019,0.306,0.057,0.436
			s0.093,0.241,0.163,0.335c0.071,0.094,0.156,0.166,0.255,0.218c0.099,0.052,0.208,0.077,0.327,0.077
			c0.118,0,0.227-0.025,0.327-0.077c0.099-0.052,0.184-0.124,0.255-0.218s0.125-0.205,0.164-0.335
			c0.038-0.13,0.057-0.275,0.057-0.436c0-0.161-0.019-0.307-0.057-0.438c-0.039-0.132-0.093-0.245-0.164-0.341
			s-0.156-0.169-0.255-0.221c-0.1-0.052-0.208-0.078-0.327-0.078c-0.119,0-0.228,0.026-0.327,0.078
			c-0.1,0.052-0.185,0.125-0.255,0.221c-0.07,0.096-0.125,0.209-0.163,0.341S74.445,72.751,74.445,72.912z"/>
		<path fill="#449FD8" d="M77.053,73.577c0-0.306,0.136-0.54,0.41-0.702c0.273-0.163,0.708-0.276,1.304-0.342
			c0-0.087-0.008-0.174-0.026-0.258c-0.017-0.084-0.048-0.158-0.091-0.224c-0.044-0.064-0.103-0.117-0.175-0.157
			c-0.073-0.04-0.167-0.061-0.281-0.061c-0.164,0-0.316,0.031-0.456,0.092c-0.139,0.062-0.265,0.13-0.375,0.207l-0.189-0.327
			c0.13-0.084,0.289-0.165,0.476-0.243c0.188-0.078,0.394-0.118,0.619-0.118c0.34,0,0.586,0.104,0.739,0.312
			c0.153,0.209,0.229,0.486,0.229,0.834v1.708h-0.39l-0.041-0.332h-0.011c-0.134,0.11-0.278,0.205-0.433,0.283
			s-0.318,0.117-0.49,0.117c-0.237,0-0.433-0.068-0.587-0.206S77.053,73.829,77.053,73.577z M77.517,73.542
			c0,0.161,0.047,0.275,0.141,0.344c0.094,0.069,0.209,0.104,0.347,0.104c0.134,0,0.261-0.031,0.381-0.095
			c0.12-0.062,0.247-0.155,0.381-0.277v-0.774c-0.233,0.031-0.43,0.067-0.59,0.109c-0.16,0.042-0.289,0.092-0.387,0.148
			c-0.098,0.058-0.167,0.124-0.209,0.198C77.538,73.373,77.517,73.454,77.517,73.542z"/>
		<path fill="#449FD8" d="M80.05,73.668c0.122,0.1,0.247,0.18,0.375,0.241c0.128,0.062,0.276,0.092,0.444,0.092
			c0.184,0,0.321-0.042,0.413-0.126c0.092-0.084,0.138-0.188,0.138-0.31c0-0.072-0.019-0.136-0.057-0.189
			c-0.039-0.054-0.087-0.101-0.146-0.141c-0.059-0.04-0.127-0.075-0.203-0.105c-0.077-0.03-0.153-0.062-0.229-0.092
			c-0.099-0.034-0.199-0.073-0.298-0.117c-0.1-0.044-0.188-0.098-0.267-0.161c-0.078-0.062-0.142-0.137-0.192-0.221
			s-0.075-0.185-0.075-0.304c0-0.11,0.022-0.215,0.066-0.312c0.044-0.097,0.107-0.181,0.189-0.252
			c0.082-0.07,0.182-0.126,0.301-0.166c0.118-0.04,0.252-0.061,0.401-0.061c0.176,0,0.337,0.031,0.484,0.092
			c0.147,0.062,0.274,0.136,0.381,0.224l-0.224,0.298c-0.096-0.072-0.195-0.132-0.298-0.178c-0.104-0.046-0.216-0.068-0.338-0.068
			c-0.176,0-0.305,0.04-0.387,0.12s-0.123,0.174-0.123,0.281c0,0.064,0.017,0.121,0.051,0.169c0.035,0.048,0.081,0.09,0.138,0.126
			s0.123,0.068,0.198,0.098c0.074,0.028,0.152,0.059,0.232,0.089c0.1,0.038,0.2,0.078,0.301,0.12
			c0.102,0.042,0.192,0.095,0.272,0.157c0.08,0.063,0.146,0.141,0.198,0.232c0.051,0.092,0.077,0.203,0.077,0.332
			c0,0.115-0.022,0.222-0.066,0.321s-0.109,0.188-0.195,0.264s-0.193,0.137-0.321,0.181s-0.274,0.065-0.438,0.065
			c-0.199,0-0.388-0.036-0.567-0.108s-0.336-0.164-0.47-0.275L80.05,73.668z"/>
		<path fill="#449FD8" d="M82.606,71.897h-0.413v-0.355l0.436-0.028l0.057-0.779h0.396v0.779h0.751v0.384h-0.751v1.548
			c0,0.172,0.032,0.305,0.095,0.397c0.063,0.094,0.175,0.141,0.335,0.141c0.05,0,0.104-0.008,0.161-0.022
			c0.057-0.016,0.109-0.032,0.155-0.052l0.092,0.355c-0.077,0.026-0.16,0.051-0.25,0.071c-0.09,0.021-0.179,0.031-0.267,0.031
			c-0.149,0-0.274-0.022-0.375-0.068c-0.101-0.046-0.183-0.109-0.246-0.189s-0.108-0.178-0.135-0.292s-0.04-0.24-0.04-0.378V71.897z
			"/>
	</g>
	<path fill="#EDF6FB" stroke="#64C2E5" stroke-miterlimit="10" d="M98.082,28.205H44.743c-0.694,0-1.256-0.641-1.256-1.433V10.29
		c0-0.791,0.562-1.433,1.256-1.433h53.339c0.694,0,1.256,0.641,1.256,1.433v16.482C99.338,27.564,98.775,28.205,98.082,28.205z"/>
	<path fill="#EDF6FB" stroke="#64C2E5" stroke-miterlimit="10" d="M131.399,79.051h-30.844c-0.791,0-1.433-0.641-1.433-1.433V61.136
		c0-0.791,0.641-1.433,1.433-1.433h30.844c0.791,0,1.433,0.641,1.433,1.433v16.482C132.832,78.41,132.19,79.051,131.399,79.051z"/>
	<g>
		<path fill="#449FD8" d="M113.274,68.177c-0.065,0.03-0.149,0.055-0.252,0.074c-0.103,0.019-0.22,0.028-0.35,0.028
			c-0.375,0-0.688-0.088-0.94-0.264c-0.252-0.176-0.439-0.4-0.562-0.676c-0.203-0.034-0.386-0.104-0.55-0.209
			c-0.165-0.105-0.306-0.24-0.424-0.404c-0.118-0.164-0.209-0.357-0.272-0.579s-0.095-0.468-0.095-0.739
			c0-0.302,0.04-0.572,0.121-0.811c0.08-0.239,0.193-0.44,0.338-0.604c0.145-0.165,0.319-0.291,0.521-0.379s0.426-0.132,0.67-0.132
			c0.245,0,0.468,0.044,0.671,0.132c0.202,0.088,0.377,0.214,0.524,0.379c0.147,0.164,0.261,0.365,0.341,0.604
			c0.08,0.238,0.121,0.509,0.121,0.811c0,0.26-0.03,0.498-0.089,0.714c-0.06,0.216-0.145,0.406-0.255,0.57s-0.244,0.3-0.398,0.406
			c-0.155,0.107-0.328,0.182-0.519,0.224c0.088,0.149,0.209,0.256,0.364,0.321c0.155,0.064,0.324,0.098,0.507,0.098
			c0.084,0,0.16-0.006,0.227-0.018s0.127-0.026,0.181-0.046L113.274,68.177z M110.512,65.408c0,0.218,0.023,0.415,0.069,0.591
			s0.111,0.324,0.195,0.446c0.084,0.123,0.185,0.216,0.304,0.281c0.118,0.064,0.252,0.098,0.401,0.098
			c0.149,0,0.283-0.033,0.401-0.098c0.119-0.065,0.22-0.158,0.304-0.281c0.084-0.122,0.149-0.271,0.195-0.446
			s0.069-0.373,0.069-0.591c0-0.42-0.087-0.75-0.261-0.988c-0.174-0.239-0.41-0.358-0.708-0.358c-0.298,0-0.534,0.119-0.708,0.358
			C110.599,64.658,110.512,64.988,110.512,65.408z"/>
		<path fill="#449FD8" d="M113.802,64.485h0.659v1.68c0,0.232,0.034,0.397,0.103,0.492c0.069,0.096,0.18,0.144,0.333,0.144
			c0.122,0,0.23-0.03,0.324-0.092c0.094-0.061,0.194-0.16,0.301-0.298v-1.926h0.659V67.3h-0.539l-0.052-0.413h-0.017
			c-0.123,0.146-0.255,0.262-0.398,0.35c-0.143,0.088-0.312,0.132-0.507,0.132c-0.302,0-0.521-0.097-0.659-0.289
			c-0.138-0.193-0.207-0.469-0.207-0.828V64.485z"/>
		<path fill="#449FD8" d="M116.896,66.543c0-0.302,0.132-0.535,0.396-0.699s0.684-0.278,1.261-0.344
			c0-0.072-0.009-0.143-0.028-0.209c-0.02-0.067-0.049-0.126-0.089-0.178s-0.092-0.092-0.155-0.12
			c-0.063-0.029-0.143-0.043-0.238-0.043c-0.142,0-0.278,0.026-0.41,0.08s-0.259,0.118-0.381,0.194l-0.241-0.441
			c0.157-0.099,0.332-0.185,0.524-0.258c0.193-0.072,0.402-0.108,0.627-0.108c0.355,0,0.619,0.104,0.791,0.312
			c0.172,0.208,0.258,0.509,0.258,0.902V67.3h-0.539l-0.052-0.31h-0.017c-0.126,0.106-0.261,0.196-0.404,0.27
			c-0.144,0.072-0.299,0.108-0.467,0.108c-0.249,0-0.45-0.075-0.604-0.227C116.974,66.991,116.896,66.791,116.896,66.543z
			 M117.539,66.491c0,0.126,0.037,0.218,0.112,0.275c0.074,0.058,0.171,0.086,0.29,0.086c0.114,0,0.219-0.026,0.315-0.08
			s0.195-0.13,0.298-0.229v-0.63c-0.191,0.022-0.352,0.053-0.481,0.091c-0.13,0.039-0.234,0.082-0.312,0.129
			c-0.079,0.048-0.135,0.103-0.169,0.164C117.556,66.357,117.539,66.423,117.539,66.491z"/>
		<path fill="#449FD8" d="M120.051,67.91c0.036,0.009,0.072,0.014,0.106,0.014c0.149,0,0.269-0.045,0.358-0.134
			c0.09-0.09,0.158-0.206,0.204-0.348l0.051-0.177l-1.106-2.78h0.67l0.487,1.382c0.042,0.122,0.083,0.251,0.123,0.387
			s0.081,0.271,0.123,0.403h0.023c0.035-0.129,0.07-0.262,0.106-0.397c0.036-0.136,0.071-0.267,0.106-0.393l0.424-1.382h0.636
			l-1.02,2.94c-0.058,0.16-0.121,0.304-0.189,0.43c-0.069,0.126-0.148,0.234-0.238,0.324c-0.09,0.089-0.193,0.158-0.309,0.206
			c-0.117,0.048-0.251,0.071-0.404,0.071c-0.076,0-0.143-0.005-0.201-0.014c-0.057-0.01-0.113-0.024-0.166-0.043l0.12-0.517
			C119.983,67.892,120.015,67.9,120.051,67.91z"/>
		<path fill="#449FD8" d="M107.908,70.539h2.167v0.401h-1.69v1.181h1.427v0.407h-1.427v1.363h1.748v0.407h-2.224V70.539z"/>
		<path fill="#449FD8" d="M110.842,71.514h0.476v1.702c0,0.264,0.041,0.453,0.124,0.57c0.082,0.116,0.215,0.175,0.398,0.175
			c0.145,0,0.273-0.037,0.384-0.112c0.111-0.074,0.233-0.193,0.367-0.357v-1.978h0.47v2.785h-0.39l-0.04-0.436h-0.017
			c-0.13,0.153-0.267,0.275-0.41,0.367c-0.144,0.091-0.312,0.137-0.507,0.137c-0.298,0-0.515-0.091-0.65-0.274
			s-0.204-0.455-0.204-0.814V71.514z"/>
		<path fill="#449FD8" d="M114,71.514h0.39l0.04,0.504h0.017c0.095-0.176,0.211-0.314,0.347-0.418s0.284-0.155,0.444-0.155
			c0.111,0,0.21,0.02,0.298,0.058l-0.092,0.413c-0.046-0.016-0.088-0.027-0.126-0.035c-0.038-0.007-0.086-0.011-0.143-0.011
			c-0.119,0-0.242,0.048-0.37,0.143c-0.128,0.096-0.24,0.262-0.335,0.499v1.788H114V71.514z"/>
		<path fill="#449FD8" d="M115.725,72.912c0-0.233,0.035-0.44,0.106-0.622s0.165-0.335,0.284-0.461
			c0.118-0.126,0.255-0.222,0.41-0.287c0.155-0.064,0.318-0.098,0.49-0.098s0.335,0.033,0.49,0.098
			c0.155,0.065,0.292,0.161,0.41,0.287c0.118,0.126,0.213,0.279,0.284,0.461c0.07,0.182,0.106,0.389,0.106,0.622
			c0,0.229-0.036,0.435-0.106,0.616c-0.071,0.182-0.166,0.334-0.284,0.458c-0.119,0.124-0.255,0.219-0.41,0.284
			c-0.155,0.064-0.318,0.097-0.49,0.097s-0.335-0.032-0.49-0.097c-0.155-0.065-0.292-0.16-0.41-0.284
			c-0.119-0.124-0.213-0.276-0.284-0.458S115.725,73.142,115.725,72.912z M116.212,72.912c0,0.16,0.019,0.306,0.057,0.436
			s0.093,0.241,0.163,0.335c0.071,0.094,0.156,0.166,0.255,0.218c0.099,0.052,0.208,0.077,0.327,0.077
			c0.118,0,0.227-0.025,0.327-0.077c0.099-0.052,0.184-0.124,0.255-0.218s0.125-0.205,0.164-0.335
			c0.038-0.13,0.057-0.275,0.057-0.436c0-0.161-0.019-0.307-0.057-0.438c-0.039-0.132-0.093-0.245-0.164-0.341
			s-0.156-0.169-0.255-0.221c-0.1-0.052-0.208-0.078-0.327-0.078c-0.119,0-0.228,0.026-0.327,0.078
			c-0.1,0.052-0.185,0.125-0.255,0.221c-0.07,0.096-0.125,0.209-0.163,0.341S116.212,72.751,116.212,72.912z"/>
		<path fill="#449FD8" d="M119.507,74.534v0.939h-0.47v-3.96h0.39l0.04,0.32h0.017c0.126-0.106,0.265-0.198,0.416-0.274
			s0.309-0.115,0.473-0.115c0.18,0,0.338,0.034,0.476,0.101c0.138,0.067,0.252,0.162,0.344,0.287
			c0.091,0.124,0.161,0.272,0.209,0.446s0.072,0.37,0.072,0.588c0,0.236-0.033,0.448-0.098,0.633
			c-0.065,0.186-0.153,0.344-0.264,0.473c-0.111,0.131-0.239,0.229-0.384,0.296c-0.146,0.066-0.298,0.1-0.458,0.1
			c-0.13,0-0.259-0.028-0.387-0.086c-0.128-0.057-0.257-0.135-0.387-0.234L119.507,74.534z M119.507,73.68
			c0.126,0.107,0.248,0.183,0.367,0.227s0.224,0.065,0.315,0.065c0.114,0,0.221-0.025,0.318-0.077
			c0.098-0.052,0.182-0.124,0.252-0.218c0.071-0.094,0.126-0.209,0.167-0.347s0.06-0.292,0.06-0.464c0-0.153-0.013-0.292-0.04-0.419
			c-0.027-0.126-0.07-0.233-0.129-0.323c-0.06-0.09-0.136-0.159-0.229-0.209c-0.093-0.05-0.205-0.075-0.335-0.075
			c-0.119,0-0.238,0.033-0.358,0.098c-0.12,0.065-0.249,0.159-0.387,0.281V73.68z"/>
		<path fill="#449FD8" d="M122.012,72.912c0-0.229,0.035-0.435,0.106-0.616s0.164-0.335,0.281-0.462
			c0.117-0.126,0.25-0.222,0.398-0.289c0.149-0.066,0.304-0.101,0.464-0.101c0.175,0,0.333,0.031,0.473,0.092
			c0.14,0.062,0.256,0.149,0.35,0.264c0.094,0.115,0.165,0.252,0.215,0.413c0.05,0.16,0.075,0.34,0.075,0.538
			c0,0.104-0.006,0.189-0.018,0.259h-1.879c0.019,0.302,0.112,0.54,0.278,0.716s0.383,0.264,0.65,0.264
			c0.134,0,0.257-0.02,0.37-0.061c0.113-0.04,0.221-0.092,0.324-0.157l0.167,0.31c-0.123,0.076-0.258,0.144-0.407,0.2
			c-0.149,0.058-0.319,0.086-0.51,0.086c-0.188,0-0.362-0.033-0.524-0.1c-0.163-0.067-0.304-0.163-0.424-0.287
			c-0.12-0.124-0.215-0.275-0.284-0.455S122.012,73.142,122.012,72.912z M123.96,72.7c0-0.287-0.061-0.506-0.181-0.656
			c-0.121-0.151-0.29-0.227-0.507-0.227c-0.099,0-0.194,0.02-0.284,0.061c-0.09,0.04-0.171,0.097-0.244,0.172
			c-0.072,0.074-0.133,0.166-0.18,0.274c-0.048,0.109-0.08,0.234-0.095,0.376H123.96z"/>
	</g>
	<g>
		<g>
			<defs>
				<polygon id="SVGID_19_" points="58.626,12.91 61.261,18.483 58.626,24.055 56.384,24.055 59.018,18.483 56.384,12.91 				"/>
			</defs>
			<clipPath id="SVGID_2_">
				<use xlink:href="#SVGID_19_"  overflow="visible"/>
			</clipPath>
			<rect x="55.753" y="12.278" clip-path="url(#SVGID_2_)" fill="#46B978" width="6.14" height="12.408"/>
		</g>
		<g>
			<defs>
				<polygon id="SVGID_21_" points="56.384,24.055 53.749,18.483 56.384,12.91 58.626,12.91 55.993,18.483 58.626,24.055 				"/>
			</defs>
			<clipPath id="SVGID_4_">
				<use xlink:href="#SVGID_21_"  overflow="visible"/>
			</clipPath>
			<rect x="53.118" y="12.278" clip-path="url(#SVGID_4_)" fill="#163963" width="6.14" height="12.408"/>
		</g>
		<g>
			<defs>
				<polygon id="SVGID_23_" points="55.198,15.417 54.013,12.91 51.771,12.91 54.078,17.789 				"/>
			</defs>
			<clipPath id="SVGID_6_">
				<use xlink:href="#SVGID_23_"  overflow="visible"/>
			</clipPath>
			<rect x="51.14" y="12.278" clip-path="url(#SVGID_6_)" fill="#46B978" width="4.69" height="6.143"/>
		</g>
		<g>
			<defs>
				<polygon id="SVGID_25_" points="54.078,19.175 51.771,24.055 54.013,24.055 55.198,21.547 				"/>
			</defs>
			<clipPath id="SVGID_8_">
				<use xlink:href="#SVGID_25_"  overflow="visible"/>
			</clipPath>
			<rect x="51.14" y="18.543" clip-path="url(#SVGID_8_)" fill="#46B978" width="4.69" height="6.143"/>
		</g>
		<g>
			<defs>
				<polygon id="SVGID_27_" points="51.771,24.055 49.136,18.483 51.771,12.91 54.013,12.91 51.378,18.483 54.013,24.055 				"/>
			</defs>
			<clipPath id="SVGID_10_">
				<use xlink:href="#SVGID_27_"  overflow="visible"/>
			</clipPath>
			<rect x="48.504" y="12.278" clip-path="url(#SVGID_10_)" fill="#163963" width="6.14" height="12.408"/>
		</g>
		<g>
			<defs>
				<path id="SVGID_29_" d="M65.344,18.236c0,0.948,0.176,1.684,0.529,2.208c0.313,0.49,0.855,0.786,1.436,0.786
					s1.123-0.296,1.436-0.786c0.352-0.524,0.528-1.26,0.528-2.208c0-0.885-0.176-1.576-0.529-2.073
					c-0.329-0.468-0.865-0.746-1.436-0.746c-0.572,0-1.107,0.278-1.436,0.746c-0.348,0.497-0.522,1.188-0.522,2.073H65.344z
					 M71.786,24.818c-0.205,0.095-0.421,0.163-0.643,0.203c-0.301,0.058-0.608,0.085-0.915,0.082c-0.939,0-1.731-0.216-2.377-0.649
					c-0.632-0.416-1.132-1.002-1.444-1.691c-0.456-0.093-0.89-0.27-1.281-0.522c-0.387-0.251-0.721-0.575-0.983-0.955
					c-0.282-0.411-0.493-0.867-0.624-1.348c-0.15-0.554-0.224-1.126-0.217-1.7c-0.011-0.655,0.088-1.307,0.291-1.93
					c0.174-0.527,0.456-1.012,0.827-1.424c0.35-0.385,0.782-0.687,1.263-0.884c1.05-0.407,2.215-0.407,3.265,0
					c0.482,0.197,0.913,0.499,1.263,0.884c0.369,0.418,0.648,0.906,0.82,1.436c0.203,0.618,0.301,1.266,0.292,1.916
					c0,1.192-0.253,2.172-0.758,2.939c-0.471,0.741-1.199,1.281-2.045,1.516c0.201,0.302,0.496,0.528,0.84,0.643
					c0.353,0.123,0.724,0.186,1.098,0.186c0.178,0,0.356-0.017,0.531-0.051c0.15-0.027,0.297-0.065,0.441-0.115L71.786,24.818z"/>
			</defs>
			<clipPath id="SVGID_12_">
				<use xlink:href="#SVGID_29_"  overflow="visible"/>
			</clipPath>
			<rect x="62.67" y="13.063" clip-path="url(#SVGID_12_)" fill="#163963" width="9.748" height="12.672"/>
		</g>
		<g>
			<defs>
				<path id="SVGID_31_" d="M72.217,13.858h2.005v4.944c0,0.867,0.131,1.472,0.393,1.815c0.262,0.344,0.641,0.515,1.137,0.514
					c0.497,0,0.88-0.172,1.151-0.515s0.405-0.949,0.405-1.815v-4.944h1.924v4.737c0,1.481-0.295,2.56-0.884,3.238
					s-1.454,1.014-2.595,1.011c-1.147,0-2.023-0.337-2.629-1.011c-0.605-0.674-0.907-1.753-0.906-3.238v-4.736H72.217z"/>
			</defs>
			<clipPath id="SVGID_14_">
				<use xlink:href="#SVGID_31_"  overflow="visible"/>
			</clipPath>
			<rect x="71.586" y="13.225" clip-path="url(#SVGID_14_)" fill="#163963" width="8.278" height="10.248"/>
		</g>
		<g>
			<defs>
				<path id="SVGID_33_" d="M84.139,19.03l-0.203-0.815c-0.126-0.442-0.248-0.912-0.366-1.408c-0.118-0.497-0.235-0.975-0.352-1.434
					h-0.054c-0.108,0.47-0.218,0.951-0.331,1.443c-0.113,0.492-0.232,0.958-0.359,1.4l-0.216,0.812h1.882V19.03z M84.547,20.587
					h-2.694l-0.543,2.101h-2.032l2.761-8.832h2.4l2.766,8.832h-2.116L84.547,20.587z"/>
			</defs>
			<clipPath id="SVGID_16_">
				<use xlink:href="#SVGID_33_"  overflow="visible"/>
			</clipPath>
			<rect x="78.646" y="13.224" clip-path="url(#SVGID_16_)" fill="#163963" width="9.191" height="10.095"/>
		</g>
		<g>
			<defs>
				<path id="SVGID_35_" d="M88.448,19.544l-2.67-5.684h2.139l0.787,2.031c0.126,0.337,0.246,0.66,0.359,0.969
					s0.233,0.635,0.361,0.976h0.054c0.126-0.343,0.251-0.67,0.373-0.983c0.122-0.312,0.246-0.635,0.373-0.969l0.798-2.032h2.087
					l-2.665,5.691v3.143h-1.993v-3.142H88.448z"/>
			</defs>
			<clipPath id="SVGID_18_">
				<use xlink:href="#SVGID_35_"  overflow="visible"/>
			</clipPath>
			<rect x="85.146" y="13.22" clip-path="url(#SVGID_18_)" fill="#163963" width="8.593" height="10.097"/>
		</g>
	</g>
	<g>
		<path fill="#5D5E5E" d="M52.539,94.106c0-0.302,0.043-0.573,0.129-0.813s0.207-0.445,0.361-0.613s0.337-0.297,0.547-0.387
			c0.21-0.09,0.441-0.135,0.693-0.135c0.26,0,0.477,0.049,0.65,0.146c0.174,0.097,0.316,0.203,0.427,0.317l-0.27,0.304
			c-0.096-0.099-0.206-0.182-0.33-0.249c-0.124-0.066-0.282-0.101-0.473-0.101c-0.191,0-0.363,0.036-0.516,0.106
			s-0.283,0.172-0.39,0.304s-0.19,0.291-0.249,0.479c-0.06,0.188-0.089,0.397-0.089,0.631c0,0.236,0.027,0.449,0.083,0.639
			c0.055,0.189,0.136,0.351,0.241,0.484s0.235,0.236,0.39,0.31c0.155,0.072,0.333,0.108,0.536,0.108c0.134,0,0.261-0.02,0.381-0.06
			s0.219-0.095,0.295-0.164v-0.979h-0.796v-0.396h1.232v1.582c-0.122,0.126-0.284,0.229-0.484,0.312
			c-0.201,0.083-0.427,0.124-0.679,0.124c-0.249,0-0.476-0.044-0.682-0.132c-0.206-0.088-0.384-0.215-0.533-0.382
			c-0.149-0.166-0.266-0.37-0.35-0.613C52.581,94.687,52.539,94.412,52.539,94.106z"/>
		<path fill="#5D5E5E" d="M56.041,94.6c0-0.229,0.035-0.435,0.106-0.616s0.164-0.335,0.281-0.461s0.25-0.223,0.398-0.29
			c0.149-0.066,0.304-0.1,0.464-0.1c0.175,0,0.333,0.03,0.473,0.092c0.14,0.061,0.256,0.148,0.35,0.264
			c0.094,0.114,0.165,0.252,0.215,0.412s0.075,0.34,0.075,0.539c0,0.103-0.006,0.188-0.018,0.258h-1.879
			c0.019,0.302,0.112,0.54,0.278,0.716s0.383,0.264,0.65,0.264c0.134,0,0.257-0.02,0.37-0.06s0.221-0.093,0.324-0.158l0.167,0.31
			c-0.123,0.077-0.258,0.144-0.407,0.201c-0.149,0.057-0.319,0.086-0.51,0.086c-0.188,0-0.362-0.034-0.524-0.101
			c-0.163-0.066-0.304-0.162-0.424-0.286c-0.12-0.125-0.215-0.276-0.284-0.456S56.041,94.829,56.041,94.6z M57.989,94.388
			c0-0.287-0.061-0.505-0.181-0.656c-0.121-0.151-0.29-0.227-0.507-0.227c-0.099,0-0.194,0.021-0.284,0.061
			s-0.171,0.098-0.244,0.172c-0.072,0.074-0.133,0.166-0.18,0.275c-0.048,0.108-0.08,0.233-0.095,0.375H57.989z"/>
		<path fill="#5D5E5E" d="M58.883,94.6c0-0.233,0.035-0.44,0.106-0.622c0.071-0.181,0.165-0.335,0.284-0.461
			c0.118-0.126,0.255-0.222,0.41-0.287c0.155-0.064,0.318-0.097,0.49-0.097s0.335,0.032,0.49,0.097
			c0.155,0.065,0.292,0.161,0.41,0.287c0.118,0.126,0.213,0.28,0.284,0.461c0.07,0.182,0.106,0.389,0.106,0.622
			c0,0.229-0.036,0.435-0.106,0.616c-0.071,0.182-0.166,0.334-0.284,0.458c-0.119,0.125-0.255,0.219-0.41,0.284
			c-0.155,0.064-0.318,0.098-0.49,0.098s-0.335-0.033-0.49-0.098c-0.155-0.065-0.292-0.159-0.41-0.284
			c-0.119-0.124-0.213-0.276-0.284-0.458S58.883,94.829,58.883,94.6z M59.37,94.6c0,0.16,0.019,0.306,0.057,0.436
			s0.093,0.242,0.163,0.335c0.071,0.094,0.156,0.167,0.255,0.218c0.099,0.052,0.208,0.078,0.327,0.078
			c0.118,0,0.227-0.026,0.327-0.078c0.099-0.051,0.184-0.124,0.255-0.218c0.071-0.093,0.125-0.205,0.164-0.335
			c0.038-0.13,0.057-0.275,0.057-0.436s-0.019-0.307-0.057-0.438c-0.039-0.132-0.093-0.245-0.164-0.341s-0.156-0.169-0.255-0.221
			c-0.1-0.052-0.208-0.077-0.327-0.077c-0.119,0-0.228,0.025-0.327,0.077c-0.1,0.052-0.185,0.125-0.255,0.221
			c-0.07,0.096-0.125,0.209-0.163,0.341S59.37,94.439,59.37,94.6z"/>
		<path fill="#5D5E5E" d="M61.995,94.37h1.318v0.361h-1.318V94.37z"/>
		<path fill="#5D5E5E" d="M64.012,93.201h0.39l0.04,0.505h0.017c0.095-0.176,0.211-0.315,0.347-0.419s0.284-0.154,0.444-0.154
			c0.111,0,0.21,0.019,0.298,0.057l-0.092,0.413c-0.046-0.016-0.088-0.026-0.126-0.034s-0.086-0.012-0.143-0.012
			c-0.119,0-0.242,0.048-0.37,0.144c-0.128,0.096-0.24,0.262-0.335,0.498v1.788h-0.47V93.201z"/>
		<path fill="#5D5E5E" d="M65.737,94.6c0-0.229,0.035-0.435,0.106-0.616s0.164-0.335,0.281-0.461s0.25-0.223,0.398-0.29
			c0.149-0.066,0.304-0.1,0.464-0.1c0.175,0,0.333,0.03,0.473,0.092c0.14,0.061,0.256,0.148,0.35,0.264
			c0.094,0.114,0.165,0.252,0.215,0.412s0.075,0.34,0.075,0.539c0,0.103-0.006,0.188-0.018,0.258h-1.879
			c0.019,0.302,0.112,0.54,0.278,0.716s0.383,0.264,0.65,0.264c0.134,0,0.257-0.02,0.37-0.06s0.221-0.093,0.324-0.158l0.167,0.31
			c-0.123,0.077-0.258,0.144-0.407,0.201c-0.149,0.057-0.319,0.086-0.51,0.086c-0.188,0-0.362-0.034-0.524-0.101
			c-0.163-0.066-0.304-0.162-0.424-0.286c-0.12-0.125-0.215-0.276-0.284-0.456S65.737,94.829,65.737,94.6z M67.686,94.388
			c0-0.287-0.061-0.505-0.181-0.656c-0.121-0.151-0.29-0.227-0.507-0.227c-0.099,0-0.194,0.021-0.284,0.061
			s-0.171,0.098-0.244,0.172c-0.072,0.074-0.133,0.166-0.18,0.275c-0.048,0.108-0.08,0.233-0.095,0.375H67.686z"/>
		<path fill="#5D5E5E" d="M69.256,96.222v0.939h-0.47v-3.96h0.39l0.04,0.321h0.017c0.126-0.107,0.265-0.199,0.416-0.275
			s0.309-0.114,0.473-0.114c0.18,0,0.338,0.033,0.476,0.1c0.138,0.067,0.252,0.163,0.344,0.287c0.091,0.124,0.161,0.273,0.209,0.447
			s0.072,0.369,0.072,0.587c0,0.237-0.033,0.448-0.098,0.634c-0.065,0.185-0.153,0.343-0.264,0.473s-0.239,0.229-0.384,0.295
			c-0.146,0.066-0.298,0.101-0.458,0.101c-0.13,0-0.259-0.029-0.387-0.086c-0.128-0.058-0.257-0.136-0.387-0.235L69.256,96.222z
			 M69.256,95.367c0.126,0.107,0.248,0.183,0.367,0.227s0.224,0.066,0.315,0.066c0.114,0,0.221-0.026,0.318-0.077
			c0.098-0.052,0.182-0.125,0.252-0.218c0.071-0.094,0.126-0.21,0.167-0.348c0.04-0.137,0.06-0.292,0.06-0.464
			c0-0.152-0.013-0.292-0.04-0.418s-0.07-0.234-0.129-0.324c-0.06-0.09-0.136-0.159-0.229-0.209
			c-0.093-0.05-0.205-0.074-0.335-0.074c-0.119,0-0.238,0.032-0.358,0.097c-0.12,0.065-0.249,0.159-0.387,0.281V95.367z"/>
		<path fill="#5D5E5E" d="M71.966,91.906h0.47v3.553c0,0.077,0.013,0.13,0.04,0.161c0.027,0.03,0.057,0.046,0.092,0.046
			c0.015,0,0.029,0,0.043,0c0.013,0,0.033-0.004,0.06-0.012l0.063,0.355c-0.03,0.015-0.067,0.026-0.109,0.034
			s-0.095,0.012-0.16,0.012c-0.18,0-0.308-0.054-0.384-0.161c-0.076-0.106-0.115-0.264-0.115-0.47V91.906z"/>
		<path fill="#5D5E5E" d="M73.668,92.628c-0.091,0-0.169-0.028-0.232-0.086c-0.063-0.057-0.095-0.13-0.095-0.218
			c0-0.092,0.032-0.165,0.095-0.221c0.063-0.055,0.141-0.083,0.232-0.083c0.092,0,0.169,0.028,0.232,0.083
			c0.063,0.056,0.094,0.129,0.094,0.221c0,0.088-0.031,0.161-0.094,0.218C73.838,92.6,73.76,92.628,73.668,92.628z M73.428,93.201
			h0.47v2.785h-0.47V93.201z"/>
		<path fill="#5D5E5E" d="M74.631,94.6c0-0.233,0.036-0.44,0.109-0.622c0.072-0.181,0.17-0.335,0.292-0.461
			c0.122-0.126,0.264-0.222,0.427-0.287c0.162-0.064,0.333-0.097,0.513-0.097c0.184,0,0.341,0.033,0.473,0.1
			c0.132,0.067,0.245,0.145,0.341,0.232l-0.235,0.304c-0.084-0.072-0.171-0.132-0.261-0.178s-0.19-0.068-0.301-0.068
			c-0.126,0-0.243,0.025-0.35,0.077s-0.199,0.125-0.275,0.221c-0.076,0.096-0.137,0.209-0.18,0.341
			c-0.044,0.132-0.066,0.278-0.066,0.438s0.021,0.306,0.063,0.436c0.042,0.13,0.1,0.242,0.175,0.335
			c0.074,0.094,0.165,0.167,0.272,0.218c0.107,0.052,0.224,0.078,0.35,0.078c0.134,0,0.255-0.028,0.364-0.083
			c0.109-0.056,0.206-0.122,0.29-0.198l0.212,0.31c-0.126,0.11-0.266,0.198-0.421,0.264c-0.155,0.064-0.316,0.098-0.484,0.098
			c-0.184,0-0.355-0.033-0.516-0.098c-0.161-0.065-0.299-0.159-0.416-0.284c-0.117-0.124-0.208-0.276-0.275-0.458
			S74.631,94.829,74.631,94.6z"/>
		<path fill="#5D5E5E" d="M77.256,95.265c0-0.306,0.136-0.54,0.41-0.702c0.273-0.162,0.708-0.276,1.304-0.341
			c0-0.088-0.008-0.174-0.026-0.258c-0.017-0.084-0.048-0.159-0.091-0.224c-0.044-0.065-0.103-0.118-0.175-0.158
			c-0.073-0.04-0.167-0.06-0.281-0.06c-0.164,0-0.316,0.03-0.456,0.092c-0.139,0.061-0.265,0.13-0.375,0.206l-0.189-0.327
			c0.13-0.084,0.289-0.165,0.476-0.243c0.188-0.078,0.394-0.117,0.619-0.117c0.34,0,0.586,0.104,0.739,0.312
			c0.153,0.208,0.229,0.485,0.229,0.833v1.708h-0.39l-0.041-0.332h-0.011c-0.134,0.11-0.278,0.205-0.433,0.283
			c-0.155,0.079-0.318,0.118-0.49,0.118c-0.237,0-0.433-0.069-0.587-0.207C77.333,95.712,77.256,95.517,77.256,95.265z M77.72,95.23
			c0,0.16,0.047,0.274,0.141,0.344c0.094,0.068,0.209,0.103,0.347,0.103c0.134,0,0.261-0.031,0.381-0.094
			c0.12-0.063,0.247-0.156,0.381-0.278v-0.773c-0.233,0.03-0.43,0.066-0.59,0.108c-0.16,0.042-0.289,0.092-0.387,0.149
			c-0.098,0.057-0.167,0.123-0.209,0.197C77.741,95.061,77.72,95.143,77.72,95.23z"/>
		<path fill="#5D5E5E" d="M80.408,93.585h-0.413v-0.355l0.436-0.028l0.057-0.779h0.396v0.779h0.751v0.384h-0.751v1.548
			c0,0.172,0.032,0.305,0.095,0.398s0.175,0.14,0.335,0.14c0.05,0,0.104-0.007,0.161-0.022s0.109-0.032,0.155-0.052l0.092,0.355
			c-0.077,0.026-0.16,0.051-0.25,0.071c-0.09,0.021-0.179,0.032-0.267,0.032c-0.149,0-0.274-0.023-0.375-0.069
			c-0.101-0.046-0.183-0.108-0.246-0.188c-0.063-0.081-0.108-0.178-0.135-0.293c-0.027-0.114-0.04-0.24-0.04-0.378V93.585z"/>
		<path fill="#5D5E5E" d="M82.506,92.628c-0.091,0-0.169-0.028-0.232-0.086c-0.063-0.057-0.095-0.13-0.095-0.218
			c0-0.092,0.032-0.165,0.095-0.221c0.063-0.055,0.141-0.083,0.232-0.083c0.092,0,0.169,0.028,0.232,0.083
			c0.063,0.056,0.094,0.129,0.094,0.221c0,0.088-0.031,0.161-0.094,0.218C82.675,92.6,82.598,92.628,82.506,92.628z M82.265,93.201
			h0.47v2.785h-0.47V93.201z"/>
		<path fill="#5D5E5E" d="M83.469,94.6c0-0.233,0.035-0.44,0.106-0.622c0.071-0.181,0.165-0.335,0.284-0.461
			c0.118-0.126,0.255-0.222,0.41-0.287c0.155-0.064,0.318-0.097,0.49-0.097s0.335,0.032,0.49,0.097
			c0.155,0.065,0.292,0.161,0.41,0.287c0.118,0.126,0.213,0.28,0.284,0.461c0.07,0.182,0.106,0.389,0.106,0.622
			c0,0.229-0.036,0.435-0.106,0.616c-0.071,0.182-0.166,0.334-0.284,0.458c-0.119,0.125-0.255,0.219-0.41,0.284
			c-0.155,0.064-0.318,0.098-0.49,0.098s-0.335-0.033-0.49-0.098c-0.155-0.065-0.292-0.159-0.41-0.284
			c-0.119-0.124-0.213-0.276-0.284-0.458S83.469,94.829,83.469,94.6z M83.956,94.6c0,0.16,0.019,0.306,0.057,0.436
			s0.093,0.242,0.163,0.335c0.071,0.094,0.156,0.167,0.255,0.218c0.099,0.052,0.208,0.078,0.327,0.078
			c0.118,0,0.227-0.026,0.327-0.078c0.099-0.051,0.184-0.124,0.255-0.218c0.071-0.093,0.125-0.205,0.164-0.335
			c0.038-0.13,0.057-0.275,0.057-0.436s-0.019-0.307-0.057-0.438c-0.039-0.132-0.093-0.245-0.164-0.341s-0.156-0.169-0.255-0.221
			c-0.1-0.052-0.208-0.077-0.327-0.077c-0.119,0-0.228,0.025-0.327,0.077c-0.1,0.052-0.185,0.125-0.255,0.221
			c-0.07,0.096-0.125,0.209-0.163,0.341S83.956,94.439,83.956,94.6z"/>
		<path fill="#5D5E5E" d="M86.781,93.201h0.39l0.04,0.401h0.017c0.134-0.134,0.274-0.245,0.421-0.335
			c0.147-0.09,0.318-0.135,0.513-0.135c0.294,0,0.509,0.092,0.645,0.274c0.135,0.184,0.203,0.455,0.203,0.814v1.765h-0.47v-1.702
			c0-0.264-0.042-0.453-0.126-0.57c-0.084-0.116-0.218-0.175-0.401-0.175c-0.146,0-0.273,0.037-0.384,0.109
			c-0.111,0.072-0.237,0.18-0.378,0.32v2.018h-0.47V93.201z"/>
	</g>
	<line fill="none" stroke="#64C2E5" stroke-width="0.75" stroke-miterlimit="10" x1="26.771" y1="79.051" x2="26.771" y2="87.703"/>
	<line fill="none" stroke="#64C2E5" stroke-width="0.75" stroke-miterlimit="10" x1="70.771" y1="79.051" x2="70.771" y2="87.703"/>
	
		<line fill="none" stroke="#64C2E5" stroke-width="0.75" stroke-miterlimit="10" x1="117.039" y1="79.051" x2="117.039" y2="87.703"/>
	<path fill="#EDF6FB" stroke="#64C2E5" stroke-miterlimit="10" d="M174.577,205.933H54.439c-2.235,0-4.048-1.755-4.048-3.92v-65.097
		c0-2.165,1.812-3.92,4.048-3.92h120.138c2.236,0,4.048,1.755,4.048,3.92v65.097C178.625,204.177,176.813,205.933,174.577,205.933z"
		/>
	<g>
		<g>
			<path fill="none" stroke="#64C2E5" stroke-width="0.5" stroke-miterlimit="10" d="M73.809,170.893v-3.653
				c0-1.161,0.941-2.101,2.101-2.101h33.439c1.161,0,2.101-0.941,2.101-2.101v-2.716"/>
			<g>
				<path fill="#64C2E5" d="M75.849,167.988c-0.099-0.063-0.23-0.034-0.293,0.065l-1.746,2.742l-1.746-2.742
					c-0.063-0.099-0.195-0.128-0.293-0.065c-0.099,0.063-0.127,0.195-0.065,0.293l1.926,3.024c0.039,0.061,0.107,0.098,0.179,0.098
					s0.14-0.037,0.179-0.098l1.926-3.024c0.022-0.035,0.033-0.075,0.033-0.114C75.947,168.097,75.912,168.029,75.849,167.988z"/>
			</g>
		</g>
	</g>
	<path fill="#FFFFFF" stroke="#64C2E5" stroke-width="0.5" stroke-miterlimit="10" d="M128.43,191.93H97.585
		c-0.791,0-1.433-0.641-1.433-1.433v-16.482c0-0.791,0.641-1.433,1.433-1.433h30.844c0.791,0,1.433,0.641,1.433,1.433v16.482
		C129.863,191.288,129.221,191.93,128.43,191.93z"/>
	<path fill="#FFFFFF" stroke="#64C2E5" stroke-width="0.5" stroke-miterlimit="10" d="M170.43,193.93h-30.844
		c-0.791,0-1.433-0.641-1.433-1.433v-16.482c0-0.791,0.641-1.433,1.433-1.433h30.844c0.791,0,1.433,0.641,1.433,1.433v16.482
		C171.863,193.288,171.221,193.93,170.43,193.93z"/>
	<g>
		<path fill="#449FD8" d="M103.411,179.688c0.134,0.126,0.287,0.229,0.458,0.307s0.344,0.117,0.516,0.117
			c0.214,0,0.376-0.043,0.487-0.132c0.111-0.087,0.167-0.204,0.167-0.35c0-0.076-0.015-0.141-0.043-0.194
			c-0.028-0.054-0.068-0.101-0.12-0.141s-0.113-0.077-0.184-0.111c-0.07-0.034-0.148-0.069-0.232-0.104l-0.516-0.224
			c-0.092-0.038-0.183-0.086-0.272-0.144c-0.09-0.057-0.171-0.126-0.244-0.206c-0.072-0.08-0.131-0.174-0.175-0.28
			c-0.044-0.107-0.066-0.229-0.066-0.367c0-0.149,0.032-0.287,0.095-0.415s0.15-0.24,0.261-0.336
			c0.111-0.095,0.244-0.17,0.398-0.224c0.155-0.053,0.324-0.08,0.507-0.08c0.218,0,0.428,0.043,0.63,0.129
			c0.202,0.086,0.376,0.202,0.521,0.347l-0.338,0.425c-0.122-0.1-0.248-0.178-0.378-0.235s-0.275-0.086-0.436-0.086
			c-0.18,0-0.323,0.039-0.43,0.117c-0.107,0.079-0.16,0.187-0.16,0.324c0,0.072,0.016,0.135,0.048,0.187
			c0.033,0.051,0.077,0.097,0.132,0.137c0.056,0.041,0.12,0.077,0.192,0.109c0.072,0.032,0.147,0.064,0.223,0.095l0.51,0.212
			c0.111,0.046,0.212,0.1,0.304,0.16c0.092,0.062,0.171,0.132,0.238,0.212c0.067,0.081,0.12,0.173,0.158,0.278
			s0.057,0.227,0.057,0.364c0,0.152-0.03,0.296-0.092,0.43c-0.061,0.134-0.15,0.251-0.266,0.353
			c-0.117,0.101-0.258,0.182-0.424,0.24c-0.166,0.06-0.354,0.089-0.564,0.089c-0.252,0-0.496-0.048-0.73-0.144
			c-0.235-0.095-0.442-0.23-0.622-0.406L103.411,179.688z"/>
		<path fill="#449FD8" d="M106.162,179.219c0-0.229,0.037-0.436,0.109-0.619c0.073-0.184,0.169-0.338,0.29-0.464
			c0.12-0.126,0.259-0.224,0.416-0.293c0.157-0.068,0.317-0.103,0.481-0.103c0.191,0,0.359,0.032,0.504,0.098
			c0.145,0.064,0.267,0.156,0.364,0.274c0.098,0.119,0.171,0.26,0.221,0.425c0.05,0.164,0.075,0.344,0.075,0.538
			c0,0.13-0.01,0.233-0.029,0.31h-1.788c0.03,0.256,0.119,0.453,0.267,0.591c0.147,0.137,0.335,0.206,0.564,0.206
			c0.122,0,0.236-0.019,0.341-0.055s0.209-0.087,0.312-0.151l0.224,0.412c-0.134,0.088-0.283,0.16-0.447,0.218
			c-0.165,0.058-0.336,0.086-0.516,0.086c-0.195,0-0.376-0.033-0.544-0.101c-0.168-0.066-0.315-0.163-0.441-0.289
			s-0.225-0.279-0.295-0.461S106.162,179.452,106.162,179.219z M108.048,178.967c0-0.226-0.047-0.401-0.141-0.527
			s-0.238-0.189-0.433-0.189c-0.168,0-0.315,0.061-0.441,0.181c-0.126,0.12-0.204,0.299-0.235,0.536H108.048z"/>
		<path fill="#449FD8" d="M109.067,179.219c0-0.233,0.038-0.441,0.115-0.625c0.076-0.184,0.18-0.338,0.31-0.464
			s0.28-0.223,0.45-0.289c0.17-0.067,0.349-0.101,0.536-0.101c0.183,0,0.343,0.031,0.479,0.095c0.135,0.062,0.251,0.14,0.347,0.231
			l-0.315,0.419c-0.076-0.065-0.153-0.116-0.229-0.152c-0.077-0.036-0.159-0.055-0.247-0.055c-0.229,0-0.415,0.086-0.556,0.256
			c-0.142,0.17-0.212,0.398-0.212,0.685c0,0.283,0.07,0.509,0.209,0.679c0.139,0.171,0.32,0.256,0.542,0.256
			c0.115,0,0.221-0.024,0.318-0.072c0.098-0.048,0.185-0.104,0.261-0.169l0.275,0.418c-0.134,0.119-0.281,0.209-0.441,0.27
			c-0.161,0.062-0.321,0.092-0.481,0.092c-0.191,0-0.37-0.032-0.536-0.098c-0.167-0.064-0.311-0.16-0.433-0.286
			c-0.122-0.126-0.218-0.281-0.287-0.464C109.102,179.66,109.067,179.452,109.067,179.219z"/>
		<path fill="#449FD8" d="M111.87,177.809h0.659v1.68c0,0.232,0.034,0.397,0.103,0.492c0.069,0.096,0.18,0.144,0.333,0.144
			c0.122,0,0.23-0.03,0.324-0.092c0.094-0.061,0.194-0.16,0.301-0.298v-1.926h0.659v2.814h-0.539l-0.052-0.413h-0.017
			c-0.123,0.146-0.255,0.262-0.398,0.35c-0.143,0.088-0.312,0.132-0.507,0.132c-0.302,0-0.521-0.097-0.659-0.289
			c-0.138-0.193-0.207-0.469-0.207-0.828V177.809z"/>
		<path fill="#449FD8" d="M115.085,177.809h0.544l0.046,0.499h0.023c0.099-0.184,0.22-0.324,0.361-0.422
			c0.142-0.097,0.287-0.146,0.436-0.146c0.134,0,0.241,0.019,0.321,0.058l-0.114,0.572c-0.05-0.015-0.096-0.026-0.138-0.034
			s-0.094-0.012-0.155-0.012c-0.111,0-0.228,0.043-0.35,0.129c-0.122,0.087-0.227,0.236-0.315,0.45v1.72h-0.659V177.809z"/>
		<path fill="#449FD8" d="M117.556,177.316c-0.119,0-0.216-0.035-0.292-0.104c-0.077-0.069-0.115-0.158-0.115-0.27
			c0-0.11,0.038-0.201,0.115-0.272c0.076-0.07,0.174-0.105,0.292-0.105c0.118,0,0.216,0.035,0.292,0.105
			c0.077,0.071,0.115,0.162,0.115,0.272c0,0.111-0.038,0.2-0.115,0.27C117.771,177.281,117.674,177.316,117.556,177.316z
			 M117.223,177.809h0.659v2.814h-0.659V177.809z"/>
		<path fill="#449FD8" d="M118.822,178.33h-0.401v-0.492l0.436-0.029l0.08-0.768h0.55v0.768h0.716v0.521h-0.716v1.342
			c0,0.328,0.132,0.492,0.396,0.492c0.049,0,0.1-0.006,0.152-0.017c0.051-0.012,0.098-0.027,0.14-0.046l0.115,0.487
			c-0.077,0.026-0.163,0.05-0.261,0.071c-0.097,0.021-0.202,0.031-0.312,0.031c-0.164,0-0.303-0.024-0.416-0.074
			c-0.112-0.05-0.204-0.119-0.275-0.209s-0.122-0.197-0.155-0.321c-0.032-0.124-0.049-0.263-0.049-0.415V178.33z"/>
		<path fill="#449FD8" d="M120.831,181.233c0.036,0.009,0.072,0.014,0.106,0.014c0.149,0,0.269-0.045,0.358-0.134
			c0.09-0.09,0.158-0.206,0.204-0.348l0.051-0.177l-1.106-2.78h0.67l0.487,1.382c0.042,0.122,0.083,0.251,0.123,0.387
			s0.081,0.271,0.123,0.403h0.023c0.035-0.129,0.07-0.262,0.106-0.397c0.036-0.136,0.071-0.267,0.106-0.393l0.424-1.382h0.636
			l-1.02,2.94c-0.058,0.16-0.121,0.304-0.189,0.43c-0.069,0.126-0.148,0.234-0.238,0.324c-0.09,0.089-0.193,0.158-0.309,0.206
			c-0.117,0.048-0.251,0.071-0.404,0.071c-0.076,0-0.143-0.005-0.201-0.014c-0.057-0.01-0.113-0.024-0.166-0.043l0.12-0.517
			C120.763,181.215,120.794,181.224,120.831,181.233z"/>
		<path fill="#449FD8" d="M103.529,185.419c0.134,0.127,0.287,0.229,0.458,0.307c0.172,0.079,0.344,0.118,0.516,0.118
			c0.214,0,0.376-0.044,0.487-0.132s0.167-0.205,0.167-0.35c0-0.076-0.015-0.142-0.043-0.195c-0.028-0.054-0.068-0.101-0.12-0.141
			s-0.113-0.077-0.184-0.111c-0.07-0.034-0.148-0.068-0.232-0.104l-0.516-0.224c-0.092-0.038-0.183-0.086-0.272-0.143
			c-0.09-0.058-0.171-0.126-0.244-0.207c-0.072-0.08-0.131-0.174-0.175-0.28c-0.044-0.107-0.066-0.229-0.066-0.367
			c0-0.148,0.032-0.287,0.095-0.415s0.15-0.24,0.261-0.335c0.111-0.096,0.244-0.171,0.398-0.224
			c0.155-0.054,0.324-0.081,0.507-0.081c0.218,0,0.428,0.044,0.63,0.13c0.202,0.086,0.376,0.201,0.521,0.347l-0.338,0.424
			c-0.122-0.1-0.248-0.178-0.378-0.235c-0.13-0.057-0.275-0.086-0.436-0.086c-0.18,0-0.323,0.039-0.43,0.118
			c-0.107,0.078-0.16,0.186-0.16,0.323c0,0.072,0.016,0.135,0.048,0.187c0.033,0.052,0.077,0.098,0.132,0.138
			c0.056,0.04,0.12,0.076,0.192,0.108c0.072,0.032,0.147,0.064,0.223,0.095l0.51,0.212c0.111,0.046,0.212,0.1,0.304,0.16
			c0.092,0.062,0.171,0.132,0.238,0.213c0.067,0.08,0.12,0.173,0.158,0.277c0.038,0.105,0.057,0.227,0.057,0.364
			c0,0.152-0.03,0.296-0.092,0.43c-0.061,0.134-0.15,0.251-0.266,0.353c-0.117,0.102-0.258,0.182-0.424,0.24
			c-0.166,0.06-0.354,0.089-0.564,0.089c-0.252,0-0.496-0.048-0.73-0.143c-0.235-0.096-0.442-0.231-0.622-0.407L103.529,185.419z"/>
		<path fill="#449FD8" d="M106.28,184.949c0-0.232,0.038-0.441,0.115-0.624c0.076-0.184,0.18-0.339,0.31-0.465
			s0.28-0.223,0.45-0.289c0.17-0.067,0.349-0.101,0.536-0.101c0.183,0,0.343,0.031,0.479,0.095c0.135,0.062,0.251,0.141,0.347,0.232
			l-0.315,0.418c-0.076-0.064-0.153-0.115-0.229-0.152c-0.077-0.036-0.159-0.054-0.247-0.054c-0.229,0-0.415,0.085-0.556,0.255
			c-0.142,0.17-0.212,0.398-0.212,0.685c0,0.283,0.07,0.51,0.209,0.68c0.139,0.17,0.32,0.255,0.542,0.255
			c0.115,0,0.221-0.024,0.318-0.072c0.098-0.047,0.185-0.104,0.261-0.169l0.275,0.419c-0.134,0.118-0.281,0.208-0.441,0.27
			c-0.161,0.061-0.321,0.091-0.481,0.091c-0.191,0-0.37-0.032-0.536-0.097c-0.167-0.065-0.311-0.161-0.433-0.287
			c-0.122-0.126-0.218-0.28-0.287-0.464C106.314,185.391,106.28,185.183,106.28,184.949z"/>
		<path fill="#449FD8" d="M108.933,185.597c0-0.302,0.132-0.534,0.396-0.699c0.264-0.164,0.684-0.278,1.261-0.344
			c0-0.072-0.009-0.142-0.028-0.209c-0.02-0.066-0.049-0.126-0.089-0.178s-0.092-0.092-0.155-0.12s-0.143-0.043-0.238-0.043
			c-0.142,0-0.278,0.026-0.41,0.08s-0.259,0.118-0.381,0.195l-0.241-0.441c0.157-0.1,0.332-0.186,0.524-0.258
			c0.193-0.073,0.402-0.109,0.627-0.109c0.355,0,0.619,0.104,0.791,0.312s0.258,0.509,0.258,0.902v1.668h-0.539l-0.052-0.31h-0.017
			c-0.126,0.107-0.261,0.197-0.404,0.27c-0.144,0.072-0.299,0.108-0.467,0.108c-0.249,0-0.45-0.075-0.604-0.226
			C109.011,186.045,108.933,185.846,108.933,185.597z M109.575,185.546c0,0.126,0.037,0.218,0.112,0.274
			c0.074,0.058,0.171,0.086,0.29,0.086c0.114,0,0.219-0.026,0.315-0.08s0.195-0.13,0.298-0.229v-0.63
			c-0.191,0.022-0.352,0.054-0.481,0.092s-0.234,0.081-0.312,0.129c-0.079,0.048-0.135,0.102-0.169,0.163
			C109.592,185.412,109.575,185.477,109.575,185.546z"/>
		<path fill="#449FD8" d="M112.051,183.54h0.544l0.046,0.378h0.023c0.126-0.122,0.263-0.228,0.41-0.315s0.318-0.132,0.513-0.132
			c0.302,0,0.521,0.097,0.659,0.289c0.138,0.193,0.207,0.47,0.207,0.828v1.766h-0.659v-1.68c0-0.232-0.034-0.396-0.103-0.492
			s-0.182-0.144-0.338-0.144c-0.122,0-0.23,0.029-0.324,0.089s-0.2,0.146-0.318,0.261v1.966h-0.659V183.54z"/>
		<path fill="#449FD8" d="M115.26,183.54h0.544l0.046,0.378h0.023c0.126-0.122,0.263-0.228,0.41-0.315s0.318-0.132,0.513-0.132
			c0.302,0,0.521,0.097,0.659,0.289c0.138,0.193,0.207,0.47,0.207,0.828v1.766h-0.659v-1.68c0-0.232-0.034-0.396-0.103-0.492
			s-0.182-0.144-0.338-0.144c-0.122,0-0.23,0.029-0.324,0.089s-0.2,0.146-0.318,0.261v1.966h-0.659V183.54z"/>
		<path fill="#449FD8" d="M118.286,184.949c0-0.229,0.037-0.436,0.109-0.619c0.073-0.183,0.169-0.338,0.29-0.464
			c0.12-0.126,0.259-0.224,0.416-0.292c0.157-0.069,0.317-0.104,0.481-0.104c0.191,0,0.359,0.032,0.504,0.098
			c0.145,0.064,0.267,0.156,0.364,0.275c0.098,0.118,0.171,0.26,0.221,0.424s0.075,0.344,0.075,0.538c0,0.131-0.01,0.233-0.029,0.31
			h-1.788c0.03,0.257,0.119,0.453,0.267,0.591c0.147,0.138,0.335,0.206,0.564,0.206c0.122,0,0.236-0.018,0.341-0.055
			c0.105-0.036,0.209-0.087,0.312-0.151l0.224,0.412c-0.134,0.088-0.283,0.161-0.447,0.218c-0.165,0.058-0.336,0.086-0.516,0.086
			c-0.195,0-0.376-0.033-0.544-0.1c-0.168-0.067-0.315-0.164-0.441-0.29s-0.225-0.279-0.295-0.461S118.286,185.183,118.286,184.949z
			 M120.172,184.697c0-0.226-0.047-0.401-0.141-0.527s-0.238-0.189-0.433-0.189c-0.168,0-0.315,0.061-0.441,0.181
			c-0.126,0.12-0.204,0.299-0.235,0.536H120.172z"/>
		<path fill="#449FD8" d="M121.375,183.54h0.544l0.046,0.498h0.023c0.099-0.184,0.22-0.324,0.361-0.421
			c0.142-0.098,0.287-0.146,0.436-0.146c0.134,0,0.241,0.02,0.321,0.058l-0.114,0.573c-0.05-0.016-0.096-0.027-0.138-0.035
			c-0.042-0.007-0.094-0.011-0.155-0.011c-0.111,0-0.228,0.043-0.35,0.129s-0.227,0.235-0.315,0.449v1.72h-0.659V183.54z"/>
	</g>
	<path fill="#FFFFFF" stroke="#64C2E5" stroke-width="0.5" stroke-miterlimit="10" d="M168.43,191.93h-30.844
		c-0.791,0-1.433-0.641-1.433-1.433v-16.482c0-0.791,0.641-1.433,1.433-1.433h30.844c0.791,0,1.433,0.641,1.433,1.433v16.482
		C169.863,191.288,169.221,191.93,168.43,191.93z"/>
	<g>
		<path fill="#449FD8" d="M143.308,179.875h1.198c0.195,0,0.374,0.016,0.536,0.049c0.162,0.032,0.304,0.084,0.424,0.154
			c0.121,0.07,0.214,0.165,0.281,0.284c0.067,0.118,0.101,0.263,0.101,0.436c0,0.179-0.053,0.346-0.158,0.498
			c-0.105,0.153-0.267,0.258-0.484,0.315v0.022c0.271,0.046,0.479,0.143,0.622,0.29c0.143,0.146,0.215,0.347,0.215,0.599
			c0,0.188-0.037,0.35-0.109,0.487c-0.073,0.138-0.173,0.252-0.301,0.344c-0.128,0.092-0.28,0.159-0.456,0.203
			c-0.176,0.044-0.367,0.066-0.573,0.066h-1.295V179.875z M144.449,181.428c0.264,0,0.454-0.048,0.57-0.144
			c0.116-0.095,0.175-0.23,0.175-0.406c0-0.172-0.062-0.296-0.184-0.373c-0.122-0.076-0.306-0.114-0.55-0.114h-0.487v1.037H144.449z
			 M144.535,183.107c0.275,0,0.487-0.052,0.636-0.155s0.224-0.262,0.224-0.476c0-0.195-0.073-0.339-0.218-0.433
			c-0.146-0.094-0.359-0.141-0.642-0.141h-0.562v1.204H144.535z"/>
		<path fill="#449FD8" d="M146.644,180.809h0.659v1.68c0,0.232,0.034,0.397,0.103,0.492c0.069,0.096,0.18,0.144,0.333,0.144
			c0.122,0,0.23-0.03,0.324-0.092c0.094-0.061,0.194-0.16,0.301-0.298v-1.926h0.659v2.814h-0.539l-0.052-0.413h-0.017
			c-0.123,0.146-0.255,0.262-0.398,0.35c-0.143,0.088-0.312,0.132-0.507,0.132c-0.302,0-0.521-0.097-0.659-0.289
			c-0.138-0.193-0.207-0.469-0.207-0.828V180.809z"/>
		<path fill="#449FD8" d="M150.191,180.316c-0.119,0-0.216-0.035-0.292-0.104c-0.077-0.069-0.115-0.158-0.115-0.27
			c0-0.11,0.038-0.201,0.115-0.272c0.076-0.07,0.174-0.105,0.292-0.105c0.118,0,0.216,0.035,0.292,0.105
			c0.077,0.071,0.115,0.162,0.115,0.272c0,0.111-0.038,0.2-0.115,0.27C150.407,180.281,150.31,180.316,150.191,180.316z
			 M149.859,180.809h0.659v2.814h-0.659V180.809z"/>
		<path fill="#449FD8" d="M151.36,179.577h0.659v3.358c0,0.08,0.015,0.136,0.046,0.169c0.03,0.032,0.063,0.049,0.097,0.049
			c0.015,0,0.03,0,0.043,0s0.033-0.004,0.06-0.012l0.086,0.492c-0.088,0.039-0.204,0.058-0.35,0.058
			c-0.237,0-0.403-0.07-0.499-0.212c-0.095-0.142-0.143-0.334-0.143-0.579V179.577z"/>
		<path fill="#449FD8" d="M152.742,182.219c0-0.229,0.033-0.436,0.1-0.619s0.156-0.338,0.267-0.464s0.238-0.224,0.381-0.293
			c0.144-0.068,0.292-0.103,0.444-0.103c0.161,0,0.296,0.027,0.407,0.083s0.222,0.131,0.333,0.227l-0.023-0.453v-1.02h0.659v4.046
			h-0.544l-0.046-0.304h-0.023c-0.103,0.103-0.224,0.19-0.361,0.264c-0.138,0.072-0.283,0.108-0.436,0.108
			c-0.355,0-0.637-0.129-0.846-0.387C152.846,183.047,152.742,182.685,152.742,182.219z M153.423,182.213
			c0,0.306,0.055,0.538,0.164,0.696c0.109,0.159,0.267,0.238,0.473,0.238c0.21,0,0.407-0.105,0.59-0.315v-1.312
			c-0.099-0.088-0.196-0.149-0.29-0.184c-0.093-0.034-0.188-0.052-0.284-0.052c-0.183,0-0.338,0.081-0.464,0.241
			S153.423,181.915,153.423,182.213z"/>
		<path fill="#449FD8" d="M155.962,182.219c0-0.229,0.037-0.436,0.109-0.619c0.073-0.184,0.169-0.338,0.29-0.464
			c0.12-0.126,0.259-0.224,0.416-0.293c0.157-0.068,0.317-0.103,0.481-0.103c0.191,0,0.359,0.032,0.504,0.098
			c0.145,0.064,0.267,0.156,0.364,0.274c0.098,0.119,0.171,0.26,0.221,0.425c0.05,0.164,0.075,0.344,0.075,0.538
			c0,0.13-0.01,0.233-0.029,0.31h-1.788c0.03,0.256,0.119,0.453,0.267,0.591c0.147,0.137,0.335,0.206,0.564,0.206
			c0.122,0,0.236-0.019,0.341-0.055s0.209-0.087,0.312-0.151l0.224,0.412c-0.134,0.088-0.283,0.16-0.447,0.218
			c-0.165,0.058-0.336,0.086-0.516,0.086c-0.195,0-0.376-0.033-0.544-0.101c-0.168-0.066-0.315-0.163-0.441-0.289
			s-0.225-0.279-0.295-0.461S155.962,182.452,155.962,182.219z M157.848,181.967c0-0.226-0.047-0.401-0.141-0.527
			s-0.238-0.189-0.433-0.189c-0.168,0-0.315,0.061-0.441,0.181c-0.126,0.12-0.204,0.299-0.235,0.536H157.848z"/>
		<path fill="#449FD8" d="M159.051,180.809h0.544l0.046,0.499h0.023c0.099-0.184,0.22-0.324,0.361-0.422
			c0.142-0.097,0.287-0.146,0.436-0.146c0.134,0,0.241,0.019,0.321,0.058l-0.114,0.572c-0.05-0.015-0.096-0.026-0.138-0.034
			s-0.094-0.012-0.155-0.012c-0.111,0-0.228,0.043-0.35,0.129c-0.122,0.087-0.227,0.236-0.315,0.45v1.72h-0.659V180.809z"/>
		<path fill="#449FD8" d="M161.161,182.878c0.126,0.1,0.251,0.177,0.375,0.232c0.124,0.055,0.259,0.083,0.404,0.083
			c0.153,0,0.266-0.032,0.338-0.095c0.073-0.063,0.109-0.145,0.109-0.244c0-0.057-0.017-0.107-0.051-0.151
			c-0.035-0.044-0.081-0.083-0.138-0.117c-0.057-0.035-0.123-0.066-0.195-0.095c-0.073-0.029-0.146-0.059-0.218-0.089
			c-0.092-0.034-0.186-0.075-0.281-0.121c-0.096-0.045-0.181-0.101-0.255-0.166c-0.074-0.064-0.135-0.14-0.183-0.227
			c-0.048-0.086-0.072-0.188-0.072-0.306c0-0.249,0.092-0.451,0.275-0.608c0.183-0.156,0.434-0.234,0.75-0.234
			c0.195,0,0.371,0.034,0.527,0.103c0.157,0.069,0.292,0.147,0.407,0.235l-0.304,0.401c-0.099-0.072-0.2-0.131-0.301-0.175
			s-0.208-0.066-0.318-0.066c-0.142,0-0.246,0.03-0.312,0.089c-0.067,0.06-0.101,0.133-0.101,0.221c0,0.058,0.017,0.106,0.049,0.146
			c0.033,0.04,0.076,0.075,0.129,0.106c0.054,0.03,0.116,0.059,0.187,0.086c0.07,0.026,0.144,0.053,0.221,0.08
			c0.095,0.034,0.191,0.073,0.287,0.117c0.095,0.044,0.182,0.099,0.261,0.163c0.078,0.065,0.141,0.145,0.189,0.238
			s0.072,0.205,0.072,0.335c0,0.122-0.024,0.236-0.072,0.341c-0.048,0.105-0.118,0.197-0.209,0.275
			c-0.092,0.078-0.207,0.141-0.344,0.187c-0.137,0.046-0.294,0.068-0.47,0.068c-0.195,0-0.387-0.037-0.576-0.111
			c-0.189-0.075-0.353-0.167-0.49-0.278L161.161,182.878z"/>
	</g>
	<g>
		<g>
			<path fill="none" stroke="#64C2E5" stroke-width="0.5" stroke-miterlimit="10" d="M153.628,170.895v-3.653
				c0-1.161-0.941-2.101-2.101-2.101h-33.439c-1.161,0-2.101-0.941-2.101-2.101v-2.716"/>
			<g>
				<path fill="#64C2E5" d="M155.668,167.99c-0.099-0.063-0.23-0.034-0.293,0.065l-1.746,2.742l-1.746-2.742
					c-0.063-0.099-0.195-0.128-0.293-0.065c-0.099,0.063-0.127,0.195-0.065,0.293l1.926,3.024c0.039,0.061,0.107,0.098,0.179,0.098
					s0.14-0.037,0.179-0.098l1.926-3.024c0.022-0.035,0.033-0.075,0.033-0.114C155.766,168.099,155.731,168.031,155.668,167.99z"/>
			</g>
		</g>
	</g>
	<g>
		<g>
			
				<line fill="none" stroke="#64C2E5" stroke-width="0.5" stroke-miterlimit="10" x1="113.628" y1="170.895" x2="113.628" y2="161.242"/>
			<g>
				<path fill="#64C2E5" d="M115.668,167.99c-0.099-0.063-0.23-0.034-0.293,0.065l-1.746,2.742l-1.746-2.742
					c-0.063-0.099-0.195-0.128-0.293-0.065c-0.099,0.063-0.127,0.195-0.065,0.293l1.926,3.024c0.039,0.061,0.107,0.098,0.179,0.098
					s0.14-0.037,0.179-0.098l1.926-3.024c0.022-0.035,0.033-0.075,0.033-0.114C115.766,168.099,115.731,168.031,115.668,167.99z"/>
			</g>
		</g>
	</g>
	<path fill="#FFFFFF" stroke="#64C2E5" stroke-width="0.5" stroke-miterlimit="10" d="M135.883,160.93H96.039
		c-0.791,0-1.433-0.641-1.433-1.433v-16.482c0-0.791,0.641-1.433,1.433-1.433h39.844c0.791,0,1.433,0.641,1.433,1.433v16.482
		C137.316,160.288,136.675,160.93,135.883,160.93z"/>
	<path fill="#FFFFFF" stroke="#64C2E5" stroke-width="0.5" stroke-miterlimit="10" d="M133.883,158.93H94.039
		c-0.791,0-1.433-0.641-1.433-1.433v-16.482c0-0.791,0.641-1.433,1.433-1.433h39.844c0.791,0,1.433,0.641,1.433,1.433v16.482
		C135.316,158.288,134.675,158.93,133.883,158.93z"/>
	<g>
		<path fill="#449FD8" d="M102.564,149.608h-1.261l-0.292,1.015h-0.676l1.221-3.748h0.779l1.221,3.748h-0.699L102.564,149.608z
			 M102.415,149.087l-0.132-0.459c-0.061-0.198-0.119-0.402-0.175-0.612c-0.055-0.211-0.11-0.419-0.163-0.625h-0.023
			c-0.054,0.21-0.107,0.419-0.161,0.627c-0.054,0.209-0.111,0.412-0.172,0.61l-0.132,0.459H102.415z"/>
		<path fill="#449FD8" d="M104.622,150.852v0.883h-0.659v-3.926h0.544l0.046,0.298h0.023c0.118-0.099,0.25-0.185,0.396-0.258
			c0.145-0.072,0.296-0.108,0.453-0.108c0.176,0,0.332,0.033,0.467,0.101c0.136,0.066,0.251,0.163,0.347,0.289
			c0.095,0.126,0.168,0.277,0.218,0.453c0.049,0.176,0.074,0.372,0.074,0.59c0,0.24-0.033,0.456-0.1,0.645
			c-0.067,0.189-0.156,0.348-0.267,0.476s-0.239,0.227-0.384,0.296c-0.146,0.068-0.296,0.103-0.453,0.103
			c-0.122,0-0.245-0.026-0.367-0.08s-0.241-0.13-0.355-0.229L104.622,150.852z M104.622,149.912
			c0.103,0.088,0.202,0.149,0.298,0.184c0.095,0.034,0.185,0.052,0.27,0.052c0.187,0,0.344-0.081,0.47-0.244
			c0.126-0.162,0.189-0.404,0.189-0.725c0-0.283-0.048-0.503-0.143-0.659c-0.096-0.156-0.25-0.235-0.464-0.235
			c-0.199,0-0.405,0.105-0.619,0.315V149.912z"/>
		<path fill="#449FD8" d="M107.854,150.852v0.883h-0.659v-3.926h0.544l0.046,0.298h0.023c0.118-0.099,0.25-0.185,0.396-0.258
			c0.145-0.072,0.296-0.108,0.453-0.108c0.176,0,0.332,0.033,0.467,0.101c0.136,0.066,0.251,0.163,0.347,0.289
			c0.095,0.126,0.168,0.277,0.218,0.453c0.049,0.176,0.074,0.372,0.074,0.59c0,0.24-0.033,0.456-0.1,0.645
			c-0.067,0.189-0.156,0.348-0.267,0.476s-0.239,0.227-0.384,0.296c-0.146,0.068-0.296,0.103-0.453,0.103
			c-0.122,0-0.245-0.026-0.367-0.08s-0.241-0.13-0.355-0.229L107.854,150.852z M107.854,149.912
			c0.103,0.088,0.202,0.149,0.298,0.184c0.095,0.034,0.185,0.052,0.27,0.052c0.187,0,0.344-0.081,0.47-0.244
			c0.126-0.162,0.189-0.404,0.189-0.725c0-0.283-0.048-0.503-0.143-0.659c-0.096-0.156-0.25-0.235-0.464-0.235
			c-0.199,0-0.405,0.105-0.619,0.315V149.912z"/>
		<path fill="#449FD8" d="M110.427,146.577h0.659v3.358c0,0.08,0.015,0.136,0.046,0.169c0.03,0.032,0.063,0.049,0.097,0.049
			c0.015,0,0.03,0,0.043,0s0.033-0.004,0.06-0.012l0.086,0.492c-0.088,0.039-0.204,0.058-0.35,0.058
			c-0.237,0-0.403-0.07-0.499-0.212c-0.095-0.142-0.143-0.334-0.143-0.579V146.577z"/>
		<path fill="#449FD8" d="M112.313,147.316c-0.119,0-0.216-0.035-0.292-0.104c-0.077-0.069-0.115-0.158-0.115-0.27
			c0-0.11,0.038-0.201,0.115-0.272c0.076-0.07,0.174-0.105,0.292-0.105c0.118,0,0.216,0.035,0.292,0.105
			c0.077,0.071,0.115,0.162,0.115,0.272c0,0.111-0.038,0.2-0.115,0.27C112.529,147.281,112.431,147.316,112.313,147.316z
			 M111.98,147.809h0.659v2.814h-0.659V147.809z"/>
		<path fill="#449FD8" d="M113.298,149.219c0-0.233,0.038-0.441,0.115-0.625c0.076-0.184,0.18-0.338,0.31-0.464
			s0.28-0.223,0.45-0.289c0.17-0.067,0.349-0.101,0.536-0.101c0.183,0,0.343,0.031,0.479,0.095c0.135,0.062,0.251,0.14,0.347,0.231
			l-0.315,0.419c-0.076-0.065-0.153-0.116-0.229-0.152c-0.077-0.036-0.159-0.055-0.247-0.055c-0.229,0-0.415,0.086-0.556,0.256
			c-0.142,0.17-0.212,0.398-0.212,0.685c0,0.283,0.07,0.509,0.209,0.679c0.139,0.171,0.32,0.256,0.542,0.256
			c0.115,0,0.221-0.024,0.318-0.072c0.098-0.048,0.185-0.104,0.261-0.169l0.275,0.418c-0.134,0.119-0.281,0.209-0.441,0.27
			c-0.161,0.062-0.321,0.092-0.481,0.092c-0.191,0-0.37-0.032-0.536-0.098c-0.167-0.064-0.311-0.16-0.433-0.286
			c-0.122-0.126-0.218-0.281-0.287-0.464C113.333,149.66,113.298,149.452,113.298,149.219z"/>
		<path fill="#449FD8" d="M115.952,149.866c0-0.302,0.132-0.535,0.396-0.699s0.684-0.278,1.261-0.344
			c0-0.072-0.009-0.143-0.028-0.209c-0.02-0.067-0.049-0.126-0.089-0.178s-0.092-0.092-0.155-0.12
			c-0.063-0.029-0.143-0.043-0.238-0.043c-0.142,0-0.278,0.026-0.41,0.08s-0.259,0.118-0.381,0.194l-0.241-0.441
			c0.157-0.099,0.332-0.185,0.524-0.258c0.193-0.072,0.402-0.108,0.627-0.108c0.355,0,0.619,0.104,0.791,0.312
			c0.172,0.208,0.258,0.509,0.258,0.902v1.668h-0.539l-0.052-0.31h-0.017c-0.126,0.106-0.261,0.196-0.404,0.27
			c-0.144,0.072-0.299,0.108-0.467,0.108c-0.249,0-0.45-0.075-0.604-0.227C116.029,150.314,115.952,150.114,115.952,149.866z
			 M116.594,149.814c0,0.126,0.037,0.218,0.112,0.275c0.074,0.058,0.171,0.086,0.29,0.086c0.114,0,0.219-0.026,0.315-0.08
			s0.195-0.13,0.298-0.229v-0.63c-0.191,0.022-0.352,0.053-0.481,0.091c-0.13,0.039-0.234,0.082-0.312,0.129
			c-0.079,0.048-0.135,0.103-0.169,0.164C116.611,149.681,116.594,149.746,116.594,149.814z"/>
		<path fill="#449FD8" d="M119.167,148.33h-0.401v-0.492l0.436-0.029l0.08-0.768h0.55v0.768h0.716v0.521h-0.716v1.342
			c0,0.328,0.132,0.492,0.396,0.492c0.049,0,0.1-0.006,0.152-0.017c0.051-0.012,0.098-0.027,0.14-0.046l0.115,0.487
			c-0.077,0.026-0.163,0.05-0.261,0.071c-0.097,0.021-0.202,0.031-0.312,0.031c-0.164,0-0.303-0.024-0.416-0.074
			c-0.112-0.05-0.204-0.119-0.275-0.209s-0.122-0.197-0.155-0.321c-0.032-0.124-0.049-0.263-0.049-0.415V148.33z"/>
		<path fill="#449FD8" d="M121.471,147.316c-0.119,0-0.216-0.035-0.292-0.104c-0.077-0.069-0.115-0.158-0.115-0.27
			c0-0.11,0.038-0.201,0.115-0.272c0.076-0.07,0.174-0.105,0.292-0.105c0.118,0,0.216,0.035,0.292,0.105
			c0.077,0.071,0.115,0.162,0.115,0.272c0,0.111-0.038,0.2-0.115,0.27C121.687,147.281,121.589,147.316,121.471,147.316z
			 M121.138,147.809h0.659v2.814h-0.659V147.809z"/>
		<path fill="#449FD8" d="M122.456,149.219c0-0.233,0.037-0.441,0.109-0.625c0.073-0.184,0.171-0.338,0.295-0.464
			c0.124-0.126,0.266-0.223,0.427-0.289c0.161-0.067,0.329-0.101,0.504-0.101s0.345,0.033,0.507,0.101
			c0.162,0.066,0.305,0.163,0.427,0.289c0.123,0.126,0.221,0.28,0.295,0.464c0.074,0.184,0.112,0.392,0.112,0.625
			s-0.038,0.441-0.112,0.625c-0.075,0.183-0.173,0.338-0.295,0.464c-0.122,0.126-0.265,0.222-0.427,0.286
			c-0.163,0.065-0.332,0.098-0.507,0.098s-0.344-0.032-0.504-0.098c-0.161-0.064-0.303-0.16-0.427-0.286
			c-0.125-0.126-0.223-0.281-0.295-0.464C122.493,149.66,122.456,149.452,122.456,149.219z M123.132,149.219
			c0,0.283,0.058,0.509,0.175,0.679c0.117,0.171,0.278,0.256,0.484,0.256s0.369-0.085,0.487-0.256
			c0.118-0.17,0.178-0.396,0.178-0.679c0-0.286-0.06-0.515-0.178-0.685c-0.119-0.17-0.281-0.256-0.487-0.256
			s-0.368,0.086-0.484,0.256S123.132,148.933,123.132,149.219z"/>
		<path fill="#449FD8" d="M125.786,147.809h0.544l0.046,0.379h0.023c0.126-0.123,0.263-0.228,0.41-0.315s0.318-0.132,0.513-0.132
			c0.302,0,0.521,0.097,0.659,0.289c0.138,0.193,0.207,0.47,0.207,0.828v1.766h-0.659v-1.68c0-0.232-0.034-0.397-0.103-0.492
			c-0.069-0.096-0.182-0.144-0.338-0.144c-0.122,0-0.23,0.029-0.324,0.089c-0.094,0.059-0.2,0.146-0.318,0.261v1.966h-0.659V147.809
			z"/>
	</g>
	<g>
		<path fill="#449FD8" d="M84.158,129.06c-0.057,0.019-0.134,0.038-0.229,0.057c-0.096,0.02-0.199,0.029-0.31,0.029
			c-0.348,0-0.638-0.083-0.871-0.25c-0.233-0.166-0.405-0.379-0.516-0.639c-0.207-0.026-0.394-0.092-0.562-0.194
			c-0.168-0.104-0.312-0.239-0.433-0.407c-0.12-0.168-0.213-0.366-0.278-0.594c-0.065-0.227-0.098-0.479-0.098-0.753
			c0-0.302,0.039-0.572,0.118-0.812c0.078-0.238,0.188-0.441,0.33-0.607c0.141-0.166,0.31-0.293,0.507-0.381
			c0.197-0.088,0.414-0.132,0.65-0.132s0.454,0.045,0.65,0.135s0.367,0.218,0.51,0.384c0.143,0.166,0.254,0.369,0.332,0.607
			c0.079,0.239,0.118,0.508,0.118,0.806c0,0.271-0.032,0.519-0.095,0.742s-0.153,0.418-0.269,0.584
			c-0.117,0.167-0.257,0.302-0.421,0.407c-0.165,0.105-0.346,0.175-0.544,0.209c0.088,0.168,0.212,0.292,0.373,0.373
			c0.16,0.08,0.344,0.12,0.55,0.12c0.084,0,0.157-0.006,0.22-0.018c0.063-0.011,0.122-0.024,0.175-0.04L84.158,129.06z
			 M81.355,126.309c0,0.24,0.026,0.457,0.08,0.65c0.054,0.192,0.129,0.358,0.227,0.495c0.097,0.138,0.214,0.243,0.35,0.315
			c0.135,0.073,0.287,0.109,0.456,0.109c0.168,0,0.32-0.036,0.456-0.109c0.136-0.072,0.252-0.178,0.35-0.315
			c0.097-0.137,0.173-0.303,0.226-0.495c0.054-0.193,0.081-0.41,0.081-0.65c0-0.233-0.027-0.443-0.081-0.631
			c-0.053-0.187-0.129-0.346-0.226-0.476c-0.098-0.13-0.214-0.23-0.35-0.301s-0.288-0.106-0.456-0.106
			c-0.168,0-0.32,0.036-0.456,0.106c-0.136,0.07-0.252,0.171-0.35,0.301c-0.098,0.13-0.173,0.289-0.227,0.476
			C81.382,125.865,81.355,126.075,81.355,126.309z"/>
		<path fill="#449FD8" d="M84.799,125.42h0.476v1.702c0,0.264,0.041,0.454,0.124,0.57c0.082,0.116,0.215,0.175,0.398,0.175
			c0.145,0,0.273-0.037,0.384-0.111c0.111-0.075,0.233-0.194,0.367-0.358v-1.978h0.47v2.785h-0.39l-0.04-0.436H86.57
			c-0.13,0.153-0.267,0.275-0.41,0.367c-0.144,0.092-0.312,0.138-0.507,0.138c-0.298,0-0.515-0.092-0.65-0.275
			s-0.204-0.455-0.204-0.813V125.42z"/>
		<path fill="#449FD8" d="M87.82,127.483c0-0.306,0.136-0.54,0.41-0.702c0.273-0.162,0.708-0.276,1.304-0.341
			c0-0.088-0.008-0.174-0.026-0.258c-0.017-0.084-0.048-0.159-0.091-0.224c-0.044-0.065-0.103-0.118-0.175-0.158
			c-0.073-0.04-0.167-0.06-0.281-0.06c-0.164,0-0.316,0.03-0.456,0.092c-0.139,0.061-0.265,0.13-0.375,0.206l-0.189-0.327
			c0.13-0.084,0.289-0.165,0.476-0.243c0.188-0.078,0.394-0.117,0.619-0.117c0.34,0,0.586,0.104,0.739,0.312
			c0.153,0.208,0.229,0.485,0.229,0.833v1.708h-0.39l-0.041-0.332h-0.011c-0.134,0.11-0.278,0.205-0.433,0.283
			c-0.155,0.079-0.318,0.118-0.49,0.118c-0.237,0-0.433-0.069-0.587-0.207C87.897,127.931,87.82,127.735,87.82,127.483z
			 M88.284,127.449c0,0.16,0.047,0.274,0.141,0.344c0.094,0.068,0.209,0.103,0.347,0.103c0.134,0,0.261-0.031,0.381-0.094
			c0.12-0.063,0.247-0.156,0.381-0.278v-0.773c-0.233,0.03-0.43,0.066-0.59,0.108c-0.16,0.042-0.289,0.092-0.387,0.149
			c-0.098,0.057-0.167,0.123-0.209,0.197C88.305,127.279,88.284,127.361,88.284,127.449z"/>
		<path fill="#449FD8" d="M90.806,128.999c0.039,0.01,0.075,0.015,0.109,0.015c0.161,0,0.292-0.057,0.393-0.169
			c0.102-0.113,0.181-0.256,0.238-0.428l0.063-0.206l-1.118-2.791h0.487l0.567,1.542c0.042,0.122,0.086,0.251,0.134,0.387
			s0.093,0.269,0.135,0.398h0.023c0.042-0.126,0.082-0.258,0.121-0.396c0.038-0.138,0.076-0.268,0.114-0.39l0.499-1.542h0.458
			l-1.048,3.015c-0.05,0.138-0.105,0.266-0.167,0.384s-0.134,0.221-0.218,0.307s-0.18,0.154-0.287,0.204
			c-0.107,0.049-0.231,0.074-0.373,0.074c-0.065,0-0.124-0.005-0.178-0.015c-0.053-0.01-0.103-0.023-0.149-0.043l0.092-0.372
			C90.733,128.98,90.768,128.989,90.806,128.999z"/>
		<path fill="#449FD8" d="M94.771,124.445h2.167v0.401h-1.69v1.181h1.427v0.407h-1.427v1.364h1.748v0.406h-2.224V124.445z"/>
		<path fill="#449FD8" d="M97.746,125.42h0.39l0.04,0.401h0.017c0.134-0.134,0.274-0.245,0.421-0.335
			c0.147-0.09,0.318-0.135,0.513-0.135c0.294,0,0.509,0.092,0.645,0.274c0.135,0.184,0.203,0.455,0.203,0.814v1.765h-0.47v-1.702
			c0-0.264-0.042-0.453-0.126-0.57c-0.084-0.116-0.218-0.175-0.401-0.175c-0.146,0-0.273,0.037-0.384,0.109
			c-0.111,0.072-0.237,0.18-0.378,0.32v2.018h-0.47V125.42z"/>
		<path fill="#449FD8" d="M100.961,125.804h-0.413v-0.355l0.436-0.028l0.057-0.779h0.396v0.779h0.751v0.384h-0.751v1.548
			c0,0.172,0.032,0.305,0.095,0.398s0.175,0.14,0.335,0.14c0.05,0,0.104-0.007,0.161-0.022s0.109-0.032,0.155-0.052l0.092,0.355
			c-0.077,0.026-0.16,0.051-0.25,0.071c-0.09,0.021-0.179,0.032-0.267,0.032c-0.149,0-0.274-0.023-0.375-0.069
			c-0.101-0.046-0.183-0.108-0.246-0.188c-0.063-0.081-0.108-0.178-0.135-0.293c-0.027-0.114-0.04-0.24-0.04-0.378V125.804z"/>
		<path fill="#449FD8" d="M102.554,126.818c0-0.229,0.035-0.435,0.106-0.616s0.164-0.335,0.281-0.461s0.25-0.223,0.398-0.29
			c0.149-0.066,0.304-0.1,0.464-0.1c0.175,0,0.333,0.03,0.473,0.092c0.14,0.061,0.256,0.148,0.35,0.264
			c0.094,0.114,0.165,0.252,0.215,0.412s0.075,0.34,0.075,0.539c0,0.103-0.006,0.188-0.018,0.258h-1.879
			c0.019,0.302,0.112,0.54,0.278,0.716s0.383,0.264,0.65,0.264c0.134,0,0.257-0.02,0.37-0.06s0.221-0.093,0.324-0.158l0.167,0.31
			c-0.123,0.077-0.258,0.144-0.407,0.201c-0.149,0.057-0.319,0.086-0.51,0.086c-0.188,0-0.362-0.034-0.524-0.101
			c-0.163-0.066-0.304-0.162-0.424-0.286c-0.12-0.125-0.215-0.276-0.284-0.456S102.554,127.048,102.554,126.818z M104.503,126.606
			c0-0.287-0.061-0.505-0.181-0.656c-0.121-0.151-0.29-0.227-0.507-0.227c-0.099,0-0.194,0.021-0.284,0.061
			s-0.171,0.098-0.244,0.172c-0.072,0.074-0.133,0.166-0.18,0.275c-0.048,0.108-0.08,0.233-0.095,0.375H104.503z"/>
		<path fill="#449FD8" d="M105.603,125.42h0.39l0.04,0.505h0.017c0.095-0.176,0.211-0.315,0.347-0.419s0.284-0.154,0.444-0.154
			c0.111,0,0.21,0.019,0.298,0.057l-0.092,0.413c-0.046-0.016-0.088-0.026-0.126-0.034s-0.086-0.012-0.143-0.012
			c-0.119,0-0.242,0.048-0.37,0.144c-0.128,0.096-0.24,0.262-0.335,0.498v1.788h-0.47V125.42z"/>
		<path fill="#449FD8" d="M108.062,128.44v0.939h-0.47v-3.96h0.39l0.04,0.321h0.017c0.126-0.107,0.265-0.199,0.416-0.275
			s0.309-0.114,0.473-0.114c0.18,0,0.338,0.033,0.476,0.1c0.138,0.067,0.252,0.163,0.344,0.287c0.091,0.124,0.161,0.273,0.209,0.447
			s0.072,0.369,0.072,0.587c0,0.237-0.033,0.448-0.098,0.634c-0.065,0.185-0.153,0.343-0.264,0.473s-0.239,0.229-0.384,0.295
			c-0.146,0.066-0.298,0.101-0.458,0.101c-0.13,0-0.259-0.029-0.387-0.086c-0.128-0.058-0.257-0.136-0.387-0.235L108.062,128.44z
			 M108.062,127.586c0.126,0.107,0.248,0.183,0.367,0.227s0.224,0.066,0.315,0.066c0.114,0,0.221-0.026,0.318-0.077
			c0.098-0.052,0.182-0.125,0.252-0.218c0.071-0.094,0.126-0.21,0.167-0.348c0.04-0.137,0.06-0.292,0.06-0.464
			c0-0.152-0.013-0.292-0.04-0.418s-0.07-0.234-0.129-0.324c-0.06-0.09-0.136-0.159-0.229-0.209
			c-0.093-0.05-0.205-0.074-0.335-0.074c-0.119,0-0.238,0.032-0.358,0.097c-0.12,0.065-0.249,0.159-0.387,0.281V127.586z"/>
		<path fill="#449FD8" d="M110.772,125.42h0.39l0.04,0.505h0.017c0.095-0.176,0.211-0.315,0.347-0.419s0.284-0.154,0.444-0.154
			c0.111,0,0.21,0.019,0.298,0.057l-0.092,0.413c-0.046-0.016-0.088-0.026-0.126-0.034s-0.086-0.012-0.143-0.012
			c-0.119,0-0.242,0.048-0.37,0.144c-0.128,0.096-0.24,0.262-0.335,0.498v1.788h-0.47V125.42z"/>
		<path fill="#449FD8" d="M113.001,124.847c-0.091,0-0.169-0.028-0.232-0.086c-0.063-0.057-0.095-0.13-0.095-0.218
			c0-0.092,0.032-0.165,0.095-0.221c0.063-0.055,0.141-0.083,0.232-0.083c0.092,0,0.169,0.028,0.232,0.083
			c0.063,0.056,0.094,0.129,0.094,0.221c0,0.088-0.031,0.161-0.094,0.218C113.171,124.818,113.093,124.847,113.001,124.847z
			 M112.761,125.42h0.47v2.785h-0.47V125.42z"/>
		<path fill="#449FD8" d="M114.096,127.575c0.122,0.099,0.247,0.18,0.375,0.24c0.128,0.062,0.276,0.092,0.444,0.092
			c0.184,0,0.321-0.042,0.413-0.126c0.092-0.084,0.138-0.188,0.138-0.31c0-0.072-0.019-0.136-0.057-0.189
			c-0.039-0.053-0.087-0.1-0.146-0.14c-0.059-0.04-0.127-0.076-0.203-0.106c-0.077-0.03-0.153-0.061-0.229-0.092
			c-0.099-0.034-0.199-0.073-0.298-0.117c-0.1-0.044-0.188-0.098-0.267-0.16c-0.078-0.063-0.142-0.137-0.192-0.221
			s-0.075-0.186-0.075-0.304c0-0.111,0.022-0.216,0.066-0.312c0.044-0.098,0.107-0.182,0.189-0.253
			c0.082-0.07,0.182-0.126,0.301-0.166c0.118-0.04,0.252-0.06,0.401-0.06c0.176,0,0.337,0.03,0.484,0.092
			c0.147,0.061,0.274,0.135,0.381,0.223l-0.224,0.299c-0.096-0.073-0.195-0.132-0.298-0.178c-0.104-0.046-0.216-0.069-0.338-0.069
			c-0.176,0-0.305,0.04-0.387,0.121c-0.082,0.08-0.123,0.174-0.123,0.28c0,0.065,0.017,0.121,0.051,0.169
			c0.035,0.048,0.081,0.09,0.138,0.126c0.057,0.037,0.123,0.069,0.198,0.098c0.074,0.028,0.152,0.059,0.232,0.089
			c0.1,0.038,0.2,0.078,0.301,0.12c0.102,0.042,0.192,0.095,0.272,0.158c0.08,0.062,0.146,0.14,0.198,0.231
			c0.051,0.092,0.077,0.203,0.077,0.333c0,0.114-0.022,0.222-0.066,0.32c-0.044,0.1-0.109,0.188-0.195,0.264
			c-0.086,0.077-0.193,0.137-0.321,0.181s-0.274,0.066-0.438,0.066c-0.199,0-0.388-0.037-0.567-0.109s-0.336-0.164-0.47-0.275
			L114.096,127.575z"/>
		<path fill="#449FD8" d="M116.366,126.818c0-0.229,0.035-0.435,0.106-0.616s0.164-0.335,0.281-0.461s0.25-0.223,0.398-0.29
			c0.149-0.066,0.304-0.1,0.464-0.1c0.175,0,0.333,0.03,0.473,0.092c0.14,0.061,0.256,0.148,0.35,0.264
			c0.094,0.114,0.165,0.252,0.215,0.412s0.075,0.34,0.075,0.539c0,0.103-0.006,0.188-0.018,0.258h-1.879
			c0.019,0.302,0.112,0.54,0.278,0.716s0.383,0.264,0.65,0.264c0.134,0,0.257-0.02,0.37-0.06s0.221-0.093,0.324-0.158l0.167,0.31
			c-0.123,0.077-0.258,0.144-0.407,0.201c-0.149,0.057-0.319,0.086-0.51,0.086c-0.188,0-0.362-0.034-0.524-0.101
			c-0.163-0.066-0.304-0.162-0.424-0.286c-0.12-0.125-0.215-0.276-0.284-0.456S116.366,127.048,116.366,126.818z M118.314,126.606
			c0-0.287-0.061-0.505-0.181-0.656c-0.121-0.151-0.29-0.227-0.507-0.227c-0.099,0-0.194,0.021-0.284,0.061
			s-0.171,0.098-0.244,0.172c-0.072,0.074-0.133,0.166-0.18,0.275c-0.048,0.108-0.08,0.233-0.095,0.375H118.314z"/>
		<path fill="#449FD8" d="M120.618,124.445h0.476v3.76h-0.476V124.445z"/>
		<path fill="#449FD8" d="M122.079,125.42h0.39l0.04,0.401h0.017c0.134-0.134,0.274-0.245,0.421-0.335
			c0.147-0.09,0.318-0.135,0.513-0.135c0.294,0,0.509,0.092,0.645,0.274c0.135,0.184,0.203,0.455,0.203,0.814v1.765h-0.47v-1.702
			c0-0.264-0.042-0.453-0.126-0.57c-0.084-0.116-0.218-0.175-0.401-0.175c-0.146,0-0.273,0.037-0.384,0.109
			c-0.111,0.072-0.237,0.18-0.378,0.32v2.018h-0.47V125.42z"/>
		<path fill="#449FD8" d="M125.14,127.575c0.122,0.099,0.247,0.18,0.375,0.24c0.128,0.062,0.276,0.092,0.444,0.092
			c0.184,0,0.321-0.042,0.413-0.126c0.092-0.084,0.138-0.188,0.138-0.31c0-0.072-0.019-0.136-0.057-0.189
			c-0.039-0.053-0.087-0.1-0.146-0.14c-0.059-0.04-0.127-0.076-0.203-0.106c-0.077-0.03-0.153-0.061-0.229-0.092
			c-0.099-0.034-0.199-0.073-0.298-0.117c-0.1-0.044-0.188-0.098-0.267-0.16c-0.078-0.063-0.142-0.137-0.192-0.221
			s-0.075-0.186-0.075-0.304c0-0.111,0.022-0.216,0.066-0.312c0.044-0.098,0.107-0.182,0.189-0.253
			c0.082-0.07,0.182-0.126,0.301-0.166c0.118-0.04,0.252-0.06,0.401-0.06c0.176,0,0.337,0.03,0.484,0.092
			c0.147,0.061,0.274,0.135,0.381,0.223l-0.224,0.299c-0.096-0.073-0.195-0.132-0.298-0.178c-0.104-0.046-0.216-0.069-0.338-0.069
			c-0.176,0-0.305,0.04-0.387,0.121c-0.082,0.08-0.123,0.174-0.123,0.28c0,0.065,0.017,0.121,0.051,0.169
			c0.035,0.048,0.081,0.09,0.138,0.126c0.057,0.037,0.123,0.069,0.198,0.098c0.074,0.028,0.152,0.059,0.232,0.089
			c0.1,0.038,0.2,0.078,0.301,0.12c0.102,0.042,0.192,0.095,0.272,0.158c0.08,0.062,0.146,0.14,0.198,0.231
			c0.051,0.092,0.077,0.203,0.077,0.333c0,0.114-0.022,0.222-0.066,0.32c-0.044,0.1-0.109,0.188-0.195,0.264
			c-0.086,0.077-0.193,0.137-0.321,0.181s-0.274,0.066-0.438,0.066c-0.199,0-0.388-0.037-0.567-0.109s-0.336-0.164-0.47-0.275
			L125.14,127.575z"/>
		<path fill="#449FD8" d="M127.696,125.804h-0.413v-0.355l0.436-0.028l0.057-0.779h0.396v0.779h0.751v0.384h-0.751v1.548
			c0,0.172,0.032,0.305,0.095,0.398s0.175,0.14,0.335,0.14c0.05,0,0.104-0.007,0.161-0.022s0.109-0.032,0.155-0.052l0.092,0.355
			c-0.077,0.026-0.16,0.051-0.25,0.071c-0.09,0.021-0.179,0.032-0.267,0.032c-0.149,0-0.274-0.023-0.375-0.069
			c-0.101-0.046-0.183-0.108-0.246-0.188c-0.063-0.081-0.108-0.178-0.135-0.293c-0.027-0.114-0.04-0.24-0.04-0.378V125.804z"/>
		<path fill="#449FD8" d="M129.312,127.483c0-0.306,0.136-0.54,0.41-0.702c0.273-0.162,0.708-0.276,1.304-0.341
			c0-0.088-0.008-0.174-0.026-0.258c-0.017-0.084-0.048-0.159-0.091-0.224c-0.044-0.065-0.103-0.118-0.175-0.158
			c-0.073-0.04-0.167-0.06-0.281-0.06c-0.164,0-0.316,0.03-0.456,0.092c-0.139,0.061-0.265,0.13-0.375,0.206l-0.189-0.327
			c0.13-0.084,0.289-0.165,0.476-0.243c0.188-0.078,0.394-0.117,0.619-0.117c0.34,0,0.586,0.104,0.739,0.312
			c0.153,0.208,0.229,0.485,0.229,0.833v1.708h-0.39l-0.041-0.332h-0.011c-0.134,0.11-0.278,0.205-0.433,0.283
			c-0.155,0.079-0.318,0.118-0.49,0.118c-0.237,0-0.433-0.069-0.587-0.207C129.389,127.931,129.312,127.735,129.312,127.483z
			 M129.776,127.449c0,0.16,0.047,0.274,0.141,0.344c0.094,0.068,0.209,0.103,0.347,0.103c0.134,0,0.261-0.031,0.381-0.094
			c0.12-0.063,0.247-0.156,0.381-0.278v-0.773c-0.233,0.03-0.43,0.066-0.59,0.108c-0.16,0.042-0.289,0.092-0.387,0.149
			c-0.098,0.057-0.167,0.123-0.209,0.197C129.797,127.279,129.776,127.361,129.776,127.449z"/>
		<path fill="#449FD8" d="M132.384,124.125h0.47v3.553c0,0.077,0.013,0.13,0.04,0.161c0.027,0.03,0.057,0.046,0.092,0.046
			c0.015,0,0.029,0,0.043,0c0.013,0,0.033-0.004,0.06-0.012l0.063,0.355c-0.03,0.015-0.067,0.026-0.109,0.034
			s-0.095,0.012-0.16,0.012c-0.18,0-0.308-0.054-0.384-0.161c-0.076-0.106-0.115-0.264-0.115-0.47V124.125z"/>
		<path fill="#449FD8" d="M133.845,124.125h0.47v3.553c0,0.077,0.013,0.13,0.04,0.161c0.027,0.03,0.057,0.046,0.092,0.046
			c0.015,0,0.029,0,0.043,0c0.013,0,0.033-0.004,0.06-0.012l0.063,0.355c-0.03,0.015-0.067,0.026-0.109,0.034
			s-0.095,0.012-0.16,0.012c-0.18,0-0.308-0.054-0.384-0.161c-0.076-0.106-0.115-0.264-0.115-0.47V124.125z"/>
		<path fill="#449FD8" d="M135.169,127.483c0-0.306,0.136-0.54,0.41-0.702c0.273-0.162,0.708-0.276,1.304-0.341
			c0-0.088-0.008-0.174-0.026-0.258c-0.017-0.084-0.048-0.159-0.091-0.224c-0.044-0.065-0.103-0.118-0.175-0.158
			c-0.073-0.04-0.167-0.06-0.281-0.06c-0.164,0-0.316,0.03-0.456,0.092c-0.139,0.061-0.265,0.13-0.375,0.206l-0.189-0.327
			c0.13-0.084,0.289-0.165,0.476-0.243c0.188-0.078,0.394-0.117,0.619-0.117c0.34,0,0.586,0.104,0.739,0.312
			c0.153,0.208,0.229,0.485,0.229,0.833v1.708h-0.39l-0.041-0.332h-0.011c-0.134,0.11-0.278,0.205-0.433,0.283
			c-0.155,0.079-0.318,0.118-0.49,0.118c-0.237,0-0.433-0.069-0.587-0.207C135.246,127.931,135.169,127.735,135.169,127.483z
			 M135.633,127.449c0,0.16,0.047,0.274,0.141,0.344c0.094,0.068,0.209,0.103,0.347,0.103c0.134,0,0.261-0.031,0.381-0.094
			c0.12-0.063,0.247-0.156,0.381-0.278v-0.773c-0.233,0.03-0.43,0.066-0.59,0.108c-0.16,0.042-0.289,0.092-0.387,0.149
			c-0.098,0.057-0.167,0.123-0.209,0.197C135.654,127.279,135.633,127.361,135.633,127.449z"/>
		<path fill="#449FD8" d="M138.321,125.804h-0.413v-0.355l0.436-0.028l0.057-0.779h0.396v0.779h0.751v0.384h-0.751v1.548
			c0,0.172,0.032,0.305,0.095,0.398s0.175,0.14,0.335,0.14c0.05,0,0.104-0.007,0.161-0.022s0.109-0.032,0.155-0.052l0.092,0.355
			c-0.077,0.026-0.16,0.051-0.25,0.071c-0.09,0.021-0.179,0.032-0.267,0.032c-0.149,0-0.274-0.023-0.375-0.069
			c-0.101-0.046-0.183-0.108-0.246-0.188c-0.063-0.081-0.108-0.178-0.135-0.293c-0.027-0.114-0.04-0.24-0.04-0.378V125.804z"/>
		<path fill="#449FD8" d="M140.418,124.847c-0.091,0-0.169-0.028-0.232-0.086c-0.063-0.057-0.095-0.13-0.095-0.218
			c0-0.092,0.032-0.165,0.095-0.221c0.063-0.055,0.141-0.083,0.232-0.083c0.092,0,0.169,0.028,0.232,0.083
			c0.063,0.056,0.094,0.129,0.094,0.221c0,0.088-0.031,0.161-0.094,0.218C140.588,124.818,140.51,124.847,140.418,124.847z
			 M140.178,125.42h0.47v2.785h-0.47V125.42z"/>
		<path fill="#449FD8" d="M141.381,126.818c0-0.233,0.035-0.44,0.106-0.622c0.071-0.181,0.165-0.335,0.284-0.461
			c0.118-0.126,0.255-0.222,0.41-0.287c0.155-0.064,0.318-0.097,0.49-0.097s0.335,0.032,0.49,0.097
			c0.155,0.065,0.292,0.161,0.41,0.287c0.118,0.126,0.213,0.28,0.284,0.461c0.07,0.182,0.106,0.389,0.106,0.622
			c0,0.229-0.036,0.435-0.106,0.616c-0.071,0.182-0.166,0.334-0.284,0.458c-0.119,0.125-0.255,0.219-0.41,0.284
			c-0.155,0.064-0.318,0.098-0.49,0.098s-0.335-0.033-0.49-0.098c-0.155-0.065-0.292-0.159-0.41-0.284
			c-0.119-0.124-0.213-0.276-0.284-0.458S141.381,127.048,141.381,126.818z M141.869,126.818c0,0.16,0.019,0.306,0.057,0.436
			s0.093,0.242,0.163,0.335c0.071,0.094,0.156,0.167,0.255,0.218c0.099,0.052,0.208,0.078,0.327,0.078
			c0.118,0,0.227-0.026,0.327-0.078c0.099-0.051,0.184-0.124,0.255-0.218c0.071-0.093,0.125-0.205,0.164-0.335
			c0.038-0.13,0.057-0.275,0.057-0.436s-0.019-0.307-0.057-0.438c-0.039-0.132-0.093-0.245-0.164-0.341s-0.156-0.169-0.255-0.221
			c-0.1-0.052-0.208-0.077-0.327-0.077c-0.119,0-0.228,0.025-0.327,0.077c-0.1,0.052-0.185,0.125-0.255,0.221
			c-0.07,0.096-0.125,0.209-0.163,0.341S141.869,126.658,141.869,126.818z"/>
		<path fill="#449FD8" d="M144.694,125.42h0.39l0.04,0.401h0.017c0.134-0.134,0.274-0.245,0.421-0.335
			c0.147-0.09,0.318-0.135,0.513-0.135c0.294,0,0.509,0.092,0.645,0.274c0.135,0.184,0.203,0.455,0.203,0.814v1.765h-0.47v-1.702
			c0-0.264-0.042-0.453-0.126-0.57c-0.084-0.116-0.218-0.175-0.401-0.175c-0.146,0-0.273,0.037-0.384,0.109
			c-0.111,0.072-0.237,0.18-0.378,0.32v2.018h-0.47V125.42z"/>
	</g>
	<path fill="#FFFFFF" stroke="#64C2E5" stroke-width="0.5" stroke-miterlimit="10" d="M88.43,191.93H57.585
		c-0.791,0-1.433-0.641-1.433-1.433v-16.482c0-0.791,0.641-1.433,1.433-1.433H88.43c0.791,0,1.433,0.641,1.433,1.433v16.482
		C89.863,191.288,89.221,191.93,88.43,191.93z"/>
	<g>
		<path fill="#449FD8" d="M64.087,182.688c0.134,0.126,0.287,0.229,0.458,0.307s0.344,0.117,0.516,0.117
			c0.214,0,0.376-0.043,0.487-0.132c0.111-0.087,0.167-0.204,0.167-0.35c0-0.076-0.015-0.141-0.043-0.194
			c-0.028-0.054-0.068-0.101-0.12-0.141s-0.113-0.077-0.184-0.111c-0.07-0.034-0.148-0.069-0.232-0.104l-0.516-0.224
			c-0.092-0.038-0.183-0.086-0.272-0.144c-0.09-0.057-0.171-0.126-0.244-0.206c-0.072-0.08-0.131-0.174-0.175-0.28
			c-0.044-0.107-0.066-0.229-0.066-0.367c0-0.149,0.032-0.287,0.095-0.415s0.15-0.24,0.261-0.336
			c0.111-0.095,0.244-0.17,0.398-0.224c0.155-0.053,0.324-0.08,0.507-0.08c0.218,0,0.428,0.043,0.63,0.129
			c0.202,0.086,0.376,0.202,0.521,0.347l-0.338,0.425c-0.122-0.1-0.248-0.178-0.378-0.235s-0.275-0.086-0.436-0.086
			c-0.18,0-0.323,0.039-0.43,0.117c-0.107,0.079-0.16,0.187-0.16,0.324c0,0.072,0.016,0.135,0.048,0.187
			c0.033,0.051,0.077,0.097,0.132,0.137c0.056,0.041,0.12,0.077,0.192,0.109c0.072,0.032,0.147,0.064,0.223,0.095l0.51,0.212
			c0.111,0.046,0.212,0.1,0.304,0.16c0.092,0.062,0.171,0.132,0.238,0.212c0.067,0.081,0.12,0.173,0.158,0.278
			s0.057,0.227,0.057,0.364c0,0.152-0.03,0.296-0.092,0.43c-0.061,0.134-0.15,0.251-0.266,0.353
			c-0.117,0.101-0.258,0.182-0.424,0.24c-0.166,0.06-0.354,0.089-0.564,0.089c-0.252,0-0.496-0.048-0.73-0.144
			c-0.235-0.095-0.442-0.23-0.622-0.406L64.087,182.688z"/>
		<path fill="#449FD8" d="M67.119,181.33h-0.401v-0.492l0.436-0.029l0.08-0.768h0.55v0.768H68.5v0.521h-0.716v1.342
			c0,0.328,0.132,0.492,0.396,0.492c0.049,0,0.1-0.006,0.152-0.017c0.051-0.012,0.098-0.027,0.14-0.046l0.115,0.487
			c-0.077,0.026-0.163,0.05-0.261,0.071c-0.097,0.021-0.202,0.031-0.312,0.031c-0.164,0-0.303-0.024-0.416-0.074
			c-0.112-0.05-0.204-0.119-0.275-0.209s-0.122-0.197-0.155-0.321c-0.032-0.124-0.049-0.263-0.049-0.415V181.33z"/>
		<path fill="#449FD8" d="M68.85,182.219c0-0.233,0.037-0.441,0.109-0.625c0.073-0.184,0.171-0.338,0.295-0.464
			c0.124-0.126,0.266-0.223,0.427-0.289c0.161-0.067,0.329-0.101,0.504-0.101s0.345,0.033,0.507,0.101
			c0.162,0.066,0.305,0.163,0.427,0.289c0.123,0.126,0.221,0.28,0.295,0.464c0.074,0.184,0.112,0.392,0.112,0.625
			s-0.038,0.441-0.112,0.625c-0.075,0.183-0.173,0.338-0.295,0.464c-0.122,0.126-0.265,0.222-0.427,0.286
			c-0.163,0.065-0.332,0.098-0.507,0.098s-0.344-0.032-0.504-0.098c-0.161-0.064-0.303-0.16-0.427-0.286
			c-0.125-0.126-0.223-0.281-0.295-0.464C68.887,182.66,68.85,182.452,68.85,182.219z M69.526,182.219
			c0,0.283,0.058,0.509,0.175,0.679c0.117,0.171,0.278,0.256,0.484,0.256s0.369-0.085,0.487-0.256
			c0.118-0.17,0.178-0.396,0.178-0.679c0-0.286-0.06-0.515-0.178-0.685c-0.119-0.17-0.281-0.256-0.487-0.256
			s-0.368,0.086-0.484,0.256S69.526,181.933,69.526,182.219z"/>
		<path fill="#449FD8" d="M72.18,180.809h0.544l0.046,0.499h0.023c0.099-0.184,0.22-0.324,0.361-0.422
			c0.142-0.097,0.287-0.146,0.436-0.146c0.134,0,0.241,0.019,0.321,0.058l-0.114,0.572c-0.05-0.015-0.096-0.026-0.138-0.034
			s-0.094-0.012-0.155-0.012c-0.111,0-0.228,0.043-0.35,0.129c-0.122,0.087-0.227,0.236-0.315,0.45v1.72H72.18V180.809z"/>
		<path fill="#449FD8" d="M74.042,182.866c0-0.302,0.132-0.535,0.396-0.699s0.684-0.278,1.261-0.344
			c0-0.072-0.009-0.143-0.028-0.209c-0.02-0.067-0.049-0.126-0.089-0.178s-0.092-0.092-0.155-0.12
			c-0.063-0.029-0.143-0.043-0.238-0.043c-0.142,0-0.278,0.026-0.41,0.08s-0.259,0.118-0.381,0.194l-0.241-0.441
			c0.157-0.099,0.332-0.185,0.524-0.258c0.193-0.072,0.402-0.108,0.627-0.108c0.355,0,0.619,0.104,0.791,0.312
			c0.172,0.208,0.258,0.509,0.258,0.902v1.668h-0.539l-0.052-0.31H75.75c-0.126,0.106-0.261,0.196-0.404,0.27
			c-0.144,0.072-0.299,0.108-0.467,0.108c-0.249,0-0.45-0.075-0.604-0.227C74.12,183.314,74.042,183.114,74.042,182.866z
			 M74.684,182.814c0,0.126,0.037,0.218,0.112,0.275c0.074,0.058,0.171,0.086,0.29,0.086c0.114,0,0.219-0.026,0.315-0.08
			s0.195-0.13,0.298-0.229v-0.63c-0.191,0.022-0.352,0.053-0.481,0.091c-0.13,0.039-0.234,0.082-0.312,0.129
			c-0.079,0.048-0.135,0.103-0.169,0.164C74.701,182.681,74.684,182.746,74.684,182.814z"/>
		<path fill="#449FD8" d="M76.971,184.133c0-0.118,0.035-0.229,0.104-0.329c0.069-0.102,0.168-0.192,0.298-0.272v-0.023
			c-0.073-0.046-0.133-0.106-0.181-0.183c-0.048-0.077-0.071-0.172-0.071-0.287c0-0.11,0.031-0.211,0.094-0.301
			s0.135-0.163,0.215-0.221v-0.022c-0.095-0.073-0.18-0.173-0.255-0.301c-0.074-0.129-0.112-0.276-0.112-0.444
			c0-0.161,0.031-0.304,0.092-0.43c0.061-0.127,0.142-0.232,0.244-0.318c0.101-0.086,0.219-0.151,0.353-0.195
			s0.275-0.065,0.424-0.065c0.077,0,0.15,0.007,0.221,0.02c0.071,0.014,0.135,0.03,0.192,0.049h1.009v0.487H79.08
			c0.046,0.054,0.084,0.121,0.115,0.203c0.03,0.083,0.045,0.173,0.045,0.272c0,0.157-0.027,0.295-0.083,0.413
			c-0.055,0.118-0.131,0.218-0.226,0.298c-0.096,0.08-0.208,0.142-0.338,0.184s-0.27,0.062-0.418,0.062
			c-0.061,0-0.124-0.006-0.189-0.017c-0.065-0.012-0.13-0.031-0.195-0.058c-0.042,0.038-0.076,0.076-0.1,0.114
			c-0.025,0.038-0.038,0.09-0.038,0.155c0,0.08,0.034,0.143,0.101,0.188c0.066,0.046,0.186,0.069,0.358,0.069h0.499
			c0.34,0,0.597,0.055,0.771,0.163c0.174,0.109,0.261,0.286,0.261,0.53c0,0.138-0.035,0.268-0.106,0.39s-0.171,0.228-0.301,0.315
			s-0.288,0.157-0.473,0.209c-0.185,0.052-0.393,0.077-0.622,0.077c-0.168,0-0.324-0.015-0.467-0.046
			c-0.143-0.03-0.266-0.076-0.37-0.138c-0.103-0.061-0.184-0.137-0.244-0.229C77,184.362,76.971,184.255,76.971,184.133z
			 M77.521,184.035c0,0.126,0.064,0.225,0.192,0.296c0.128,0.07,0.305,0.105,0.53,0.105c0.229,0,0.414-0.045,0.553-0.135
			c0.139-0.09,0.209-0.195,0.209-0.318c0-0.11-0.043-0.185-0.129-0.223c-0.086-0.039-0.209-0.058-0.37-0.058h-0.384
			c-0.153,0-0.281-0.014-0.384-0.04C77.594,183.773,77.521,183.897,77.521,184.035z M78.174,182.316
			c0.134,0,0.249-0.049,0.344-0.146c0.095-0.098,0.143-0.237,0.143-0.421c0-0.176-0.047-0.312-0.141-0.41
			c-0.093-0.098-0.209-0.146-0.347-0.146c-0.137,0-0.254,0.048-0.35,0.144c-0.095,0.096-0.143,0.233-0.143,0.413
			c0,0.184,0.048,0.323,0.143,0.421C77.92,182.268,78.037,182.316,78.174,182.316z"/>
		<path fill="#449FD8" d="M79.865,182.219c0-0.229,0.037-0.436,0.109-0.619c0.073-0.184,0.169-0.338,0.29-0.464
			c0.12-0.126,0.259-0.224,0.416-0.293c0.157-0.068,0.317-0.103,0.481-0.103c0.191,0,0.359,0.032,0.504,0.098
			c0.145,0.064,0.267,0.156,0.364,0.274c0.098,0.119,0.171,0.26,0.221,0.425c0.05,0.164,0.075,0.344,0.075,0.538
			c0,0.13-0.01,0.233-0.029,0.31h-1.788c0.03,0.256,0.119,0.453,0.267,0.591c0.147,0.137,0.335,0.206,0.564,0.206
			c0.122,0,0.236-0.019,0.341-0.055s0.209-0.087,0.312-0.151l0.224,0.412c-0.134,0.088-0.283,0.16-0.447,0.218
			c-0.165,0.058-0.336,0.086-0.516,0.086c-0.195,0-0.376-0.033-0.544-0.101c-0.168-0.066-0.315-0.163-0.441-0.289
			s-0.225-0.279-0.295-0.461S79.865,182.452,79.865,182.219z M81.75,181.967c0-0.226-0.047-0.401-0.141-0.527
			s-0.238-0.189-0.433-0.189c-0.168,0-0.315,0.061-0.441,0.181c-0.126,0.12-0.204,0.299-0.235,0.536H81.75z"/>
	</g>
	<g>
		<g>
			<path fill="none" stroke="#64C2E5" stroke-width="0.5" stroke-miterlimit="10" d="M73.809,193.303v5.653
				c0,1.161,0.941,2.101,2.101,2.101h17.551h58.551c1.161,0,2.101-0.941,2.101-2.101v-3.653"/>
			<g>
				<path fill="#64C2E5" d="M71.769,196.208c0.099,0.063,0.23,0.034,0.293-0.065l1.746-2.742l1.746,2.742
					c0.063,0.099,0.195,0.128,0.293,0.065c0.099-0.063,0.127-0.195,0.065-0.293l-1.926-3.024c-0.039-0.061-0.107-0.098-0.179-0.098
					s-0.14,0.037-0.179,0.098l-1.926,3.024c-0.022,0.035-0.033,0.075-0.033,0.114C71.67,196.099,71.705,196.167,71.769,196.208z"/>
			</g>
			<g>
				<path fill="#64C2E5" d="M156.154,198.208c-0.099,0.063-0.23,0.034-0.293-0.065l-1.746-2.742l-1.746,2.742
					c-0.063,0.099-0.195,0.128-0.293,0.065c-0.099-0.063-0.127-0.195-0.065-0.293l1.926-3.024c0.039-0.061,0.107-0.098,0.179-0.098
					s0.14,0.037,0.179,0.098l1.926,3.024c0.022,0.035,0.033,0.075,0.033,0.114C156.252,198.099,156.217,198.167,156.154,198.208z"/>
			</g>
		</g>
	</g>
</g>
<g id="nyt_x5F_exporter_x5F_info">
</g>
</svg>
