<?xml version="1.0" encoding="UTF-8" standalone="no"?>
<svg width="92px" height="42px" viewBox="0 0 92 42" version="1.1" xmlns="http://www.w3.org/2000/svg" xmlns:xlink="http://www.w3.org/1999/xlink" xmlns:sketch="http://www.bohemiancoding.com/sketch/ns">
    <!-- Generator: Sketch 3.3.3 (12081) - http://www.bohemiancoding.com/sketch -->
    <title>Group</title>
    <desc>Created with Sketch.</desc>
    <defs></defs>
    <g id="Page-1" stroke="none" stroke-width="1" fill="none" fill-rule="evenodd" sketch:type="MSPage">
        <g id="Plans-Enterprise" sketch:type="MSArtboardGroup" transform="translate(-142.000000, -1173.000000)">
            <g id="Group" sketch:type="MSLayerGroup" transform="translate(142.000000, 1173.000000)">
                <g transform="translate(0.000000, 18.000000)" id="Rectangle-path" sketch:type="MSShapeGroup">
                    <rect stroke="#000000" stroke-width="0.75" fill="#53A3D8" x="0.685" y="5.606" width="45.354" height="17.608"></rect>
                    <g transform="translate(9.000000, 0.000000)">
                        <g transform="translate(21.000000, 0.000000)">
                            <rect fill="#53A3D8" x="0.37" y="0.503" width="8.504" height="5.102"></rect>
                            <rect stroke="#000000" stroke-width="0.856" x="0.37" y="0.503" width="8.504" height="5.102"></rect>
                        </g>
                        <g>
                            <rect fill="#53A3D8" x="0.11" y="0.503" width="8.504" height="5.102"></rect>
                            <rect stroke="#000000" stroke-width="0.856" x="0.11" y="0.503" width="8.504" height="5.102"></rect>
                        </g>
                    </g>
                </g>
                <g transform="translate(46.000000, 18.000000)" id="Rectangle-path" sketch:type="MSShapeGroup">
                    <rect stroke="#000000" stroke-width="0.75" fill="#53A3D8" x="0.086" y="5.606" width="45.354" height="17.608"></rect>
                    <g transform="translate(8.000000, 0.000000)">
                        <g transform="translate(21.000000, 0.000000)">
                            <rect fill="#53A3D8" x="0.771" y="0.503" width="8.504" height="5.102"></rect>
                            <rect stroke="#000000" stroke-width="0.856" x="0.771" y="0.503" width="8.504" height="5.102"></rect>
                        </g>
                        <g>
                            <rect fill="#53A3D8" x="0.511" y="0.503" width="8.504" height="5.102"></rect>
                            <rect stroke="#000000" stroke-width="0.856" x="0.511" y="0.503" width="8.504" height="5.102"></rect>
                        </g>
                    </g>
                </g>
                <g transform="translate(23.000000, 0.000000)" id="Rectangle-path" sketch:type="MSShapeGroup">
                    <rect stroke="#000000" stroke-width="0.75" fill="#53A3D8" x="0.362" y="5.998" width="68.031" height="17.608"></rect>
                    <g transform="translate(8.000000, 0.000000)">
                        <g transform="translate(43.000000, 0.000000)">
                            <rect fill="#53A3D8" x="0.307" y="0.895" width="8.504" height="5.102"></rect>
                            <rect stroke="#000000" stroke-width="0.5" x="0.307" y="0.895" width="8.504" height="5.102"></rect>
                        </g>
                        <g transform="translate(22.000000, 0.000000)">
                            <rect fill="#53A3D8" x="0.047" y="0.895" width="8.504" height="5.102"></rect>
                            <rect stroke="#000000" stroke-width="0.5" x="0.047" y="0.895" width="8.504" height="5.102"></rect>
                        </g>
                        <g>
                            <rect fill="#53A3D8" x="0.787" y="0.895" width="8.504" height="5.102"></rect>
                            <rect stroke="#000000" stroke-width="0.5" x="0.787" y="0.895" width="8.504" height="5.102"></rect>
                        </g>
                    </g>
                </g>
                <path d="M46.68,14.7 C46.68,15.0800019 46.7199996,15.4233318 46.8,15.73 C46.8800004,16.0366682 46.9933326,16.2966656 47.14,16.51 C47.2866674,16.7233344 47.4633323,16.8866661 47.67,17 C47.8766677,17.1133339 48.1099987,17.17 48.37,17.17 C48.6300013,17.17 48.8633323,17.1133339 49.07,17 C49.2766677,16.8866661 49.4533326,16.7233344 49.6,16.51 C49.7466674,16.2966656 49.8599996,16.0366682 49.94,15.73 C50.0200004,15.4233318 50.06,15.0800019 50.06,14.7 C50.06,13.966663 49.9083348,13.3916688 49.605,12.975 C49.3016651,12.5583313 48.8900026,12.35 48.37,12.35 C47.8499974,12.35 47.4383348,12.5583313 47.135,12.975 C46.8316651,13.3916688 46.68,13.966663 46.68,14.7 L46.68,14.7 Z M51.5,19.53 C51.3866661,19.5833336 51.2400009,19.6266665 51.06,19.66 C50.8799991,19.6933335 50.6766678,19.71 50.45,19.71 C49.7966634,19.71 49.2500022,19.5566682 48.81,19.25 C48.3699978,18.9433318 48.0433344,18.5500024 47.83,18.07 C47.4766649,18.0099997 47.1566681,17.8883343 46.87,17.705 C46.5833319,17.5216658 46.3366677,17.2866681 46.13,17 C45.9233323,16.7133319 45.7650005,16.3766686 45.655,15.99 C45.5449994,15.6033314 45.49,15.1733357 45.49,14.7 C45.49,14.1733307 45.5599993,13.7016688 45.7,13.285 C45.8400007,12.8683313 46.0366654,12.5166681 46.29,12.23 C46.5433346,11.9433319 46.8466649,11.7233341 47.2,11.57 C47.5533351,11.4166659 47.9433312,11.34 48.37,11.34 C48.7966688,11.34 49.1866649,11.4166659 49.54,11.57 C49.8933351,11.7233341 50.198332,11.9433319 50.455,12.23 C50.7116679,12.5166681 50.9099993,12.8683313 51.05,13.285 C51.1900007,13.7016688 51.26,14.1733307 51.26,14.7 C51.26,15.1533356 51.2083338,15.5683315 51.105,15.945 C51.0016661,16.3216686 50.8533343,16.6533319 50.66,16.94 C50.4666657,17.2266681 50.2350013,17.4633324 49.965,17.65 C49.6949986,17.8366676 49.393335,17.9666663 49.06,18.04 C49.2133341,18.3000013 49.4249986,18.4866661 49.695,18.6 C49.9650013,18.7133339 50.2599984,18.77 50.58,18.77 C50.7266674,18.77 50.8583327,18.7600001 50.975,18.74 C51.0916672,18.7199999 51.1966662,18.6933335 51.29,18.66 L51.5,19.53 Z M52.42,13.09 L53.57,13.09 L53.57,16.02 C53.57,16.4266687 53.6299994,16.7133325 53.75,16.88 C53.8700006,17.0466675 54.063332,17.13 54.33,17.13 C54.5433344,17.13 54.7316658,17.0766672 54.895,16.97 C55.0583341,16.8633328 55.2333324,16.6900012 55.42,16.45 L55.42,13.09 L56.57,13.09 L56.57,18 L55.63,18 L55.54,17.28 L55.51,17.28 C55.2966656,17.5333346 55.0650012,17.7366659 54.815,17.89 C54.5649987,18.0433341 54.2700017,18.12 53.93,18.12 C53.4033307,18.12 53.0200012,17.9516684 52.78,17.615 C52.5399988,17.2783317 52.42,16.7966698 52.42,16.17 L52.42,13.09 Z M57.82,16.68 C57.82,16.1533307 58.0499977,15.7466681 58.51,15.46 C58.9700023,15.1733319 59.7033283,14.9733339 60.71,14.86 C60.71,14.7333327 60.6933335,14.6116673 60.66,14.495 C60.6266665,14.3783328 60.5750003,14.2750005 60.505,14.185 C60.4349996,14.0949996 60.3450005,14.0250003 60.235,13.975 C60.1249994,13.9249998 59.9866675,13.9 59.82,13.9 C59.5733321,13.9 59.3350011,13.9466662 59.105,14.04 C58.8749988,14.1333338 58.6533344,14.246666 58.44,14.38 L58.02,13.61 C58.2933347,13.4366658 58.5983316,13.2866673 58.935,13.16 C59.2716683,13.0333327 59.6366647,12.97 60.03,12.97 C60.6500031,12.97 61.1099985,13.1516649 61.41,13.515 C61.7100015,13.8783352 61.86,14.4033299 61.86,15.09 L61.86,18 L60.92,18 L60.83,17.46 L60.8,17.46 C60.5799989,17.6466676 60.3450012,17.8033327 60.095,17.93 C59.8449987,18.0566673 59.5733348,18.12 59.28,18.12 C58.8466645,18.12 58.4950013,17.9883347 58.225,17.725 C57.9549986,17.4616654 57.82,17.1133355 57.82,16.68 L57.82,16.68 Z M58.94,16.59 C58.94,16.8100011 59.0049993,16.9699995 59.135,17.07 C59.2650006,17.1700005 59.4333323,17.22 59.64,17.22 C59.840001,17.22 60.0233325,17.1733338 60.19,17.08 C60.3566675,16.9866662 60.5299991,16.8533342 60.71,16.68 L60.71,15.58 C60.376665,15.6200002 60.0966678,15.673333 59.87,15.74 C59.6433322,15.806667 59.4616673,15.8816663 59.325,15.965 C59.1883326,16.0483338 59.0900003,16.1433328 59.03,16.25 C58.9699997,16.3566672 58.94,16.4699994 58.94,16.59 L58.94,16.59 Z M63.16,19.02 C63.2066669,19.0333334 63.2616663,19.0483333 63.325,19.065 C63.3883336,19.0816668 63.4499997,19.09 63.51,19.09 C63.7700013,19.09 63.9783325,19.0116675 64.135,18.855 C64.2916674,18.6983326 64.4099996,18.4966679 64.49,18.25 L64.58,17.94 L62.65,13.09 L63.82,13.09 L64.67,15.5 C64.7433337,15.7133344 64.8149996,15.9383322 64.885,16.175 C64.9550003,16.4116679 65.0266663,16.6466655 65.1,16.88 L65.14,16.88 C65.2000003,16.6533322 65.2616663,16.4216679 65.325,16.185 C65.3883336,15.9483322 65.4499997,15.7200011 65.51,15.5 L66.25,13.09 L67.36,13.09 L65.58,18.22 C65.4799995,18.5000014 65.3700006,18.7499989 65.25,18.97 C65.1299994,19.1900011 64.9916674,19.3783326 64.835,19.535 C64.6783325,19.6916675 64.4983343,19.8116663 64.295,19.895 C64.0916656,19.9783338 63.856668,20.02 63.59,20.02 C63.456666,20.02 63.3400005,20.0116668 63.24,19.995 C63.1399995,19.9783333 63.0433338,19.9533335 62.95,19.92 L63.16,19.02 Z" id="Quay" fill="#FFFFFF" sketch:type="MSShapeGroup"></path>
                <path d="M12.99,32.52 L13.92,32.52 C14.3666689,32.52 14.7083321,32.4266676 14.945,32.24 C15.1816678,32.0533324 15.3,31.7733352 15.3,31.4 C15.3,31.0199981 15.1816678,30.7566674 14.945,30.61 C14.7083321,30.4633326 14.3666689,30.39 13.92,30.39 L12.99,30.39 L12.99,32.52 Z M15.4,36 L13.99,33.44 L12.99,33.44 L12.99,36 L11.83,36 L11.83,29.46 L14.04,29.46 C14.3800017,29.46 14.6966652,29.493333 14.99,29.56 C15.2833348,29.626667 15.5366656,29.7349993 15.75,29.885 C15.9633344,30.0350008 16.131666,30.2333321 16.255,30.48 C16.3783339,30.7266679 16.44,31.0333315 16.44,31.4 C16.44,31.9000025 16.3216678,32.3033318 16.085,32.61 C15.8483321,32.9166682 15.5333353,33.136666 15.14,33.27 L16.7,36 L15.4,36 Z M17.3,33.55 C17.3,33.149998 17.3633327,32.7900016 17.49,32.47 C17.6166673,32.1499984 17.7849989,31.8800011 17.995,31.66 C18.205001,31.4399989 18.4466653,31.2700006 18.72,31.15 C18.9933347,31.0299994 19.2733319,30.97 19.56,30.97 C19.893335,30.97 20.1866654,31.0266661 20.44,31.14 C20.6933346,31.2533339 20.9049991,31.4133323 21.075,31.62 C21.2450008,31.8266677 21.3733329,32.0733319 21.46,32.36 C21.5466671,32.6466681 21.59,32.9599983 21.59,33.3 C21.59,33.5266678 21.5733335,33.706666 21.54,33.84 L18.42,33.84 C18.4733336,34.2866689 18.628332,34.6299988 18.885,34.87 C19.1416679,35.1100012 19.469998,35.23 19.87,35.23 C20.0833344,35.23 20.2816657,35.1983336 20.465,35.135 C20.6483342,35.0716663 20.8299991,34.9833339 21.01,34.87 L21.4,35.59 C21.1666655,35.7433341 20.9066681,35.8699995 20.62,35.97 C20.3333319,36.0700005 20.0333349,36.12 19.72,36.12 C19.3799983,36.12 19.0633348,36.0616673 18.77,35.945 C18.4766652,35.8283328 18.2200011,35.6600011 18,35.44 C17.7799989,35.2199989 17.6083339,34.9516683 17.485,34.635 C17.361666,34.3183317 17.3,33.9566687 17.3,33.55 L17.3,33.55 Z M20.59,33.11 C20.59,32.7166647 20.5083341,32.4100011 20.345,32.19 C20.1816658,31.9699989 19.9300017,31.86 19.59,31.86 C19.2966652,31.86 19.0400011,31.964999 18.82,32.175 C18.5999989,32.3850011 18.4633336,32.6966646 18.41,33.11 L20.59,33.11 Z M22.39,33.55 C22.39,33.149998 22.4483327,32.7900016 22.565,32.47 C22.6816672,32.1499984 22.8366657,31.8800011 23.03,31.66 C23.2233343,31.4399989 23.4449987,31.2700006 23.695,31.15 C23.9450012,31.0299994 24.203332,30.97 24.47,30.97 C24.7500014,30.97 24.9866657,31.0183328 25.18,31.115 C25.3733343,31.2116672 25.5666657,31.3433325 25.76,31.51 L25.72,30.72 L25.72,28.94 L26.87,28.94 L26.87,36 L25.92,36 L25.84,35.47 L25.8,35.47 C25.6199991,35.6500009 25.4100012,35.8033327 25.17,35.93 C24.9299988,36.0566673 24.676668,36.12 24.41,36.12 C23.7899969,36.12 23.2983351,35.8950023 22.935,35.445 C22.5716648,34.9949978 22.39,34.3633374 22.39,33.55 L22.39,33.55 Z M23.58,33.54 C23.58,34.073336 23.674999,34.4783319 23.865,34.755 C24.0550009,35.0316681 24.3299982,35.17 24.69,35.17 C25.0566685,35.17 25.3999984,34.9866685 25.72,34.62 L25.72,32.33 C25.5466658,32.1766659 25.3783341,32.0700003 25.215,32.01 C25.0516658,31.9499997 24.8866675,31.92 24.72,31.92 C24.3999984,31.92 24.1300011,32.0599986 23.91,32.34 C23.6899989,32.6200014 23.58,33.0199974 23.58,33.54 L23.58,33.54 Z M28.91,30.23 C28.7033323,30.23 28.533334,30.1700006 28.4,30.05 C28.266666,29.9299994 28.2,29.7733343 28.2,29.58 C28.2,29.3866657 28.266666,29.2283339 28.4,29.105 C28.533334,28.9816661 28.7033323,28.92 28.91,28.92 C29.1166677,28.92 29.286666,28.9816661 29.42,29.105 C29.553334,29.2283339 29.62,29.3866657 29.62,29.58 C29.62,29.7733343 29.553334,29.9299994 29.42,30.05 C29.286666,30.1700006 29.1166677,30.23 28.91,30.23 L28.91,30.23 Z M28.33,31.09 L29.48,31.09 L29.48,36 L28.33,36 L28.33,31.09 Z M31,34.7 C31.2200011,34.8733342 31.4383322,35.0083328 31.655,35.105 C31.8716677,35.2016672 32.1066654,35.25 32.36,35.25 C32.626668,35.25 32.8233327,35.1950006 32.95,35.085 C33.0766673,34.9749995 33.14,34.8333342 33.14,34.66 C33.14,34.5599995 33.1100003,34.471667 33.05,34.395 C32.9899997,34.318333 32.9100005,34.2500003 32.81,34.19 C32.7099995,34.1299997 32.5966673,34.0750002 32.47,34.025 C32.3433327,33.9749998 32.2166673,33.9233336 32.09,33.87 C31.9299992,33.8099997 31.7666675,33.7400004 31.6,33.66 C31.4333325,33.5799996 31.2850006,33.4833339 31.155,33.37 C31.0249993,33.2566661 30.9183337,33.1250008 30.835,32.975 C30.7516662,32.8249993 30.71,32.6466677 30.71,32.44 C30.71,32.0066645 30.8699984,31.6533347 31.19,31.38 C31.5100016,31.1066653 31.9466639,30.97 32.5,30.97 C32.8400017,30.97 33.1466653,31.0299994 33.42,31.15 C33.6933347,31.2700006 33.929999,31.4066659 34.13,31.56 L33.6,32.26 C33.4266658,32.1333327 33.2516675,32.031667 33.075,31.955 C32.8983324,31.8783329 32.7133343,31.84 32.52,31.84 C32.2733321,31.84 32.0916672,31.8916661 31.975,31.995 C31.8583327,32.0983339 31.8,32.2266659 31.8,32.38 C31.8,32.4800005 31.828333,32.5649996 31.885,32.635 C31.9416669,32.7050004 32.0166662,32.7666664 32.11,32.82 C32.2033338,32.8733336 32.311666,32.9233331 32.435,32.97 C32.5583339,33.0166669 32.686666,33.0633331 32.82,33.11 C32.9866675,33.1700003 33.1533325,33.238333 33.32,33.315 C33.4866675,33.3916671 33.6383326,33.4866661 33.775,33.6 C33.9116673,33.7133339 34.0216662,33.8516659 34.105,34.015 C34.1883337,34.1783341 34.23,34.3733322 34.23,34.6 C34.23,34.8133344 34.1883337,35.0116658 34.105,35.195 C34.0216662,35.3783343 33.9000008,35.5383327 33.74,35.675 C33.5799992,35.8116674 33.3800012,35.9199996 33.14,36 C32.8999988,36.0800004 32.6266682,36.12 32.32,36.12 C31.9799983,36.12 31.6450016,36.0550007 31.315,35.925 C30.9849983,35.7949993 30.7000012,35.6333343 30.46,35.44 L31,34.7 Z" id="Redis" fill="#FFFFFF" sketch:type="MSShapeGroup"></path>
                <path d="M50.83,29.46 L53.03,29.46 C53.3900018,29.46 53.7216651,29.493333 54.025,29.56 C54.3283348,29.626667 54.5899989,29.7399992 54.81,29.9 C55.0300011,30.0600008 55.2033327,30.2683321 55.33,30.525 C55.4566673,30.7816679 55.52,31.0999981 55.52,31.48 C55.52,31.8400018 55.4566673,32.153332 55.33,32.42 C55.2033327,32.686668 55.0283344,32.9083324 54.805,33.085 C54.5816655,33.2616676 54.3183348,33.3916663 54.015,33.475 C53.7116651,33.5583337 53.3833351,33.6 53.03,33.6 L51.99,33.6 L51.99,36 L50.83,36 L50.83,29.46 Z M52.94,32.67 C53.9000048,32.67 54.38,32.2733373 54.38,31.48 C54.38,31.0666646 54.2600012,30.7816674 54.02,30.625 C53.7799988,30.4683326 53.4200024,30.39 52.94,30.39 L51.99,30.39 L51.99,32.67 L52.94,32.67 Z M56.11,33.55 C56.11,33.1433313 56.1733327,32.7800016 56.3,32.46 C56.4266673,32.1399984 56.5983322,31.8700011 56.815,31.65 C57.0316677,31.4299989 57.2799986,31.2616673 57.56,31.145 C57.8400014,31.0283327 58.1333318,30.97 58.44,30.97 C58.7466682,30.97 59.0416652,31.0283327 59.325,31.145 C59.6083347,31.2616673 59.8566656,31.4299989 60.07,31.65 C60.2833344,31.8700011 60.4549993,32.1399984 60.585,32.46 C60.7150006,32.7800016 60.78,33.1433313 60.78,33.55 C60.78,33.9566687 60.7150006,34.3199984 60.585,34.64 C60.4549993,34.9600016 60.2833344,35.2299989 60.07,35.45 C59.8566656,35.6700011 59.6083347,35.8366661 59.325,35.95 C59.0416652,36.0633339 58.7466682,36.12 58.44,36.12 C58.1333318,36.12 57.8400014,36.0633339 57.56,35.95 C57.2799986,35.8366661 57.0316677,35.6700011 56.815,35.45 C56.5983322,35.2299989 56.4266673,34.9600016 56.3,34.64 C56.1733327,34.3199984 56.11,33.9566687 56.11,33.55 L56.11,33.55 Z M57.29,33.55 C57.29,34.0433358 57.3916656,34.4383318 57.595,34.735 C57.7983343,35.0316682 58.0799982,35.18 58.44,35.18 C58.8000018,35.18 59.0833323,35.0316682 59.29,34.735 C59.4966677,34.4383318 59.6,34.0433358 59.6,33.55 C59.6,33.0499975 59.4966677,32.6516681 59.29,32.355 C59.0833323,32.0583319 58.8000018,31.91 58.44,31.91 C58.0799982,31.91 57.7983343,32.0583319 57.595,32.355 C57.3916656,32.6516681 57.29,33.0499975 57.29,33.55 L57.29,33.55 Z M61.93,34.7 C62.1500011,34.8733342 62.3683322,35.0083328 62.585,35.105 C62.8016677,35.2016672 63.0366654,35.25 63.29,35.25 C63.556668,35.25 63.7533327,35.1950006 63.88,35.085 C64.0066673,34.9749995 64.07,34.8333342 64.07,34.66 C64.07,34.5599995 64.0400003,34.471667 63.98,34.395 C63.9199997,34.318333 63.8400005,34.2500003 63.74,34.19 C63.6399995,34.1299997 63.5266673,34.0750002 63.4,34.025 C63.2733327,33.9749998 63.1466673,33.9233336 63.02,33.87 C62.8599992,33.8099997 62.6966675,33.7400004 62.53,33.66 C62.3633325,33.5799996 62.2150006,33.4833339 62.085,33.37 C61.9549993,33.2566661 61.8483337,33.1250008 61.765,32.975 C61.6816662,32.8249993 61.64,32.6466677 61.64,32.44 C61.64,32.0066645 61.7999984,31.6533347 62.12,31.38 C62.4400016,31.1066653 62.8766639,30.97 63.43,30.97 C63.7700017,30.97 64.0766653,31.0299994 64.35,31.15 C64.6233347,31.2700006 64.859999,31.4066659 65.06,31.56 L64.53,32.26 C64.3566658,32.1333327 64.1816675,32.031667 64.005,31.955 C63.8283324,31.8783329 63.6433343,31.84 63.45,31.84 C63.2033321,31.84 63.0216672,31.8916661 62.905,31.995 C62.7883327,32.0983339 62.73,32.2266659 62.73,32.38 C62.73,32.4800005 62.758333,32.5649996 62.815,32.635 C62.8716669,32.7050004 62.9466662,32.7666664 63.04,32.82 C63.1333338,32.8733336 63.241666,32.9233331 63.365,32.97 C63.4883339,33.0166669 63.616666,33.0633331 63.75,33.11 C63.9166675,33.1700003 64.0833325,33.238333 64.25,33.315 C64.4166675,33.3916671 64.5683326,33.4866661 64.705,33.6 C64.8416673,33.7133339 64.9516662,33.8516659 65.035,34.015 C65.1183337,34.1783341 65.16,34.3733322 65.16,34.6 C65.16,34.8133344 65.1183337,35.0116658 65.035,35.195 C64.9516662,35.3783343 64.8300008,35.5383327 64.67,35.675 C64.5099992,35.8116674 64.3100012,35.9199996 64.07,36 C63.8299988,36.0800004 63.5566682,36.12 63.25,36.12 C62.9099983,36.12 62.5750016,36.0550007 62.245,35.925 C61.9149983,35.7949993 61.6300012,35.6333343 61.39,35.44 L61.93,34.7 Z M66.36,32 L65.66,32 L65.66,31.14 L66.42,31.09 L66.56,29.75 L67.52,29.75 L67.52,31.09 L68.77,31.09 L68.77,32 L67.52,32 L67.52,34.34 C67.52,34.9133362 67.7499977,35.2 68.21,35.2 C68.2966671,35.2 68.3849995,35.1900001 68.475,35.17 C68.5650004,35.1499999 68.6466663,35.1233335 68.72,35.09 L68.92,35.94 C68.786666,35.9866669 68.6350008,36.0283331 68.465,36.065 C68.2949991,36.1016668 68.1133343,36.12 67.92,36.12 C67.6333319,36.12 67.3916676,36.0766671 67.195,35.99 C66.9983323,35.9033329 66.8383339,35.7816674 66.715,35.625 C66.591666,35.4683326 66.5016669,35.2816677 66.445,35.065 C66.388333,34.8483323 66.36,34.606668 66.36,34.34 L66.36,32 Z M70.33,36.72 C70.33,36.9400011 70.4416655,37.111666 70.665,37.235 C70.8883344,37.358334 71.1966647,37.42 71.59,37.42 C71.990002,37.42 72.3116654,37.3416674 72.555,37.185 C72.7983345,37.0283325 72.92,36.8433344 72.92,36.63 C72.92,36.4366657 72.8450007,36.306667 72.695,36.24 C72.5449992,36.173333 72.3300014,36.14 72.05,36.14 L71.38,36.14 C71.113332,36.14 70.8900009,36.1166669 70.71,36.07 C70.4566654,36.2633343 70.33,36.4799988 70.33,36.72 L70.33,36.72 Z M69.37,36.89 C69.37,36.6833323 69.4299994,36.4916676 69.55,36.315 C69.6700006,36.1383325 69.8433322,35.9800007 70.07,35.84 L70.07,35.8 C69.9433327,35.7199996 69.8383337,35.613334 69.755,35.48 C69.6716662,35.346666 69.63,35.180001 69.63,34.98 C69.63,34.7866657 69.6849994,34.6116674 69.795,34.455 C69.9050005,34.2983325 70.0299993,34.1700005 70.17,34.07 L70.17,34.03 C70.0033325,33.9033327 69.8550006,33.7283344 69.725,33.505 C69.5949993,33.2816656 69.53,33.0233348 69.53,32.73 C69.53,32.4499986 69.5833328,32.2000011 69.69,31.98 C69.7966672,31.7599989 69.9383324,31.5750008 70.115,31.425 C70.2916675,31.2749993 70.4966655,31.1616671 70.73,31.085 C70.9633345,31.008333 71.2099987,30.97 71.47,30.97 C71.603334,30.97 71.731666,30.9816665 71.855,31.005 C71.9783339,31.0283334 72.0899995,31.0566665 72.19,31.09 L73.95,31.09 L73.95,31.94 L73.05,31.94 C73.1300004,32.0333338 73.1966664,32.151666 73.25,32.295 C73.3033336,32.4383341 73.33,32.5966658 73.33,32.77 C73.33,33.0433347 73.2816671,33.2833323 73.185,33.49 C73.0883328,33.6966677 72.9566675,33.8699993 72.79,34.01 C72.6233325,34.1500007 72.4266678,34.2566663 72.2,34.33 C71.9733322,34.4033337 71.7300013,34.44 71.47,34.44 C71.3633328,34.44 71.2533339,34.4300001 71.14,34.41 C71.0266661,34.3899999 70.9133339,34.3566669 70.8,34.31 C70.7266663,34.376667 70.6683335,34.443333 70.625,34.51 C70.5816664,34.576667 70.56,34.6666661 70.56,34.78 C70.56,34.9200007 70.6183327,35.0299996 70.735,35.11 C70.8516672,35.1900004 71.0599985,35.23 71.36,35.23 L72.23,35.23 C72.8233363,35.23 73.2716651,35.3249991 73.575,35.515 C73.8783348,35.7050009 74.03,36.0133312 74.03,36.44 C74.03,36.6800012 73.9683339,36.9066656 73.845,37.12 C73.721666,37.3333344 73.5466678,37.5166659 73.32,37.67 C73.0933322,37.8233341 72.8183349,37.9449995 72.495,38.035 C72.171665,38.1250005 71.810002,38.17 71.41,38.17 C71.1166652,38.17 70.8450012,38.1433336 70.595,38.09 C70.3449987,38.0366664 70.1300009,37.9566672 69.95,37.85 C69.7699991,37.7433328 69.6283338,37.6100008 69.525,37.45 C69.4216661,37.2899992 69.37,37.1033344 69.37,36.89 L69.37,36.89 Z M71.47,33.72 C71.7033345,33.72 71.9033325,33.6350009 72.07,33.465 C72.2366675,33.2949991 72.32,33.0500016 72.32,32.73 C72.32,32.4233318 72.2383341,32.1850009 72.075,32.015 C71.9116658,31.8449991 71.7100012,31.76 71.47,31.76 C71.2299988,31.76 71.0266675,31.8433325 70.86,32.01 C70.6933325,32.1766675 70.61,32.4166651 70.61,32.73 C70.61,33.0500016 70.6933325,33.2949991 70.86,33.465 C71.0266675,33.6350009 71.2299988,33.72 71.47,33.72 L71.47,33.72 Z M74.9,31.09 L75.85,31.09 L75.93,31.96 L75.97,31.96 C76.1433342,31.6399984 76.3533321,31.3950009 76.6,31.225 C76.8466679,31.0549991 77.0999987,30.97 77.36,30.97 C77.5933345,30.97 77.7799993,31.003333 77.92,31.07 L77.72,32.07 C77.6333329,32.0433332 77.5533337,32.0233334 77.48,32.01 C77.4066663,31.9966666 77.3166672,31.99 77.21,31.99 C77.0166657,31.99 76.8133344,32.0649993 76.6,32.215 C76.3866656,32.3650008 76.2033341,32.6266648 76.05,33 L76.05,36 L74.9,36 L74.9,31.09 Z M78.21,33.55 C78.21,33.149998 78.2733327,32.7900016 78.4,32.47 C78.5266673,32.1499984 78.6949989,31.8800011 78.905,31.66 C79.115001,31.4399989 79.3566653,31.2700006 79.63,31.15 C79.9033347,31.0299994 80.1833319,30.97 80.47,30.97 C80.803335,30.97 81.0966654,31.0266661 81.35,31.14 C81.6033346,31.2533339 81.8149991,31.4133323 81.985,31.62 C82.1550008,31.8266677 82.2833329,32.0733319 82.37,32.36 C82.4566671,32.6466681 82.5,32.9599983 82.5,33.3 C82.5,33.5266678 82.4833335,33.706666 82.45,33.84 L79.33,33.84 C79.3833336,34.2866689 79.538332,34.6299988 79.795,34.87 C80.0516679,35.1100012 80.379998,35.23 80.78,35.23 C80.9933344,35.23 81.1916657,35.1983336 81.375,35.135 C81.5583342,35.0716663 81.7399991,34.9833339 81.92,34.87 L82.31,35.59 C82.0766655,35.7433341 81.8166681,35.8699995 81.53,35.97 C81.2433319,36.0700005 80.9433349,36.12 80.63,36.12 C80.2899983,36.12 79.9733348,36.0616673 79.68,35.945 C79.3866652,35.8283328 79.1300011,35.6600011 78.91,35.44 C78.6899989,35.2199989 78.5183339,34.9516683 78.395,34.635 C78.271666,34.3183317 78.21,33.9566687 78.21,33.55 L78.21,33.55 Z M81.5,33.11 C81.5,32.7166647 81.4183341,32.4100011 81.255,32.19 C81.0916658,31.9699989 80.8400017,31.86 80.5,31.86 C80.2066652,31.86 79.9500011,31.964999 79.73,32.175 C79.5099989,32.3850011 79.3733336,32.6966646 79.32,33.11 L81.5,33.11 Z M83.65,34.7 C83.8700011,34.8733342 84.0883322,35.0083328 84.305,35.105 C84.5216677,35.2016672 84.7566654,35.25 85.01,35.25 C85.276668,35.25 85.4733327,35.1950006 85.6,35.085 C85.7266673,34.9749995 85.79,34.8333342 85.79,34.66 C85.79,34.5599995 85.7600003,34.471667 85.7,34.395 C85.6399997,34.318333 85.5600005,34.2500003 85.46,34.19 C85.3599995,34.1299997 85.2466673,34.0750002 85.12,34.025 C84.9933327,33.9749998 84.8666673,33.9233336 84.74,33.87 C84.5799992,33.8099997 84.4166675,33.7400004 84.25,33.66 C84.0833325,33.5799996 83.9350006,33.4833339 83.805,33.37 C83.6749993,33.2566661 83.5683337,33.1250008 83.485,32.975 C83.4016662,32.8249993 83.36,32.6466677 83.36,32.44 C83.36,32.0066645 83.5199984,31.6533347 83.84,31.38 C84.1600016,31.1066653 84.5966639,30.97 85.15,30.97 C85.4900017,30.97 85.7966653,31.0299994 86.07,31.15 C86.3433347,31.2700006 86.579999,31.4066659 86.78,31.56 L86.25,32.26 C86.0766658,32.1333327 85.9016675,32.031667 85.725,31.955 C85.5483324,31.8783329 85.3633343,31.84 85.17,31.84 C84.9233321,31.84 84.7416672,31.8916661 84.625,31.995 C84.5083327,32.0983339 84.45,32.2266659 84.45,32.38 C84.45,32.4800005 84.478333,32.5649996 84.535,32.635 C84.5916669,32.7050004 84.6666662,32.7666664 84.76,32.82 C84.8533338,32.8733336 84.961666,32.9233331 85.085,32.97 C85.2083339,33.0166669 85.336666,33.0633331 85.47,33.11 C85.6366675,33.1700003 85.8033325,33.238333 85.97,33.315 C86.1366675,33.3916671 86.2883326,33.4866661 86.425,33.6 C86.5616673,33.7133339 86.6716662,33.8516659 86.755,34.015 C86.8383337,34.1783341 86.88,34.3733322 86.88,34.6 C86.88,34.8133344 86.8383337,35.0116658 86.755,35.195 C86.6716662,35.3783343 86.5500008,35.5383327 86.39,35.675 C86.2299992,35.8116674 86.0300012,35.9199996 85.79,36 C85.5499988,36.0800004 85.2766682,36.12 84.97,36.12 C84.6299983,36.12 84.2950016,36.0550007 83.965,35.925 C83.6349983,35.7949993 83.3500012,35.6333343 83.11,35.44 L83.65,34.7 Z" id="Postgres" fill="#FFFFFF" sketch:type="MSShapeGroup"></path>
            </g>
        </g>
    </g>
</svg>