<?xml version="1.0" encoding="utf-8"?>
<!-- Generator: Adobe Illustrator 17.0.0, SVG Export Plug-In . SVG Version: 6.00 Build 0)  -->
<!DOCTYPE svg PUBLIC "-//W3C//DTD SVG 1.1//EN" "http://www.w3.org/Graphics/SVG/1.1/DTD/svg11.dtd">
<svg version="1.1" id="Layer_1" xmlns="http://www.w3.org/2000/svg" xmlns:xlink="http://www.w3.org/1999/xlink" x="0px" y="0px"
	 width="271.647px" height="76.147px" viewBox="0 0 271.647 76.147" enable-background="new 0 0 271.647 76.147"
	 xml:space="preserve">
<path fill="#003764" d="M139.937,74.386c-1.004,0.502-2.33,0.922-3.975,1.257c-1.646,0.335-3.529,0.503-5.649,0.504
	c-5.803,0.002-10.7-1.337-14.688-4.014c-3.991-2.676-6.963-6.164-8.917-10.458c-2.902-0.613-5.539-1.686-7.91-3.221
	c-2.373-1.533-4.395-3.499-6.07-5.898c-1.674-2.397-2.959-5.174-3.852-8.326c-0.894-3.15-1.341-6.652-1.342-10.502
	c-0.001-4.464,0.597-8.439,1.796-11.928c1.198-3.486,2.885-6.416,5.061-8.788s4.782-4.187,7.823-5.443
	c3.041-1.256,6.402-1.885,10.084-1.886c3.683-0.001,7.044,0.626,10.085,1.88c3.041,1.255,5.65,3.083,7.827,5.479
	c2.177,2.399,3.864,5.343,5.066,8.829c1.2,3.486,1.801,7.435,1.803,11.842c0.002,7.364-1.559,13.419-4.681,18.162
	c-3.124,4.743-7.336,7.869-12.635,9.377c1.283,1.896,3.014,3.221,5.19,3.975c2.176,0.752,4.436,1.128,6.779,1.128
	c1.172-0.001,2.273-0.1,3.306-0.294c1.032-0.197,1.938-0.434,2.72-0.713L139.937,74.386z M100.171,33.724
	c0.001,5.858,1.091,10.406,3.268,13.641c2.177,3.235,5.134,4.852,8.873,4.851c3.737-0.001,6.695-1.619,8.87-4.855
	c2.175-3.236,3.261-7.784,3.26-13.643c-0.001-5.468-1.091-9.736-3.268-12.805c-2.177-3.067-5.135-4.602-8.873-4.601
	c-3.739,0.001-6.695,1.537-8.87,4.605C101.256,23.987,100.17,28.256,100.171,33.724z"/>
<path fill="#003764" d="M142.595,6.678l12.387-0.003l0.009,30.548c0.001,5.356,0.811,9.094,2.43,11.214
	c1.618,2.12,3.962,3.179,7.031,3.178c3.068-0.001,5.439-1.061,7.113-3.182c1.673-2.121,2.509-5.859,2.507-11.216l-0.009-30.548
	l11.884-0.004l0.008,29.292c0.003,9.151-1.823,15.819-5.476,20.005c-3.653,4.186-8.995,6.279-16.025,6.281
	c-7.086,0.002-12.5-2.088-16.238-6.271c-3.74-4.184-5.61-10.851-5.613-20.002L142.595,6.678z"/>
<path fill="#003764" d="M218.767,48.251l-16.655,0.005l-3.344,12.974l-12.554,0.003L203.271,6.66l14.813-0.004l17.089,54.562
	l-13.056,0.004L218.767,48.251z M216.253,38.627l-1.257-5.021c-0.783-2.733-1.537-5.635-2.262-8.703
	c-0.727-3.068-1.454-6.026-2.179-8.871h-0.334c-0.668,2.901-1.352,5.873-2.048,8.914c-0.697,3.041-1.436,5.929-2.215,8.663
	l-1.337,5.021L216.253,38.627z"/>
<path fill="#003764" d="M242.868,41.8L226.37,6.653l13.223-0.003l4.857,12.552c0.782,2.065,1.521,4.06,2.22,5.983
	c0.697,1.925,1.437,3.948,2.219,6.067h0.334c0.78-2.12,1.547-4.144,2.3-6.068c0.752-1.925,1.519-3.919,2.299-5.985l4.935-12.555
	l12.889-0.004L255.17,41.796l0.005,19.417l-12.303,0.004L242.868,41.8z"/>
<g>
	<polygon fill="#40B4E5" points="58.633,0 74.909,34.428 58.633,68.857 44.777,68.857 61.053,34.428 44.777,0 	"/>
	<polygon fill="#003764" points="44.778,68.857 28.502,34.428 44.778,0 58.634,0 42.358,34.428 58.634,68.857 	"/>
</g>
<g>
	<g>
		<polygon fill="#40B4E5" points="37.455,15.491 30.131,0 16.275,0 30.527,30.146 		"/>
		<polygon fill="#40B4E5" points="30.527,38.711 16.275,68.857 30.131,68.857 37.455,53.365 		"/>
	</g>
	<polygon fill="#003764" points="16.276,68.857 0,34.428 16.276,0 30.132,0 13.856,34.428 30.132,68.857 	"/>
</g>
</svg>
