<svg id="Layer_1" data-name="Layer 1" xmlns="http://www.w3.org/2000/svg" viewBox="0 0 348.09 97.57"><defs><style>.cls-1{fill:#003764;}.cls-2{fill:#fff;}</style></defs><title>quay</title><rect class="cls-1" width="348.09" height="97.57"/><path class="cls-2" d="M178.18,95.33a20.89,20.89,0,0,1-5.09,1.61,36.5,36.5,0,0,1-7.24.65q-11.15,0-18.82-5.14A31.66,31.66,0,0,1,135.6,79a29.79,29.79,0,0,1-10.14-4.13,27.88,27.88,0,0,1-7.78-7.56,35.26,35.26,0,0,1-4.94-10.67A49.31,49.31,0,0,1,111,43.23a46.85,46.85,0,0,1,2.3-15.28,31.62,31.62,0,0,1,6.49-11.26,27.84,27.84,0,0,1,10-7,35.81,35.81,0,0,1,25.85,0,27.57,27.57,0,0,1,10,7A32.21,32.21,0,0,1,172.2,28a46.52,46.52,0,0,1,2.31,15.17q0,14.16-6,23.27a28.08,28.08,0,0,1-16.19,12A12.93,12.93,0,0,0,159,83.59,26.38,26.38,0,0,0,167.66,85a22.8,22.8,0,0,0,4.24-.38,23.47,23.47,0,0,0,3.49-.91Zm-51-52.1q0,11.26,4.19,17.48a13.5,13.5,0,0,0,22.74,0q4.18-6.22,4.18-17.48,0-10.51-4.19-16.41a13.9,13.9,0,0,0-22.74,0Q127.22,32.71,127.22,43.23Z"/><path class="cls-2" d="M181.58,8.57h15.87V47.71q0,10.29,3.11,14.37t9,4.07q5.9,0,9.11-4.08t3.21-14.37V8.56h15.23V46.09q0,17.59-7,25.63t-20.54,8q-13.62,0-20.81-8T181.59,46.1V8.57Z"/><path class="cls-2" d="M279.19,61.84H257.85l-4.28,16.62H237.48L259.33,8.55h19l21.9,69.92H283.48ZM276,49.51l-1.61-6.43q-1.5-5.25-2.9-11.15t-2.79-11.37h-0.43Q267,26.13,265.61,32t-2.84,11.1l-1.71,6.43H276Z"/><path class="cls-2" d="M310.07,53.57l-21.14-45h16.94l6.23,16.08q1.5,4,2.84,7.67t2.84,7.77h0.43q1.5-4.07,2.95-7.78t2.95-7.67l6.32-16.09h16.52l-21.11,45V78.45H310.08V53.57Z"/><path class="cls-2" d="M96.21,44.24L75.3,0H57.51L48.24,19.65,38.81,0,20.91,0,0,44.24,20.91,88.46h18l9.3-19.77,9.35,19.77H75.29L96.08,44.52ZM47.52,21.17L39.66,37.79,30.21,18,38,1.46ZM17.8,44.24L29.49,19.51l9.45,19.8-2.33,4.93L38.85,49,29.41,68.8ZM38.06,87.11L30.13,70.33,39.57,50.5l7.87,16.65ZM54.41,44.24L66.08,19.55,77.7,44.24,66.06,68.89ZM74.59,86.93L66.78,70.42,79.14,44.24,66.8,18,74.59,1.54l20.18,42.7Z"/></svg>