<?xml version="1.0" encoding="utf-8"?>
<!-- Generator: Adobe Illustrator 19.2.0, SVG Export Plug-In . SVG Version: 6.00 Build 0)  -->
<svg version="1.0" id="Layer_1" xmlns="http://www.w3.org/2000/svg" xmlns:xlink="http://www.w3.org/1999/xlink" x="0px" y="0px"
	 viewBox="0 0 348.1 97.6" style="enable-background:new 0 0 348.1 97.6;" xml:space="preserve">
<style type="text/css">
	.st0{fill:#FFFFFF;}
	.st1{fill:#40B4E5;}
</style>
<title>quay</title>
<path class="st0" d="M179.3,95.3c-1.6,0.8-3.3,1.3-5.1,1.6c-2.4,0.5-4.8,0.7-7.2,0.7c-7.4,0-13.7-1.7-18.8-5.1c-5-3.3-9-8-11.4-13.4
	c-3.6-0.7-7-2.1-10.1-4.1c-3.1-2-5.7-4.6-7.8-7.6c-2.2-3.3-3.9-6.9-4.9-10.7c-1.2-4.4-1.8-8.9-1.7-13.5c-0.1-5.2,0.7-10.3,2.3-15.3
	c1.4-4.2,3.6-8,6.5-11.3c2.8-3,6.2-5.4,10-7c8.3-3.2,17.5-3.2,25.9,0c3.8,1.6,7.2,3.9,10,7c2.9,3.3,5.1,7.1,6.5,11.3
	c1.6,4.9,2.4,10,2.3,15.2c0,9.4-2,17.2-6,23.3c-3.7,5.9-9.5,10.1-16.2,12c1.6,2.4,3.9,4.2,6.6,5.1c2.8,1,5.7,1.5,8.7,1.5
	c1.4,0,2.8-0.1,4.2-0.4c1.2-0.2,2.4-0.5,3.5-0.9L179.3,95.3z M128.3,43.2c0,7.5,1.4,13.3,4.2,17.5c4,6.3,12.4,8.1,18.6,4.1
	c1.6-1.1,3-2.4,4.1-4.1c2.8-4.1,4.2-10,4.2-17.5c0-7-1.4-12.5-4.2-16.4c-4.4-6.3-13.1-7.8-19.4-3.4c-1.3,0.9-2.5,2.1-3.4,3.4
	C129.7,30.7,128.4,36.2,128.3,43.2L128.3,43.2z"/>
<path class="st0" d="M182.7,8.6h15.9v39.1c0,6.9,1,11.7,3.1,14.4c2.1,2.7,5.1,4.1,9,4.1c3.9,0,7-1.4,9.1-4.1s3.2-7.5,3.2-14.4V8.5
	h15.2v37.5c0,11.7-2.3,20.3-7,25.6s-11.5,8-20.5,8c-9.1,0-16-2.7-20.8-8c-4.8-5.3-7.2-13.9-7.2-25.6L182.7,8.6L182.7,8.6z"/>
<path class="st0" d="M280.3,61.8H259l-4.3,16.6h-16.1l21.9-69.9h19l21.9,69.9h-16.8L280.3,61.8z M277.1,49.5l-1.6-6.4
	c-1-3.5-2-7.2-2.9-11.1s-1.9-7.7-2.8-11.4h-0.4c-0.9,3.7-1.7,7.5-2.6,11.4s-1.8,7.6-2.8,11.1l-1.7,6.4H277.1z"/>
<path class="st0" d="M311.2,53.6l-21.1-45H307l6.2,16.1c1,2.7,1.9,5.2,2.8,7.7s1.8,5,2.9,7.7h0.4c1-2.7,2-5.3,3-7.8s2-5,3-7.7
	l6.3-16.1h16.5L327,53.6v24.9h-15.8L311.2,53.6L311.2,53.6z"/>
<polygon class="st1" points="75.1,0 96,44.1 75.1,88.2 57.4,88.2 78.2,44.1 57.4,0 "/>
<polygon class="st0" points="57.4,88.2 36.5,44.1 57.4,0 75.1,0 54.3,44.1 75.1,88.2 "/>
<polygon class="st1" points="48,19.9 38.6,0 20.9,0 39.1,38.6 "/>
<polygon class="st1" points="39.1,49.6 20.9,88.2 38.6,88.2 48,68.4 "/>
<polygon class="st0" points="20.9,88.2 0,44.1 20.9,0 38.6,0 17.8,44.1 38.6,88.2 "/>
</svg>
