<?xml version="1.0" encoding="utf-8"?>
<!-- Generator: Adobe Illustrator 23.0.2, SVG Export Plug-In . SVG Version: 6.00 Build 0)  -->
<svg version="1.1" id="Layer_1" xmlns="http://www.w3.org/2000/svg" xmlns:xlink="http://www.w3.org/1999/xlink" x="0px" y="0px"
	 width="306.5px" height="39.7px" viewBox="0 0 306.5 39.7" style="enable-background:new 0 0 306.5 39.7;" xml:space="preserve">
<g>
	<g>
		<path d="M18.4,32.5l-4.5-9.3h-3.1v9.3H3.3V4.9h12.4c1.6,0,3.1,0.2,4.4,0.5c1.3,0.3,2.5,0.9,3.4,1.6c0.9,0.7,1.7,1.6,2.2,2.8
			c0.5,1.1,0.8,2.5,0.8,4.2c0,2.1-0.4,3.8-1.3,5.1c-0.9,1.3-2.1,2.3-3.6,3L27,32.5H18.4z M18,11.9c-0.5-0.6-1.4-0.8-2.6-0.8h-4.6v6
			h4.5c1.3,0,2.2-0.3,2.7-0.8c0.5-0.5,0.8-1.3,0.8-2.3C18.8,13.2,18.5,12.5,18,11.9z"/>
		<path d="M32.8,32.5V4.9h21.2v6.4H40.3V15h8.2v6.3h-8.2v4.7h13.9v6.4H32.8z"/>
		<path d="M83.3,25.1c-0.6,1.8-1.6,3.2-2.8,4.3s-2.8,1.9-4.7,2.4c-1.9,0.5-4,0.7-6.5,0.7h-9V4.9H70c2.2,0,4.1,0.2,5.9,0.7
			c1.8,0.4,3.3,1.2,4.5,2.3c1.2,1.1,2.2,2.5,2.8,4.2c0.7,1.7,1,3.9,1,6.5S83.9,23.3,83.3,25.1z M76,15.4c-0.2-0.9-0.6-1.7-1.1-2.3
			c-0.5-0.6-1.2-1-2-1.3c-0.8-0.3-1.8-0.4-3-0.4h-1.9V26h1.7c1.2,0,2.2-0.1,3-0.4c0.8-0.3,1.5-0.7,2.1-1.2c0.5-0.6,0.9-1.3,1.2-2.3
			c0.2-0.9,0.4-2.1,0.4-3.5C76.4,17.4,76.2,16.3,76,15.4z"/>
		<path d="M120.7,32.5V21.6h-8.6v10.9h-7.8V4.9h7.8v10.1h8.6V4.9h7.8v27.7H120.7z"/>
		<path d="M153.2,32.5l-1.5-4.9h-8.3l-1.5,4.9h-8.2l10-27.7h7.7l10,27.7H153.2z M149.3,19.8c-0.2-0.9-0.4-1.7-0.6-2.3
			c-0.2-0.7-0.4-1.3-0.5-1.8c-0.1-0.5-0.3-1-0.4-1.4c-0.1-0.4-0.2-0.9-0.3-1.4c-0.1,0.5-0.2,0.9-0.3,1.4c-0.1,0.4-0.2,0.9-0.4,1.5
			c-0.1,0.5-0.3,1.1-0.5,1.8c-0.2,0.7-0.4,1.4-0.6,2.3l-0.5,1.8h4.6L149.3,19.8z"/>
		<path d="M177.2,11.5v21h-7.7v-21h-7.7V4.9h23.2v6.7H177.2z"/>
		<path d="M195.2,9.6c-0.2,0.4-0.4,0.8-0.8,1.1c-0.3,0.3-0.7,0.6-1.1,0.8c-0.4,0.2-0.9,0.3-1.4,0.3c-0.5,0-1-0.1-1.4-0.3
			c-0.4-0.2-0.8-0.4-1.1-0.8c-0.3-0.3-0.6-0.7-0.8-1.1c-0.2-0.4-0.3-0.9-0.3-1.4s0.1-1,0.3-1.4c0.2-0.4,0.4-0.8,0.8-1.1
			c0.3-0.3,0.7-0.6,1.1-0.8c0.4-0.2,0.9-0.3,1.4-0.3c0.5,0,1,0.1,1.4,0.3c0.4,0.2,0.8,0.4,1.1,0.8c0.3,0.3,0.6,0.7,0.8,1.1
			c0.2,0.4,0.3,0.9,0.3,1.4S195.4,9.2,195.2,9.6z M194.7,7.1c-0.2-0.4-0.4-0.7-0.6-1c-0.3-0.3-0.6-0.5-1-0.6
			c-0.4-0.2-0.8-0.2-1.2-0.2c-0.4,0-0.8,0.1-1.2,0.2c-0.4,0.2-0.7,0.4-0.9,0.6s-0.5,0.6-0.6,1c-0.2,0.4-0.2,0.8-0.2,1.2
			c0,0.4,0.1,0.8,0.2,1.2c0.2,0.4,0.4,0.7,0.6,0.9c0.3,0.3,0.6,0.5,0.9,0.6c0.4,0.2,0.8,0.2,1.2,0.2c0.4,0,0.8-0.1,1.2-0.2
			c0.4-0.2,0.7-0.4,1-0.6c0.3-0.3,0.5-0.6,0.6-0.9c0.2-0.4,0.2-0.8,0.2-1.2C194.9,7.8,194.8,7.4,194.7,7.1z M193.3,8.1
			c-0.2,0.2-0.4,0.3-0.6,0.4l0.8,1.6h-0.8l-0.8-1.5h-0.7v1.5h-0.7V6.2h1.7c0.2,0,0.3,0,0.5,0.1c0.2,0,0.3,0.1,0.4,0.2
			c0.1,0.1,0.2,0.2,0.3,0.4c0.1,0.1,0.1,0.3,0.1,0.5C193.5,7.7,193.4,8,193.3,8.1z M192.7,7c-0.1-0.1-0.3-0.1-0.4-0.1h-1V8h1
			c0.2,0,0.3,0,0.4-0.1c0.1-0.1,0.2-0.2,0.2-0.4C192.8,7.2,192.8,7.1,192.7,7z"/>
	</g>
	<g>
		<path d="M227,25.8c-0.9,2-2,3.7-3.5,4.9l1.8,2.9l-2.5,1.5l-1.7-2.8c-1.3,0.6-2.7,0.9-4.2,0.9c-1.7,0-3.3-0.3-4.7-1
			c-1.4-0.7-2.6-1.7-3.6-2.9c-1-1.3-1.8-2.8-2.3-4.5c-0.5-1.7-0.8-3.6-0.8-5.7s0.3-4,0.8-5.7c0.6-1.7,1.3-3.2,2.3-4.5
			s2.2-2.2,3.6-2.9c1.4-0.7,3-1.1,4.7-1.1c1.7,0,3.3,0.3,4.7,1c1.4,0.7,2.6,1.7,3.6,2.9c1,1.3,1.8,2.8,2.3,4.5s0.8,3.6,0.8,5.7
			C228.3,21.4,227.8,23.7,227,25.8z M224.5,14.3c-0.4-1.4-1-2.6-1.8-3.6c-0.8-1-1.7-1.8-2.7-2.3c-1-0.5-2.1-0.8-3.3-0.8
			c-1.2,0-2.3,0.3-3.3,0.8c-1,0.5-1.9,1.3-2.6,2.3c-0.7,1-1.3,2.2-1.7,3.6c-0.4,1.4-0.6,3-0.6,4.7s0.2,3.3,0.6,4.7
			c0.4,1.4,1,2.6,1.8,3.6c0.7,1,1.6,1.8,2.7,2.3c1,0.5,2.1,0.8,3.3,0.8c0.9,0,1.8-0.2,2.6-0.5l-2.2-3.7l2.5-1.5l2.2,3.6
			c1-0.9,1.8-2.2,2.4-3.8c0.6-1.6,0.9-3.4,0.9-5.6C225.2,17.2,225,15.7,224.5,14.3z"/>
		<path d="M251.5,30.1c-1.6,2-4.1,3-7.4,3c-3.3,0-5.8-1-7.5-2.9c-1.7-2-2.5-4.8-2.5-8.7V5.2h3.1v16.3c0,5.9,2.3,8.9,7,8.9
			c2.4,0,4.1-0.7,5.1-2.2c1-1.4,1.5-3.7,1.5-6.6V5.2h3.1v16.3C253.9,25.3,253.1,28.2,251.5,30.1z"/>
		<path d="M277.9,32.7l-2.4-7h-11.4l-2.4,7h-3.1l9.6-27.5h3.4l9.6,27.5H277.9z M271.5,13.8c-0.2-0.4-0.3-0.9-0.5-1.5
			c-0.2-0.5-0.3-1-0.5-1.5c-0.2-0.5-0.3-0.9-0.4-1.4c-0.1-0.4-0.2-0.8-0.3-1.1c-0.1,0.3-0.2,0.6-0.3,1.1c-0.1,0.4-0.3,0.9-0.4,1.4
			c-0.2,0.5-0.3,1-0.5,1.6c-0.2,0.5-0.4,1-0.5,1.5l-3,9h9.5L271.5,13.8z"/>
		<path d="M293.8,21.8v10.9h-3.1V21.8l-9.4-16.6h3.5l4.4,7.9c0.6,1,1.1,2,1.7,3.1c0.6,1.1,1,2,1.4,2.8c0.4-0.8,0.9-1.8,1.4-2.8
			c0.6-1.1,1.1-2.1,1.7-3.1l4.4-7.9h3.4L293.8,21.8z"/>
	</g>
</g>
</svg>
