<?xml version="1.0" encoding="UTF-8" standalone="no"?>
<!-- Generator: Adobe Illustrator 23.0.2, SVG Export Plug-In . SVG Version: 6.00 Build 0)  -->

<svg
   xmlns:dc="http://purl.org/dc/elements/1.1/"
   xmlns:cc="http://creativecommons.org/ns#"
   xmlns:rdf="http://www.w3.org/1999/02/22-rdf-syntax-ns#"
   xmlns:svg="http://www.w3.org/2000/svg"
   xmlns="http://www.w3.org/2000/svg"
   xmlns:sodipodi="http://sodipodi.sourceforge.net/DTD/sodipodi-0.dtd"
   xmlns:inkscape="http://www.inkscape.org/namespaces/inkscape"
   version="1.1"
   id="Layer_1"
   x="0px"
   y="0px"
   width="356.5"
   height="39.700001"
   viewBox="0 0 356.5 39.7"
   xml:space="preserve"
   sodipodi:docname="RH_Logo_Quay_Black_UX-horizontal.svg"
   inkscape:version="0.92.2 5c3e80d, 2017-08-06"><metadata
     id="metadata35"><rdf:RDF><cc:Work
         rdf:about=""><dc:format>image/svg+xml</dc:format><dc:type
           rdf:resource="http://purl.org/dc/dcmitype/StillImage" /><dc:title></dc:title></cc:Work></rdf:RDF></metadata><defs
     id="defs33"><style
       id="style3822">.cls-1{fill:#d71e00;}.cls-2{fill:#c21a00;}.cls-3{fill:#fff;}.cls-4{fill:#b7b7b7;}</style></defs><sodipodi:namedview
     pagecolor="#ffffff"
     bordercolor="#666666"
     borderopacity="1"
     objecttolerance="10"
     gridtolerance="10"
     guidetolerance="10"
     inkscape:pageopacity="0"
     inkscape:pageshadow="2"
     inkscape:window-width="1635"
     inkscape:window-height="917"
     id="namedview31"
     showgrid="false"
     inkscape:zoom="1.0570962"
     inkscape:cx="153.25"
     inkscape:cy="19.85"
     inkscape:window-x="591"
     inkscape:window-y="182"
     inkscape:window-maximized="0"
     inkscape:current-layer="Layer_1" /><g
     id="g28"
     transform="translate(48.651235,0.837963)"><g
       id="g16"><path
         d="m 18.4,32.5 -4.5,-9.3 h -3.1 v 9.3 H 3.3 V 4.9 h 12.4 c 1.6,0 3.1,0.2 4.4,0.5 1.3,0.3 2.5,0.9 3.4,1.6 0.9,0.7 1.7,1.6 2.2,2.8 0.5,1.1 0.8,2.5 0.8,4.2 0,2.1 -0.4,3.8 -1.3,5.1 -0.9,1.3 -2.1,2.3 -3.6,3 L 27,32.5 Z M 18,11.9 c -0.5,-0.6 -1.4,-0.8 -2.6,-0.8 h -4.6 v 6 h 4.5 c 1.3,0 2.2,-0.3 2.7,-0.8 0.5,-0.5 0.8,-1.3 0.8,-2.3 0,-0.8 -0.3,-1.5 -0.8,-2.1 z"
         id="path2"
         inkscape:connector-curvature="0" /><path
         d="M 32.8,32.5 V 4.9 H 54 v 6.4 H 40.3 V 15 h 8.2 v 6.3 H 40.3 V 26 h 13.9 v 6.4 H 32.8 Z"
         id="path4"
         inkscape:connector-curvature="0" /><path
         d="m 83.3,25.1 c -0.6,1.8 -1.6,3.2 -2.8,4.3 -1.2,1.1 -2.8,1.9 -4.7,2.4 -1.9,0.5 -4,0.7 -6.5,0.7 h -9 V 4.9 H 70 c 2.2,0 4.1,0.2 5.9,0.7 1.8,0.4 3.3,1.2 4.5,2.3 1.2,1.1 2.2,2.5 2.8,4.2 0.7,1.7 1,3.9 1,6.5 0,2.6 -0.3,4.7 -0.9,6.5 z M 76,15.4 c -0.2,-0.9 -0.6,-1.7 -1.1,-2.3 -0.5,-0.6 -1.2,-1 -2,-1.3 -0.8,-0.3 -1.8,-0.4 -3,-0.4 H 68 V 26 h 1.7 c 1.2,0 2.2,-0.1 3,-0.4 0.8,-0.3 1.5,-0.7 2.1,-1.2 0.5,-0.6 0.9,-1.3 1.2,-2.3 0.2,-0.9 0.4,-2.1 0.4,-3.5 0,-1.2 -0.2,-2.3 -0.4,-3.2 z"
         id="path6"
         inkscape:connector-curvature="0" /><path
         d="M 120.7,32.5 V 21.6 h -8.6 v 10.9 h -7.8 V 4.9 h 7.8 V 15 h 8.6 V 4.9 h 7.8 v 27.7 h -7.8 z"
         id="path8"
         inkscape:connector-curvature="0" /><path
         d="m 153.2,32.5 -1.5,-4.9 h -8.3 l -1.5,4.9 h -8.2 l 10,-27.7 h 7.7 l 10,27.7 z m -3.9,-12.7 c -0.2,-0.9 -0.4,-1.7 -0.6,-2.3 -0.2,-0.7 -0.4,-1.3 -0.5,-1.8 -0.1,-0.5 -0.3,-1 -0.4,-1.4 -0.1,-0.4 -0.2,-0.9 -0.3,-1.4 -0.1,0.5 -0.2,0.9 -0.3,1.4 -0.1,0.4 -0.2,0.9 -0.4,1.5 -0.1,0.5 -0.3,1.1 -0.5,1.8 -0.2,0.7 -0.4,1.4 -0.6,2.3 l -0.5,1.8 h 4.6 z"
         id="path10"
         inkscape:connector-curvature="0" /><path
         d="m 177.2,11.5 v 21 h -7.7 v -21 h -7.7 V 4.9 H 185 v 6.7 h -7.8 z"
         id="path12"
         inkscape:connector-curvature="0" /><path
         d="m 195.2,9.6 c -0.2,0.4 -0.4,0.8 -0.8,1.1 -0.3,0.3 -0.7,0.6 -1.1,0.8 -0.4,0.2 -0.9,0.3 -1.4,0.3 -0.5,0 -1,-0.1 -1.4,-0.3 -0.4,-0.2 -0.8,-0.4 -1.1,-0.8 -0.3,-0.3 -0.6,-0.7 -0.8,-1.1 -0.2,-0.4 -0.3,-0.9 -0.3,-1.4 0,-0.5 0.1,-1 0.3,-1.4 0.2,-0.4 0.4,-0.8 0.8,-1.1 0.3,-0.3 0.7,-0.6 1.1,-0.8 0.4,-0.2 0.9,-0.3 1.4,-0.3 0.5,0 1,0.1 1.4,0.3 0.4,0.2 0.8,0.4 1.1,0.8 0.3,0.3 0.6,0.7 0.8,1.1 0.2,0.4 0.3,0.9 0.3,1.4 0,0.5 -0.1,1 -0.3,1.4 z m -0.5,-2.5 c -0.2,-0.4 -0.4,-0.7 -0.6,-1 -0.3,-0.3 -0.6,-0.5 -1,-0.6 -0.4,-0.2 -0.8,-0.2 -1.2,-0.2 -0.4,0 -0.8,0.1 -1.2,0.2 -0.4,0.2 -0.7,0.4 -0.9,0.6 -0.2,0.2 -0.5,0.6 -0.6,1 -0.2,0.4 -0.2,0.8 -0.2,1.2 0,0.4 0.1,0.8 0.2,1.2 0.2,0.4 0.4,0.7 0.6,0.9 0.3,0.3 0.6,0.5 0.9,0.6 0.4,0.2 0.8,0.2 1.2,0.2 0.4,0 0.8,-0.1 1.2,-0.2 0.4,-0.2 0.7,-0.4 1,-0.6 0.3,-0.3 0.5,-0.6 0.6,-0.9 0.2,-0.4 0.2,-0.8 0.2,-1.2 0,-0.5 -0.1,-0.9 -0.2,-1.2 z m -1.4,1 c -0.2,0.2 -0.4,0.3 -0.6,0.4 l 0.8,1.6 h -0.8 l -0.8,-1.5 h -0.7 v 1.5 h -0.7 V 6.2 h 1.7 c 0.2,0 0.3,0 0.5,0.1 0.2,0 0.3,0.1 0.4,0.2 0.1,0.1 0.2,0.2 0.3,0.4 0.1,0.1 0.1,0.3 0.1,0.5 0,0.3 -0.1,0.6 -0.2,0.7 z M 192.7,7 c -0.1,-0.1 -0.3,-0.1 -0.4,-0.1 h -1 V 8 h 1 c 0.2,0 0.3,0 0.4,-0.1 0.1,-0.1 0.2,-0.2 0.2,-0.4 -0.1,-0.3 -0.1,-0.4 -0.2,-0.5 z"
         id="path14"
         inkscape:connector-curvature="0" /></g><g
       id="g26"><path
         d="m 227,25.8 c -0.9,2 -2,3.7 -3.5,4.9 l 1.8,2.9 -2.5,1.5 -1.7,-2.8 c -1.3,0.6 -2.7,0.9 -4.2,0.9 -1.7,0 -3.3,-0.3 -4.7,-1 -1.4,-0.7 -2.6,-1.7 -3.6,-2.9 -1,-1.3 -1.8,-2.8 -2.3,-4.5 -0.5,-1.7 -0.8,-3.6 -0.8,-5.7 0,-2.1 0.3,-4 0.8,-5.7 0.6,-1.7 1.3,-3.2 2.3,-4.5 1,-1.3 2.2,-2.2 3.6,-2.9 1.4,-0.7 3,-1.1 4.7,-1.1 1.7,0 3.3,0.3 4.7,1 1.4,0.7 2.6,1.7 3.6,2.9 1,1.3 1.8,2.8 2.3,4.5 0.5,1.7 0.8,3.6 0.8,5.7 0,2.4 -0.5,4.7 -1.3,6.8 z m -2.5,-11.5 c -0.4,-1.4 -1,-2.6 -1.8,-3.6 -0.8,-1 -1.7,-1.8 -2.7,-2.3 -1,-0.5 -2.1,-0.8 -3.3,-0.8 -1.2,0 -2.3,0.3 -3.3,0.8 -1,0.5 -1.9,1.3 -2.6,2.3 -0.7,1 -1.3,2.2 -1.7,3.6 -0.4,1.4 -0.6,3 -0.6,4.7 0,1.7 0.2,3.3 0.6,4.7 0.4,1.4 1,2.6 1.8,3.6 0.7,1 1.6,1.8 2.7,2.3 1,0.5 2.1,0.8 3.3,0.8 0.9,0 1.8,-0.2 2.6,-0.5 l -2.2,-3.7 2.5,-1.5 2.2,3.6 c 1,-0.9 1.8,-2.2 2.4,-3.8 0.6,-1.6 0.9,-3.4 0.9,-5.6 -0.1,-1.7 -0.3,-3.2 -0.8,-4.6 z"
         id="path18"
         inkscape:connector-curvature="0" /><path
         d="m 251.5,30.1 c -1.6,2 -4.1,3 -7.4,3 -3.3,0 -5.8,-1 -7.5,-2.9 -1.7,-2 -2.5,-4.8 -2.5,-8.7 V 5.2 h 3.1 v 16.3 c 0,5.9 2.3,8.9 7,8.9 2.4,0 4.1,-0.7 5.1,-2.2 1,-1.4 1.5,-3.7 1.5,-6.6 V 5.2 h 3.1 v 16.3 c 0,3.8 -0.8,6.7 -2.4,8.6 z"
         id="path20"
         inkscape:connector-curvature="0" /><path
         d="m 277.9,32.7 -2.4,-7 h -11.4 l -2.4,7 h -3.1 l 9.6,-27.5 h 3.4 l 9.6,27.5 z m -6.4,-18.9 c -0.2,-0.4 -0.3,-0.9 -0.5,-1.5 -0.2,-0.5 -0.3,-1 -0.5,-1.5 -0.2,-0.5 -0.3,-0.9 -0.4,-1.4 -0.1,-0.4 -0.2,-0.8 -0.3,-1.1 -0.1,0.3 -0.2,0.6 -0.3,1.1 -0.1,0.4 -0.3,0.9 -0.4,1.4 -0.2,0.5 -0.3,1 -0.5,1.6 -0.2,0.5 -0.4,1 -0.5,1.5 l -3,9 h 9.5 z"
         id="path22"
         inkscape:connector-curvature="0" /><path
         d="m 293.8,21.8 v 10.9 h -3.1 V 21.8 L 281.3,5.2 h 3.5 l 4.4,7.9 c 0.6,1 1.1,2 1.7,3.1 0.6,1.1 1,2 1.4,2.8 0.4,-0.8 0.9,-1.8 1.4,-2.8 0.6,-1.1 1.1,-2.1 1.7,-3.1 l 4.4,-7.9 h 3.4 z"
         id="path24"
         inkscape:connector-curvature="0" /></g></g><g
     data-name="Layer 1"
     id="Layer_1-7"
     transform="matrix(0.39457959,0,0,0.39457959,1.0823681,0.10489944)"><circle
       id="circle3828"
       r="50"
       cy="50"
       cx="50"
       class="cls-1"
       style="fill:#d71e00" /><path
       id="path3830"
       d="M 85.36,14.64 A 50.006592,50.006592 0 0 1 14.64,85.36 Z"
       class="cls-2"
       inkscape:connector-curvature="0"
       style="fill:#c21a00" /><polygon
       id="polygon3832"
       points="54.54,49.99 69.6,81.86 56.77,81.86 41.72,49.99 56.77,18.14 69.6,18.14 "
       class="cls-3"
       style="fill:#ffffff" /><polygon
       id="polygon3834"
       points="69.6,81.86 84.65,49.99 69.6,18.14 63.19,31.7 71.83,49.99 63.19,68.29 "
       class="cls-4"
       style="fill:#b7b7b7" /><polygon
       id="polygon3836"
       points="28.17,49.99 43.23,81.86 30.4,81.86 15.35,49.99 30.4,18.14 43.23,18.14 "
       class="cls-3"
       style="fill:#ffffff" /><polygon
       id="polygon3838"
       points="43.59,46.04 50,32.47 43.23,18.14 36.81,31.71 "
       class="cls-4"
       style="fill:#b7b7b7" /><polygon
       id="polygon3840"
       points="36.81,68.29 43.23,81.86 50,67.53 43.59,53.96 "
       class="cls-4"
       style="fill:#b7b7b7" /></g></svg>