<?xml version="1.0" encoding="UTF-8" standalone="no"?>
<svg
   xmlns:dc="http://purl.org/dc/elements/1.1/"
   xmlns:cc="http://creativecommons.org/ns#"
   xmlns:rdf="http://www.w3.org/1999/02/22-rdf-syntax-ns#"
   xmlns:svg="http://www.w3.org/2000/svg"
   xmlns="http://www.w3.org/2000/svg"
   xmlns:sodipodi="http://sodipodi.sourceforge.net/DTD/sodipodi-0.dtd"
   xmlns:inkscape="http://www.inkscape.org/namespaces/inkscape"
   xml:space="preserve"
   enable-background="new 0 0 386.5 39.7"
   viewBox="0 0 386.5 39.7"
   height="39.7px"
   width="386.5px"
   y="0px"
   x="0px"
   inkscape:version="1.0beta2 (2b71d25, 2019-12-03)"
   sodipodi:docname="RH_QuayIO.svg"
   id="Layer_1"
   version="1.1"><metadata
   id="metadata136"><rdf:RDF><cc:Work
       rdf:about=""><dc:format>image/svg+xml</dc:format><dc:type
         rdf:resource="http://purl.org/dc/dcmitype/StillImage" /></cc:Work></rdf:RDF></metadata><defs
   id="defs134" />
<sodipodi:namedview
   inkscape:document-rotation="0"
   inkscape:current-layer="Layer_1"
   inkscape:window-maximized="0"
   inkscape:window-y="23"
   inkscape:window-x="33"
   inkscape:cy="55.281078"
   inkscape:cx="230.79996"
   inkscape:zoom="2.67151"
   showgrid="false"
   inkscape:window-height="855"
   inkscape:pageshadow="2"
   inkscape:pageopacity="0"
   guidetolerance="10"
   gridtolerance="10"
   objecttolerance="10"
   borderopacity="1"
   pagecolor="#ffffff"
   bordercolor="#666666"
   inkscape:window-width="1440"
   id="namedview31">
	</sodipodi:namedview>
<g
   id="g16">
	<path
   d="M69.051,33.338l-4.5-9.301h-3.1v9.301h-7.5V5.738h12.4c1.6,0,3.1,0.2,4.4,0.5   c1.3,0.3,2.5,0.9,3.4,1.6s1.7,1.6,2.2,2.8c0.5,1.1,0.8,2.5,0.8,4.2c0,2.1-0.4,3.8-1.3,5.1c-0.9,1.3-2.1,2.3-3.6,3l5.4,10.4H69.051z    M68.651,12.738c-0.5-0.6-1.4-0.8-2.6-0.8h-4.6v6h4.5c1.3,0,2.2-0.3,2.7-0.8s0.8-1.3,0.8-2.3   C69.451,14.038,69.151,13.338,68.651,12.738z"
   inkscape:connector-curvature="0"
   id="path2" />
	<path
   d="M83.451,33.338V5.738h21.2v6.4h-13.7v3.7h8.2v6.299h-8.2v4.701h13.9v6.399   h-21.4V33.338z"
   inkscape:connector-curvature="0"
   id="path4" />
	<path
   d="M133.951,25.938c-0.6,1.8-1.6,3.199-2.8,4.3c-1.2,1.101-2.8,1.899-4.7,2.399   s-4,0.701-6.5,0.701h-9V5.738h9.7c2.2,0,4.1,0.2,5.9,0.7c1.8,0.4,3.3,1.2,4.5,2.3s2.2,2.5,2.8,4.2c0.7,1.7,1,3.9,1,6.5   C134.851,22.038,134.551,24.137,133.951,25.938z M126.651,16.238c-0.2-0.9-0.6-1.7-1.1-2.3s-1.2-1-2-1.3c-0.8-0.3-1.8-0.4-3-0.4   h-1.9v14.601h1.7c1.2,0,2.2-0.101,3-0.4c0.8-0.301,1.5-0.7,2.1-1.2c0.5-0.601,0.9-1.3,1.2-2.3c0.2-0.9,0.4-2.1,0.4-3.5   C127.051,18.238,126.851,17.138,126.651,16.238z"
   inkscape:connector-curvature="0"
   id="path6" />
	<path
   d="M171.351,33.338v-10.9h-8.6v10.9h-7.8V5.738h7.8v10.1h8.6v-10.1h7.8v27.7   h-7.8V33.338z"
   inkscape:connector-curvature="0"
   id="path8" />
	<path
   d="M203.852,33.338l-1.5-4.9h-8.301l-1.5,4.9h-8.199l10-27.701h7.699l10,27.701   H203.852z M199.951,20.637c-0.199-0.899-0.4-1.699-0.6-2.299c-0.2-0.7-0.4-1.3-0.5-1.8c-0.101-0.5-0.301-1-0.4-1.4   c-0.1-0.4-0.199-0.9-0.3-1.4c-0.101,0.5-0.2,0.9-0.3,1.4c-0.101,0.4-0.2,0.9-0.4,1.5c-0.1,0.5-0.3,1.1-0.5,1.8   c-0.199,0.7-0.4,1.4-0.6,2.3l-0.5,1.8h4.6L199.951,20.637z"
   inkscape:connector-curvature="0"
   id="path10" />
	<path
   d="M227.852,12.338v21h-7.7v-21h-7.7v-6.6h23.2v6.7h-7.8V12.338z"
   inkscape:connector-curvature="0"
   id="path12" />
	<path
   d="M245.852,10.438c-0.2,0.4-0.4,0.8-0.801,1.1c-0.3,0.3-0.699,0.6-1.1,0.8   s-0.9,0.3-1.4,0.3s-1-0.1-1.399-0.3s-0.8-0.4-1.101-0.8c-0.3-0.3-0.6-0.7-0.8-1.1s-0.3-0.9-0.3-1.4s0.1-1,0.3-1.4   c0.2-0.4,0.4-0.8,0.8-1.1c0.301-0.3,0.7-0.6,1.101-0.8c0.399-0.2,0.899-0.3,1.399-0.3s1,0.1,1.4,0.3c0.4,0.2,0.8,0.4,1.1,0.8   c0.301,0.3,0.601,0.7,0.801,1.1c0.199,0.4,0.3,0.9,0.3,1.4S246.051,10.038,245.852,10.438z M245.352,7.938   c-0.2-0.4-0.4-0.7-0.601-1c-0.3-0.3-0.6-0.5-1-0.6c-0.399-0.2-0.8-0.2-1.2-0.2c-0.399,0-0.8,0.1-1.199,0.2   c-0.4,0.2-0.7,0.4-0.9,0.6c-0.199,0.2-0.5,0.6-0.6,1c-0.2,0.4-0.2,0.8-0.2,1.2c0,0.4,0.101,0.8,0.2,1.2   c0.199,0.4,0.399,0.7,0.6,0.9c0.301,0.3,0.6,0.5,0.9,0.6c0.399,0.2,0.8,0.2,1.199,0.2c0.4,0,0.801-0.1,1.2-0.2   c0.4-0.2,0.7-0.4,1-0.6c0.3-0.3,0.5-0.6,0.601-0.9c0.199-0.4,0.199-0.8,0.199-1.2C245.551,8.638,245.451,8.238,245.352,7.938z    M243.951,8.938c-0.199,0.2-0.4,0.3-0.6,0.4l0.8,1.6h-0.8l-0.801-1.5h-0.699v1.5h-0.7v-3.9h1.7c0.199,0,0.3,0,0.5,0.1   c0.199,0,0.3,0.1,0.399,0.2c0.101,0.1,0.2,0.2,0.3,0.4c0.101,0.1,0.101,0.3,0.101,0.5C244.151,8.538,244.051,8.838,243.951,8.938z    M243.352,7.838c-0.101-0.1-0.301-0.1-0.4-0.1h-1v1.1h1c0.2,0,0.301,0,0.4-0.1s0.199-0.2,0.199-0.4   C243.451,8.038,243.451,7.938,243.352,7.838z"
   inkscape:connector-curvature="0"
   id="path14" />
</g>
<g
   transform="matrix(0.39457959,0,0,0.39457959,1.0823681,0.10489944)"
   id="Layer_1-7">
	<circle
   r="50"
   cy="50"
   cx="55.069"
   fill="#D71E00"
   id="circle3828" />
	<path
   d="M90.429,14.641c19.529,19.529,19.529,51.19,0,70.718   c-19.529,19.53-51.192,19.53-70.72,0L90.429,14.641z"
   fill="#C21A00"
   inkscape:connector-curvature="0"
   id="path3830" />
	<polygon
   points="59.608,49.99 74.668,81.859 61.838,81.859 46.789,49.99 61.838,18.14    74.668,18.14  "
   fill="#FFFFFF"
   id="polygon3832" />
	<polygon
   points="74.668,81.859 89.718,49.99 74.668,18.14 68.258,31.7 76.898,49.99    68.258,68.291  "
   fill="#B7B7B7"
   id="polygon3834" />
	<polygon
   points="33.239,49.99 48.299,81.859 35.469,81.859 20.419,49.99 35.469,18.14    48.299,18.14  "
   fill="#FFFFFF"
   id="polygon3836" />
	<polygon
   points="48.659,46.04 55.069,32.47 48.299,18.14 41.879,31.71  "
   fill="#B7B7B7"
   id="polygon3838" />
	<polygon
   points="41.879,68.291 48.299,81.859 55.069,67.529 48.659,53.961  "
   fill="#B7B7B7"
   id="polygon3840" />
</g>
<g
   transform="translate(0,2.8661607)"
   id="g131">
	<path
   inkscape:connector-curvature="0"
   id="path117"
   d="m 279.484,26.981 2.616,3.195 -3.559,0.86 -1.747,-2.096 c -1.995,1.083 -4.231,1.646 -6.503,1.633 -7.411,0 -13.222,-5.771 -13.222,-13.11 0,-7.337 5.811,-13.113 13.222,-13.113 7.413,0 13.273,5.776 13.273,13.113 0.015,3.601 -1.46,7.048 -4.08,9.518 z m -2.36,-2.871 c 1.664,-1.805 2.573,-4.179 2.542,-6.635 0,-5.448 -4.068,-9.591 -9.369,-9.591 -5.302,0 -9.337,4.143 -9.337,9.591 0,5.448 4.069,9.591 9.337,9.591 1.451,0.016 2.886,-0.309 4.191,-0.947 l -3.304,-4.03 3.557,-0.873 z" />
	<path
   inkscape:connector-curvature="0"
   id="path119"
   d="m 290.745,22.697 c 0,2.866 1.747,4.683 4.612,4.683 1.831,0.054 3.554,-0.854 4.543,-2.396 V 11.688 h 3.631 V 30.176 H 299.9 v -1.85 c -1.472,1.472 -3.483,2.272 -5.562,2.214 -4.246,0 -7.19,-2.979 -7.19,-7.23 V 11.688 h 3.598 v 11.009 z" />
	<path
   inkscape:connector-curvature="0"
   id="path121"
   d="m 306.832,24.875 c 0,-3.704 3.16,-5.634 7.48,-5.634 1.735,-0.009 3.455,0.341 5.051,1.021 v -1.963 c 0,-2.616 -1.562,-3.922 -4.506,-3.922 -1.777,0 -3.595,0.545 -5.738,1.561 l -1.345,-2.724 c 2.615,-1.236 5.016,-1.889 7.593,-1.889 4.757,0 7.554,2.326 7.554,6.611 V 30.16 h -3.555 v -1.567 c -1.619,1.308 -3.656,1.994 -5.738,1.927 -4.034,-0.015 -6.796,-2.34 -6.796,-5.645 z m 7.627,2.941 c 1.792,0.057 3.539,-0.566 4.891,-1.746 v -3.234 c -1.467,-0.763 -3.105,-1.137 -4.758,-1.09 -2.548,0 -4.288,1.128 -4.288,3.053 0.02,1.82 1.726,3.018 4.159,3.018 h -0.004 z" />
	<path
   inkscape:connector-curvature="0"
   id="path123"
   d="m 332.113,30.211 -7.372,-18.51 h 3.996 l 5.413,14.131 5.938,-14.131 h 3.924 l -8.828,20.486 c -1.652,3.802 -3.556,5.509 -7.049,5.509 -0.646,0.017 -1.293,-0.044 -1.925,-0.183 v -3.195 c 0.525,0.118 1.063,0.166 1.6,0.144 1.562,0 2.795,-0.727 3.668,-2.725 z" />
	<path
   inkscape:connector-curvature="0"
   id="path125"
   d="m 346.793,28.145 c 0.008,1.272 -1.016,2.312 -2.288,2.322 -1.279,-0.009 -2.313,-1.044 -2.321,-2.322 0.012,-1.273 1.049,-2.298 2.321,-2.292 1.261,-0.004 2.285,1.015 2.288,2.274 0,0.005 0,0.011 0,0.018 z" />
	<path
   inkscape:connector-curvature="0"
   id="path127"
   d="m 351.148,6.459 c 0.006,-1.242 1.011,-2.248 2.253,-2.253 1.242,0.048 2.211,1.096 2.161,2.34 -0.046,1.174 -0.987,2.116 -2.161,2.163 -1.241,-0.006 -2.245,-1.009 -2.253,-2.25 z m 4.07,23.717 h -3.633 V 11.688 h 3.633 z" />
	<path
   inkscape:connector-curvature="0"
   id="path129"
   d="m 368.255,11.325 c 5.308,0.01 9.601,4.319 9.59,9.624 -0.01,5.308 -4.319,9.602 -9.625,9.592 -5.307,-0.01 -9.601,-4.318 -9.591,-9.626 0,-0.002 0,-0.003 0,-0.007 -0.05,-5.242 4.157,-9.533 9.401,-9.583 0.074,-10e-4 0.15,-10e-4 0.225,0 z m 0,3.195 c -3.377,0 -6.066,2.793 -6.066,6.394 0,3.602 2.65,6.43 6.066,6.43 3.417,0 6.065,-2.831 6.065,-6.43 0,-3.596 -2.688,-6.394 -6.065,-6.394 z" />
</g>
</svg>
