<?xml version="1.0" encoding="utf-8"?>
<!-- Generator: Adobe Illustrator 15.0.0, SVG Export Plug-In . SVG Version: 6.00 Build 0)  -->
<!DOCTYPE svg PUBLIC "-//W3C//DTD SVG 1.1//EN" "http://www.w3.org/Graphics/SVG/1.1/DTD/svg11.dtd">
<svg version="1.1"
	 id="Layer_1" xmlns:rdf="http://www.w3.org/1999/02/22-rdf-syntax-ns#" xmlns:svg="http://www.w3.org/2000/svg" xmlns:dc="http://purl.org/dc/elements/1.1/" xmlns:cc="http://creativecommons.org/ns#" sodipodi:docname="RH_Logo_Quay_Black_UX-horizontal.svg" inkscape:version="0.92.2 5c3e80d, 2017-08-06" xmlns:inkscape="http://www.inkscape.org/namespaces/inkscape" xmlns:sodipodi="http://sodipodi.sourceforge.net/DTD/sodipodi-0.dtd"
	 xmlns="http://www.w3.org/2000/svg" xmlns:xlink="http://www.w3.org/1999/xlink" x="0px" y="0px" width="386.5px" height="39.7px"
	 viewBox="0 0 386.5 39.7" enable-background="new 0 0 386.5 39.7" xml:space="preserve">
<sodipodi:namedview  id="namedview31" inkscape:window-width="1635" bordercolor="#666666" pagecolor="#ffffff" borderopacity="1" objecttolerance="10" gridtolerance="10" guidetolerance="10" inkscape:pageopacity="0" inkscape:pageshadow="2" inkscape:window-height="917" showgrid="false" inkscape:zoom="1.0570962" inkscape:cx="153.25" inkscape:cy="19.85" inkscape:window-x="591" inkscape:window-y="182" inkscape:window-maximized="0" inkscape:current-layer="Layer_1">
	</sodipodi:namedview>
<g id="g16">
	<path id="path2" inkscape:connector-curvature="0" d="M69.051,33.338l-4.5-9.301h-3.1v9.301h-7.5V5.738h12.4c1.6,0,3.1,0.2,4.4,0.5
		c1.3,0.3,2.5,0.9,3.4,1.6s1.7,1.6,2.2,2.8c0.5,1.1,0.8,2.5,0.8,4.2c0,2.1-0.4,3.8-1.3,5.1c-0.9,1.3-2.1,2.3-3.6,3l5.4,10.4H69.051z
		 M68.651,12.738c-0.5-0.6-1.4-0.8-2.6-0.8h-4.6v6h4.5c1.3,0,2.2-0.3,2.7-0.8s0.8-1.3,0.8-2.3
		C69.451,14.038,69.151,13.338,68.651,12.738z"/>
	<path id="path4" inkscape:connector-curvature="0" d="M83.451,33.338V5.738h21.2v6.4h-13.7v3.7h8.2v6.299h-8.2v4.701h13.9v6.399
		h-21.4V33.338z"/>
	<path id="path6" inkscape:connector-curvature="0" d="M133.951,25.938c-0.6,1.8-1.6,3.199-2.8,4.3c-1.2,1.101-2.8,1.899-4.7,2.399
		s-4,0.701-6.5,0.701h-9V5.738h9.7c2.2,0,4.1,0.2,5.9,0.7c1.8,0.4,3.3,1.2,4.5,2.3s2.2,2.5,2.8,4.2c0.7,1.7,1,3.9,1,6.5
		C134.851,22.038,134.551,24.137,133.951,25.938z M126.651,16.238c-0.2-0.9-0.6-1.7-1.1-2.3s-1.2-1-2-1.3c-0.8-0.3-1.8-0.4-3-0.4
		h-1.9v14.601h1.7c1.2,0,2.2-0.101,3-0.4c0.8-0.301,1.5-0.7,2.1-1.2c0.5-0.601,0.9-1.3,1.2-2.3c0.2-0.9,0.4-2.1,0.4-3.5
		C127.051,18.238,126.851,17.138,126.651,16.238z"/>
	<path id="path8" inkscape:connector-curvature="0" d="M171.351,33.338v-10.9h-8.6v10.9h-7.8V5.738h7.8v10.1h8.6v-10.1h7.8v27.7
		h-7.8V33.338z"/>
	<path id="path10" inkscape:connector-curvature="0" d="M203.852,33.338l-1.5-4.9h-8.301l-1.5,4.9h-8.199l10-27.701h7.699l10,27.701
		H203.852z M199.951,20.637c-0.199-0.899-0.4-1.699-0.6-2.299c-0.2-0.7-0.4-1.3-0.5-1.8c-0.101-0.5-0.301-1-0.4-1.4
		c-0.1-0.4-0.199-0.9-0.3-1.4c-0.101,0.5-0.2,0.9-0.3,1.4c-0.101,0.4-0.2,0.9-0.4,1.5c-0.1,0.5-0.3,1.1-0.5,1.8
		c-0.199,0.7-0.4,1.4-0.6,2.3l-0.5,1.8h4.6L199.951,20.637z"/>
	<path id="path12" inkscape:connector-curvature="0" d="M227.852,12.338v21h-7.7v-21h-7.7v-6.6h23.2v6.7h-7.8V12.338z"/>
	<path id="path14" inkscape:connector-curvature="0" d="M245.852,10.438c-0.2,0.4-0.4,0.8-0.801,1.1c-0.3,0.3-0.699,0.6-1.1,0.8
		s-0.9,0.3-1.4,0.3s-1-0.1-1.399-0.3s-0.8-0.4-1.101-0.8c-0.3-0.3-0.6-0.7-0.8-1.1s-0.3-0.9-0.3-1.4s0.1-1,0.3-1.4
		c0.2-0.4,0.4-0.8,0.8-1.1c0.301-0.3,0.7-0.6,1.101-0.8c0.399-0.2,0.899-0.3,1.399-0.3s1,0.1,1.4,0.3c0.4,0.2,0.8,0.4,1.1,0.8
		c0.301,0.3,0.601,0.7,0.801,1.1c0.199,0.4,0.3,0.9,0.3,1.4S246.051,10.038,245.852,10.438z M245.352,7.938
		c-0.2-0.4-0.4-0.7-0.601-1c-0.3-0.3-0.6-0.5-1-0.6c-0.399-0.2-0.8-0.2-1.2-0.2c-0.399,0-0.8,0.1-1.199,0.2
		c-0.4,0.2-0.7,0.4-0.9,0.6c-0.199,0.2-0.5,0.6-0.6,1c-0.2,0.4-0.2,0.8-0.2,1.2c0,0.4,0.101,0.8,0.2,1.2
		c0.199,0.4,0.399,0.7,0.6,0.9c0.301,0.3,0.6,0.5,0.9,0.6c0.399,0.2,0.8,0.2,1.199,0.2c0.4,0,0.801-0.1,1.2-0.2
		c0.4-0.2,0.7-0.4,1-0.6c0.3-0.3,0.5-0.6,0.601-0.9c0.199-0.4,0.199-0.8,0.199-1.2C245.551,8.638,245.451,8.238,245.352,7.938z
		 M243.951,8.938c-0.199,0.2-0.4,0.3-0.6,0.4l0.8,1.6h-0.8l-0.801-1.5h-0.699v1.5h-0.7v-3.9h1.7c0.199,0,0.3,0,0.5,0.1
		c0.199,0,0.3,0.1,0.399,0.2c0.101,0.1,0.2,0.2,0.3,0.4c0.101,0.1,0.101,0.3,0.101,0.5C244.151,8.538,244.051,8.838,243.951,8.938z
		 M243.352,7.838c-0.101-0.1-0.301-0.1-0.4-0.1h-1v1.1h1c0.2,0,0.301,0,0.4-0.1s0.199-0.2,0.199-0.4
		C243.451,8.038,243.451,7.938,243.352,7.838z"/>
</g>
<g id="Layer_1-7" transform="matrix(0.39457959,0,0,0.39457959,1.0823681,0.10489944)">
	<circle id="circle3828" fill="#D71E00" cx="55.069" cy="50" r="50"/>
	<path id="path3830" inkscape:connector-curvature="0" fill="#C21A00" d="M90.429,14.641c19.529,19.529,19.529,51.19,0,70.718
		c-19.529,19.53-51.192,19.53-70.72,0L90.429,14.641z"/>
	<polygon id="polygon3832" fill="#FFFFFF" points="59.608,49.99 74.668,81.859 61.838,81.859 46.789,49.99 61.838,18.14 
		74.668,18.14 	"/>
	<polygon id="polygon3834" fill="#B7B7B7" points="74.668,81.859 89.718,49.99 74.668,18.14 68.258,31.7 76.898,49.99 
		68.258,68.291 	"/>
	<polygon id="polygon3836" fill="#FFFFFF" points="33.239,49.99 48.299,81.859 35.469,81.859 20.419,49.99 35.469,18.14 
		48.299,18.14 	"/>
	<polygon id="polygon3838" fill="#B7B7B7" points="48.659,46.04 55.069,32.47 48.299,18.14 41.879,31.71 	"/>
	<polygon id="polygon3840" fill="#B7B7B7" points="41.879,68.291 48.299,81.859 55.069,67.529 48.659,53.961 	"/>
</g>
<g>
	<path d="M279.484,26.981l2.616,3.195l-3.559,0.86l-1.747-2.096c-1.995,1.083-4.231,1.646-6.503,1.633
		c-7.411,0-13.222-5.771-13.222-13.11c0-7.337,5.811-13.113,13.222-13.113c7.413,0,13.273,5.776,13.273,13.113
		C283.579,21.064,282.104,24.511,279.484,26.981z M277.124,24.11c1.664-1.805,2.573-4.179,2.542-6.635
		c0-5.448-4.068-9.591-9.369-9.591c-5.302,0-9.337,4.143-9.337,9.591s4.069,9.591,9.337,9.591c1.451,0.016,2.886-0.309,4.191-0.947
		l-3.304-4.03l3.557-0.873L277.124,24.11z"/>
	<path d="M290.745,22.697c0,2.866,1.747,4.683,4.612,4.683c1.831,0.054,3.554-0.854,4.543-2.396V11.688h3.631v18.488H299.9v-1.85
		c-1.472,1.472-3.483,2.272-5.562,2.214c-4.246,0-7.19-2.979-7.19-7.23V11.688h3.598V22.697z"/>
	<path d="M306.832,24.875c0-3.704,3.16-5.634,7.48-5.634c1.735-0.009,3.455,0.341,5.051,1.021v-1.963
		c0-2.616-1.562-3.922-4.506-3.922c-1.777,0-3.595,0.545-5.738,1.561l-1.345-2.724c2.615-1.236,5.016-1.889,7.593-1.889
		c4.757,0,7.554,2.326,7.554,6.611V30.16h-3.555v-1.567c-1.619,1.308-3.656,1.994-5.738,1.927
		C309.594,30.505,306.832,28.18,306.832,24.875z M314.459,27.816c1.792,0.057,3.539-0.566,4.891-1.746v-3.234
		c-1.467-0.763-3.105-1.137-4.758-1.09c-2.548,0-4.288,1.128-4.288,3.053c0.02,1.82,1.726,3.018,4.159,3.018H314.459z"/>
	<path d="M332.113,30.211l-7.372-18.51h3.996l5.413,14.131l5.938-14.131h3.924l-8.828,20.486c-1.652,3.802-3.556,5.509-7.049,5.509
		c-0.646,0.017-1.293-0.044-1.925-0.183v-3.195c0.525,0.118,1.063,0.166,1.6,0.144c1.562,0,2.795-0.727,3.668-2.725L332.113,30.211z
		"/>
	<path d="M346.793,28.145c0.008,1.272-1.016,2.312-2.288,2.322c-1.279-0.009-2.313-1.044-2.321-2.322
		c0.012-1.273,1.049-2.298,2.321-2.292c1.261-0.004,2.285,1.015,2.288,2.274C346.793,28.132,346.793,28.138,346.793,28.145z"/>
	<path d="M351.148,6.459c0.006-1.242,1.011-2.248,2.253-2.253c1.242,0.048,2.211,1.096,2.161,2.34
		c-0.046,1.174-0.987,2.116-2.161,2.163C352.16,8.703,351.156,7.7,351.148,6.459z M355.218,30.176h-3.633V11.688h3.633V30.176z"/>
	<path d="M368.255,11.325c5.308,0.01,9.601,4.319,9.59,9.624c-0.01,5.308-4.319,9.602-9.625,9.592
		c-5.307-0.01-9.601-4.318-9.591-9.626c0-0.002,0-0.003,0-0.007c-0.05-5.242,4.157-9.533,9.401-9.583
		C368.104,11.324,368.18,11.324,368.255,11.325z M368.255,14.52c-3.377,0-6.066,2.793-6.066,6.394c0,3.602,2.65,6.43,6.066,6.43
		c3.417,0,6.065-2.831,6.065-6.43C374.32,17.318,371.632,14.52,368.255,14.52z"/>
</g>
</svg>
