<?xml version="1.0" encoding="utf-8"?>
<!-- Generator: Adobe Illustrator 17.0.0, SVG Export Plug-In . SVG Version: 6.00 Build 0)  -->
<!DOCTYPE svg PUBLIC "-//W3C//DTD SVG 1.1//EN" "http://www.w3.org/Graphics/SVG/1.1/DTD/svg11.dtd">
<svg version="1.1" id="Layer_1" xmlns="http://www.w3.org/2000/svg" xmlns:xlink="http://www.w3.org/1999/xlink" x="0px" y="0px"
	 width="33.223px" height="31px" viewBox="0 0 33.223 31" enable-background="new 0 0 33.223 31" xml:space="preserve">
<polygon fill-rule="evenodd" clip-rule="evenodd" fill="#1E3547" points="31.311,16.034 33.223,9.604 27.315,10.646 "/>
<g>
	<path fill="#1E3547" d="M3.552,11.75c1.638-5.762,6.937-10,13.217-10s11.579,4.238,13.217,10h1.805C30.107,5.013,24.021,0,16.769,0
		S3.43,5.013,1.747,11.75H3.552z"/>
	<path fill="#1E3547" d="M30.06,18.96c-1.54,5.909-6.907,10.29-13.292,10.29S5.018,24.87,3.477,18.96H1.672
		C3.25,25.845,9.413,31,16.769,31s13.519-5.155,15.097-12.04H30.06z"/>
</g>
<polygon fill-rule="evenodd" clip-rule="evenodd" fill="#1E3547" points="1.913,14.434 0,20.864 5.909,19.822 "/>
</svg>
