<?xml version="1.0" standalone="no"?>
<!DOCTYPE svg PUBLIC "-//W3C//DTD SVG 1.1//EN" "http://www.w3.org/Graphics/SVG/1.1/DTD/svg11.dtd" >
<svg xmlns="http://www.w3.org/2000/svg" xmlns:xlink="http://www.w3.org/1999/xlink" version="1.1">
<metadata>
Created by FontForge 20170924 at Thu Aug 16 14:31:34 2018
 By root
</metadata>
<defs>
<font id="core-icons" horiz-adv-x="512" >
  <font-face 
    font-family="core-icons"
    font-weight="400"
    font-stretch="normal"
    units-per-em="512"
    panose-1="2 0 5 9 0 0 0 0 0 0"
    ascent="448"
    descent="-64"
    bbox="0 -70 512 448"
    underline-thickness="25"
    underline-position="-76"
    unicode-range="U+F101-F116"
  />
<missing-glyph 
d="M17 0v341h136v-341h-136zM34 17h102v307h-102v-307z" />
    <glyph glyph-name=".notdef" 
d="M17 0v341h136v-341h-136zM34 17h102v307h-102v-307z" />
    <glyph glyph-name=".null" horiz-adv-x="0" 
 />
    <glyph glyph-name="nonmarkingreturn" 
 />
    <glyph glyph-name="uniF101" unicode="&#xf101;" 
d="M493 368q8 0 13.5 -6t5.5 -14v-312q0 -8 -5.5 -14t-13.5 -6h-474q-8 0 -13.5 6t-5.5 14v312q0 8 5.5 14t13.5 6h474zM96 352q-4 0 -7.5 -3t-3.5 -7.5t3.5 -7.5t7.5 -3t7.5 3t3.5 7.5t-3.5 7.5t-7.5 3zM64 352q-4 0 -7.5 -3t-3.5 -7.5t3.5 -7.5t7.5 -3t7.5 3t3.5 7.5
t-3.5 7.5t-7.5 3zM32 352q-4 0 -7.5 -3t-3.5 -7.5t3.5 -7.5t7.5 -3t7.5 3t3.5 7.5t-3.5 7.5t-7.5 3zM491 44v264q0 7 -7 7h-456q-7 0 -7 -7v-264q0 -7 7 -7h456q7 0 7 7zM32 48v256h448v-256h-448zM181 195v-27q0 -8 8 -8h134q8 0 8 8v27q0 8 -8 8h-134q-8 0 -8 -8zM261 181
q0 6 6 6t6 -6t-6 -6t-6 6zM239 181q0 6 6 6t6 -6t-6 -6t-6 6zM283 181q0 6 6 6t6 -6t-6 -6t-6 6zM305 181q0 6 6 6t6 -6t-6 -6t-6 6zM218 181q0 6 6 6t6 -6t-6 -6t-6 6zM197 181q0 6 6 6t6 -6t-6 -6t-6 6z" />
    <glyph glyph-name="uniF102" unicode="&#xf102;" 
d="M87 312q-1 -1 -2 -1q-15 21 -43 80q-2 -65 39 -106q7 8 16 19l18 22t17 19q-51 36 -76 48q-1 0 -13 4q6 -15 21 -43q3 -5 23 -42zM33 190q32 -25 44 -48q4 -7 14 -20q55 -66 163 -134q2 -2 6 1q12 7 18 11q73 55 87 66q45 35 70 76q15 23 43 43q-6 8 -22 27q9 1 10 1
q-5 4 -9 10t-5.5 10.5t-5 12.5t-4.5 11q-5 12 -12 22q-46 69 -137 85q-21 4 -22 25q-22 -7 -28 -18q-2 -4 -8 -5q-39 -7 -45 -9q-84 -25 -118 -96q-16 -33 -26 -42q9 -1 10 -1q-2 -2 -23 -28zM420 301v-1q4 -5 10 -13q22 20 31.5 53.5t4.5 57.5q-12 -5 -25.5 -12t-21 -12
t-23.5 -16t-20 -14q32 -33 41 -42zM153 346q36 19 77 23q8 0 12 6q10 13 35 18v-1q-3 -9 1.5 -16t13.5 -9q31 -7 40 -10q2 0 36 -15q44 30 47 33q21 13 41 22q10 4 12.5 2.5t2.5 -12.5q0 -56 -30 -93q-8 -10 -8 -11q-1 -2 0.5 -4t3 -4.5t2.5 -4.5q8 -15 9 -20q8 -26 26 -41
h-11q4 -4 7 -8.5t7 -10t6 -8.5q-12 -6 -13 -7q-21 -17 -32 -35q-23 -36 -72 -78q-45 -39 -105 -76q-5 -4 -10 -1q-85 54 -138 108q-26 26 -47 60q-11 19 -37 36q2 3 5.5 7.5t7.5 10t6 8.5h-2t-4 0.5t-4 0.5q10 7 17 18.5t13 25.5t12 22q-43 40 -42 108q0 8 2.5 9.5t9.5 -1.5
q18 -7 29 -14q7 -5 58 -39l1 -1l5 -3zM96 298q-9 -8 -15 -15l-1 -1l-2 1q-40 41 -38 108v8l-1 2l4 -2q13 -4 14 -4q21 -10 81 -53l2 -1l-2 -2q-4 -5 -39 -38zM99 301l1 -1l-2 -1q-1 0 -2 -1zM92 300q-24 33 -48 82q1 -58 36 -94zM97 305q32 30 37 35q-57 41 -79 51l-9 3
q7 -14 20 -39q4 -7 15.5 -25.5t15.5 -24.5zM31 189l-1 1l1 2l21 24l-6 1h-5l4 3q9 9 25 42q35 71 120 97q6 2 45 9q5 1 7 4q6 11 29 19h2v-2q1 -19 21 -23q91 -16 138 -85q7 -11 12 -23q1 -3 4.5 -11.5t5 -12.5t5.5 -10t8 -10l3 -3h-4q-1 -1 -6 -1l20 -24l1 -1l-2 -2
q-28 -19 -42 -42q-26 -41 -71 -77q-13 -11 -87 -65q-6 -5 -18 -12q-5 -3 -8 -1q-109 69 -163 134q-11 13 -15 21q-12 23 -44 48zM36 190q30 -24 43 -47q3 -7 14 -20q54 -65 162 -134q1 0 4 1l18 12q73 54 87 65q44 36 70 76q14 23 41 42l-21 26l-2 3h4h5q-6 8 -21 42
q-5 12 -12 22q-45 68 -135 84q-21 4 -23 24q-20 -6 -25 -16q-3 -5 -10 -6q-38 -7 -44 -9q-83 -25 -117 -95q-15 -31 -23 -40h2h3h4l-2 -3zM419 299q-3 1 -4 2l-41 41l-2 2l2 1q6 4 17 12t18 12.5t17 11t20 11t20 8.5h2v-2q5 -24 -4.5 -58.5t-32.5 -54.5l-2 -1l-1 2
q-7 10 -9 13zM422 302q2 -4 8 -12q21 19 30 50.5t5 54.5q-12 -4 -25 -11.5t-19.5 -11.5t-23 -15.5t-18.5 -13.5l39 -39l1 -1h2zM152 348q36 18 78 23q7 0 11 5q10 14 35 19l3 -2l1 -1l-1 -1q-3 -7 1 -13.5t13 -8.5q31 -7 39 -10q5 -1 36 -15q41 29 46 32q21 14 41 23
q7 3 11 3q7 0 7 -15q0 -57 -30 -94q-8 -10 -8 -11q-1 -1 2 -5t4 -6q7 -15 9 -20q8 -26 25 -40l4 -3l-5 -1h-5h-2l18 -24l1 -1l-2 -2l-12 -6q-22 -17 -33 -35q-22 -36 -71 -78q-46 -40 -106 -77q-6 -4 -12 0q-85 53 -138 107q-27 27 -48 61q-10 18 -37 35l-1 1l1 2l18 23
l-7 1h-6l5 3q13 10 25.5 36t14.5 29q-42 41 -41 108q0 6 1 8q3 7 14 2q17 -7 29 -14q8 -5 58 -39l2 -2l3 -1zM154 344v0l-11 -5h-1l-1 1l-4 2l-1 1q-51 35 -58 39q-11 7 -29 14q-7 3 -8 1t-1 -7q-1 -67 41 -107l1 -1l-1 -1q-3 -6 -14.5 -29.5t-23.5 -34.5h6h3l-2 -3l-19 -25
q26 -17 37 -35q20 -33 47 -60q53 -53 137 -107q4 -2 8 0q59 37 105 77q49 42 71 77q11 18 33 36q2 2 11 6l-18 25l-2 3h3h6q-15 15 -23 38q-1 5 -9 20q0 1 -2 3.5t-3.5 5t-1 5t2 5t4 5t3.5 2.5q29 37 29 92q0 11 -3 11t-9 -3q-20 -9 -40 -22q-4 -2 -48 -33h-1h-1
q-33 15 -36 16q-8 2 -39 9q-10 3 -15 9.5t-2 15.5q-22 -4 -31 -16q-5 -7 -14 -7q-40 -4 -76 -23zM31 189l-1 1l1 2l21 24l-6 1h-5l4 3q9 9 25 42q35 71 120 97q6 2 45 9q5 1 7 4q6 11 29 19h2v-2q1 -19 21 -23q91 -16 138 -85q7 -11 12 -23q1 -3 4.5 -11.5t5 -12.5t5.5 -10
t8 -10l3 -3h-4q-1 -1 -6 -1l20 -24l1 -1l-2 -2q-28 -19 -42 -42q-26 -41 -71 -77q-13 -11 -87 -65q-6 -5 -18 -12q-5 -3 -8 -1q-109 69 -163 134q-11 13 -15 21q-12 23 -44 48zM36 190q30 -24 43 -47q3 -7 14 -20q54 -65 162 -134q1 0 4 1l18 12q73 54 87 65q44 36 70 76
q14 23 41 42l-21 26l-2 3h4h5q-6 8 -21 42q-5 12 -12 22q-45 68 -135 84q-21 4 -23 24q-20 -6 -25 -16q-3 -5 -10 -6q-38 -7 -44 -9q-83 -25 -117 -95q-15 -31 -23 -40h2h3h4l-2 -3zM419 299q-3 1 -4 2l-41 41l-2 2l2 1q6 4 17 12t18 12.5t17 11t20 11t20 8.5h2v-2
q5 -24 -4.5 -58.5t-32.5 -54.5l-2 -1l-1 2q-7 10 -9 13zM422 302q2 -4 8 -12q21 19 30 50.5t5 54.5q-12 -4 -25 -11.5t-19.5 -11.5t-23 -15.5t-18.5 -13.5l39 -39l1 -1h2zM152 348q36 18 78 23q7 0 11 5q10 14 35 19l3 -2l1 -1l-1 -1q-3 -7 1 -13.5t13 -8.5q31 -7 39 -10
q5 -1 36 -15q41 29 46 32q21 14 41 23q7 3 11 3q7 0 7 -15q0 -57 -30 -94q-8 -10 -8 -11q-1 -1 2 -5t4 -6q7 -15 9 -20q8 -26 25 -40l4 -3l-5 -1h-5h-2l18 -24l1 -1l-2 -2l-12 -6q-22 -17 -33 -35q-22 -36 -71 -78q-46 -40 -106 -77q-6 -4 -12 0q-85 53 -138 107
q-27 27 -48 61q-10 18 -37 35l-1 1l1 2l18 23l-7 1h-6l5 3q13 10 25.5 36t14.5 29q-42 41 -41 108q0 6 1 8q3 7 14 2q17 -7 29 -14q8 -5 58 -39l2 -2l3 -1zM154 344v0l-11 -5h-1l-1 1l-4 2l-1 1q-51 35 -58 39q-11 7 -29 14q-7 3 -8 1t-1 -7q-1 -67 41 -107l1 -1l-1 -1
q-3 -6 -14.5 -29.5t-23.5 -34.5h6h3l-2 -3l-19 -25q26 -17 37 -35q20 -33 47 -60q53 -53 137 -107q4 -2 8 0q59 37 105 77q49 42 71 77q11 18 33 36q2 2 11 6l-18 25l-2 3h3h6q-15 15 -23 38q-1 5 -9 20q0 1 -2 3.5t-3.5 5t-1 5t2 5t4 5t3.5 2.5q29 37 29 92q0 11 -3 11
t-9 -3q-20 -9 -40 -22q-4 -2 -48 -33h-1h-1q-33 15 -36 16q-8 2 -39 9q-10 3 -15 9.5t-2 15.5q-22 -4 -31 -16q-5 -7 -14 -7q-40 -4 -76 -23zM419 299q-3 1 -4 2l-41 41l-2 2l2 1q6 4 17 12t18 12.5t17 11t20 11t20 8.5h2v-2q5 -24 -4.5 -58.5t-32.5 -54.5l-2 -1l-1 2
q-7 10 -9 13zM422 302q2 -4 8 -12q21 19 30 50.5t5 54.5q-12 -4 -25 -11.5t-19.5 -11.5t-23 -15.5t-18.5 -13.5l39 -39l1 -1h2zM152 348q36 18 78 23q7 0 11 5q10 14 35 19l3 -2l1 -1l-1 -1q-3 -7 1 -13.5t13 -8.5q31 -7 39 -10q5 -1 36 -15q41 29 46 32q21 14 41 23
q7 3 11 3q7 0 7 -15q0 -57 -30 -94q-8 -10 -8 -11q-1 -1 2 -5t4 -6q7 -15 9 -20q8 -26 25 -40l4 -3l-5 -1h-5h-2l18 -24l1 -1l-2 -2l-12 -6q-22 -17 -33 -35q-22 -36 -71 -78q-46 -40 -106 -77q-6 -4 -12 0q-85 53 -138 107q-27 27 -48 61q-10 18 -37 35l-1 1l1 2l18 23
l-7 1h-6l5 3q13 10 25.5 36t14.5 29q-42 41 -41 108q0 6 1 8q3 7 14 2q17 -7 29 -14q8 -5 58 -39l2 -2l3 -1zM154 344v0l-11 -5h-1l-1 1l-4 2l-1 1q-51 35 -58 39q-11 7 -29 14q-7 3 -8 1t-1 -7q-1 -67 41 -107l1 -1l-1 -1q-3 -6 -14.5 -29.5t-23.5 -34.5h6h3l-2 -3l-19 -25
q26 -17 37 -35q20 -33 47 -60q53 -53 137 -107q4 -2 8 0q59 37 105 77q49 42 71 77q11 18 33 36q2 2 11 6l-18 25l-2 3h3h6q-15 15 -23 38q-1 5 -9 20q0 1 -2 3.5t-3.5 5t-1 5t2 5t4 5t3.5 2.5q29 37 29 92q0 11 -3 11t-9 -3q-20 -9 -40 -22q-4 -2 -48 -33h-1h-1
q-33 15 -36 16q-8 2 -39 9q-10 3 -15 9.5t-2 15.5q-22 -4 -31 -16q-5 -7 -14 -7q-40 -4 -76 -23zM152 348q36 18 78 23q7 0 11 5q10 14 35 19l3 -2l1 -1l-1 -1q-3 -7 1 -13.5t13 -8.5q31 -7 39 -10q5 -1 36 -15q41 29 46 32q21 14 41 23q7 3 11 3q7 0 7 -15q0 -57 -30 -94
q-8 -10 -8 -11q-1 -1 2 -5t4 -6q7 -15 9 -20q8 -26 25 -40l4 -3l-5 -1h-5h-2l18 -24l1 -1l-2 -2l-12 -6q-22 -17 -33 -35q-22 -36 -71 -78q-46 -40 -106 -77q-6 -4 -12 0q-85 53 -138 107q-27 27 -48 61q-10 18 -37 35l-1 1l1 2l18 23l-7 1h-6l5 3q13 10 25.5 36t14.5 29
q-42 41 -41 108q0 6 1 8q3 7 14 2q17 -7 29 -14q8 -5 58 -39l2 -2l3 -1zM154 344v0l-11 -5h-1l-1 1l-4 2l-1 1q-51 35 -58 39q-11 7 -29 14q-7 3 -8 1t-1 -7q-1 -67 41 -107l1 -1l-1 -1q-3 -6 -14.5 -29.5t-23.5 -34.5h6h3l-2 -3l-19 -25q26 -17 37 -35q20 -33 47 -60
q53 -53 137 -107q4 -2 8 0q59 37 105 77q49 42 71 77q11 18 33 36q2 2 11 6l-18 25l-2 3h3h6q-15 15 -23 38q-1 5 -9 20q0 1 -2 3.5t-3.5 5t-1 5t2 5t4 5t3.5 2.5q29 37 29 92q0 11 -3 11t-9 -3q-20 -9 -40 -22q-4 -2 -48 -33h-1h-1q-33 15 -36 16q-8 2 -39 9q-10 3 -15 9.5
t-2 15.5q-22 -4 -31 -16q-5 -7 -14 -7q-40 -4 -76 -23zM167 234h3h4h1v-2q-5 -14 8 -30q12 11 10 26v3l2 -1q2 -2 5 -4q8 -4 11 -7q4 -3 2 -10q-2 -9 -10 -15t-18 -6t-16 6q-13 12 -16 29q-1 5 1 7.5t9 3.5h4zM223 157q-2 6 -2 9q-5 15 -21 15h-5h-5q-13 0 -20 2
q-31 8 -43 36q-6 15 2 27t24 12h4q9 -1 16 -3q34 -14 52 -43q17 -25 3 -51q-1 -1 -4 -5q0 -1 -1 -1v2v0zM185 190q-9 0 -16 5q-12 11 -15 28q-1 9 9 10h4h3h4q-5 -16 8 -33q15 12 12 29q15 -9 16 -11q4 -3 2 -9q-1 -6 -5 -10.5t-10 -6.5t-12 -2zM153 260q2 0 4 -1q9 0 16 -3
q34 -14 53 -44q17 -25 3 -51q-1 -1 -6 -9q-3 13 -3 14q-4 14 -20 14h-5h-2.5h-2.5q-13 0 -21 2q-31 8 -43 36q-7 16 1.5 29t25.5 13zM185 187q10 0 19 6q8 6 11 16q1 7 -3 11q-3 3 -11 7q-4 2 -5 4l-5 2l1 -5q2 -14 -9 -24q-11 14 -7 28l1 3h-3h-4h-3h-5q-6 0 -8.5 -3
t-1.5 -10q3 -17 16 -28q7 -7 17 -7zM153 257h4q9 -1 15 -3q34 -14 52 -43q16 -24 2 -49q0 -2 -2 -4q-1 6 -2 8q-5 16 -22 17h-5h-2h-1h-2q-13 0 -20 1q-30 8 -42 35q-6 15 1.5 26.5t23.5 11.5v0zM315 232l3 1l-1 -2q-2 -14 11 -26q12 15 7 31v1h2h4q8 0 11 -1q6 -2 5 -8
q-3 -22 -19 -33q-5 -4 -13 -4q-10 0 -18 6t-10 15t5 13q3 2 9 5q3 1 4 2zM283 155q-17 23 -8 45q21 48 73 58q3 1 6 1q15 0 23 -12q9 -14 0 -32q-8 -15 -24 -24.5t-35 -9.5h-5h-7q-17 0 -21 -16q-1 -3 -2 -8v-2v0zM328 203q13 16 9 33q14 -1 15 -1q5 -2 4 -7q-3 -22 -19 -32
q-5 -3 -12 -3q-9 0 -17 5.5t-10 13.5t5 12q0 1 13 7q-2 -15 12 -28zM354 260q15 0 24 -12q10 -15 0 -34q-8 -15 -24.5 -24.5t-35.5 -9.5h-5h-7q-16 0 -20 -16l-2 -12q-20 25 -10 48q21 49 73 59q4 1 7 1zM327 207q-11 10 -9 24l1 5l-4 -3q-2 -1 -5 -2q-6 -3 -9 -5
q-8 -4 -5 -15q2 -9 11 -15q8 -6 18 -6q8 0 14 4q16 11 20 34q0 2 -2 5.5t-4 3.5q-4 1 -12 1h-4l-4 1l1 -4q5 -15 -7 -28zM354 257q14 0 22 -11q9 -13 0 -31q-5 -10 -14 -17.5t-20.5 -11.5t-23.5 -4h-5q-4 1 -7 1q-18 0 -22 -18q-1 -2 -2 -7q-14 21 -6 41q11 24 29 38.5
t43 19.5h6v0zM255 107q-2 0 -4 1q-2 2 -7 6q-8 6 -12 10q-1 0 -1 2h2h11h5h6h6h6h10h2q-1 -1 -1 -2l-15 -12q-4 -3 -5 -4q-2 -1 -3 -1v0zM267 128h10l4 -2l-2 -3q-3 -3 -19 -16q-3 -2 -5.5 -2t-4.5 2q-1 0 -8.5 6t-10.5 9q-1 1 -3 5q4 1 5 1h11h3h4.5h3.5h6h6zM267 124h8
q-4 -3 -13 -10q-3 -2 -5 -4q-1 -1 -2 -1t-3 1q-2 2 -7 5q-7 6 -10 9h9h5h6h6h6v0zM85 174q25 -28 75 -87t76 -88q-7 3 -76.5 83.5t-74.5 91.5v0zM85 175q25 -28 75.5 -87t76.5 -87l6 -7l-8 3q-8 4 -78 84t-76 92l-5 12zM242 63q6 2 13.5 2t13.5 -2h-27zM256 67q-16 0 -22 -6
h42q-6 6 -20 6v0zM420 301q15 29 16 30q2 5 28 52v-1q-19 -48 -39 -77l-5 -5v1zM433 322q11 18 21 38q-12 -21 -16 -30q-2 -3 -5 -8zM418 302q15 28 16 30q3 6 8 14.5t9 15.5t8.5 15.5t7.5 14.5l2 3l2 -3l1 -3q-19 -47 -46 -85l-4 -5l-11 -12zM427 174q-25 -28 -75 -87
t-76 -88l-6 -6l8 3q8 4 77.5 84t75.5 92l5 12z" />
    <glyph glyph-name="uniF103" unicode="&#xf103;" 
d="M51 205l90 -91l-90 -74v165zM461 39l-91 75l91 92v-167zM77 280v-46l-26 26zM435 280l26 -20l-26 -26v46zM51 -10l205 169l205 -170v-2h-410v3zM256 422l65 -51h-130zM243 199l-72 -61l-69 70v93v45h57h194h57v-45v-93l-69 -70l-73 61q-12 10 -25 0z" />
    <glyph glyph-name="uniF104" unicode="&#xf104;" 
d="M472 -31q0 -2 -0.5 -3l-1.5 -3l-1 -1v-1q-2 -1 -3 -2q-1 0 -1.5 -0.5l-0.5 -0.5l-3 -1h-1h-1h-406q-2 0 -4 1h-1q-1 0 -3 2q-1 1 -2 1v1l-0.5 0.5t-0.5 1.5q-1 1 -1 2q-1 1 -1 3v1v249v1q0 2 0.5 3t1 2.5t1.5 2t2 1.5q0 1 1 1l54 33v142q0 10 4.5 18.5t13 13t18.5 4.5
h240q8 0 14.5 -2.5t11 -7.5t7.5 -11.5t3 -14.5v-142l54 -33q1 0 1 -1q1 -1 2 -1.5t1.5 -2t0.5 -2.5q1 -1 1 -2v-1.5v-0.5v-249v-1zM67 185v-186l119 100zM256 123l-166 -139h332zM326 99l119 -100v186zM136 417q-5 0 -8 -3.5t-3 -8.5v-228l83 -60l29 25q-8 1 -14 2v23h14
l2 -8h14q15 0 15 10q0 6 -11 11l-14 6q-12 6 -17 11.5t-5 15.5q0 22 26 26v13h19v-13q14 -1 22 -3v-22h-14l-1 7q-6 1 -14 1q-15 0 -15 -8q0 -6 11 -11l13 -6q23 -10 23 -28q0 -19 -18 -25l31 -27l83 60v228q0 5 -3 8.5t-8 3.5h-240zM160 359v20h192v-20h-192zM160 324v20
h192v-20h-192zM160 291v19h192v-19h-192z" />
    <glyph glyph-name="uniF105" unicode="&#xf105;" 
d="M412 141l74 -36l-230 -111l-231 111l74 36l16 -8l-57 -28l198 -95l198 95l-58 28zM396 220l16 7l74 -35l-230 -111l-231 111l74 35l16 -7l-57 -28l198 -95l198 95zM486 279l-230 -111l-231 111l231 111z" />
    <glyph glyph-name="uniF106" unicode="&#xf106;" 
d="M437 294q28 0 46.5 -20t18.5 -49v-192h-492v192q0 19 9 35t24.5 25t33.5 9h360zM147 139q18 0 31 13t13 31.5t-13 31.5t-31.5 13t-31.5 -13t-13 -31q0 -13 6 -23t16.5 -16t22.5 -6zM372 139q18 0 31 13t13 31.5t-13 31.5t-31.5 13t-31 -13t-12.5 -31q0 -13 5.5 -23
t16 -16t22.5 -6zM103 16h304q7 0 11.5 -5t4.5 -11q0 -5 -2 -8.5t-5.5 -6t-8.5 -2.5h-304q-6 0 -11 5t-5 11.5t5 11.5t11 5zM155 -31h204q4 0 7.5 -2.5t5.5 -6t2 -8.5q0 -6 -4.5 -11t-10.5 -5h-204q-5 0 -8.5 2.5t-5.5 6t-2 8t2 8t5.5 6t8.5 2.5zM293 415q0 -19 -17 -28v-55
q0 -7 -4 -12t-11 -5t-11 5t-4 12v56q-16 9 -16 27q0 14 9 23.5t22.5 9.5t22.5 -9.5t9 -23.5z" />
    <glyph glyph-name="uniF107" unicode="&#xf107;" 
d="M426 208l72 -196h-484l72 196h96l-54 77h63v163h130v-163h63l-54 -77h96zM101 186l-56 -153h422l-56 153h-96l-59 -85l-59 85h-96zM14 -28v22h484v-22h-484zM14 -64v22h484v-22h-484z" />
    <glyph glyph-name="uniF108" unicode="&#xf108;" 
d="M51 11h400q14 0 25 6l-4 -39q-2 -14 -13 -24t-26 -10h-364q-15 0 -26.5 10t-12.5 24l-4 39q11 -6 25 -6zM451 209q15 0 25.5 -10.5t10.5 -24.5v-110q0 -19 -17 -30q-1 -1 -3 -2h-1q-1 -1 -2 -1l-1 -1h-3l-1 -1h-3h-1q-2 -1 -4 -1h-400q-2 0 -4 1h-1h-1h-2l-1 1h-3t-1 1
q-1 0 -3 1v0q-2 1 -3 2h-1q-16 11 -16 30v110q0 14 10.5 24.5t25.5 10.5h134v-50q0 -17 9 -32.5t24 -24t33 -8.5q27 0 46 19t19 46v50h135zM203 231q23 -13 48 -13t48 13v-72q0 -19 -14 -33t-34 -14t-34 14t-14 33v72zM220 245q-28 12 -46.5 42t-18.5 60q8 -7 20 -14
q32 -18 76 -18t76 18q11 7 20 15v-1q0 -25 -13.5 -51t-34.5 -42v0q-8 -6 -17 -9v-1l-6 -2q-6 -2 -12 -3h-1q-2 -1 -5 -1h-1h-6.5h-5.5h-2t-4 1h-2q-5 1 -11 3h-1q-2 1 -5 2v1zM155 386q0 15 13 27t35 19.5t48 7.5q40 0 68 -16t28 -38t-28 -37.5t-68 -15.5t-68 15.5t-28 37.5
z" />
    <glyph glyph-name="uniF109" unicode="&#xf109;" 
d="M356 438l143 -143v-203l-143 -143h-203l-143 143v203l143 143h203zM490 95v194l-137 137h-194l-137 -137v-2v-192l137 -137h194zM349 415l130 -130v-186l-130 -130h-186l-130 130v186l130 130h186z" />
    <glyph glyph-name="uniF10A" unicode="&#xf10a;" 
d="M341 192q0 35 -25 60t-60 25t-60 -25t-25 -60t25 -60t60 -25t60 25t25 60zM512 228v-74q0 -10 -9 -12l-62 -9q-6 -18 -13 -30q12 -17 36 -46q3 -4 3 -9q0 -4 -3 -7q-9 -13 -33 -36.5t-31 -23.5q-4 0 -9 3l-46 36q-15 -8 -30 -13q-6 -45 -10 -62q-2 -9 -12 -9h-74
q-11 0 -12 10l-9 61q-17 6 -30 13l-47 -36q-4 -3 -8.5 -3t-8.5 4l-3 3q-39 35 -52 53q-2 3 -2 7t2 8q5 7 17 22t18 24q-9 16 -13 33l-61 9q-10 1 -10 12v74q0 10 9 12l62 9q5 15 13 31q-13 19 -36 46q-3 4 -3 8q0 3 3 7q9 12 33 36t31 24q5 0 9 -3l46 -36q15 8 30 13
q6 45 10 62q2 9 12 9h74q11 0 12 -10l9 -61q17 -6 30 -13l48 36q3 3 8 3q4 0 8 -3q43 -40 55 -57q2 -3 2 -7t-2 -8q-5 -6 -11.5 -14.5t-13 -16.5t-10.5 -15q8 -16 13 -32l61 -10q10 -1 10 -12z" />
    <glyph glyph-name="uniF10B" unicode="&#xf10b;" 
d="M447 61l-217 -125v250l24 14l193 111v-250zM223 448l87 -50l-216 -125l-87 50zM343 379l97 -56l-136 -79l-81 -46l-81 47l-16 9zM117 173l2 3v67l98 -57v-250l-217 125v250l88 -50v-69l1 -4l2 3l1 -5l3 3l1 -5l3 3l1 -5l3 3l1 -5l3 2l2 -5l3 3l1 -5l2 3z" />
    <glyph glyph-name="uniF10C" unicode="&#xf10c;" 
d="M256 448q106 0 181 -75t75 -181t-75 -181t-181 -75t-181 75t-75 181t75 181t181 75zM439 143h-44v35h44q4 0 7.5 3.5t3.5 7.5q0 3 -1.5 5.5t-4 4t-5.5 1.5h-44v35h44q4 0 7.5 3.5t3.5 8t-3.5 7.5t-7.5 3h-44v36q0 16 -11 27t-27 11h-33v41q0 5 -3 8t-7.5 3t-8 -3t-3.5 -8
v-41h-35v41q0 5 -3 8t-8 3t-8 -3t-3 -8v-41h-35v41q0 5 -3 8t-7.5 3t-8 -3t-3.5 -8v-41h-33q-16 0 -27 -11t-11 -27v-36h-44q-4 0 -7.5 -3t-3.5 -7.5t3.5 -8t7.5 -3.5h44v-35h-44q-4 0 -7.5 -3t-3.5 -7.5t3.5 -8t7.5 -3.5h44v-35h-44q-4 0 -7.5 -3t-3.5 -7.5t3.5 -8
t7.5 -3.5h44v-30q0 -16 11 -27t27 -11h33v-46q0 -5 3 -8t8 -3q3 0 5.5 1.5t4 4t1.5 5.5v46h35v-46q0 -5 3 -8t8 -3t8 3t3 8v46h35v-46q0 -5 3 -8t7.5 -3t8 3t3.5 8v46h33q16 0 27 11t11 27v30h44q4 0 7.5 3.5t3.5 8t-3.5 7.5t-7.5 3zM335 83h-158q-12 0 -21 9t-9 21v158
q0 12 9 21t21 9h158q12 0 21 -9t9 -21v-158q0 -12 -9 -21t-21 -9zM177 281q-4 0 -7 -3t-3 -7v-158q0 -4 3 -7t7 -3h158q4 0 7 3t3 7v158q0 4 -3 7t-7 3h-158z" />
    <glyph glyph-name="uniF10D" unicode="&#xf10d;" 
d="M475 448l36 -35l-468 -483l-43 43l125 126l-22 169h192l47 47h-214h-7.5h-7h-6t-5 0.5t-3.5 1t-2.5 2t-0.5 3.5v33q0 7 9 11.5t23 4.5l65 6l24 27h102l25 -27l56 -4zM141 -14l282 282h12l-39 -303q0 -9 -6.5 -15.5t-16.5 -6.5h-103h-104q-9 0 -15.5 6.5t-6.5 15.5z" />
    <glyph glyph-name="uniF10E" unicode="&#xf10e;" 
d="M472 321q4 -2 4 -6v-246q0 -4 -4 -6l-212 -123q-1 -1 -4 -1t-4 1l-212 123q-4 2 -4 6v246q0 4 4 6l212 123q4 2 8 0zM369 252l-108 -64v-124l108 63v125zM251 189l-109 63v-125l109 -63v125zM256 197l108 63l-108 63l-108 -63zM374 265l82 49l-195 112v-96zM251 330v95
l-195 -113l82 -47zM133 257l-82 48v-226l82 48v130zM138 119l-82 -49l195 -111v95zM261 54v-95l195 113l-82 47zM379 127l82 -48v226l-82 -48v-130z" />
    <glyph glyph-name="uniF10F" unicode="&#xf10f;" 
d="M256 -43q-11 5 -24.5 13t-46 37.5t-57 64.5t-44.5 96t-20 131l192 128l192 -128q0 -53 -10.5 -100t-27.5 -80.5t-37.5 -61.5t-41 -46t-37.5 -30.5t-27 -17.5zM311 243l-76 -76l-34 34l-30 -30l64 -64l106 106z" />
    <glyph glyph-name="uniF110" unicode="&#xf110;" 
d="M256 -43q-11 5 -24.5 13t-46 37.5t-57 64.5t-44.5 96t-20 131l192 128l192 -128q0 -53 -10.5 -100t-27.5 -80.5t-37.5 -61.5t-41 -46t-37.5 -30.5t-27 -17.5zM107 276q3 -58 20 -107t42.5 -81.5t45.5 -50.5t41 -31q20 12 40 30.5t45.5 50.5t43 81.5t20.5 107.5l-149 99z
M235 107l-64 64l30 30l34 -34l76 76l30 -30z" />
    <glyph glyph-name="uniF111" unicode="&#xf111;" 
d="M256 -43q-11 5 -24.5 13t-46 37.5t-57 64.5t-44.5 96t-20 131l192 128l192 -128q0 -53 -10.5 -100t-27.5 -80.5t-37.5 -61.5t-41 -46t-37.5 -30.5t-27 -17.5zM331 237l-30 30l-45 -45l-45 45l-30 -30l45 -45l-45 -45l30 -30l45 45l45 -45l30 30l-45 45z" />
    <glyph glyph-name="uniF112" unicode="&#xf112;" 
d="M256 -43q-11 5 -24.5 13t-46 37.5t-57 64.5t-44.5 96t-20 131l192 128l192 -128q0 -53 -10.5 -100t-27.5 -80.5t-37.5 -61.5t-41 -46t-37.5 -30.5t-27 -17.5zM107 276q3 -58 20 -107t42.5 -81.5t45.5 -50.5t41 -31q20 12 40 30.5t45.5 50.5t43 81.5t20.5 107.5l-149 99z
M301 117l-45 45l-45 -45l-30 30l45 45l-45 45l30 30l45 -45l45 45l30 -30l-45 -45l45 -45z" />
    <glyph glyph-name="uniF113" unicode="&#xf113;" 
d="M256 -43q-11 5 -24.5 13t-46 37.5t-57 64.5t-44.5 96t-20 131l192 128l192 -128q0 -53 -10.5 -100t-27.5 -80.5t-37.5 -61.5t-41 -46t-37.5 -30.5t-27 -17.5zM341 235l-85 -22l21 128l-106 -191l-1 -1h1l85 22l-21 -128zM256 171z" />
    <glyph glyph-name="uniF114" unicode="&#xf114;" 
d="M371 137q31 65 34 139l-149 100l-74 -50l-31 31l105 70l192 -128v-7q0 -100 -46 -188zM482 -34l-30 -30l-98 98q-41 -47 -96 -76q-2 0 -21 10.5t-48 36.5t-57 62.5t-48 98t-20 133.5l15 10l-79 79l30 30zM108 276q2 -58 19 -107t42.5 -81t46 -50.5t40.5 -31.5
q39 25 68 58l-214 214z" />
    <glyph glyph-name="uniF115" unicode="&#xf115;" 
d="M256 214q83 0 142 17t59 41v-73q-2 -24 -60.5 -40.5t-140.5 -16.5q-54 0 -100 7.5t-73 20.5t-28 29v74v0v-1q0 -24 59 -41t142 -17zM457 273v0v0zM256 125q83 0 142 16.5t59 40.5v-73q-2 -24 -60.5 -40.5t-140.5 -16.5t-140.5 16.5t-60.5 40.5v75v-1q0 -25 59 -41.5
t142 -16.5zM457 183v1v-1zM256 35q55 0 101 7.5t73 21t27 28.5v-73q-2 -24 -60.5 -40.5t-140.5 -16.5t-140.5 16.5t-60.5 40.5v75v-1q0 -24 59 -41t142 -17zM457 93v1v-1zM256 422q86 0 145 -18l-144 -40l-38 57q19 1 37 1zM457 364v0v0v-74q-1 -11 -17 -21.5t-43 -18.5
t-64 -12.5t-77 -4.5q-23 0 -46 2v72l46 57l-72 -54v-73q-43 5 -74 15v73l146 40l1 -1l175 28q25 -13 25 -28zM256 365h-2l-143 40q36 10 85 15zM78 265q-22 12 -23 25v75q1 15 25 27l173 -27l-175 -28v-72z" />
    <glyph glyph-name="uniF116" unicode="&#xf116;" 
d="M12 122q-7 11 -4 24l43 187q4 15 17 21l175 83q5 3 11 3q8 1 15 -3l175 -83q13 -6 16 -21l44 -187q3 -14 -6 -26l-121 -150q-9 -12 -24 -12h-194q-15 0 -24 12l-121 150l-1 -1zM254 445q-7 0 -14 -3l-174 -83q-16 -8 -20 -25l-43 -187q-3 -15 5 -27l1 -2l1 -1l121 -150
q11 -14 28 -14h194q17 0 28 14l121 150q10 13 6 30l-43 187q-3 17 -19 25l-175 83q-8 4 -17 3zM254 443q9 0 16 -3l175 -84q14 -7 18 -22l43 -188q4 -15 -6 -28l-121 -150q-10 -12 -26 -12h-194q-16 0 -26 12l-121 150q-1 2 -2 3q-7 12 -4 25l43 188q3 15 18 22l174 84
q6 3 13 3zM401 292q10 8 3 16.5t-17 1.5zM391 172q3 24 -2.5 48.5t-19.5 45.5zM395 150q6 -1 19 -5l3.5 -1.5t5.5 -2.5l3 -1q12 -2 14.5 8.5t-9.5 13.5l-3 1h-3.5t-3.5 0.5t-3 0.5q-14 1 -19 3q-1 0 -4 4v-21zM323 26q5 -11 15 -6t5 16l-1 2l-1 1q0 1 -1 2.5t-2.5 3
t-1.5 2.5q-7 11 -9 16q-1 2 0 6zM208 63q38 -15 78 -5q10 2 18 5h-96zM185 69q1 -4 1 -5q-3 -6 -10 -17q0 -1 -1.5 -2.5t-2.5 -3t-1 -3.5h-1l-1 -2q-5 -11 5 -16t15 6zM113 166q-6 -1 -19 -3h-4h-6v-1h-3q-12 -3 -9.5 -13.5t14.5 -8.5l2 1h1l9 4q13 4 18 5q2 0 6 -2z
M124 310q-3 2 -7 2q-6 1 -9 -3q-7 -9 3 -17zM244 326q-9 0 -19 -2q-40 -10 -68 -40zM246 368q0 11 10 11t10 -11h-20zM266 365q0 -2 -0.5 -3.5t-0.5 -3.5t-1 -3q-1 -14 -1 -19v0q1 -3 4 -6l4 -4l87 -40q5 0 7 1v0q4 3 14 13l7 7zM388 309q9 7 15 -1t-3 -15zM398 292
q-1 -1 -2.5 -2t-3.5 -2t-3 -1q-11 -8 -15 -11v0q-2 -2 -2 -7l-1 -6l-231 6q0 5 -2 6v0q-4 4 -16 11q0 1 -3.5 2.5t-4.5 2.5zM323 29q-1 2 -1.5 3.5t-1 3.5t-0.5 3q-5 13 -8 18v0q-1 2 -5 3l-5 2l92 108q3 -4 5 -5v0q5 -1 19 -3h4h6l3 -1q10 -3 8 -12.5t-13 -6.5h-3
q-1 1 -2.5 1.5t-3.5 1.5t-3 1q-13 5 -18 5v0q-3 1 -7 -2l-4 -3l-17 120q14 -21 19.5 -45.5t2.5 -48.5zM188 27q-5 -10 -13.5 -6t-4.5 14l2 3q0 1 1 2.5t2.5 3t1.5 2.5q8 12 10 17v0q0 2 -1 7l-2 5l142 -5q-1 -5 -1 -7v0q2 -5 10 -17q0 -1 1.5 -2.5t2.5 -3t1 -2.5l2 -3
q4 -10 -4.5 -14t-13.5 6h-136zM158 284q28 29 68 38q9 2 18 3l-121 -176q-5 2 -7 2v0q-5 -1 -18 -5l-3.5 -1.5t-5.5 -2.5l-3 -1q-11 -2 -13 7.5t8 12.5h3q2 1 3.5 1h3.5h3q14 2 19 3v0q2 1 5 5l3 4l183 -110q-9 -3 -18 -5q-40 -9 -78 5zM126 307q1 -1 2 -2.5t2.5 -3
t2.5 -1.5q9 -10 14 -13v0q2 -2 7 -1l5 1l46 -227q-3 -1 -4.5 -2.5t-8.5 -18.5v0q0 -1 -0.5 -3t-1 -3.5t-1.5 -3.5zM111 293q-8 7 -2 15q3 3 8 3q4 0 7 -2zM302 62l-57 268q3 3 4 6v0q0 5 -1 19q-1 0 -1.5 3.5t-0.5 6.5zM244 325zM241 250l3 49h-1q-6 -1 -11 -2
q-31 -7 -53 -29l45 -32l-43 32q21 21 51 28q5 1 10 1q0 -7 -0.5 -17t-1.5 -19.5t-1 -17.5t-9 -8h-1q-3 0 -1 -1l3 -1zM223 237q4 -3 7 -3q9 0 10 9zM291 238l42 30h-1q-26 26 -63 31h-1l4 -56l-2 54q35 -4 61 -29q-8 -5 -22.5 -15.5t-21.5 -15.5t-12 1l-2 2zM201 215l-38 33
q-19 -32 -15 -69l53 15v21zM197 193q7 2 9 4q6 8 -1 14zM164 246q7 -6 20 -18t20 -18q6 -5 1 -12q-2 -2 -4 -3q-9 -2 -26.5 -7t-25.5 -8q-4 36 15 66zM317 192l47 -13q2 18 -2 36q-4 17 -14 33l-41 -37l41 35q9 -14 13 -31.5t2 -34.5q-9 3 -26 8t-26 7q-8 3 -6 11v3l-3 -3z
M308 213q-4 -4 -4 -7q-2 -9 6 -12zM248 209h-1v-1l-10 -13h-1l4 -17h1l15 -7v0l15 7h1l3 17v0l-10 13v1h-1h-16zM248 207h16l10 -12l-4 -16l-14 -7l-15 7l-3 16zM303 163l54 -10q-12 -33 -42 -53l-24 57l23 -58v-1l1 1q31 20 44 55l-58 10l-3 -1q-9 -4 -5 -13zM210 162
q7 0 8 -6q1 -3 0 -6q-4 -9 -10.5 -25t-10.5 -25q-30 20 -42 53l53 9h2zM217 145q3 8 3 11q-2 7 -10 8h-2l-55 -10h1q12 -35 43 -55l1 -1zM260 139q2 -1 4 -3q3 -7 8 -15.5t9.5 -17t8.5 -15.5l-10 -2q-29 -7 -58 2l28 50l-29 -50h-1l1 -1q29 -9 59 -3q6 2 11 3l1 1l-27 48z
M267 132q-1 3 -2.5 5.5t-2.5 2.5t-2 1l-2 1l-2 -1q-6 0 -9 -5zM241 250l3 49h-1q-6 -1 -11 -2q-31 -7 -53 -29l45 -32l-43 32q21 21 51 28q5 1 10 1q0 -7 -0.5 -17t-1.5 -19.5t-1 -17.5t-9 -8h-1q-3 0 -1 -1l3 -1zM223 237q4 -3 7 -3q9 0 10 9zM291 238l42 30h-1
q-26 26 -63 31h-1l4 -56l-2 54q35 -4 61 -29q-8 -5 -22.5 -15.5t-21.5 -15.5t-12 1l-2 2zM201 215l-38 33q-19 -32 -15 -69l53 15v21zM197 193q7 2 9 4q6 8 -1 14zM164 246q7 -6 20 -18t20 -18q6 -5 1 -12q-2 -2 -4 -3q-9 -2 -26.5 -7t-25.5 -8q-4 36 15 66zM317 192l47 -13
q2 18 -2 36q-4 17 -14 33l-41 -37l41 35q9 -14 13 -31.5t2 -34.5q-9 3 -26 8t-26 7q-8 3 -6 11v3l-3 -3zM308 213q-4 -4 -4 -7q-2 -9 6 -12zM248 209h-1v-1l-10 -13h-1l4 -17h1l15 -7v0l15 7h1l3 17v0l-10 13v1h-1h-16zM248 207h16l10 -12l-4 -16l-14 -7l-15 7l-3 16z
M303 163l54 -10q-12 -33 -42 -53l-24 57l23 -58v-1l1 1q31 20 44 55l-58 10l-3 -1q-9 -4 -5 -13zM210 162q7 0 8 -6q1 -3 0 -6q-4 -9 -10.5 -25t-10.5 -25q-30 20 -42 53l53 9h2zM217 145q3 8 3 11q-2 7 -10 8h-2l-55 -10h1q12 -35 43 -55l1 -1zM260 139q2 -1 4 -3
q3 -7 8 -15.5t9.5 -17t8.5 -15.5l-10 -2q-29 -7 -58 2l28 50l-29 -50h-1l1 -1q29 -9 59 -3q6 2 11 3l1 1l-27 48zM267 132q-1 3 -2.5 5.5t-2.5 2.5t-2 1l-2 1l-2 -1q-6 0 -9 -5zM291 238l42 30h-1q-26 26 -63 31h-1l4 -56l-2 54q35 -4 61 -29q-8 -5 -22.5 -15.5t-21.5 -15.5
t-12 1l-2 2zM201 215l-38 33q-19 -32 -15 -69l53 15v21zM197 193q7 2 9 4q6 8 -1 14zM164 246q7 -6 20 -18t20 -18q6 -5 1 -12q-2 -2 -4 -3q-9 -2 -26.5 -7t-25.5 -8q-4 36 15 66zM317 192l47 -13q2 18 -2 36q-4 17 -14 33l-41 -37l41 35q9 -14 13 -31.5t2 -34.5q-9 3 -26 8
t-26 7q-8 3 -6 11v3l-3 -3zM308 213q-4 -4 -4 -7q-2 -9 6 -12zM248 209h-1v-1l-10 -13h-1l4 -17h1l15 -7v0l15 7h1l3 17v0l-10 13v1h-1h-16zM248 207h16l10 -12l-4 -16l-14 -7l-15 7l-3 16zM303 163l54 -10q-12 -33 -42 -53l-24 57l23 -58v-1l1 1q31 20 44 55l-58 10l-3 -1
q-9 -4 -5 -13zM210 162q7 0 8 -6q1 -3 0 -6q-4 -9 -10.5 -25t-10.5 -25q-30 20 -42 53l53 9h2zM217 145q3 8 3 11q-2 7 -10 8h-2l-55 -10h1q12 -35 43 -55l1 -1zM260 139q2 -1 4 -3q3 -7 8 -15.5t9.5 -17t8.5 -15.5l-10 -2q-29 -7 -58 2l28 50l-29 -50h-1l1 -1q29 -9 59 -3
q6 2 11 3l1 1l-27 48zM267 132q-1 3 -2.5 5.5t-2.5 2.5t-2 1l-2 1l-2 -1q-6 0 -9 -5zM201 215l-38 33q-19 -32 -15 -69l53 15v21zM197 193q7 2 9 4q6 8 -1 14zM164 246q7 -6 20 -18t20 -18q6 -5 1 -12q-2 -2 -4 -3q-9 -2 -26.5 -7t-25.5 -8q-4 36 15 66zM317 192l47 -13
q2 18 -2 36q-4 17 -14 33l-41 -37l41 35q9 -14 13 -31.5t2 -34.5q-9 3 -26 8t-26 7q-8 3 -6 11v3l-3 -3zM308 213q-4 -4 -4 -7q-2 -9 6 -12zM248 209h-1v-1l-10 -13h-1l4 -17h1l15 -7v0l15 7h1l3 17v0l-10 13v1h-1h-16zM248 207h16l10 -12l-4 -16l-14 -7l-15 7l-3 16z
M303 163l54 -10q-12 -33 -42 -53l-24 57l23 -58v-1l1 1q31 20 44 55l-58 10l-3 -1q-9 -4 -5 -13zM210 162q7 0 8 -6q1 -3 0 -6q-4 -9 -10.5 -25t-10.5 -25q-30 20 -42 53l53 9h2zM217 145q3 8 3 11q-2 7 -10 8h-2l-55 -10h1q12 -35 43 -55l1 -1zM260 139q2 -1 4 -3
q3 -7 8 -15.5t9.5 -17t8.5 -15.5l-10 -2q-29 -7 -58 2l28 50l-29 -50h-1l1 -1q29 -9 59 -3q6 2 11 3l1 1l-27 48zM267 132q-1 3 -2.5 5.5t-2.5 2.5t-2 1l-2 1l-2 -1q-6 0 -9 -5zM317 192l47 -13q2 18 -2 36q-4 17 -14 33l-41 -37l41 35q9 -14 13 -31.5t2 -34.5q-9 3 -26 8
t-26 7q-8 3 -6 11v3l-3 -3zM308 213q-4 -4 -4 -7q-2 -9 6 -12zM248 209h-1v-1l-10 -13h-1l4 -17h1l15 -7v0l15 7h1l3 17v0l-10 13v1h-1h-16zM248 207h16l10 -12l-4 -16l-14 -7l-15 7l-3 16zM303 163l54 -10q-12 -33 -42 -53l-24 57l23 -58v-1l1 1q31 20 44 55l-58 10l-3 -1
q-9 -4 -5 -13zM210 162q7 0 8 -6q1 -3 0 -6q-4 -9 -10.5 -25t-10.5 -25q-30 20 -42 53l53 9h2zM217 145q3 8 3 11q-2 7 -10 8h-2l-55 -10h1q12 -35 43 -55l1 -1zM260 139q2 -1 4 -3q3 -7 8 -15.5t9.5 -17t8.5 -15.5l-10 -2q-29 -7 -58 2l28 50l-29 -50h-1l1 -1q29 -9 59 -3
q6 2 11 3l1 1l-27 48zM267 132q-1 3 -2.5 5.5t-2.5 2.5t-2 1l-2 1l-2 -1q-6 0 -9 -5zM248 209h-1v-1l-10 -13h-1l4 -17h1l15 -7v0l15 7h1l3 17v0l-10 13v1h-1h-16zM248 207h16l10 -12l-4 -16l-14 -7l-15 7l-3 16zM303 163l54 -10q-12 -33 -42 -53l-24 57l23 -58v-1l1 1
q31 20 44 55l-58 10l-3 -1q-9 -4 -5 -13zM210 162q7 0 8 -6q1 -3 0 -6q-4 -9 -10.5 -25t-10.5 -25q-30 20 -42 53l53 9h2zM217 145q3 8 3 11q-2 7 -10 8h-2l-55 -10h1q12 -35 43 -55l1 -1zM260 139q2 -1 4 -3q3 -7 8 -15.5t9.5 -17t8.5 -15.5l-10 -2q-29 -7 -58 2l28 50
l-29 -50h-1l1 -1q29 -9 59 -3q6 2 11 3l1 1l-27 48zM267 132q-1 3 -2.5 5.5t-2.5 2.5t-2 1l-2 1l-2 -1q-6 0 -9 -5zM303 163l54 -10q-12 -33 -42 -53l-24 57l23 -58v-1l1 1q31 20 44 55l-58 10l-3 -1q-9 -4 -5 -13zM210 162q7 0 8 -6q1 -3 0 -6q-4 -9 -10.5 -25t-10.5 -25
q-30 20 -42 53l53 9h2zM217 145q3 8 3 11q-2 7 -10 8h-2l-55 -10h1q12 -35 43 -55l1 -1zM260 139q2 -1 4 -3q3 -7 8 -15.5t9.5 -17t8.5 -15.5l-10 -2q-29 -7 -58 2l28 50l-29 -50h-1l1 -1q29 -9 59 -3q6 2 11 3l1 1l-27 48zM267 132q-1 3 -2.5 5.5t-2.5 2.5t-2 1l-2 1l-2 -1
q-6 0 -9 -5zM210 162q7 0 8 -6q1 -3 0 -6q-4 -9 -10.5 -25t-10.5 -25q-30 20 -42 53l53 9h2zM217 145q3 8 3 11q-2 7 -10 8h-2l-55 -10h1q12 -35 43 -55l1 -1zM260 139q2 -1 4 -3q3 -7 8 -15.5t9.5 -17t8.5 -15.5l-10 -2q-29 -7 -58 2l28 50l-29 -50h-1l1 -1q29 -9 59 -3
q6 2 11 3l1 1l-27 48zM267 132q-1 3 -2.5 5.5t-2.5 2.5t-2 1l-2 1l-2 -1q-6 0 -9 -5zM260 139q2 -1 4 -3q3 -7 8 -15.5t9.5 -17t8.5 -15.5l-10 -2q-29 -7 -58 2l28 50l-29 -50h-1l1 -1q29 -9 59 -3q6 2 11 3l1 1l-27 48zM267 132q-1 3 -2.5 5.5t-2.5 2.5t-2 1l-2 1l-2 -1
q-6 0 -9 -5zM256 379q-4 0 -7.5 -3.5t-3.5 -7.5l1 -1l-1 -2q1 -3 1 -7l1 -3q2 -14 1 -19q0 -3 -3 -6l-1 -4q-9 -1 -18 -3q-41 -9 -69 -39q-2 1 -3 3q-5 -1 -7 0q-4 3 -14 13l-2 2q-3 4 -5 5l-2 2q-3 3 -7 3q-5 0 -9 -4q-6 -8 3 -15l2 -2q2 -1 3.5 -2l3 -2t2.5 -1
q11 -7 16 -11q1 -2 2 -6l3 -3q-29 -43 -21 -94l-5 -2q-3 -4 -4 -4q-5 -2 -19 -3l-4 -0.5t-6 -0.5l-3 -1v0q-11 -2 -8.5 -12.5t13.5 -7.5v0q3 0 3 1q2 0 6 2l3 1q13 5 18 5q2 1 6 -2l5 1q16 -49 60 -75l-2 -5q2 -4 1 -6q-2 -5 -9 -17q-1 -1 -2 -2.5t-2 -2.5t-2 -3l-0.5 -1.5
l-0.5 -1.5q-5 -10 4.5 -14.5t14.5 5.5v0v1l1 2q1 2 2 6l1 4q7 17 8 18.5t5 2.5l2 4q38 -15 78 -6q9 2 18 6q1 -1 1.5 -2.5l0.5 -1.5q5 -2 6 -4q3 -4 7 -17l1 -4t2 -6l1 -2q5 -11 14.5 -6.5t4.5 14.5l-1 3q-1 2 -2 3t-2 3t-2 3q-7 11 -9 16q-1 2 1 6q0 1 -1 3q-1 1 -1 2
q44 26 60 75h5q3 2 6 2q5 -1 18 -6l3.5 -1.5t5.5 -1.5q1 0 2 -0.5l1 -0.5v0q11 -2 13.5 8t-8.5 12q0 1 -1.5 1h-1.5q-2 0 -3.5 0.5t-3.5 0.5h-3q-14 1 -19 3q-2 1 -4 5l-5 1q4 24 -2 49q-5 24 -19 45l1.5 1.5l1.5 1.5q1 4 2 6q4 4 16 11l3.5 2t4.5 3q1 0 2 1l1 1
q9 7 2.5 15.5t-15.5 0.5q-2 -1 -2.5 -1.5t-6.5 -7.5q-10 -10 -15 -13q-1 -1 -6 0l-4 -3q-35 37 -87 42v4q-3 3 -3 6q-1 5 1 19q0 1 1 3v7v1v2q0 2 -0.5 4t-2 3.5t-3.5 2.5t-4 1zM243 298l-3 -55q-1 -9 -10 -9q-3 0 -5 2l-45 32q22 21 52 28q5 1 11 2zM269 298q36 -4 63 -30
l-45 -32q-7 -5 -13 2q-2 2 -2 5zM164 247l41 -36q6 -6 1 -13q-2 -3 -5 -3l-53 -16q-4 37 16 68zM348 247q9 -15 13 -32.5t3 -34.5l-53 15q-9 2 -7 11q1 3 3 5zM248 208h16l11 -13l-4 -16l-15 -8l-15 8l-4 16zM301 163h3l54 -9q-12 -35 -44 -55l-21 51q-3 8 5 12q2 1 3 1z
M210 163q7 0 9 -7q1 -3 -1 -6h1l-21 -51q-31 20 -44 55l54 9h2zM256 141q2 0 4 -1q3 -1 4 -4l27 -48q-5 -2 -11 -3q-30 -7 -59 3l27 48q2 5 8 5z" />
  </font>
</defs>
</svg>
