<?xml version="1.0" encoding="utf-8"?>
<!-- Generator: Adobe Illustrator 15.0.1, SVG Export Plug-In . SVG Version: 6.00 Build 0)  -->
<!DOCTYPE svg PUBLIC "-//W3C//DTD SVG 1.1//EN" "http://www.w3.org/Graphics/SVG/1.1/DTD/svg11.dtd">
<svg version="1.1" id="Layer_1" xmlns="http://www.w3.org/2000/svg" xmlns:xlink="http://www.w3.org/1999/xlink" x="0px" y="0px"
	 width="453.54px" height="453.54px" viewBox="0 0 453.54 453.54" enable-background="new 0 0 453.54 453.54" xml:space="preserve">
<g>
	<path fill="#608DA2" d="M35.218,327.768c0,0,6.968-3.055,15.596-5.071c8.628-2.019,32.723-5.351,38.561-6.217
		s9.791-1.617,9.791-1.617s-1.682-3.031,3.623-6.049c0,0-1.65,5.794,6.934,6.829c0,0-1.543,3.026-6.945,1.529
		c-5.403-1.498-23.869,18.74-50.771,15.825C52.005,332.997,35.635,333.734,35.218,327.768z"/>
	<path fill="#608DA2" d="M52.425,331.592c0,0,1.417-0.072,2.878,2.231c1.462,2.306,2.81,4.634,4.659,3.272
		c0,0,0.811-0.655-0.449-3.124s-1.633-2.268-3.502-3.169"/>
	<path fill="#CCCCCC" d="M35.778,328.087c0,0,20.057-1.34,23.473-1.82c3.416-0.48,13.04-1.496,15.736-2.264
		s23.476-6.962,25.139-7.27c1.664-0.308,7.606-0.167,7.836-0.738c0.229-0.572-6.029,0.688-5.465-6.043c0,0-3.349,0.708-3.042,4.812
		l0.079,0.359c0,0-21.463,3.516-25.714,3.978C69.568,319.562,46.746,322.869,35.778,328.087z"/>
</g>
<linearGradient id="SVGID_1_" gradientUnits="userSpaceOnUse" x1="225.002" y1="450.7471" x2="228.5022" y2="101.2466">
	<stop  offset="0" style="stop-color:#2E3192"/>
	<stop  offset="1" style="stop-color:#0071BC"/>
</linearGradient>
<path opacity="0.8" fill="url(#SVGID_1_)" d="M450.2,93.711c-3.546,0-3.546,2.115-7.091,2.115c-3.546,0-3.546-2.115-7.092-2.115
	s-3.546,2.115-7.09,2.115c-3.545,0-3.545-2.115-7.089-2.115c-3.545,0-3.545,2.115-7.089,2.115c-3.546,0-3.546-2.115-7.092-2.115
	s-3.546,2.115-7.092,2.115c-3.545,0-3.545-2.115-7.091-2.115s-3.546,2.115-7.091,2.115c-3.544,0-3.544-2.115-7.09-2.115
	c-3.545,0-3.545,2.115-7.089,2.115c-3.547,0-3.547-2.115-7.093-2.115c-3.547,0-3.547,2.115-7.093,2.115s-3.546-2.115-7.09-2.115
	c-3.546,0-3.546,2.115-7.091,2.115s-3.545-2.115-7.091-2.115c-3.547,0-3.547,2.115-7.093,2.115s-3.546-2.115-7.093-2.115
	c-3.546,0-3.546,2.115-7.09,2.115c-3.546,0-3.546-2.115-7.092-2.115c-3.547,0-3.547,2.115-7.093,2.115
	c-3.547,0-3.547-2.115-7.093-2.115s-3.546,2.115-7.092,2.115c-3.545,0-3.545-2.115-7.092-2.115c-3.546,0-3.546,2.115-7.093,2.115
	c-3.546,0-3.546-2.115-7.092-2.115c-3.547,0-3.547,2.115-7.092,2.115c-3.547,0-3.547-2.115-7.094-2.115
	c-3.546,0-3.546,2.115-7.092,2.115c-3.547,0-3.547-2.115-7.094-2.115s-3.547,2.115-7.093,2.115c-3.545,0-3.545-2.115-7.093-2.115
	c-3.547,0-3.547,2.115-7.092,2.115c-3.546,0-3.546-2.115-7.093-2.115s-3.547,2.115-7.095,2.115c-3.544,0-3.544-2.115-7.089-2.115
	s-3.544,2.115-7.088,2.115c-3.544,0-3.544-2.115-7.091-2.115c-3.546,0-3.546,2.115-7.093,2.115c-3.545,0-3.545-2.115-7.089-2.115
	c-3.546,0-3.546,2.115-7.091,2.115c-3.547,0-3.547-2.115-7.094-2.115c-3.544,0-3.544,2.115-7.091,2.115s-3.546-2.115-7.093-2.115
	c-3.546,0-3.546,2.115-7.093,2.115c-3.547,0-3.547-2.115-7.093-2.115c-3.546,0-3.546,2.115-7.093,2.115
	c-3.548,0-3.548-2.115-7.095-2.115s-3.547,2.115-7.093,2.115c-3.548,0-3.548-2.115-7.096-2.115s-3.548,2.115-7.096,2.115
	c-3.547,0-3.547-2.115-7.096-2.115c-3.548,0-3.548,2.115-7.095,2.115c-3.548,0-3.548-2.115-7.096-2.115
	c-3.549,0-3.549,2.115-7.098,2.115c-3.546,0-3.546-2.115-7.093-2.115s-3.547,2.115-7.095,2.115s-3.548-2.115-7.096-2.115
	c-3.547,0-3.547,2.115-7.096,2.115c-3.549,0-3.549-2.115-7.098-2.115c-3.546,0-3.546,2.115-7.094,2.115
	c-3.55,0-3.55-2.115-7.1-2.115c-3.553,0-3.553,2.115-7.105,2.115c-1.646,0-2.527-0.454-3.354-0.942V453.54h453.54V94.647
	C452.718,94.162,451.837,93.711,450.2,93.711z"/>
</svg>
