<svg id="Layer_1" data-name="Layer 1" xmlns="http://www.w3.org/2000/svg" viewBox="0 0 348.09 97.57"><defs><style>.cls-1{fill:#003764;}.cls-2{fill:#40b4e5;}</style></defs><title>quay</title><path class="cls-1" d="M179.31,95.32a20.89,20.89,0,0,1-5.09,1.61,36.5,36.5,0,0,1-7.24.65q-11.15,0-18.82-5.14A31.66,31.66,0,0,1,136.73,79,29.79,29.79,0,0,1,126.6,74.9a27.88,27.88,0,0,1-7.78-7.56,35.26,35.26,0,0,1-4.94-10.67,49.31,49.31,0,0,1-1.72-13.46,46.86,46.86,0,0,1,2.3-15.28A31.62,31.62,0,0,1,121,16.67a27.84,27.84,0,0,1,10-7,35.81,35.81,0,0,1,25.85,0,27.57,27.57,0,0,1,10,7A32.21,32.21,0,0,1,173.34,28a46.52,46.52,0,0,1,2.31,15.17q0,14.16-6,23.27a28.08,28.08,0,0,1-16.19,12,12.93,12.93,0,0,0,6.65,5.09A26.38,26.38,0,0,0,168.8,85a22.8,22.8,0,0,0,4.24-.38,23.47,23.47,0,0,0,3.49-.91Zm-51-52.1q0,11.26,4.19,17.48a13.5,13.5,0,0,0,22.74,0q4.18-6.22,4.18-17.48,0-10.51-4.19-16.41a13.9,13.9,0,0,0-22.74,0Q128.36,32.7,128.36,43.21Z"/><path class="cls-1" d="M182.72,8.56h15.87V47.7q0,10.3,3.11,14.37t9,4.07q5.9,0,9.11-4.08t3.21-14.37V8.54h15.23V46.08q0,17.59-7,25.63t-20.54,8q-13.62,0-20.81-8t-7.19-25.63V8.56Z"/><path class="cls-1" d="M280.33,61.83H259L254.7,78.46H238.61L260.47,8.53h19l21.9,69.92H284.62ZM277.1,49.5l-1.61-6.43q-1.5-5.25-2.9-11.15T269.8,20.54h-0.43q-1.28,5.58-2.62,11.42t-2.84,11.1L262.2,49.5H277.1Z"/><path class="cls-1" d="M311.21,53.56l-21.14-45H307l6.23,16.08q1.5,4,2.84,7.67T318.93,40h0.43q1.5-4.07,2.95-7.78t2.95-7.67l6.32-16.09h16.52L327,53.56V78.44H311.22V53.56Z"/><polygon class="cls-2" points="75.13 0 95.99 44.12 75.13 88.23 57.38 88.23 78.23 44.12 57.38 0 75.13 0"/><polygon class="cls-1" points="57.38 88.23 36.52 44.12 57.38 0 75.13 0 54.28 44.12 75.13 88.23 57.38 88.23"/><polygon class="cls-2" points="47.99 19.85 38.61 0 20.86 0 39.12 38.63 47.99 19.85"/><polygon class="cls-2" points="39.12 49.6 20.86 88.23 38.61 88.23 47.99 68.38 39.12 49.6"/><polygon class="cls-1" points="20.86 88.23 0 44.12 20.86 0 38.61 0 17.75 44.12 38.61 88.23 20.86 88.23"/></svg>