<?xml version="1.0" encoding="UTF-8" standalone="no"?>
<!-- Created with Inkscape (http://www.inkscape.org/) -->
<svg
   xmlns:dc="http://purl.org/dc/elements/1.1/"
   xmlns:cc="http://creativecommons.org/ns#"
   xmlns:rdf="http://www.w3.org/1999/02/22-rdf-syntax-ns#"
   xmlns:svg="http://www.w3.org/2000/svg"
   xmlns="http://www.w3.org/2000/svg"
   xmlns:sodipodi="http://sodipodi.sourceforge.net/DTD/sodipodi-0.dtd"
   xmlns:inkscape="http://www.inkscape.org/namespaces/inkscape"
   width="360"
   height="45"
   id="svg3384"
   sodipodi:version="0.32"
   inkscape:version="0.46"
   version="1.0"
   sodipodi:docname="003.svg"
   inkscape:output_extension="org.inkscape.output.svg.inkscape">
  <defs
     id="defs3386">
    <clipPath
       clipPathUnits="userSpaceOnUse"
       id="clipPath151">
      <path
         d="M 374,38.636 L 612.909,38.636 L 612.909,89.909 L 374,89.909 L 374,38.636 z"
         id="path153" />
    </clipPath>
    <inkscape:perspective
       sodipodi:type="inkscape:persp3d"
       inkscape:vp_x="0 : 526.18109 : 1"
       inkscape:vp_y="0 : 1000 : 0"
       inkscape:vp_z="744.09448 : 526.18109 : 1"
       inkscape:persp3d-origin="372.04724 : 350.78739 : 1"
       id="perspective3392" />
  </defs>
  <sodipodi:namedview
     id="base"
     pagecolor="#ffffff"
     bordercolor="#666666"
     borderopacity="1.0"
     gridtolerance="5"
     guidetolerance="10"
     objecttolerance="10"
     inkscape:pageopacity="0.0"
     inkscape:pageshadow="2"
     inkscape:zoom="1.4"
     inkscape:cx="214.16275"
     inkscape:cy="9.0123567"
     inkscape:document-units="pt"
     inkscape:current-layer="layer1"
     showgrid="true"
     units="pt"
     inkscape:object-nodes="true"
     inkscape:snap-bbox="true"
     inkscape:window-width="1279"
     inkscape:window-height="949"
     inkscape:window-x="0"
     inkscape:window-y="25">
    <inkscape:grid
       type="xygrid"
       id="grid3704"
       visible="true"
       enabled="true"
       units="pt"
       spacingx="9pt"
       spacingy="9pt"
       empspacing="8" />
  </sodipodi:namedview>
  <metadata
     id="metadata3389">
    <rdf:RDF>
      <cc:Work
         rdf:about="">
        <dc:format>image/svg+xml</dc:format>
        <dc:type
           rdf:resource="http://purl.org/dc/dcmitype/StillImage" />
        <dc:title>McKinsey &amp; Company Logo</dc:title>
        <dc:date>2008.11.23</dc:date>
        <dc:creator>
          <cc:Agent>
            <dc:title>McKinsey &amp; Company</dc:title>
          </cc:Agent>
        </dc:creator>
        <dc:source>Frank Trampe</dc:source>
      </cc:Work>
    </rdf:RDF>
  </metadata>
  <g
     inkscape:label="Layer 1"
     inkscape:groupmode="layer"
     id="layer1">
    <path
       style="fill:#24477f;fill-opacity:1;fill-rule:nonzero;stroke:none"
       d="M 210.58594,5.6132811 C 202.45625,5.6132811 197.03125,11.949219 197.03125,20.652344 C 197.03125,28.975781 201.99062,34.20703 209.88281,34.207031 C 215.02031,34.207031 219.03281,31.672657 220.50781,29.246094 L 219.76562,28.386719 C 218.14844,30.575781 214.6625,32.175781 211.09375,32.175781 C 204.71719,32.175781 200.89844,26.839845 200.89844,18.894531 C 200.89844,11.238281 204.61406,6.9414059 210.70312,6.9414059 C 215.40781,6.9414059 218.12344,9.3429689 219.45312,14.050781 L 220.27344,14.050781 L 220,5.9257809 L 219.21875,5.9257809 C 218.93281,6.4960939 218.44687,6.7460939 217.73438,6.7460939 C 216.11563,6.7460939 214.62969,5.6132811 210.58594,5.6132811 z M 9.5312525,6.2773439 L 9.5312525,7.0976559 C 10.957815,7.3851559 13.032815,7.7460919 12.890628,10.886719 L 12.031253,27.566406 C 11.840628,31.132031 10.831252,32.43828 8.3593775,32.722656 L 8.3593775,33.542969 L 17.109378,33.542969 L 17.109378,32.722656 C 14.446877,32.247656 13.685941,31.319531 13.828128,27.800781 L 14.609378,11.042969 L 23.359378,33.347656 L 24.453128,33.347656 L 33.007815,11.042969 L 33.828128,28.894531 C 33.971877,31.655469 33.21719,32.485155 31.171878,32.722656 L 31.171878,33.542969 L 41.015628,33.542969 L 41.015628,32.722656 C 38.589064,32.485156 37.643754,31.352345 37.500003,28.074219 L 36.67969,11.003906 C 36.58594,8.5304689 37.626563,7.4804689 39.765628,7.2929689 L 39.765628,6.4335939 L 32.968753,6.4335939 L 24.921878,27.410156 L 16.718753,6.2773439 L 9.5312525,6.2773439 z M 58.24219,6.2773439 L 58.24219,7.0976559 C 61.192189,7.3351559 61.367191,7.9492199 61.36719,14.988281 L 61.36719,24.402344 C 61.36719,32.013281 61.051562,32.485155 58.24219,32.722656 L 58.24219,33.542969 L 68.007815,33.542969 L 68.007815,32.722656 C 64.914065,32.297656 64.921876,32.072658 64.921878,23.894531 L 64.921878,22.371094 L 66.210941,20.925781 C 69.445315,24.921094 72.921878,29.310156 76.679691,33.542969 L 83.164065,33.542969 L 92.148441,33.542969 L 92.148441,32.722656 C 89.484378,32.535156 89.414069,32.583592 89.414065,26.589844 L 89.414065,16.550781 L 83.046878,16.550781 L 83.046878,17.371094 C 85.803128,17.467969 86.132819,17.613282 86.132815,22.371094 L 86.132815,26.550781 C 86.132815,32.52955 86.071472,32.585605 83.164065,32.722656 C 81.64219,32.580469 80.118757,32.153906 75.312503,26.589844 C 73.459378,24.400781 70.400002,20.71797 68.593753,18.386719 L 74.414065,11.902344 C 77.26719,8.7617189 78.818753,7.1945309 81.484378,7.0976559 L 81.484378,6.2773439 L 72.343753,6.2773439 L 72.343753,7.0976559 C 73.532816,7.3351559 73.984375,7.7664059 73.984378,8.6210939 C 73.984378,9.1929689 73.868752,10.196095 72.109378,12.097656 L 64.921878,20.027344 L 64.921878,14.910156 C 64.921878,7.9210939 65.246877,7.4773439 68.007815,7.0976559 L 68.007815,6.2773439 L 58.24219,6.2773439 z M 87.617191,7.3710939 C 86.379691,7.3710939 85.468757,8.3242169 85.468753,9.5585939 C 85.468753,10.796094 86.379694,11.746094 87.617191,11.746094 C 88.85469,11.746094 89.804692,10.796093 89.804691,9.5585939 C 89.804691,8.3242189 88.854694,7.3710939 87.617191,7.3710939 z M 177.34375,7.6835939 C 174.77811,7.6835939 172.10938,9.2851559 172.10938,12.800781 C 172.10938,14.135156 172.52813,15.355469 173.24219,16.785156 C 169.72188,17.878906 167.85156,20.932031 167.85156,24.402344 C 167.85156,30.728906 172.66406,34.167969 178.08594,34.167969 C 181.46249,34.167968 184.12656,33.097656 186.60156,31.003906 C 188.12186,32.10078 189.64219,33.161719 190.54688,33.542969 L 196.40625,33.542969 L 196.40625,32.722656 C 194.50156,32.533592 191.63438,30.974219 188.59375,28.738281 C 189.68594,26.932031 189.95,24.319531 190.23438,22.371094 C 190.47499,20.707031 191.69531,20.747656 192.5,20.652344 L 192.5,19.910156 L 184.80469,19.910156 L 184.80469,20.652344 C 186.6125,20.889844 188.35938,21.125781 188.35938,23.933594 C 188.35939,25.408595 188.12813,26.878906 187.46094,27.878906 C 180.70781,22.599219 174.49219,15.289844 174.49219,11.628906 C 174.49218,9.8195309 175.58437,8.9726559 177.34375,8.9726559 C 179.5328,8.9726559 181.61875,10.413281 182.61719,13.269531 L 183.35938,13.269531 L 183.28125,8.1523439 L 182.5,8.1523439 C 182.45469,8.4851559 182.14062,8.6992189 181.95312,8.6992189 C 181.00156,8.6992189 179.67813,7.6835939 177.34375,7.6835939 z M 121.91406,16.199219 C 118.39531,16.199219 116.36719,18.389844 116.36719,21.003906 C 116.36719,26.713281 126.13281,25.561721 126.13281,30.222656 C 126.13281,31.791406 124.65781,32.722657 122.1875,32.722656 C 119.76094,32.722656 117.69531,31.432031 117.03125,28.386719 L 116.01562,28.386719 C 116.01562,29.625781 116.20781,31.910155 116.44531,32.292969 C 117.1125,33.386719 119.83437,33.972656 122.07031,33.972656 C 126.1125,33.972656 128.59375,31.622656 128.59375,28.816406 C 128.59375,22.536719 118.90625,23.525781 118.90625,19.480469 C 118.90625,18.053906 120.18906,17.332033 121.75781,17.332031 C 124.94375,17.332031 126.35625,20.277344 126.64062,21.277344 L 127.38281,21.277344 C 127.38281,18.803906 127.10625,17.247656 126.91406,17.058594 C 126.72344,16.867969 124.29219,16.199219 121.91406,16.199219 z M 139.80469,16.199219 C 134.85625,16.199219 131.52344,20.141406 131.52344,25.613281 C 131.52344,29.891406 133.7125,34.011719 139.60938,34.011719 C 142.03281,34.011721 144.94687,33.033594 146.5625,31.277344 L 146.17188,30.457031 C 144.60313,31.408592 142.87812,31.863281 141.21094,31.863281 C 136.50156,31.863279 134.54531,27.630469 134.6875,23.777344 L 146.5625,23.777344 C 146.75313,19.877344 144.70156,16.199219 139.80469,16.199219 z M 231.64062,16.199219 C 226.31094,16.199219 222.53906,20.071094 222.53906,25.066406 C 222.53906,28.396095 223.86562,31.161719 226.28906,32.683594 C 227.71874,33.585156 229.56563,33.972656 231.5625,33.972656 C 236.84219,33.972656 240.625,30.155469 240.625,25.066406 C 240.62499,21.785158 239.30156,19.047656 236.875,17.527344 C 235.44844,16.622657 233.6375,16.199219 231.64062,16.199219 z M 50.937503,16.316406 C 45.846877,16.316406 42.03125,20.883594 42.031253,25.925781 C 42.031253,29.921094 44.267187,34.011719 50.11719,34.011719 C 52.540627,34.011719 55.454693,33.035155 57.070315,31.277344 L 56.67969,30.457031 C 55.11094,31.407031 53.382813,31.863281 51.718753,31.863281 C 47.009377,31.863281 45.234381,27.885156 45.234378,23.699219 C 45.234378,21.750781 45.704688,20.338281 46.562503,19.480469 C 47.368752,18.671094 48.509377,18.386719 49.64844,18.386719 C 51.312503,18.386719 53.22969,19.038281 54.609378,20.847656 L 54.921878,20.808594 C 55.445315,20.144531 55.965626,18.802344 56.015628,17.800781 C 54.826564,16.850781 53.029688,16.316408 50.937503,16.316406 z M 106.05469,16.316406 C 103.86562,16.316406 101.56407,17.358594 99.804691,19.597656 L 99.804691,16.550781 L 93.437503,16.550781 L 93.437503,17.371094 C 96.195315,17.466406 96.523439,17.613281 96.523441,22.371094 L 96.523441,26.550781 C 96.523441,32.589844 96.510936,32.580467 93.515628,32.722656 L 93.515628,33.542969 L 102.57813,33.542969 L 102.57813,32.722656 C 99.91094,32.535156 99.804691,32.582031 99.804691,26.589844 L 99.804691,21.980469 C 99.804691,20.408594 101.9625,18.464845 104.53125,18.464844 C 106.62187,18.464844 108.28125,19.374219 108.28125,23.464844 L 108.28125,26.863281 C 108.28125,32.525781 108.09062,32.580467 105.66406,32.722656 L 105.66406,33.542969 L 114.57031,33.542969 L 114.57031,32.722656 C 111.575,32.580469 111.5625,32.52578 111.5625,26.863281 L 111.5625,23.074219 C 111.5625,17.936719 108.76562,16.316405 106.05469,16.316406 z M 254.53125,16.316406 C 252.2,16.316406 249.925,17.788281 248.59375,19.597656 L 248.59375,16.550781 L 242.22656,16.550781 L 242.22656,17.371094 C 244.98906,17.466406 245.3125,17.613281 245.3125,22.371094 L 245.3125,27.214844 C 245.3125,32.686719 245.23438,32.677343 242.38281,32.722656 L 242.38281,33.542969 L 251.36719,33.542969 L 251.36719,32.722656 C 248.84687,32.485156 248.59375,32.480468 248.59375,27.058594 L 248.59375,22.136719 C 248.59375,20.377344 250.82656,18.464845 253.20312,18.464844 C 255.77188,18.464844 256.875,19.89453 256.875,23.269531 L 256.875,26.707031 C 256.875,32.321094 256.75156,32.580467 254.375,32.722656 L 254.375,33.542969 L 262.8125,33.542969 L 262.8125,32.722656 C 260.00625,32.485156 260.07812,32.23828 260.07812,26.863281 L 260.07812,22.097656 C 260.07812,20.385156 262.24531,18.464845 264.76562,18.464844 C 266.90781,18.464844 268.28125,19.75078 268.28125,23.269531 L 268.28125,27.175781 C 268.28125,32.313281 268.25469,32.535155 265.78125,32.722656 L 265.78125,33.542969 L 274.72656,33.542969 L 274.72656,32.722656 C 271.63594,32.580469 271.75781,32.16172 271.75781,27.214844 L 271.75781,22.800781 C 271.75781,18.089844 269.20781,16.316405 266.21094,16.316406 C 263.50313,16.316406 261.29531,17.841405 259.72656,20.027344 C 259.05937,17.697656 257.38592,16.316405 254.53125,16.316406 z M 287.07031,16.316406 C 284.59688,16.316406 282.58906,17.472656 281.21094,19.089844 L 281.21094,16.550781 L 275,16.550781 L 275,17.371094 C 277.61561,17.466406 277.92969,17.625781 277.92969,23.191406 L 277.92969,34.792969 C 277.92969,40.835158 278.06562,41.291406 275.11719,41.433594 L 275.11719,42.253906 L 284.21875,42.253906 L 284.21875,41.433594 C 280.98594,41.341409 281.21094,40.807031 281.21094,34.480469 L 281.21094,32.175781 C 282.49531,33.460156 284.52188,33.972656 286.32812,33.972656 C 291.46406,33.972657 294.6875,30.125781 294.6875,24.988281 C 294.68749,20.04297 291.49063,16.316406 287.07031,16.316406 z M 303.67188,16.316406 C 301.81561,16.316406 299.09219,16.985156 297.61719,18.269531 C 297.7125,19.077343 298.43125,20.646094 298.90625,21.121094 L 299.33594,21.042969 C 300.09531,19.188282 301.39375,17.839844 303.4375,17.839844 C 305.675,17.839844 306.60156,19.422656 306.60156,21.277344 L 306.60156,23.230469 C 306.60156,24.514844 300.92344,24.755469 298.59375,26.707031 C 297.78438,27.419531 297.1875,28.322656 297.1875,29.558594 C 297.1875,32.222657 299.07187,33.972656 301.875,33.972656 C 303.63437,33.972657 305.15,33.389844 306.71875,31.628906 C 306.95625,32.864842 307.98438,33.542969 309.64844,33.542969 L 313.67188,33.542969 L 322.46094,33.542969 L 322.46094,32.722656 C 319.79688,32.535156 319.68749,32.582031 319.6875,26.589844 L 319.6875,21.980469 C 319.6875,20.408594 321.84845,18.464845 324.41406,18.464844 C 326.50781,18.464844 328.16406,19.374219 328.16406,23.464844 L 328.16406,26.863281 C 328.16406,32.525781 327.97031,32.580467 325.54688,32.722656 L 325.54688,33.542969 L 334.45312,33.542969 L 334.45312,32.722656 C 331.45469,32.580469 331.44531,32.52578 331.44531,26.863281 L 331.44531,23.074219 C 331.44531,17.936719 328.65158,16.316405 325.9375,16.316406 C 323.75156,16.316406 321.44686,17.358594 319.6875,19.597656 L 319.6875,16.550781 L 313.32031,16.550781 L 313.32031,17.371094 C 316.07812,17.466406 316.40624,17.613281 316.40625,22.371094 L 316.40625,26.550781 C 316.40625,32.589844 316.3547,32.580467 313.35938,32.722656 L 312.65625,32.722656 C 310.27814,32.722655 310,31.919531 310,28.542969 L 310,22.839844 C 310,21.747657 309.88281,20.757031 309.64844,19.949219 C 308.83906,17.285156 306.66719,16.316406 303.67188,16.316406 z M 147.38281,16.785156 L 147.38281,17.605469 C 149.33125,17.700781 149.49375,17.97578 152.10938,23.777344 L 156.5625,33.621094 C 155.04063,37.521094 152.65781,39.636718 147.85156,40.730469 C 148.09219,41.539844 148.98125,42.957032 149.45312,43.386719 C 155.78125,40.817969 157.02344,36.627345 159.25781,30.300781 L 162.61719,20.691406 C 163.37656,18.502344 164.59531,17.605467 165.78125,17.605469 L 165.78125,16.785156 L 159.64844,16.785156 L 159.64844,17.605469 C 161.125,17.700781 161.9,18.51953 161.32812,20.183594 L 158.04688,29.832031 L 154.88281,22.371094 C 154.02969,20.327344 153.71094,19.528908 153.71094,18.816406 C 153.71094,18.149219 154.07812,17.75078 155.3125,17.605469 L 155.3125,16.785156 L 147.38281,16.785156 z M 333.24219,16.785156 L 333.24219,17.605469 C 335.19062,17.700781 335.3922,17.97578 338.00781,23.777344 L 342.42188,33.621094 C 340.89844,37.521094 338.51562,39.636718 333.71094,40.730469 C 333.95,41.539844 334.83905,42.957032 335.3125,43.386719 C 341.64062,40.817969 342.88281,36.627345 345.11719,30.300781 L 348.51562,20.691406 C 349.275,18.502344 350.45312,17.605467 351.64062,17.605469 L 351.64062,16.785156 L 345.50781,16.785156 L 345.50781,17.605469 C 346.98438,17.700781 347.79845,18.51953 347.22656,20.183594 L 343.94531,29.832031 L 340.74219,22.371094 C 339.88594,20.327344 339.57032,19.528908 339.57031,18.816406 C 339.57031,18.149219 339.9375,17.75078 341.17188,17.605469 L 341.17188,16.785156 L 333.24219,16.785156 z M 139.14062,17.605469 C 141.80156,17.605469 143.42969,19.349219 143.47656,22.488281 L 134.72656,22.488281 C 135.01094,19.349219 136.42969,17.605469 139.14062,17.605469 z M 231.17188,17.605469 C 234.21562,17.605469 237.22656,20.550781 237.22656,26.160156 C 237.22657,30.108595 235.48281,32.527344 231.91406,32.527344 C 228.82344,32.527344 225.9375,29.689844 225.9375,23.933594 C 225.9375,19.842969 227.88594,17.605469 231.17188,17.605469 z M 173.86719,18.035156 C 176.24687,22.267969 180.68906,26.760156 185.35156,30.183594 C 183.92188,31.278906 181.51875,31.589844 179.57031,31.589844 C 174.575,31.589844 170.625,28.058594 170.625,23.347656 C 170.625,20.399217 171.91563,18.558594 173.86719,18.035156 z M 285.54688,18.464844 C 289.0625,18.464845 291.25,21.089844 291.25,25.417969 C 291.25,29.841407 289.40781,32.683594 285.9375,32.683594 C 283.70155,32.683596 281.21094,31.417969 281.21094,29.753906 L 281.21094,21.316406 C 281.21094,19.889844 283.26406,18.464844 285.54688,18.464844 z M 306.60156,24.832031 L 306.60156,29.519531 C 306.60156,30.946094 304.725,32.097656 303.20312,32.097656 C 301.77656,32.097657 300.58594,31.197656 300.58594,29.246094 C 300.58594,25.775782 304.17813,26.163281 306.60156,24.832031 z"
       id="path157" />
    <rect
       style="fill:none;fill-opacity:1;stroke:none;stroke-width:22.5;stroke-linecap:round;stroke-linejoin:round;stroke-miterlimit:4;stroke-dasharray:none;stroke-opacity:1"
       id="rect3708"
       width="360"
       height="45"
       x="0"
       y="0" />
  </g>
</svg>
