<svg xmlns="http://www.w3.org/2000/svg"  viewBox="0 0 32 32" width="20px" height="20px"><path d="M 15.964844 1.8203125 L 15.263672 2.1679688 L 5.3046875 7.0546875 C 5.0816875 7.1466875 4.8577656 7.2400313 4.6347656 7.3320312 C 4.5657656 7.6130313 4.4986875 7.8947812 4.4296875 8.1757812 L 1.96875 19.169922 C 1.91575 19.414922 1.8615937 19.659297 1.8085938 19.904297 C 1.9645937 20.122297 2.1213438 20.340594 2.2773438 20.558594 L 9.1699219 29.378906 C 9.3379219 29.582906 9.5058281 29.786234 9.6738281 29.990234 C 9.9288281 29.993234 10.1825 29.997 10.4375 30 L 21.490234 30 C 21.749234 29.997 22.008578 29.993234 22.267578 29.990234 C 22.431578 29.786234 22.595766 29.582906 22.759766 29.378906 L 29.650391 20.558594 C 29.811391 20.354594 29.972766 20.151266 30.134766 19.947266 C 30.076766 19.687266 30.018937 19.427922 29.960938 19.169922 L 27.5 8.1757812 C 27.448 7.9177812 27.39575 7.6583906 27.34375 7.4003906 L 26.623047 7.0566406 L 16.667969 2.1679688 L 15.964844 1.8203125 z M 15.960938 5.4160156 C 16.233422 5.4153125 16.493125 5.5757031 16.609375 5.8457031 C 16.686375 6.0357031 16.680375 6.2382031 16.609375 6.4082031 C 16.461375 6.7622031 16.409094 7.1177031 16.371094 7.4707031 C 16.358094 7.6537031 16.353375 7.8308125 16.359375 8.0078125 C 16.340375 8.1848125 16.429594 8.3601094 16.558594 8.5371094 C 16.693594 8.7141094 16.707562 8.8913594 16.726562 9.0683594 C 18.542562 9.2453594 20.178344 10.065547 21.402344 11.310547 C 21.550344 11.212547 21.692969 11.106609 21.917969 11.099609 C 22.130969 11.086609 22.323312 11.048969 22.445312 10.917969 C 22.580313 10.806969 22.708891 10.6875 22.837891 10.5625 C 23.082891 10.3135 23.320141 10.045078 23.494141 9.7050781 C 23.668141 9.3510781 24.094547 9.2134844 24.435547 9.3964844 C 24.783547 9.5734844 24.918281 10.005516 24.738281 10.353516 C 24.648281 10.536516 24.4925 10.662844 24.3125 10.714844 C 23.9515 10.819844 23.649375 11.009078 23.359375 11.205078 C 23.217375 11.310078 23.076266 11.415203 22.947266 11.533203 C 22.799266 11.631203 22.722062 11.814438 22.664062 12.023438 C 22.619062 12.246438 22.498 12.370953 22.375 12.501953 C 23.212 13.752953 23.695312 15.267578 23.695312 16.892578 C 23.695312 17.141578 23.681109 17.390813 23.662109 17.632812 L 23.669922 17.632812 C 23.836922 17.684812 24.004344 17.72925 24.152344 17.90625 C 24.300344 18.06325 24.454906 18.182312 24.628906 18.195312 C 24.802906 18.234313 24.970531 18.260297 25.144531 18.279297 C 25.498531 18.312297 25.846703 18.325234 26.220703 18.240234 C 26.600703 18.155234 26.973641 18.398156 27.056641 18.785156 C 27.138641 19.163156 26.899531 19.543906 26.519531 19.628906 C 26.326531 19.674906 26.133516 19.627297 25.978516 19.529297 C 25.662516 19.313297 25.328141 19.195656 24.994141 19.097656 C 24.827141 19.051656 24.652375 19.012328 24.484375 18.986328 C 24.317375 18.934328 24.124641 18.986125 23.931641 19.078125 C 23.738641 19.189125 23.564766 19.171203 23.384766 19.158203 L 23.365234 19.158203 C 22.811234 21.025203 21.594375 22.604422 19.984375 23.607422 L 19.984375 23.613281 C 20.036375 23.783281 20.093969 23.948875 20.042969 24.171875 C 19.997969 24.387875 19.989078 24.583234 20.080078 24.740234 C 20.151078 24.897234 20.2285 25.061891 20.3125 25.212891 C 20.4865 25.520891 20.680844 25.828984 20.964844 26.083984 C 21.247844 26.352984 21.267766 26.79875 21.009766 27.09375 C 20.745766 27.38175 20.307578 27.400672 20.017578 27.138672 C 19.869578 27.000672 19.792969 26.818906 19.792969 26.628906 C 19.779969 26.241906 19.682406 25.901547 19.566406 25.560547 C 19.508406 25.396547 19.445188 25.231359 19.367188 25.068359 C 19.309188 24.898359 19.15475 24.781922 18.96875 24.669922 C 18.78875 24.571922 18.698422 24.43225 18.607422 24.28125 C 17.783422 24.58925 16.894797 24.753906 15.966797 24.753906 C 15.051797 24.753906 14.174281 24.589922 13.363281 24.294922 C 13.286281 24.438922 13.196625 24.569969 13.015625 24.667969 C 12.828625 24.772969 12.675188 24.897359 12.617188 25.068359 C 12.540188 25.225359 12.468156 25.388734 12.410156 25.552734 C 12.294156 25.893734 12.191547 26.234094 12.185547 26.621094 C 12.172547 27.014094 11.844031 27.321594 11.457031 27.308594 C 11.071031 27.295594 10.76825 26.967219 10.78125 26.574219 C 10.78725 26.371219 10.878672 26.194313 11.013672 26.070312 C 11.296672 25.808312 11.491875 25.506078 11.671875 25.205078 C 11.755875 25.048078 11.831344 24.891516 11.902344 24.728516 C 11.992344 24.577516 11.986266 24.374203 11.947266 24.158203 C 11.902266 23.955203 11.948 23.791625 12 23.640625 C 10.383 22.651625 9.1470781 21.077937 8.5800781 19.210938 C 8.4320781 19.223938 8.2900469 19.223672 8.1230469 19.138672 C 7.9230469 19.053672 7.7363594 19.001547 7.5683594 19.060547 C 7.3943594 19.093547 7.2285469 19.139406 7.0605469 19.191406 C 6.7255469 19.302406 6.3978906 19.427391 6.0878906 19.650391 C 5.7718906 19.879391 5.3324219 19.801469 5.1074219 19.480469 C 4.8884219 19.159469 4.9603906 18.712234 5.2753906 18.490234 C 5.4363906 18.372234 5.6364062 18.334187 5.8164062 18.367188 C 6.1834062 18.446188 6.5367656 18.418047 6.8847656 18.373047 C 7.0587656 18.353047 7.2333906 18.321391 7.4003906 18.275391 C 7.5743906 18.262391 7.7271406 18.13275 7.8691406 17.96875 C 7.9911406 17.82475 8.1333906 17.765891 8.2753906 17.712891 C 8.2493906 17.443891 8.2363281 17.167578 8.2363281 16.892578 C 8.2363281 15.215578 8.7517656 13.662766 9.6347656 12.384766 C 9.5187656 12.266766 9.4102344 12.149453 9.3652344 11.939453 C 9.3072344 11.729453 9.2300312 11.545266 9.0820312 11.447266 C 8.9470313 11.329266 8.8119219 11.224953 8.6699219 11.126953 C 8.3739219 10.929953 8.0719375 10.747719 7.7109375 10.636719 C 7.3369375 10.531719 7.1165625 10.130812 7.2265625 9.7578125 C 7.3355625 9.3778125 7.7236563 9.1625781 8.0976562 9.2675781 C 8.2846562 9.3265781 8.4374844 9.4570938 8.5214844 9.6210938 C 8.6954844 9.9620937 8.9345469 10.229516 9.1855469 10.478516 C 9.3075469 10.602516 9.443125 10.721172 9.578125 10.826172 C 9.700125 10.957172 9.8934687 10.996766 10.105469 11.009766 C 10.330469 11.016766 10.473094 11.114891 10.621094 11.212891 L 10.626953 11.21875 C 11.837953 10.02675 13.434078 9.2403125 15.205078 9.0703125 C 15.224078 8.8933125 15.238047 8.7160625 15.373047 8.5390625 C 15.502047 8.3620625 15.591266 8.1848125 15.572266 8.0078125 C 15.578266 7.8308125 15.573547 7.6537031 15.560547 7.4707031 C 15.521547 7.1167031 15.470266 6.7631562 15.322266 6.4101562 C 15.167266 6.0501562 15.335453 5.6296563 15.689453 5.4726562 C 15.777953 5.4349063 15.870109 5.41625 15.960938 5.4160156 z M 15.037109 10.408203 C 13.794109 10.585203 12.667625 11.130688 11.765625 11.929688 L 11.964844 12.052734 C 12.563844 12.432734 13.143656 12.833422 13.722656 13.232422 C 14.057656 13.448422 14.374453 13.690922 14.689453 13.919922 C 14.715453 13.547922 14.746156 13.168922 14.785156 12.794922 C 14.849156 12.086922 14.915859 11.371063 15.005859 10.664062 L 15.037109 10.408203 z M 16.892578 10.408203 L 16.892578 10.410156 C 16.892578 10.410156 16.890625 10.410156 16.890625 10.410156 L 16.923828 10.664062 L 16.923828 10.666016 C 17.013828 11.374016 17.078578 12.087922 17.142578 12.794922 C 17.168578 13.076922 17.192891 13.352766 17.212891 13.634766 C 17.213067 13.637691 17.214586 13.639692 17.214844 13.642578 C 17.223568 13.767391 17.231462 13.892813 17.240234 14.017578 C 17.329168 13.984464 17.464438 13.926017 17.617188 13.845703 C 17.624096 13.841568 17.631938 13.842728 17.638672 13.837891 C 17.650079 13.829348 17.662388 13.821041 17.673828 13.8125 C 18.0196 13.617419 18.241429 13.402487 18.314453 13.351562 C 18.893708 12.952076 19.467403 12.552549 20.058594 12.166016 L 20.060547 12.164062 L 20.279297 12.027344 C 20.049047 11.814594 19.802578 11.618609 19.542969 11.441406 C 19.283359 11.264203 19.009547 11.106312 18.724609 10.96875 C 18.439672 10.831188 18.144125 10.712969 17.837891 10.619141 C 17.531656 10.525313 17.216078 10.454203 16.892578 10.408203 z M 10.541016 13.359375 C 10.380385 13.61294 10.234762 13.877947 10.109375 14.154297 C 10.109375 14.154297 10.109375 14.15625 10.109375 14.15625 C 9.9840743 14.432615 9.8778421 14.719717 9.7910156 15.015625 C 9.7910156 15.015625 9.7910156 15.017578 9.7910156 15.017578 C 9.7040156 15.314078 9.6369219 15.618766 9.5917969 15.931641 C 9.5466719 16.244516 9.5234375 16.564625 9.5234375 16.890625 C 9.5234375 17.014625 9.5292969 17.132 9.5292969 17.25 C 9.5292969 17.25 9.5292969 17.251953 9.5292969 17.251953 L 9.8320312 17.146484 C 10.495031 16.904484 11.164125 16.693703 11.828125 16.470703 C 12.146125 16.368703 12.462391 16.270781 12.775391 16.175781 C 12.895391 16.119781 13.016719 16.065766 13.136719 16.009766 C 13.050719 15.911766 12.964906 15.813797 12.878906 15.716797 C 12.659906 15.513797 12.446375 15.30975 12.234375 15.09375 C 11.732375 14.58875 11.236094 14.092219 10.746094 13.574219 L 10.541016 13.359375 z M 21.464844 13.482422 L 21.380859 13.572266 L 21.289062 13.671875 C 20.806062 14.195875 20.310453 14.701078 19.814453 15.205078 C 19.498453 15.533078 19.158078 15.846969 18.830078 16.167969 C 19.268078 16.278969 19.706531 16.396344 20.144531 16.527344 C 20.820531 16.724344 21.490156 16.914719 22.160156 17.136719 L 22.398438 17.216797 C 22.404438 17.111797 22.404297 17.000672 22.404297 16.888672 C 22.404547 16.576172 22.383078 16.267359 22.341797 15.966797 C 22.217895 15.065052 21.913603 14.223812 21.464844 13.482422 z M 16.398438 15.548828 L 15.224609 15.560547 L 14.503906 16.486328 L 14.777344 17.628906 L 15.841797 18.125 L 16.892578 17.603516 L 17.140625 16.455078 L 16.398438 15.548828 z M 13.617188 18.689453 C 13.532187 18.690453 13.401234 18.693125 13.240234 18.703125 C 12.937234 18.742125 12.640891 18.789266 12.337891 18.822266 C 11.635891 18.907266 10.946141 18.992594 10.244141 19.058594 L 9.8964844 19.091797 C 10.013984 19.426047 10.158922 19.747719 10.326172 20.054688 C 10.493422 20.361656 10.682781 20.653359 10.894531 20.927734 C 11.106281 21.202109 11.338844 21.458844 11.589844 21.695312 C 11.840844 21.931781 12.111484 22.148547 12.396484 22.341797 L 12.486328 22.066406 C 12.705328 21.385406 12.937781 20.716016 13.175781 20.041016 C 13.285781 19.713016 13.400438 19.391453 13.523438 19.064453 C 13.567438 18.907453 13.597187 18.776453 13.617188 18.689453 z M 18.365234 18.742188 C 18.402234 18.834187 18.460344 18.97925 18.527344 19.15625 C 18.637344 19.45125 18.74075 19.745875 18.84375 20.046875 C 19.06875 20.714875 19.300672 21.390266 19.513672 22.072266 L 19.583984 22.308594 C 19.864234 22.113594 20.12875 21.896172 20.375 21.660156 C 20.62125 21.424141 20.849391 21.168797 21.056641 20.896484 C 21.263891 20.624172 21.450031 20.335141 21.613281 20.03125 C 21.776531 19.727359 21.917 19.408875 22.03125 19.078125 L 21.806641 19.064453 C 21.104641 19.018453 20.407078 18.954672 19.705078 18.888672 C 19.402078 18.862672 19.107687 18.829875 18.804688 18.796875 C 18.619688 18.775875 18.467234 18.755187 18.365234 18.742188 z M 15.972656 19.794922 C 15.921656 19.893922 15.871219 20.001234 15.824219 20.115234 C 15.808781 20.152863 15.794826 20.189832 15.78125 20.226562 C 15.78026 20.228305 15.778306 20.228693 15.777344 20.230469 C 15.629344 20.512469 15.475453 20.787641 15.314453 21.056641 C 14.960453 21.672641 14.606422 22.289578 14.232422 22.892578 L 14.070312 23.154297 C 14.070312 23.154297 14.072266 23.154297 14.072266 23.154297 C 14.371205 23.249015 14.68218 23.320987 14.998047 23.369141 C 15.313912 23.417294 15.638975 23.441308 15.966797 23.441406 C 16.30412 23.441304 16.636321 23.414806 16.960938 23.363281 C 16.960938 23.363281 16.962891 23.363281 16.962891 23.363281 C 17.287477 23.311658 17.604751 23.236068 17.910156 23.134766 L 17.761719 22.884766 C 17.387719 22.281766 17.039406 21.658969 16.691406 21.042969 C 16.536406 20.773969 16.389047 20.505469 16.248047 20.230469 C 16.156047 20.084469 16.064656 19.940922 15.972656 19.794922 z"/></svg>