<svg xmlns="http://www.w3.org/2000/svg" xmlns:xlink="http://www.w3.org/1999/xlink" viewBox="0,0,256,256" width="20px" height="20px" fill-rule="nonzero"><g fill="#6a6e73" fill-rule="nonzero" stroke="none" stroke-width="1" stroke-linecap="butt" stroke-linejoin="miter" stroke-miterlimit="10" stroke-dasharray="" stroke-dashoffset="0" font-family="none" font-weight="none" font-size="none" text-anchor="none" style="mix-blend-mode: normal"><g transform="scale(8,8)"><path d="M15.96484,1.82031l-0.70117,0.34766l-9.95898,4.88672c-0.223,0.092 -0.44692,0.18534 -0.66992,0.27734c-0.069,0.281 -0.13608,0.56275 -0.20508,0.84375l-2.46094,10.99414c-0.053,0.245 -0.10716,0.48937 -0.16016,0.73438c0.156,0.218 0.31275,0.4363 0.46875,0.6543l6.89258,8.82031c0.168,0.204 0.33591,0.40733 0.50391,0.61133c0.255,0.003 0.50867,0.00677 0.76367,0.00977h11.05273c0.259,-0.003 0.51834,-0.00677 0.77734,-0.00977c0.164,-0.204 0.32819,-0.40733 0.49219,-0.61133l6.89063,-8.82031c0.161,-0.204 0.32238,-0.40733 0.48438,-0.61133c-0.058,-0.26 -0.11583,-0.51934 -0.17383,-0.77734l-2.46094,-10.99414c-0.052,-0.258 -0.10425,-0.51739 -0.15625,-0.77539l-0.7207,-0.34375l-9.95508,-4.88867zM15.96094,5.41602c0.27248,-0.0007 0.53219,0.15969 0.64844,0.42969c0.077,0.19 0.071,0.3925 0,0.5625c-0.148,0.354 -0.20028,0.7095 -0.23828,1.0625c-0.013,0.183 -0.01772,0.36011 -0.01172,0.53711c-0.019,0.177 0.07022,0.3523 0.19922,0.5293c0.135,0.177 0.14897,0.35425 0.16797,0.53125c1.816,0.177 3.45178,0.99719 4.67578,2.24219c0.148,-0.098 0.29063,-0.20394 0.51563,-0.21094c0.213,-0.013 0.40534,-0.05064 0.52734,-0.18164c0.135,-0.111 0.26358,-0.23047 0.39258,-0.35547c0.245,-0.249 0.48225,-0.51742 0.65625,-0.85742c0.174,-0.354 0.60041,-0.49159 0.94141,-0.30859c0.348,0.177 0.48273,0.60903 0.30273,0.95703c-0.09,0.183 -0.24578,0.30933 -0.42578,0.36133c-0.361,0.105 -0.66313,0.29423 -0.95312,0.49023c-0.142,0.105 -0.28311,0.21012 -0.41211,0.32813c-0.148,0.098 -0.2252,0.28124 -0.2832,0.49024c-0.045,0.223 -0.16606,0.34751 -0.28906,0.47851c0.837,1.251 1.32031,2.76563 1.32031,4.39063c0,0.249 -0.0142,0.49824 -0.0332,0.74023h0.00781c0.167,0.052 0.33442,0.09644 0.48242,0.27344c0.148,0.157 0.30256,0.27606 0.47656,0.28906c0.174,0.039 0.34163,0.06499 0.51563,0.08398c0.354,0.033 0.70217,0.04594 1.07617,-0.03906c0.38,-0.085 0.75294,0.15792 0.83594,0.54492c0.082,0.378 -0.15711,0.75875 -0.53711,0.84375c-0.193,0.046 -0.38602,-0.00161 -0.54102,-0.09961c-0.316,-0.216 -0.65038,-0.33364 -0.98437,-0.43164c-0.167,-0.046 -0.34177,-0.08533 -0.50977,-0.11133c-0.167,-0.052 -0.35973,-0.0002 -0.55273,0.0918c-0.193,0.111 -0.36688,0.09308 -0.54687,0.08008h-0.01953c-0.554,1.867 -1.77086,3.44622 -3.38086,4.44922v0.00586c0.052,0.17 0.10959,0.33559 0.05859,0.55859c-0.045,0.216 -0.05389,0.41136 0.03711,0.56836c0.071,0.157 0.14842,0.32166 0.23242,0.47266c0.174,0.308 0.36834,0.61609 0.65234,0.87109c0.283,0.269 0.30292,0.71477 0.04492,1.00977c-0.264,0.288 -0.70219,0.30692 -0.99219,0.04492c-0.148,-0.138 -0.22461,-0.31977 -0.22461,-0.50977c-0.013,-0.387 -0.11056,-0.72736 -0.22656,-1.06836c-0.058,-0.164 -0.12122,-0.32919 -0.19922,-0.49219c-0.058,-0.17 -0.21244,-0.28644 -0.39844,-0.39844c-0.18,-0.098 -0.27033,-0.23767 -0.36133,-0.38867c-0.824,0.308 -1.71262,0.47266 -2.64062,0.47266c-0.915,0 -1.79252,-0.16398 -2.60352,-0.45898c-0.077,0.144 -0.16666,0.27505 -0.34766,0.37305c-0.187,0.105 -0.34044,0.22939 -0.39844,0.40039c-0.077,0.157 -0.14903,0.32037 -0.20703,0.48438c-0.116,0.341 -0.21861,0.68136 -0.22461,1.06836c-0.013,0.393 -0.34152,0.7005 -0.72852,0.6875c-0.386,-0.013 -0.68878,-0.34137 -0.67578,-0.73437c0.006,-0.203 0.09742,-0.37991 0.23242,-0.50391c0.283,-0.262 0.4782,-0.56423 0.6582,-0.86523c0.084,-0.157 0.15947,-0.31356 0.23047,-0.47656c0.09,-0.151 0.08392,-0.35431 0.04492,-0.57031c-0.045,-0.203 0.00073,-0.36658 0.05273,-0.51758c-1.617,-0.989 -2.85292,-2.56269 -3.41992,-4.42969c-0.148,0.013 -0.29003,0.01273 -0.45703,-0.07227c-0.2,-0.085 -0.38669,-0.13713 -0.55469,-0.07812c-0.174,0.033 -0.33981,0.07886 -0.50781,0.13086c-0.335,0.111 -0.66266,0.23598 -0.97266,0.45898c-0.316,0.229 -0.75547,0.15108 -0.98047,-0.16992c-0.219,-0.321 -0.14703,-0.76824 0.16797,-0.99023c0.161,-0.118 0.36102,-0.15605 0.54102,-0.12305c0.367,0.079 0.72036,0.05086 1.06836,0.00586c0.174,-0.02 0.34863,-0.05166 0.51563,-0.09766c0.174,-0.013 0.32675,-0.14264 0.46875,-0.30664c0.122,-0.144 0.26425,-0.20286 0.40625,-0.25586c-0.026,-0.269 -0.03906,-0.54531 -0.03906,-0.82031c0,-1.677 0.51544,-3.22981 1.39844,-4.50781c-0.116,-0.118 -0.22453,-0.23531 -0.26953,-0.44531c-0.058,-0.21 -0.1352,-0.39419 -0.2832,-0.49219c-0.135,-0.118 -0.27011,-0.22231 -0.41211,-0.32031c-0.296,-0.197 -0.59798,-0.37923 -0.95898,-0.49023c-0.374,-0.105 -0.59438,-0.50591 -0.48437,-0.87891c0.109,-0.38 0.49709,-0.59523 0.87109,-0.49023c0.187,0.059 0.33983,0.18952 0.42383,0.35352c0.174,0.341 0.41306,0.60842 0.66406,0.85742c0.122,0.124 0.25758,0.24266 0.39258,0.34766c0.122,0.131 0.31534,0.17059 0.52734,0.18359c0.225,0.007 0.36763,0.10512 0.51563,0.20313l0.00586,0.00586c1.211,-1.192 2.80712,-1.97844 4.57813,-2.14844c0.019,-0.177 0.03297,-0.35425 0.16797,-0.53125c0.129,-0.177 0.21822,-0.35425 0.19922,-0.53125c0.006,-0.177 0.00128,-0.35411 -0.01172,-0.53711c-0.039,-0.354 -0.09028,-0.70755 -0.23828,-1.06055c-0.155,-0.36 0.01319,-0.7805 0.36719,-0.9375c0.0885,-0.03775 0.18066,-0.05641 0.27149,-0.05664zM15.03711,10.4082c-1.243,0.177 -2.36948,0.72248 -3.27148,1.52149l0.19922,0.12305c0.599,0.38 1.17881,0.78069 1.75781,1.17969c0.335,0.216 0.6518,0.4585 0.9668,0.6875c0.026,-0.372 0.0567,-0.751 0.0957,-1.125c0.064,-0.708 0.1307,-1.42386 0.2207,-2.13086zM16.89258,10.4082v0.00195h-0.00195l0.0332,0.25391v0.00195c0.09,0.708 0.15475,1.42191 0.21875,2.12891c0.026,0.282 0.05031,0.55784 0.07031,0.83984c0.00018,0.00292 0.0017,0.00493 0.00195,0.00781c0.00872,0.12481 0.01662,0.25024 0.02539,0.375c0.08893,-0.03311 0.2242,-0.09156 0.37695,-0.17187c0.00691,-0.00413 0.01475,-0.00298 0.02148,-0.00781c0.01141,-0.00854 0.02372,-0.01685 0.03516,-0.02539c0.34577,-0.19508 0.5676,-0.41001 0.64063,-0.46094c0.57925,-0.39949 1.15295,-0.79901 1.74414,-1.18555l0.00195,-0.00195l0.21875,-0.13672c-0.23025,-0.21275 -0.47672,-0.40874 -0.73633,-0.58594c-0.25961,-0.1772 -0.53342,-0.33509 -0.81836,-0.47266c-0.28494,-0.13756 -0.58048,-0.25578 -0.88672,-0.34961c-0.30623,-0.09383 -0.62181,-0.16494 -0.94531,-0.21094zM10.54102,13.35938c-0.16063,0.25357 -0.30625,0.51857 -0.43164,0.79492v0.00195c-0.1253,0.27637 -0.23153,0.56347 -0.31836,0.85938v0.00195c-0.087,0.2965 -0.15409,0.60119 -0.19922,0.91406c-0.04513,0.31288 -0.06836,0.63298 -0.06836,0.95898c0,0.124 0.00586,0.24138 0.00586,0.35938v0.00195l0.30273,-0.10547c0.663,-0.242 1.33209,-0.45278 1.99609,-0.67578c0.318,-0.102 0.63427,-0.19992 0.94727,-0.29492c0.12,-0.056 0.24133,-0.11002 0.36133,-0.16602c-0.086,-0.098 -0.17181,-0.19597 -0.25781,-0.29297c-0.219,-0.203 -0.43253,-0.40705 -0.64453,-0.62305c-0.502,-0.505 -0.99828,-1.00153 -1.48828,-1.51953zM21.46484,13.48242l-0.08398,0.08984l-0.0918,0.09961c-0.483,0.524 -0.97861,1.0292 -1.47461,1.5332c-0.316,0.328 -0.65638,0.64189 -0.98437,0.96289c0.438,0.111 0.87645,0.22837 1.31445,0.35938c0.676,0.197 1.34562,0.38738 2.01563,0.60938l0.23828,0.08008c0.006,-0.105 0.00586,-0.21612 0.00586,-0.32812c0.00025,-0.3125 -0.02122,-0.62131 -0.0625,-0.92187c-0.1239,-0.90174 -0.42819,-1.74298 -0.87695,-2.48437zM16.39844,15.54883l-1.17383,0.01172l-0.7207,0.92578l0.27344,1.14258l1.06445,0.49609l1.05078,-0.52148l0.24805,-1.14844zM13.61719,18.68945c-0.085,0.001 -0.21595,0.00367 -0.37695,0.01367c-0.303,0.039 -0.59934,0.08614 -0.90234,0.11914c-0.702,0.085 -1.39175,0.17033 -2.09375,0.23633l-0.34766,0.0332c0.1175,0.33425 0.26244,0.65592 0.42969,0.96289c0.16725,0.30697 0.35661,0.59867 0.56836,0.87305c0.21175,0.27437 0.44431,0.53111 0.69531,0.76758c0.251,0.23647 0.52164,0.45323 0.80664,0.64648l0.08984,-0.27539c0.219,-0.681 0.45145,-1.35039 0.68945,-2.02539c0.11,-0.328 0.22466,-0.64956 0.34766,-0.97656c0.044,-0.157 0.07375,-0.288 0.09375,-0.375zM18.36523,18.74219c0.037,0.092 0.09511,0.23706 0.16211,0.41406c0.11,0.295 0.21341,0.58963 0.31641,0.89063c0.225,0.668 0.45692,1.34339 0.66992,2.02539l0.07031,0.23633c0.28025,-0.195 0.54477,-0.41242 0.79102,-0.64844c0.24625,-0.23602 0.47439,-0.49136 0.68164,-0.76367c0.20725,-0.27231 0.39339,-0.56134 0.55664,-0.86523c0.16325,-0.30389 0.30372,-0.62238 0.41797,-0.95312l-0.22461,-0.01367c-0.702,-0.046 -1.39956,-0.10978 -2.10156,-0.17578c-0.303,-0.026 -0.59739,-0.0588 -0.90039,-0.0918c-0.185,-0.021 -0.33745,-0.04169 -0.43945,-0.05469zM15.97266,19.79492c-0.051,0.099 -0.10144,0.20631 -0.14844,0.32031c-0.01544,0.03763 -0.02939,0.0746 -0.04297,0.11133c-0.00099,0.00174 -0.00294,0.00213 -0.00391,0.00391c-0.148,0.282 -0.30189,0.55717 -0.46289,0.82617c-0.354,0.616 -0.70803,1.23294 -1.08203,1.83594l-0.16211,0.26172h0.00195c0.29894,0.09472 0.60991,0.16669 0.92578,0.21484c0.31587,0.04815 0.64093,0.07217 0.96875,0.07227c0.33732,-0.0001 0.66952,-0.0266 0.99414,-0.07812h0.00195c0.32459,-0.05162 0.64186,-0.12721 0.94727,-0.22852l-0.14844,-0.25c-0.374,-0.603 -0.72231,-1.2258 -1.07031,-1.8418c-0.155,-0.269 -0.30236,-0.5375 -0.44336,-0.8125c-0.092,-0.146 -0.18339,-0.28955 -0.27539,-0.43555z"></path></g></g></svg>