<svg
  xmlns="http://www.w3.org/2000/svg"
  width="386.5"
  height="39.7"
  x="0"
  y="0"
  version="1.1"
  viewBox="0 0 386.5 39.7"
>
  <g>
    <path d="M69.051 33.338l-4.5-9.301h-3.1v9.301h-7.5v-27.6h12.4c1.6 0 3.1.2 4.4.5 1.3.3 2.5.9 3.4 1.6s1.7 1.6 2.2 2.8c.5 1.1.8 2.5.8 4.2 0 2.1-.4 3.8-1.3 5.1-.9 1.3-2.1 2.3-3.6 3l5.4 10.4h-8.6zm-.4-20.6c-.5-.6-1.4-.8-2.6-.8h-4.6v6h4.5c1.3 0 2.2-.3 2.7-.8s.8-1.3.8-2.3c0-.8-.3-1.5-.8-2.1z"></path>
    <path d="M83.451 33.338v-27.6h21.2v6.4h-13.7v3.7h8.2v6.299h-8.2v4.701h13.9v6.399h-21.4v.101z"></path>
    <path d="M133.951 25.938c-.6 1.8-1.6 3.199-2.8 4.3-1.2 1.101-2.8 1.899-4.7 2.399s-4 .701-6.5.701h-9v-27.6h9.7c2.2 0 4.1.2 5.9.7 1.8.4 3.3 1.2 4.5 2.3s2.2 2.5 2.8 4.2c.7 1.7 1 3.9 1 6.5s-.3 4.699-.9 6.5zm-7.3-9.7c-.2-.9-.6-1.7-1.1-2.3s-1.2-1-2-1.3c-.8-.3-1.8-.4-3-.4h-1.9v14.601h1.7c1.2 0 2.2-.101 3-.4.8-.301 1.5-.7 2.1-1.2.5-.601.9-1.3 1.2-2.3.2-.9.4-2.1.4-3.5 0-1.201-.2-2.301-.4-3.201z"></path>
    <path d="M171.351 33.338v-10.9h-8.6v10.9h-7.8v-27.6h7.8v10.1h8.6v-10.1h7.8v27.7h-7.8v-.1z"></path>
    <path d="M203.852 33.338l-1.5-4.9h-8.301l-1.5 4.9h-8.199l10-27.701h7.699l10 27.701h-8.199zm-3.901-12.701c-.199-.899-.4-1.699-.6-2.299-.2-.7-.4-1.3-.5-1.8-.101-.5-.301-1-.4-1.4-.1-.4-.199-.9-.3-1.4-.101.5-.2.9-.3 1.4-.101.4-.2.9-.4 1.5-.1.5-.3 1.1-.5 1.8-.199.7-.4 1.4-.6 2.3l-.5 1.8h4.6l-.5-1.901z"></path>
    <path d="M227.852 12.338v21h-7.7v-21h-7.7v-6.6h23.2v6.7h-7.8v-.1z"></path>
    <path d="M245.852 10.438c-.2.4-.4.8-.801 1.1-.3.3-.699.6-1.1.8s-.9.3-1.4.3-1-.1-1.399-.3-.8-.4-1.101-.8c-.3-.3-.6-.7-.8-1.1s-.3-.9-.3-1.4.1-1 .3-1.4c.2-.4.4-.8.8-1.1.301-.3.7-.6 1.101-.8.399-.2.899-.3 1.399-.3s1 .1 1.4.3c.4.2.8.4 1.1.8.301.3.601.7.801 1.1.199.4.3.9.3 1.4s-.101 1-.3 1.4zm-.5-2.5c-.2-.4-.4-.7-.601-1-.3-.3-.6-.5-1-.6-.399-.2-.8-.2-1.2-.2-.399 0-.8.1-1.199.2-.4.2-.7.4-.9.6-.199.2-.5.6-.6 1-.2.4-.2.8-.2 1.2 0 .4.101.8.2 1.2.199.4.399.7.6.9.301.3.6.5.9.6.399.2.8.2 1.199.2.4 0 .801-.1 1.2-.2.4-.2.7-.4 1-.6.3-.3.5-.6.601-.9.199-.4.199-.8.199-1.2 0-.5-.1-.9-.199-1.2zm-1.401 1c-.199.2-.4.3-.6.4l.8 1.6h-.8l-.801-1.5h-.699v1.5h-.7v-3.9h1.7c.199 0 .3 0 .5.1.199 0 .3.1.399.2.101.1.2.2.3.4.101.1.101.3.101.5 0 .3-.1.6-.2.7zm-.599-1.1c-.101-.1-.301-.1-.4-.1h-1v1.1h1c.2 0 .301 0 .4-.1s.199-.2.199-.4c-.1-.3-.1-.4-.199-.5z"></path>
  </g>
  <g transform="matrix(.39458 0 0 .39458 1.082 .105)">
    <circle cx="55.069" cy="50" r="50" fill="#D71E00"></circle>
    <path
      fill="#C21A00"
      d="M90.429 14.641c19.529 19.529 19.529 51.19 0 70.718-19.529 19.53-51.192 19.53-70.72 0l70.72-70.718z"
    ></path>
    <path
      fill="#FFF"
      d="M59.608 49.99L74.668 81.859 61.838 81.859 46.789 49.99 61.838 18.14 74.668 18.14z"
    ></path>
    <path
      fill="#B7B7B7"
      d="M74.668 81.859L89.718 49.99 74.668 18.14 68.258 31.7 76.898 49.99 68.258 68.291z"
    ></path>
    <path
      fill="#FFF"
      d="M33.239 49.99L48.299 81.859 35.469 81.859 20.419 49.99 35.469 18.14 48.299 18.14z"
    ></path>
    <path
      fill="#B7B7B7"
      d="M48.659 46.04L55.069 32.47 48.299 18.14 41.879 31.71z"
    ></path>
    <path
      fill="#B7B7B7"
      d="M41.879 68.291L48.299 81.859 55.069 67.529 48.659 53.961z"
    ></path>
  </g>
  <g transform="translate(0 2.866)">
    <path d="M279.484 26.981l2.616 3.195-3.559.86-1.747-2.096a13.468 13.468 0 01-6.503 1.633c-7.411 0-13.222-5.771-13.222-13.11 0-7.337 5.811-13.113 13.222-13.113 7.413 0 13.273 5.776 13.273 13.113a13.004 13.004 0 01-4.08 9.518zm-2.36-2.871a9.609 9.609 0 002.542-6.635c0-5.448-4.068-9.591-9.369-9.591-5.302 0-9.337 4.143-9.337 9.591 0 5.448 4.069 9.591 9.337 9.591a9.309 9.309 0 004.191-.947l-3.304-4.03 3.557-.873z"></path>
    <path d="M290.745 22.697c0 2.866 1.747 4.683 4.612 4.683a5.211 5.211 0 004.543-2.396V11.688h3.631v18.488H299.9v-1.85a7.566 7.566 0 01-5.562 2.214c-4.246 0-7.19-2.979-7.19-7.23V11.688h3.598v11.009z"></path>
    <path d="M306.832 24.875c0-3.704 3.16-5.634 7.48-5.634a12.725 12.725 0 015.051 1.021v-1.963c0-2.616-1.562-3.922-4.506-3.922-1.777 0-3.595.545-5.738 1.561l-1.345-2.724c2.615-1.236 5.016-1.889 7.593-1.889 4.757 0 7.554 2.326 7.554 6.611V30.16h-3.555v-1.567a8.69 8.69 0 01-5.738 1.927c-4.034-.015-6.796-2.34-6.796-5.645zm7.627 2.941a7.094 7.094 0 004.891-1.746v-3.234a9.712 9.712 0 00-4.758-1.09c-2.548 0-4.288 1.128-4.288 3.053.02 1.82 1.726 3.018 4.159 3.018h-.004z"></path>
    <path d="M332.113 30.211l-7.372-18.51h3.996l5.413 14.131 5.938-14.131h3.924l-8.828 20.486c-1.652 3.802-3.556 5.509-7.049 5.509a7.987 7.987 0 01-1.925-.183v-3.195a6.149 6.149 0 001.6.144c1.562 0 2.795-.727 3.668-2.725z"></path>
    <path d="M346.793 28.145a2.308 2.308 0 01-2.288 2.322 2.337 2.337 0 01-2.321-2.322 2.312 2.312 0 012.321-2.292 2.28 2.28 0 012.288 2.274v.018z"></path>
    <path d="M351.148 6.459a2.263 2.263 0 012.253-2.253 2.253 2.253 0 010 4.503 2.264 2.264 0 01-2.253-2.25zm4.07 23.717h-3.633V11.688h3.633z"></path>
    <path d="M368.255 11.325c5.308.01 9.601 4.319 9.59 9.624-.01 5.308-4.319 9.602-9.625 9.592-5.307-.01-9.601-4.318-9.591-9.626v-.007c-.05-5.242 4.157-9.533 9.401-9.583h.225zm0 3.195c-3.377 0-6.066 2.793-6.066 6.394 0 3.602 2.65 6.43 6.066 6.43 3.417 0 6.065-2.831 6.065-6.43 0-3.596-2.688-6.394-6.065-6.394z"></path>
  </g>
</svg>
