<svg id="Layer_1" data-name="Layer 1" xmlns="http://www.w3.org/2000/svg" viewBox="0 0 615 244"><defs><style>.cls-1{fill:#fff;}.cls-2{fill:#e00;}</style></defs><title>Logo-Red_Hat-Quay-A-Reverse-RGB</title><path class="cls-1" d="M288.7,209.39l7.49,9.15L286,221l-5-6a38.62,38.62,0,0,1-18.62,4.68c-21.22,0-37.86-16.53-37.86-37.54s16.64-37.55,37.86-37.55,38,16.54,38,37.55A37.25,37.25,0,0,1,288.7,209.39Zm-6.76-8.22a27.53,27.53,0,0,0,7.28-19c0-15.6-11.65-27.46-26.83-27.46s-26.73,11.86-26.73,27.46,11.65,27.45,26.73,27.45a26.59,26.59,0,0,0,12-2.7l-9.46-11.54,10.19-2.5Z"/><path class="cls-1" d="M320.94,197c0,8.32,5.1,13.52,13.1,13.52a14.85,14.85,0,0,0,13-7v-38h10.4v52.94H347v-5.31a21.63,21.63,0,0,1-15.91,6.35c-12.17,0-20.59-8.53-20.59-20.8V165.6h10.4Z"/><path class="cls-1" d="M367,203.35c0-10,8.11-16.12,21.42-16.12a37.23,37.23,0,0,1,14.46,2.92v-5.62c0-7.49-4.47-11.23-12.9-11.23-4.88,0-9.88,1.35-16.43,4.47l-3.85-7.8c7.91-3.75,14.77-5.41,21.74-5.41,13.73,0,21.63,6.76,21.63,18.93v35H402.89V214a25.07,25.07,0,0,1-16.43,5.51C374.91,219.47,367,212.92,367,203.35Zm21.84,8.43a20.33,20.33,0,0,0,14-5v-9.16a27.54,27.54,0,0,0-13.62-3.22c-7.6,0-12.28,3.43-12.28,8.74C377,208.24,381.78,211.78,388.85,211.78Z"/><path class="cls-1" d="M439.29,218.75,418.18,165.6h11.44l15.49,40.46,17.06-40.46H473.4l-25.58,59.28c-4.89,11.34-10.51,15.81-20.28,15.81a20.3,20.3,0,0,1-5.51-.62v-9.15a20.65,20.65,0,0,0,4.68.41c4.78,0,8.21-2.49,10.5-7.8Z"/><path class="cls-2" d="M128,84c12.51,0,30.61-2.58,30.61-17.46a14,14,0,0,0-.31-3.42l-7.45-32.36c-1.72-7.12-3.23-10.35-15.73-16.6C125.39,9.19,104.26,1,98,1c-5.82,0-7.55,7.54-14.45,7.54-6.68,0-11.64-5.6-17.89-5.6-6,0-9.91,4.09-12.93,12.5,0,0-8.41,23.72-9.49,27.16A6.43,6.43,0,0,0,43,44.54C43,53.76,79.33,84,128,84m32.55-11.42c1.73,8.19,1.73,9.05,1.73,10.13,0,14-15.74,21.77-36.43,21.77C79,104.47,38.08,77.1,38.08,59a18.45,18.45,0,0,1,1.51-7.33C22.77,52.52,1,55.54,1,74.72,1,106.2,75.59,145,134.65,145c45.28,0,56.7-20.48,56.7-36.65,0-12.72-11-27.16-30.83-35.78"/><path d="M160.52,72.57c1.73,8.19,1.73,9.05,1.73,10.13,0,14-15.74,21.77-36.43,21.77C79,104.47,38.08,77.1,38.08,59a18.45,18.45,0,0,1,1.51-7.33l3.66-9.06A6.43,6.43,0,0,0,43,44.54C43,53.76,79.33,84,128,84c12.51,0,30.61-2.58,30.61-17.46a14,14,0,0,0-.31-3.42Z"/><path class="cls-1" d="M580.24,93.3c0,11.89,7.15,17.67,20.19,17.67a52.11,52.11,0,0,0,11.89-1.68V95.51a24.84,24.84,0,0,1-7.68,1.16c-5.37,0-7.36-1.68-7.36-6.73V68.8h15.56V54.6H597.28v-18l-17,3.68V54.6H569V68.8h11.25Zm-53,.32c0-3.68,3.69-5.47,9.26-5.47a43.12,43.12,0,0,1,10.1,1.26v7.15A21.51,21.51,0,0,1,536,99.19c-5.46,0-8.73-2.1-8.73-5.57m5.2,17.56c6,0,10.84-1.26,15.36-4.31v3.37h16.82V74.58c0-13.56-9.14-21-24.39-21-8.52,0-16.94,2-26,6.1l6.1,12.52c6.52-2.74,12-4.42,16.83-4.42,7,0,10.62,2.73,10.62,8.31v2.73a49.53,49.53,0,0,0-12.62-1.58c-14.31,0-22.93,6-22.93,16.73,0,9.78,7.78,17.24,20.19,17.24m-92.44-.94h18.09V81.42h30.29v28.82h18.09V36.62H488.43V64.91H458.14V36.62H440.05ZM371.12,82.37c0-8,6.31-14.1,14.62-14.1a17.22,17.22,0,0,1,11.78,4.32V92a16.36,16.36,0,0,1-11.78,4.42c-8.2,0-14.62-6.1-14.62-14.09m26.61,27.87h16.83V32.94l-17,3.68V57.55a28.3,28.3,0,0,0-14.2-3.68c-16.19,0-28.92,12.51-28.92,28.5A28.25,28.25,0,0,0,382.8,111a25.12,25.12,0,0,0,14.93-4.83Zm-77.19-42.7c5.36,0,9.88,3.47,11.67,8.83H309c1.68-5.57,5.89-8.83,11.57-8.83M291.83,82.47c0,16.2,13.25,28.82,30.28,28.82,9.36,0,16.2-2.53,23.25-8.42l-11.26-10c-2.63,2.74-6.52,4.21-11.14,4.21a14.39,14.39,0,0,1-13.68-8.83h39.65V84.05c0-17.67-11.88-30.39-28.08-30.39a28.57,28.57,0,0,0-29,28.81M262.49,52.08c6,0,9.36,3.78,9.36,8.31s-3.37,8.31-9.36,8.31H244.61V52.08Zm-36,58.16h18.09V83.42h13.77l13.89,26.82h20.19l-16.2-29.45a22.27,22.27,0,0,0,13.88-20.72c0-13.25-10.41-23.45-26-23.45H226.52Z"/></svg>