<?xml version="1.0" encoding="UTF-8" standalone="no"?>
<svg
   xmlns:dc="http://purl.org/dc/elements/1.1/"
   xmlns:cc="http://creativecommons.org/ns#"
   xmlns:rdf="http://www.w3.org/1999/02/22-rdf-syntax-ns#"
   xmlns:svg="http://www.w3.org/2000/svg"
   xmlns="http://www.w3.org/2000/svg"
   xmlns:sodipodi="http://sodipodi.sourceforge.net/DTD/sodipodi-0.dtd"
   xmlns:inkscape="http://www.inkscape.org/namespaces/inkscape"
   xml:space="preserve"
   enable-background="new 0 0 386.5 39.7"
   viewBox="0 0 386.5 39.7"
   height="39.7px"
   width="386.5px"
   y="0px"
   x="0px"
   inkscape:version="1.0.2 (e86c8708, 2021-01-15)"
   sodipodi:docname="RH_QuayIO2.svg"
   id="Layer_1"
   version="1.1"><metadata
   id="metadata136"><rdf:RDF><cc:Work
       rdf:about=""><dc:format>image/svg+xml</dc:format><dc:type
         rdf:resource="http://purl.org/dc/dcmitype/StillImage" /><dc:title /></cc:Work></rdf:RDF></metadata><defs
   id="defs134" />
<sodipodi:namedview
   inkscape:document-rotation="0"
   inkscape:current-layer="Layer_1"
   inkscape:window-maximized="0"
   inkscape:window-y="23"
   inkscape:window-x="33"
   inkscape:cy="17.656123"
   inkscape:cx="248.53281"
   inkscape:zoom="11.313709"
   showgrid="false"
   inkscape:window-height="855"
   inkscape:pageshadow="2"
   inkscape:pageopacity="0"
   guidetolerance="10"
   gridtolerance="10"
   objecttolerance="10"
   borderopacity="1"
   pagecolor="#ffffff"
   bordercolor="#666666"
   inkscape:window-width="1440"
   id="namedview31">
	</sodipodi:namedview>
<g
   id="g16">
	<path
   d="M69.051,33.338l-4.5-9.301h-3.1v9.301h-7.5V5.738h12.4c1.6,0,3.1,0.2,4.4,0.5   c1.3,0.3,2.5,0.9,3.4,1.6s1.7,1.6,2.2,2.8c0.5,1.1,0.8,2.5,0.8,4.2c0,2.1-0.4,3.8-1.3,5.1c-0.9,1.3-2.1,2.3-3.6,3l5.4,10.4H69.051z    M68.651,12.738c-0.5-0.6-1.4-0.8-2.6-0.8h-4.6v6h4.5c1.3,0,2.2-0.3,2.7-0.8s0.8-1.3,0.8-2.3   C69.451,14.038,69.151,13.338,68.651,12.738z"
   inkscape:connector-curvature="0"
   id="path2" />
	<path
   d="M83.451,33.338V5.738h21.2v6.4h-13.7v3.7h8.2v6.299h-8.2v4.701h13.9v6.399   h-21.4V33.338z"
   inkscape:connector-curvature="0"
   id="path4" />
	<path
   d="M133.951,25.938c-0.6,1.8-1.6,3.199-2.8,4.3c-1.2,1.101-2.8,1.899-4.7,2.399   s-4,0.701-6.5,0.701h-9V5.738h9.7c2.2,0,4.1,0.2,5.9,0.7c1.8,0.4,3.3,1.2,4.5,2.3s2.2,2.5,2.8,4.2c0.7,1.7,1,3.9,1,6.5   C134.851,22.038,134.551,24.137,133.951,25.938z M126.651,16.238c-0.2-0.9-0.6-1.7-1.1-2.3s-1.2-1-2-1.3c-0.8-0.3-1.8-0.4-3-0.4   h-1.9v14.601h1.7c1.2,0,2.2-0.101,3-0.4c0.8-0.301,1.5-0.7,2.1-1.2c0.5-0.601,0.9-1.3,1.2-2.3c0.2-0.9,0.4-2.1,0.4-3.5   C127.051,18.238,126.851,17.138,126.651,16.238z"
   inkscape:connector-curvature="0"
   id="path6" />
	<path
   d="M171.351,33.338v-10.9h-8.6v10.9h-7.8V5.738h7.8v10.1h8.6v-10.1h7.8v27.7   h-7.8V33.338z"
   inkscape:connector-curvature="0"
   id="path8" />
	<path
   d="M203.852,33.338l-1.5-4.9h-8.301l-1.5,4.9h-8.199l10-27.701h7.699l10,27.701   H203.852z M199.951,20.637c-0.199-0.899-0.4-1.699-0.6-2.299c-0.2-0.7-0.4-1.3-0.5-1.8c-0.101-0.5-0.301-1-0.4-1.4   c-0.1-0.4-0.199-0.9-0.3-1.4c-0.101,0.5-0.2,0.9-0.3,1.4c-0.101,0.4-0.2,0.9-0.4,1.5c-0.1,0.5-0.3,1.1-0.5,1.8   c-0.199,0.7-0.4,1.4-0.6,2.3l-0.5,1.8h4.6L199.951,20.637z"
   inkscape:connector-curvature="0"
   id="path10" />
	<path
   d="M227.852,12.338v21h-7.7v-21h-7.7v-6.6h23.2v6.7h-7.8V12.338z"
   inkscape:connector-curvature="0"
   id="path12" />
	<path
   d="M245.852,10.438c-0.2,0.4-0.4,0.8-0.801,1.1c-0.3,0.3-0.699,0.6-1.1,0.8   s-0.9,0.3-1.4,0.3s-1-0.1-1.399-0.3s-0.8-0.4-1.101-0.8c-0.3-0.3-0.6-0.7-0.8-1.1s-0.3-0.9-0.3-1.4s0.1-1,0.3-1.4   c0.2-0.4,0.4-0.8,0.8-1.1c0.301-0.3,0.7-0.6,1.101-0.8c0.399-0.2,0.899-0.3,1.399-0.3s1,0.1,1.4,0.3c0.4,0.2,0.8,0.4,1.1,0.8   c0.301,0.3,0.601,0.7,0.801,1.1c0.199,0.4,0.3,0.9,0.3,1.4S246.051,10.038,245.852,10.438z M245.352,7.938   c-0.2-0.4-0.4-0.7-0.601-1c-0.3-0.3-0.6-0.5-1-0.6c-0.399-0.2-0.8-0.2-1.2-0.2c-0.399,0-0.8,0.1-1.199,0.2   c-0.4,0.2-0.7,0.4-0.9,0.6c-0.199,0.2-0.5,0.6-0.6,1c-0.2,0.4-0.2,0.8-0.2,1.2c0,0.4,0.101,0.8,0.2,1.2   c0.199,0.4,0.399,0.7,0.6,0.9c0.301,0.3,0.6,0.5,0.9,0.6c0.399,0.2,0.8,0.2,1.199,0.2c0.4,0,0.801-0.1,1.2-0.2   c0.4-0.2,0.7-0.4,1-0.6c0.3-0.3,0.5-0.6,0.601-0.9c0.199-0.4,0.199-0.8,0.199-1.2C245.551,8.638,245.451,8.238,245.352,7.938z    M243.951,8.938c-0.199,0.2-0.4,0.3-0.6,0.4l0.8,1.6h-0.8l-0.801-1.5h-0.699v1.5h-0.7v-3.9h1.7c0.199,0,0.3,0,0.5,0.1   c0.199,0,0.3,0.1,0.399,0.2c0.101,0.1,0.2,0.2,0.3,0.4c0.101,0.1,0.101,0.3,0.101,0.5C244.151,8.538,244.051,8.838,243.951,8.938z    M243.352,7.838c-0.101-0.1-0.301-0.1-0.4-0.1h-1v1.1h1c0.2,0,0.301,0,0.4-0.1s0.199-0.2,0.199-0.4   C243.451,8.038,243.451,7.938,243.352,7.838z"
   inkscape:connector-curvature="0"
   id="path14" />
</g>
<g
   transform="matrix(0.39457959,0,0,0.39457959,1.0823681,0.10489944)"
   id="Layer_1-7">
	<circle
   r="50"
   cy="50"
   cx="55.069"
   fill="#D71E00"
   id="circle3828" />
	<path
   d="M90.429,14.641c19.529,19.529,19.529,51.19,0,70.718   c-19.529,19.53-51.192,19.53-70.72,0L90.429,14.641z"
   fill="#C21A00"
   inkscape:connector-curvature="0"
   id="path3830" />
	<polygon
   points="59.608,49.99 74.668,81.859 61.838,81.859 46.789,49.99 61.838,18.14    74.668,18.14  "
   fill="#FFFFFF"
   id="polygon3832" />
	<polygon
   points="74.668,81.859 89.718,49.99 74.668,18.14 68.258,31.7 76.898,49.99    68.258,68.291  "
   fill="#B7B7B7"
   id="polygon3834" />
	<polygon
   points="33.239,49.99 48.299,81.859 35.469,81.859 20.419,49.99 35.469,18.14    48.299,18.14  "
   fill="#FFFFFF"
   id="polygon3836" />
	<polygon
   points="48.659,46.04 55.069,32.47 48.299,18.14 41.879,31.71  "
   fill="#B7B7B7"
   id="polygon3838" />
	<polygon
   points="41.879,68.291 48.299,81.859 55.069,67.529 48.659,53.961  "
   fill="#B7B7B7"
   id="polygon3840" />
</g>
<g
   transform="translate(0,2.8661607)"
   id="g131">
	<path
   inkscape:connector-curvature="0"
   id="path117"
   d="m 279.484,26.981 2.616,3.195 -3.559,0.86 -1.747,-2.096 c -1.995,1.083 -4.231,1.646 -6.503,1.633 -7.411,0 -13.222,-5.771 -13.222,-13.11 0,-7.337 5.811,-13.113 13.222,-13.113 7.413,0 13.273,5.776 13.273,13.113 0.015,3.601 -1.46,7.048 -4.08,9.518 z m -2.36,-2.871 c 1.664,-1.805 2.573,-4.179 2.542,-6.635 0,-5.448 -4.068,-9.591 -9.369,-9.591 -5.302,0 -9.337,4.143 -9.337,9.591 0,5.448 4.069,9.591 9.337,9.591 1.451,0.016 2.886,-0.309 4.191,-0.947 l -3.304,-4.03 3.557,-0.873 z" />
	<path
   inkscape:connector-curvature="0"
   id="path119"
   d="m 290.745,22.697 c 0,2.866 1.747,4.683 4.612,4.683 1.831,0.054 3.554,-0.854 4.543,-2.396 V 11.688 h 3.631 V 30.176 H 299.9 v -1.85 c -1.472,1.472 -3.483,2.272 -5.562,2.214 -4.246,0 -7.19,-2.979 -7.19,-7.23 V 11.688 h 3.598 v 11.009 z" />
	<path
   inkscape:connector-curvature="0"
   id="path121"
   d="m 306.832,24.875 c 0,-3.704 3.16,-5.634 7.48,-5.634 1.735,-0.009 3.455,0.341 5.051,1.021 v -1.963 c 0,-2.616 -1.562,-3.922 -4.506,-3.922 -1.777,0 -3.595,0.545 -5.738,1.561 l -1.345,-2.724 c 2.615,-1.236 5.016,-1.889 7.593,-1.889 4.757,0 7.554,2.326 7.554,6.611 V 30.16 h -3.555 v -1.567 c -1.619,1.308 -3.656,1.994 -5.738,1.927 -4.034,-0.015 -6.796,-2.34 -6.796,-5.645 z m 7.627,2.941 c 1.792,0.057 3.539,-0.566 4.891,-1.746 v -3.234 c -1.467,-0.763 -3.105,-1.137 -4.758,-1.09 -2.548,0 -4.288,1.128 -4.288,3.053 0.02,1.82 1.726,3.018 4.159,3.018 h -0.004 z" />
	<path
   inkscape:connector-curvature="0"
   id="path123"
   d="m 332.113,30.211 -7.372,-18.51 h 3.996 l 5.413,14.131 5.938,-14.131 h 3.924 l -8.828,20.486 c -1.652,3.802 -3.556,5.509 -7.049,5.509 -0.646,0.017 -1.293,-0.044 -1.925,-0.183 v -3.195 c 0.525,0.118 1.063,0.166 1.6,0.144 1.562,0 2.795,-0.727 3.668,-2.725 z" />
	<path
   inkscape:connector-curvature="0"
   id="path125"
   d="m 346.793,28.145 c 0.008,1.272 -1.016,2.312 -2.288,2.322 -1.279,-0.009 -2.313,-1.044 -2.321,-2.322 0.012,-1.273 1.049,-2.298 2.321,-2.292 1.261,-0.004 2.285,1.015 2.288,2.274 0,0.005 0,0.011 0,0.018 z" />
	<path
   inkscape:connector-curvature="0"
   id="path127"
   d="m 351.148,6.459 c 0.006,-1.242 1.011,-2.248 2.253,-2.253 1.242,0.048 2.211,1.096 2.161,2.34 -0.046,1.174 -0.987,2.116 -2.161,2.163 -1.241,-0.006 -2.245,-1.009 -2.253,-2.25 z m 4.07,23.717 h -3.633 V 11.688 h 3.633 z" />
	<path
   inkscape:connector-curvature="0"
   id="path129"
   d="m 368.255,11.325 c 5.308,0.01 9.601,4.319 9.59,9.624 -0.01,5.308 -4.319,9.602 -9.625,9.592 -5.307,-0.01 -9.601,-4.318 -9.591,-9.626 0,-0.002 0,-0.003 0,-0.007 -0.05,-5.242 4.157,-9.533 9.401,-9.583 0.074,-10e-4 0.15,-10e-4 0.225,0 z m 0,3.195 c -3.377,0 -6.066,2.793 -6.066,6.394 0,3.602 2.65,6.43 6.066,6.43 3.417,0 6.065,-2.831 6.065,-6.43 0,-3.596 -2.688,-6.394 -6.065,-6.394 z" />
</g>
<path
   style="fill:#ffffff;stroke-width:0.37432"
   d="M 54.120853,19.533505 V 5.8708194 h 7.033439 c 7.91002,0 10.64182,0.4677797 12.779182,2.1882431 1.699753,1.3682111 2.744561,3.4681205 2.94837,5.9257905 0.300809,3.627366 -1.087191,6.527703 -4.016789,8.393402 l -0.907606,0.578003 2.702223,5.119966 2.702222,5.119966 h -4.062212 -4.062211 l -2.224247,-4.658784 -2.224247,-4.658783 -1.77802,-0.02022 -1.778021,-0.02022 v 4.679002 4.679002 H 57.676895 54.120853 Z M 68.68058,17.323149 c 1.071364,-0.970236 1.093475,-3.659851 0.03876,-4.714567 -0.637731,-0.637731 -1.247734,-0.74864 -4.117522,-0.74864 h -3.368881 v 3.218965 3.218965 l 3.330122,-0.130824 c 2.625137,-0.103128 3.496815,-0.281782 4.117521,-0.843899 z"
   id="path153" /><path
   style="fill:#ffffff;stroke-width:0.37432"
   d="M 83.692145,19.533505 V 5.8708194 h 10.480964 10.480961 v 2.9945611 2.9945615 h -6.92492 -6.924923 v 2.05876 2.058761 h 4.117522 4.117521 v 2.994561 2.994561 h -4.117521 -4.117522 v 2.620241 2.620241 h 6.924923 6.92492 v 2.994562 2.994561 H 94.173109 83.692145 Z"
   id="path155" /><path
   style="fill:#ffffff;stroke-width:0.37432"
   d="M 111.01751,19.493143 V 5.7900955 l 7.01851,0.1744325 c 8.40382,0.208862 10.16247,0.6379941 12.82641,3.1298009 0.99034,0.9263421 2.17683,2.5387011 2.66489,3.6213971 0.77763,1.72507 0.88007,2.516489 0.88248,6.817779 0.003,4.481412 -0.0749,5.02894 -0.97898,6.924922 -2.52394,5.293065 -6.12651,6.729421 -16.89208,6.734935 l -5.52123,0.0028 z m 13.43686,6.610693 c 1.93626,-0.987809 2.47175,-2.411222 2.47175,-6.570331 0,-5.647907 -1.34377,-7.299243 -5.93972,-7.299243 h -2.48248 v 7.299243 7.299242 h 2.26083 c 1.50174,0 2.74056,-0.244739 3.68962,-0.728911 z"
   id="path157" /><path
   style="fill:#ffffff;stroke-width:0.37432"
   d="M 155.18729,19.533505 V 5.8708194 h 3.7432 3.7432 v 5.0533216 5.053322 h 4.49185 4.49184 V 10.924141 5.8708194 h 3.7432 3.7432 V 19.533505 33.19619 h -3.7432 -3.7432 v -5.427642 -5.427642 h -4.49184 -4.49185 v 5.427642 5.427642 h -3.7432 -3.7432 z"
   id="path159" /><path
   style="fill:#ffffff;stroke-width:0.37432"
   d="m 184.97114,32.36739 c 0.14934,-0.470603 2.33823,-6.582739 4.8642,-13.582526 l 4.59267,-12.7268845 3.73363,-0.106222 3.73362,-0.106222 0.37137,1.0420223 c 0.72317,2.0291026 9.15687,25.3542632 9.33858,25.8277862 0.14304,0.372759 -0.69862,0.480846 -3.74432,0.480846 h -3.92885 l -0.6586,-2.433081 -0.6586,-2.433081 h -4.36422 -4.36421 l -0.74756,2.339501 -0.74756,2.339501 -3.84584,0.107 -3.84584,0.107 z m 15.50889,-10.08893 c 0,-0.703648 -1.96252,-7.957389 -2.23931,-8.276823 -0.13887,-0.160262 -0.71072,1.439957 -1.27078,3.556041 -0.56005,2.116085 -1.10563,4.142204 -1.2124,4.502487 -0.17101,0.577077 0.0985,0.655061 2.26418,0.655061 1.62364,0 2.45831,-0.148295 2.45831,-0.436766 z"
   id="path161" /><path
   style="fill:#ffffff;stroke-width:0.37432"
   d="M 220.319,22.715226 V 12.234262 h -3.93037 -3.93036 V 9.0525406 5.8708194 h 11.41677 11.41676 v 3.1817212 3.1817214 h -3.7432 -3.7432 V 22.715226 33.19619 h -3.7432 -3.7432 z"
   id="path163" /><path
   style="fill:#ffffff;stroke-width:0.0661711"
   d="m 277.68189,32.811529 -0.87876,-1.058538 -0.57201,0.286589 c -1.10856,0.555416 -2.37152,0.955059 -3.81723,1.207903 -0.91694,0.160366 -3.2961,0.159794 -4.23211,-0.001 -3.00824,-0.51683 -5.56007,-1.855905 -7.54759,-3.960612 -4.31894,-4.573571 -4.71355,-11.767329 -0.9231,-16.827798 1.0444,-1.394325 2.78765,-2.8928978 4.18423,-3.5969281 l 0.41168,-0.207534 h 5.99257 5.99257 l 0.33247,0.1684733 c 1.00355,0.5085376 1.95035,1.1992488 2.89699,2.1134118 1.13546,1.096517 1.92888,2.157417 2.58142,3.451707 0.96566,1.915372 1.39737,3.752204 1.39737,5.945603 0,2.175739 -0.42781,4.00848 -1.37551,5.892768 -0.5788,1.150796 -1.47553,2.404372 -2.29158,3.203495 -0.20314,0.198924 -0.36935,0.384116 -0.36935,0.411539 0,0.02742 0.56576,0.738887 1.25725,1.581033 0.69149,0.842146 1.25725,1.550875 1.25725,1.574953 0,0.02408 -0.73698,0.218951 -1.63773,0.433053 -0.90076,0.214101 -1.66976,0.400787 -1.7089,0.414857 -0.0391,0.01407 -0.46661,-0.45076 -0.94993,-1.032956 z m -6.12538,-2.923834 c 0.32754,-0.03994 0.8748,-0.144969 1.21612,-0.233405 0.66107,-0.171286 1.67692,-0.564554 1.70931,-0.661728 0.0107,-0.03216 -0.69522,-0.928983 -1.56877,-1.99293 -0.87354,-1.063947 -1.58826,-1.958122 -1.58826,-1.987056 0,-0.02894 0.76458,-0.241241 1.69907,-0.471791 l 1.69907,-0.419184 0.17026,0.20659 c 0.0937,0.113625 0.61692,0.755565 1.16283,1.426535 0.54591,0.67097 1.02459,1.221815 1.06373,1.224099 0.0924,0.0054 0.65791,-0.695907 1.03715,-1.286181 1.15233,-1.793524 1.64747,-3.803686 1.49953,-6.087739 -0.0895,-1.382015 -0.41798,-2.605315 -1.02165,-3.804837 -1.22392,-2.432024 -3.39327,-4.166308 -6.00146,-4.797846 -3.27958,-0.794111 -6.65127,0.115129 -8.92172,2.405915 -1.367,1.379242 -2.21907,3.007701 -2.62042,5.008089 -0.16835,0.839052 -0.16835,2.99407 0,3.833122 0.40677,2.027407 1.259,3.644454 2.65264,5.033209 1.48585,1.480629 3.23883,2.337575 5.33115,2.606134 0.63804,0.08189 1.80541,0.08143 2.48142,-9.93e-4 z"
   id="path165" /><path
   style="fill:#ffffff;stroke-width:0.0661711"
   d="m 293.54875,33.332189 c -1.99052,-0.177217 -3.78641,-1.130752 -4.89786,-2.600547 -0.5053,-0.668219 -0.99609,-1.67867 -1.23142,-2.535269 l -0.17883,-0.650938 -0.0195,-6.468223 -0.0195,-6.468223 h 1.7557 1.7557 l 0.002,5.773426 c 0.002,6.21303 0.007,6.304834 0.35024,7.209108 0.0925,0.243713 0.27008,0.601037 0.39458,0.794053 0.27265,0.422734 0.8932,1.021955 1.31118,1.266121 0.74515,0.435283 1.98573,0.689106 3.01959,0.617809 1.50526,-0.103807 2.88799,-0.802654 3.78737,-1.914179 l 0.33251,-0.410951 v -6.667694 -6.667693 h 1.78662 1.78662 v 9.19778 9.197779 h -1.78662 -1.78662 v -0.928085 -0.928085 l -0.44049,0.37368 c -1.23553,1.048138 -2.58687,1.627607 -4.22457,1.811543 -0.6564,0.07372 -0.8549,0.07356 -1.697,-0.0014 z"
   id="path167" /><path
   style="fill:#ffffff;stroke-width:0.132342"
   d="m 312.08007,33.197564 c -0.53292,-0.08921 -1.61208,-0.453298 -2.18365,-0.736724 -3.49533,-1.733241 -4.02106,-6.526759 -0.96275,-8.778162 2.44127,-1.797158 6.64431,-2.003918 10.3475,-0.509024 0.24356,0.09832 0.24993,0.04245 0.16826,-1.476458 -0.10082,-1.875059 -0.33346,-2.642777 -1.01301,-3.343013 -0.80578,-0.830293 -1.74259,-1.123186 -3.57717,-1.11839 -1.72194,0.0045 -2.91211,0.265099 -4.65796,1.019906 l -1.04279,0.450841 -0.65256,-1.300382 -0.65257,-1.300383 0.95536,-0.39448 c 2.50791,-1.035556 4.18673,-1.394899 6.51372,-1.394228 3.35792,9.67e-4 5.48052,0.979533 6.72249,3.099218 0.72633,1.239637 0.75484,1.575225 0.75484,8.886379 v 6.721645 h -1.65428 -1.65427 v -0.794053 c 0,-0.436729 -0.033,-0.794053 -0.0734,-0.794053 -0.0404,0 -0.46789,0.237913 -0.95001,0.528695 -0.99536,0.60033 -2.04224,1.0202 -2.99354,1.200609 -0.63913,0.12121 -2.74291,0.14108 -3.39419,0.03206 z m 4.64766,-2.740819 c 0.75815,-0.233797 1.63577,-0.669884 2.20104,-1.093697 l 0.43011,-0.322474 v -1.718416 -1.718416 l -0.62862,-0.270374 c -1.30344,-0.560612 -2.14758,-0.710131 -4.01681,-0.711483 -1.79728,-0.0013 -1.8015,-5.82e-4 -2.70745,0.461894 -1.11306,0.568205 -1.61392,1.208744 -1.7333,2.216674 -0.18944,1.599529 0.96928,2.927572 2.91993,3.346608 0.72213,0.155128 2.77292,0.04472 3.5351,-0.190316 z"
   id="path169" /><path
   style="fill:#ffffff;stroke-width:0.132342"
   d="m 326.4061,40.355373 c -0.11803,-0.05301 -0.16542,-0.497723 -0.16542,-1.552123 v -1.477821 h 1.3565 c 1.54975,0 2.05891,-0.190517 2.88792,-1.08061 0.61188,-0.656954 0.79801,-0.968143 1.29921,-2.172073 l 0.41392,-0.994296 -3.58973,-8.993251 c -1.97436,-4.946289 -3.61953,-9.097472 -3.65593,-9.224851 -0.0608,-0.212921 0.0872,-0.231531 1.83512,-0.23076 l 1.90132,8.38e-4 2.70518,7.080678 c 1.48785,3.894373 2.74779,7.035468 2.79986,6.98021 0.0521,-0.05526 1.4067,-3.227051 3.01029,-7.048431 l 2.91562,-6.947963 1.86111,-0.03672 c 1.02361,-0.0202 1.86111,-0.0043 1.86111,0.03543 0,0.157084 -8.66566,20.195385 -9.22642,21.334979 -1.0171,2.067014 -2.32122,3.423741 -3.87545,4.031812 -0.58237,0.22784 -1.07183,0.293217 -2.44833,0.327016 -0.94625,0.02323 -1.79489,0.0088 -1.88588,-0.03206 z"
   id="path171" /><path
   style="fill:#ffffff;stroke-width:0.132342"
   d="m 343.62831,33.035807 c -1.04681,-0.475372 -1.594,-1.657602 -1.24986,-2.700352 0.20059,-0.607811 1.05339,-1.374434 1.65435,-1.487174 0.80059,-0.150192 1.40402,0.04512 2.00923,0.650338 0.68255,0.68255 0.85999,1.458794 0.51965,2.273344 -0.28583,0.684084 -0.56159,0.976089 -1.19756,1.26813 -0.66904,0.307223 -1.05193,0.306277 -1.73581,-0.0043 z"
   id="path173" /><path
   style="fill:#ffffff;stroke-width:0.132342"
   d="m 351.65037,23.826529 v -9.19778 h 1.72045 1.72045 v 9.19778 9.19778 h -1.72045 -1.72045 z"
   id="path175" /><path
   style="fill:#ffffff;stroke-width:0.132342"
   d="m 365.84135,33.029841 c -3.2763,-0.884079 -6.00798,-3.629375 -6.84098,-6.875079 -0.62925,-2.451773 -0.26663,-5.027132 1.01728,-7.224893 0.6398,-1.095199 2.24998,-2.727132 3.30635,-3.351007 1.73263,-1.023272 4.04871,-1.505091 5.98776,-1.245648 2.33841,0.312876 3.91738,1.10035 5.64172,2.813671 0.92309,0.917193 1.24945,1.355577 1.74267,2.34083 0.83214,1.662268 1.07436,2.827733 0.99357,4.780653 -0.10483,2.534202 -0.92213,4.388122 -2.74713,6.231464 -1.14434,1.155838 -2.27008,1.856822 -3.77175,2.348613 -1.46663,0.480314 -3.91313,0.563585 -5.32949,0.181396 z m 4.19254,-3.035448 c 1.62693,-0.506357 2.88601,-1.611533 3.64845,-3.202477 2.29098,-4.780482 -1.2968,-10.090779 -6.33507,-9.37657 -2.9614,0.419798 -5.23727,3.177048 -5.23727,6.345012 0,2.204242 1.17237,4.445308 2.90818,5.559174 1.42252,0.912831 3.39737,1.178546 5.01571,0.674861 z"
   id="path177" /><path
   style="fill:#ffffff;stroke-width:0.132342"
   d="m 352.30172,11.151618 c -1.28579,-0.866488 -1.41788,-2.3786451 -0.29922,-3.4254164 1.39774,-1.3079312 3.70623,-0.039513 3.44691,1.8939299 -0.0814,0.6065725 -0.60712,1.3520215 -1.15247,1.6340315 -0.57738,0.298578 -1.46791,0.252809 -1.99522,-0.102545 z"
   id="path179" /><path
   style="fill:#ffffff;stroke-width:0.0165428"
   d="M 241.1631,8.9862921 V 7.0417818 l 0.98016,0.00487 0.98016,0.00487 0.10752,0.044107 c 0.0591,0.024259 0.14103,0.049236 0.18197,0.055503 0.1176,0.018003 0.22166,0.085208 0.36969,0.2387698 0.15191,0.1575826 0.31279,0.4080489 0.34049,0.5301147 0.009,0.040943 0.017,0.1600513 0.0171,0.2646843 3.7e-4,0.3714126 -0.0962,0.6650713 -0.26705,0.8116746 -0.11916,0.1022762 -0.2623,0.1973054 -0.40644,0.2698395 -0.066,0.033194 -0.11994,0.067735 -0.11994,0.076757 0,0.00902 0.17494,0.3662211 0.38876,0.7937763 0.21381,0.427554 0.38875,0.781125 0.38875,0.785712 0,0.0046 -0.17307,0.0081 -0.38462,0.0077 l -0.38461,-5.93e-4 -0.39792,-0.747967 -0.39792,-0.747967 -0.35892,-0.00446 -0.35891,-0.00446 v 0.753019 0.753019 h -0.33913 -0.33912 z m 2.10972,-0.1756553 c 0.0729,-0.039979 0.20376,-0.1858717 0.23921,-0.2666709 0.0583,-0.1328863 0.0575,-0.1750406 -0.007,-0.3865471 -0.0803,-0.2630482 -0.12543,-0.3343989 -0.24167,-0.3816413 -0.0876,-0.035612 -0.10881,-0.036728 -0.70655,-0.037221 l -0.61622,-5.082e-4 v 0.5550761 0.5550761 l 0.64103,-0.00503 c 0.56032,-0.0044 0.64735,-0.00849 0.69118,-0.032534 z"
   id="path181" /><path
   style="fill:#ffffff;stroke-width:0.0165428"
   d="m 242.32109,12.623211 c -0.27244,-0.0161 -0.64801,-0.09157 -0.89331,-0.179519 -0.18702,-0.06705 -0.64682,-0.304333 -0.85054,-0.438924 -0.41609,-0.274903 -1.02067,-0.993305 -1.30093,-1.545858 -0.26458,-0.5216469 -0.36688,-1.1789245 -0.28833,-1.852468 0.0563,-0.4826461 0.1838,-0.8428894 0.4807,-1.3580632 0.1848,-0.3206728 0.29362,-0.4472259 0.68497,-0.7965724 l 0.1899,-0.1695221 0.58761,0.00118 c 0.58617,0.00118 0.58736,0.00125 0.48735,0.029889 -0.18181,0.052067 -0.57787,0.2865153 -0.83649,0.4951643 -0.26381,0.2128363 -0.55377,0.6163333 -0.6754,0.9398584 -0.0304,0.080756 -0.08,0.210517 -0.11025,0.288357 -0.10691,0.2748946 -0.15466,0.5868939 -0.15504,1.0129827 -2.8e-4,0.3231463 0.036,0.588045 0.14312,1.0456783 0.0513,0.218897 0.0704,0.270918 0.16287,0.441404 0.25068,0.462396 0.46956,0.724022 0.83904,1.002902 0.16515,0.124651 0.31839,0.209233 0.56027,0.309257 0.39595,0.163737 0.61327,0.197619 1.19296,0.185996 0.41131,-0.0082 0.52606,-0.02359 0.98085,-0.13117 0.23249,-0.05499 0.34689,-0.105363 0.65826,-0.289838 0.39596,-0.234582 0.59502,-0.375339 0.69905,-0.494289 0.23069,-0.263788 0.33743,-0.430674 0.46259,-0.723223 0.15998,-0.373935 0.19851,-0.5538872 0.21674,-1.0123781 0.0175,-0.4396332 -0.0315,-0.8769119 -0.14234,-1.2709082 -0.0587,-0.2087806 -0.17327,-0.4294928 -0.45219,-0.8713805 -0.13971,-0.2213458 -0.20965,-0.3148123 -0.29709,-0.3970264 -0.2388,-0.2245304 -0.50786,-0.3877558 -0.79251,-0.4807722 -0.0817,-0.026708 -0.16098,-0.055786 -0.17611,-0.064618 -0.0182,-0.010608 0.1672,-0.016228 0.54628,-0.016561 l 0.57379,-5.03e-4 0.0962,0.1106565 c 0.0529,0.060861 0.15091,0.1699157 0.21779,0.2423436 0.46994,0.5089434 0.77854,1.0378161 0.91161,1.5623222 0.16115,0.6351137 0.11698,1.4565757 -0.10914,2.0297731 -0.15434,0.391221 -0.45602,0.888825 -0.66599,1.098481 -0.56682,0.565987 -1.15331,0.97109 -1.64229,1.134369 -0.38918,0.129957 -0.86226,0.189084 -1.30399,0.162981 z"
   id="path183" /><path
   style="fill:#ffffff;stroke-width:0.0661711"
   d="m 264.8537,8.3931495 c 1.80162,-0.8414241 4.28833,-1.2667913 6.42289,-1.0986742 1.58685,0.1249801 3.32997,0.5549646 4.47191,1.1031084 l 0.4632,0.2223404 -5.92232,2.515e-4 -5.92231,2.514e-4 0.48663,-0.2272717 z"
   id="path54" /><path
   style="fill:#ffffff;stroke-width:0.0165428"
   d="m 241.4697,6.2871172 c -0.005,-0.00463 -0.25364,-0.01256 -0.55337,-0.017624 l -0.54495,-0.00921 0.16905,-0.1258184 c 0.66493,-0.4948858 1.22265,-0.6828687 2.02184,-0.6814765 0.42583,7.417e-4 0.77314,0.05674 1.12014,0.1806071 0.27383,0.097745 0.84968,0.4169226 1.03612,0.5742934 l 0.0719,0.060666 -0.39445,0.00185 c -0.21696,0.00102 -0.46518,0.0066 -0.55162,0.012407 -0.1395,0.00937 -0.16923,0.00618 -0.26468,-0.028368 -0.23141,-0.083765 -0.37894,-0.1043254 -0.81495,-0.1135712 -0.45971,-0.00975 -0.61983,0.00575 -1.04841,0.101465 -0.13099,0.029255 -0.24196,0.049403 -0.24659,0.044774 z"
   id="path56" /></svg>
