<?xml version="1.0" encoding="UTF-8"?><svg xmlns="http://www.w3.org/2000/svg" viewBox="0 0 38 38"><defs><style>.uuid-23a3b5e7-7754-4944-ba28-ee65a961ddb5{fill:#e00;}.uuid-ae5d5ef3-b20b-4019-a4e7-edacfaea4c0f{fill:#fff;}.uuid-22893ca1-098b-4a2a-9d45-3cbc5b9869a0{fill:#4d4d4d;}</style></defs><g id="uuid-16df5206-ca64-41dd-b57e-55c66370cb99"><rect x="1" y="1" width="36" height="36" rx="9" ry="9"/><path class="uuid-22893ca1-098b-4a2a-9d45-3cbc5b9869a0" d="m28,2.25c4.27336,0,7.75,3.47664,7.75,7.75v18c0,4.27336-3.47664,7.75-7.75,7.75H10c-4.27336,0-7.75-3.47664-7.75-7.75V10c0-4.27336,3.47664-7.75,7.75-7.75h18m0-1.25H10C5.02944,1,1,5.02943,1,10v18c0,4.97057,4.02944,9,9,9h18c4.97056,0,9-4.02943,9-9V10c0-4.97057-4.02944-9-9-9h0Z"/></g><g id="uuid-7286850b-1f74-416c-a901-1d5903be7592"><path class="uuid-23a3b5e7-7754-4944-ba28-ee65a961ddb5" d="m15.49951,29.5249c-.10303,0-.20703-.02539-.30322-.07861-.30176-.16748-.41016-.54834-.24268-.8501l3.5-6.2998c.16699-.30176.54541-.41064.8501-.24268.30176.16748.41016.54834.24219.8501l-3.49951,6.2998c-.11426.20557-.32715.32129-.54688.32129Z"/><path class="uuid-ae5d5ef3-b20b-4019-a4e7-edacfaea4c0f" d="m15.50049,29.5249c-.21973,0-.43262-.11572-.54688-.32129l-5.5-9.8999c-.10498-.18896-.10498-.41846,0-.60742l5.5-9.8999c.16846-.30127.54883-.40918.8501-.24268.30176.16748.41016.54834.24268.8501l-5.33154,9.59619,5.33154,9.59619c.16748.30176.05908.68262-.24268.8501-.09619.05322-.20068.07861-.30322.07861Z"/><path class="uuid-23a3b5e7-7754-4944-ba28-ee65a961ddb5" d="m22.49902,29.5249c-.10254,0-.20605-.02539-.30273-.07861-.30176-.16748-.41016-.54834-.24219-.8501l5.5-9.8999c.16602-.30176.5459-.41064.84961-.24268.30176.16748.41016.54834.24219.8501l-5.5,9.8999c-.11328.20557-.32715.32129-.54688.32129Z"/><path class="uuid-23a3b5e7-7754-4944-ba28-ee65a961ddb5" d="m19.00098,16.0249c-.22021,0-.43311-.11572-.54736-.32129l-3.5-6.2998c-.16748-.30176-.05908-.68262.24268-.8501s.68213-.05908.8501.24268l3.49951,6.2998c.16797.30176.05957.68262-.24219.8501-.09668.05322-.2002.07861-.30273.07861Z"/><path class="uuid-ae5d5ef3-b20b-4019-a4e7-edacfaea4c0f" d="m22.50098,29.5249c-.21973,0-.43262-.11572-.54688-.32129l-5.50049-9.8999c-.10498-.18896-.10498-.41846,0-.60742l5.50049-9.8999c.16602-.30176.5459-.41016.84961-.24268.30176.16748.41016.54834.24219.8501l-5.33105,9.59619,5.33105,9.59619c.16797.30176.05957.68262-.24219.8501-.09668.05322-.2002.07861-.30273.07861Z"/><path class="uuid-23a3b5e7-7754-4944-ba28-ee65a961ddb5" d="m28.00098,19.625c-.21973,0-.43262-.11572-.54688-.32129l-5.5-9.8999c-.16797-.30176-.05957-.68262.24219-.8501.30371-.16748.68164-.05908.84961.24268l5.5,9.8999c.16797.30176.05957.68262-.24219.8501-.09668.05322-.2002.07861-.30273.07861Z"/></g></svg>
